%TF.GenerationSoftware,KiCad,Pcbnew,6.0.2+dfsg-1*%
%TF.CreationDate,2023-01-25T17:32:23+01:00*%
%TF.ProjectId,SK25,534b3235-2e6b-4696-9361-645f70636258,rev?*%
%TF.SameCoordinates,Original*%
%TF.FileFunction,Copper,L2,Bot*%
%TF.FilePolarity,Positive*%
%FSLAX46Y46*%
G04 Gerber Fmt 4.6, Leading zero omitted, Abs format (unit mm)*
G04 Created by KiCad (PCBNEW 6.0.2+dfsg-1) date 2023-01-25 17:32:23*
%MOMM*%
%LPD*%
G01*
G04 APERTURE LIST*
%TA.AperFunction,ComponentPad*%
%ADD10O,1.747520X2.499360*%
%TD*%
%TA.AperFunction,ComponentPad*%
%ADD11C,1.300000*%
%TD*%
%TA.AperFunction,ComponentPad*%
%ADD12C,1.600000*%
%TD*%
%TA.AperFunction,ComponentPad*%
%ADD13R,1.600000X1.600000*%
%TD*%
%TA.AperFunction,ComponentPad*%
%ADD14O,1.600000X1.600000*%
%TD*%
%TA.AperFunction,ComponentPad*%
%ADD15R,1.800000X1.800000*%
%TD*%
%TA.AperFunction,ComponentPad*%
%ADD16C,1.800000*%
%TD*%
%TA.AperFunction,ComponentPad*%
%ADD17C,2.200000*%
%TD*%
%TA.AperFunction,ViaPad*%
%ADD18C,1.000000*%
%TD*%
%TA.AperFunction,Conductor*%
%ADD19C,0.350000*%
%TD*%
G04 APERTURE END LIST*
D10*
%TO.P,Q9,1,E*%
%TO.N,Net-(Q9-Pad1)*%
X156362400Y-106045000D03*
%TO.P,Q9,2,C*%
%TO.N,Net-(D3-Pad2)*%
X158750000Y-106045000D03*
%TO.P,Q9,3,B*%
%TO.N,Net-(D5-Pad2)*%
X161137600Y-106045000D03*
%TD*%
%TO.P,Q10,1,E*%
%TO.N,Net-(Q10-Pad1)*%
X161290000Y-85090000D03*
%TO.P,Q10,2,C*%
%TO.N,Net-(C2-Pad2)*%
X158902400Y-85090000D03*
%TO.P,Q10,3,B*%
%TO.N,Net-(C1-Pad1)*%
X156514800Y-85090000D03*
%TD*%
D11*
%TO.P,Q8,3,E*%
%TO.N,Net-(C2-Pad1)*%
X160020000Y-89260000D03*
%TO.P,Q8,2,B*%
%TO.N,Net-(Q6-Pad3)*%
X158750000Y-87990000D03*
%TO.P,Q8,1,C*%
%TO.N,Net-(C1-Pad1)*%
X157480000Y-89260000D03*
%TD*%
%TO.P,Q7,3,E*%
%TO.N,Net-(Q7-Pad3)*%
X161565000Y-103505000D03*
%TO.P,Q7,2,B*%
%TO.N,Net-(D3-Pad1)*%
X162835000Y-102235000D03*
%TO.P,Q7,1,C*%
%TO.N,Net-(D5-Pad2)*%
X161565000Y-100965000D03*
%TD*%
%TO.P,Q6,1,C*%
%TO.N,Net-(D4-Pad1)*%
X159766000Y-96520000D03*
%TO.P,Q6,2,B*%
%TO.N,Net-(D9-Pad2)*%
X161036000Y-95250000D03*
%TO.P,Q6,3,E*%
%TO.N,Net-(Q6-Pad3)*%
X162306000Y-96520000D03*
%TD*%
%TO.P,Q5,1,C*%
%TO.N,Net-(Q3-Pad2)*%
X142240000Y-89810000D03*
%TO.P,Q5,2,B*%
X140970000Y-91080000D03*
%TO.P,Q5,3,E*%
%TO.N,Net-(Q5-Pad3)*%
X139700000Y-89810000D03*
%TD*%
%TO.P,Q4,1,C*%
%TO.N,Net-(D9-Pad2)*%
X139700000Y-85725000D03*
%TO.P,Q4,2,B*%
%TO.N,Net-(Q3-Pad2)*%
X140970000Y-84455000D03*
%TO.P,Q4,3,E*%
%TO.N,Net-(Q4-Pad3)*%
X142240000Y-85725000D03*
%TD*%
%TO.P,Q3,1,E*%
%TO.N,Net-(L1-Pad2)*%
X152400000Y-87630000D03*
%TO.P,Q3,2,C*%
%TO.N,Net-(Q3-Pad2)*%
X153670000Y-88900000D03*
%TO.P,Q3,3,B*%
%TO.N,Net-(D1-Pad2)*%
X152400000Y-90170000D03*
%TD*%
%TO.P,Q2,3,B*%
%TO.N,Net-(D1-Pad1)*%
X148315000Y-87630000D03*
%TO.P,Q2,2,C*%
%TO.N,Net-(D9-Pad2)*%
X147045000Y-88900000D03*
%TO.P,Q2,1,E*%
%TO.N,Net-(L1-Pad1)*%
X148315000Y-90170000D03*
%TD*%
%TO.P,Q1,1,C*%
%TO.N,Net-(Q1-Pad1)*%
X144780000Y-105770000D03*
%TO.P,Q1,2,B*%
%TO.N,Net-(D3-Pad1)*%
X146050000Y-104500000D03*
%TO.P,Q1,3,E*%
%TO.N,Net-(Q1-Pad3)*%
X147320000Y-105770000D03*
%TD*%
D12*
%TO.P,C1,1*%
%TO.N,Net-(C1-Pad1)*%
X163810000Y-92456000D03*
%TO.P,C1,2*%
%TO.N,Net-(C1-Pad2)*%
X161310000Y-92456000D03*
%TD*%
D13*
%TO.P,D1,1,K*%
%TO.N,Net-(D1-Pad1)*%
X142240000Y-93980000D03*
D14*
%TO.P,D1,2,A*%
%TO.N,Net-(D1-Pad2)*%
X142240000Y-96520000D03*
%TD*%
D13*
%TO.P,D2,1,K*%
%TO.N,Net-(D1-Pad2)*%
X139700000Y-96675686D03*
D14*
%TO.P,D2,2,A*%
%TO.N,Net-(D1-Pad1)*%
X139700000Y-94135686D03*
%TD*%
D15*
%TO.P,D3,1,K*%
%TO.N,Net-(D3-Pad1)*%
X154305000Y-100965000D03*
D16*
%TO.P,D3,2,A*%
%TO.N,Net-(D3-Pad2)*%
X154305000Y-103505000D03*
%TD*%
D13*
%TO.P,D4,1,K*%
%TO.N,Net-(D4-Pad1)*%
X153260315Y-84582000D03*
D14*
%TO.P,D4,2,A*%
%TO.N,Net-(C2-Pad2)*%
X150720315Y-84582000D03*
%TD*%
D13*
%TO.P,D5,1,K*%
%TO.N,Net-(D5-Pad1)*%
X163830000Y-109728000D03*
D14*
%TO.P,D5,2,A*%
%TO.N,Net-(D5-Pad2)*%
X153670000Y-109728000D03*
%TD*%
D13*
%TO.P,D6,1,K*%
%TO.N,Net-(C1-Pad1)*%
X152908000Y-81280000D03*
D14*
%TO.P,D6,2,A*%
%TO.N,Net-(D6-Pad2)*%
X163068000Y-81280000D03*
%TD*%
D13*
%TO.P,D7,1,K*%
%TO.N,Net-(D5-Pad2)*%
X166370000Y-96040686D03*
D14*
%TO.P,D7,2,A*%
%TO.N,Net-(D7-Pad2)*%
X166370000Y-93500686D03*
%TD*%
D13*
%TO.P,D8,1,K*%
%TO.N,Net-(D7-Pad2)*%
X166370000Y-88138000D03*
D14*
%TO.P,D8,2,A*%
%TO.N,Net-(C1-Pad1)*%
X166370000Y-90678000D03*
%TD*%
D13*
%TO.P,D9,1,K*%
%TO.N,Net-(C1-Pad1)*%
X152654000Y-92554315D03*
D14*
%TO.P,D9,2,A*%
%TO.N,Net-(D9-Pad2)*%
X152654000Y-95094315D03*
%TD*%
D17*
%TO.P,J2,1,Pin_1*%
%TO.N,Net-(D1-Pad1)*%
X148590000Y-92710000D03*
%TD*%
%TO.P,J3,1,Pin_1*%
%TO.N,Net-(D3-Pad2)*%
X168910000Y-105410000D03*
%TD*%
%TO.P,J4,1,Pin_1*%
%TO.N,Net-(D7-Pad2)*%
X168910000Y-90170000D03*
%TD*%
%TO.P,J5,1,Pin_1*%
%TO.N,Net-(C2-Pad2)*%
X168910000Y-95250000D03*
%TD*%
D12*
%TO.P,L1,1,1*%
%TO.N,Net-(L1-Pad1)*%
X151405000Y-98425000D03*
D14*
%TO.P,L1,2,2*%
%TO.N,Net-(L1-Pad2)*%
X153945000Y-98425000D03*
%TD*%
D12*
%TO.P,R1,1*%
%TO.N,Net-(D3-Pad2)*%
X152810000Y-106045000D03*
D14*
%TO.P,R1,2*%
%TO.N,Net-(Q1-Pad3)*%
X150270000Y-106045000D03*
%TD*%
D12*
%TO.P,R2,1*%
%TO.N,Net-(Q1-Pad1)*%
X144780000Y-101375000D03*
D14*
%TO.P,R2,2*%
%TO.N,Net-(L1-Pad1)*%
X144780000Y-98835000D03*
%TD*%
D12*
%TO.P,R3,1*%
%TO.N,Net-(Q1-Pad1)*%
X148815000Y-102235000D03*
D14*
%TO.P,R3,2*%
%TO.N,Net-(L1-Pad2)*%
X151355000Y-102235000D03*
%TD*%
D12*
%TO.P,R4,1*%
%TO.N,Net-(Q4-Pad3)*%
X145005000Y-84582000D03*
D14*
%TO.P,R4,2*%
%TO.N,Net-(C2-Pad2)*%
X147545000Y-84582000D03*
%TD*%
D12*
%TO.P,R5,1*%
%TO.N,Net-(Q5-Pad3)*%
X145415000Y-94390000D03*
D14*
%TO.P,R5,2*%
%TO.N,Net-(C2-Pad2)*%
X145415000Y-91850000D03*
%TD*%
D12*
%TO.P,R6,1*%
%TO.N,Net-(D3-Pad1)*%
X158115000Y-103280000D03*
D14*
%TO.P,R6,2*%
%TO.N,Net-(D4-Pad1)*%
X158115000Y-100740000D03*
%TD*%
D12*
%TO.P,R7,1*%
%TO.N,Net-(C1-Pad2)*%
X158242000Y-92456000D03*
D14*
%TO.P,R7,2*%
%TO.N,Net-(D9-Pad2)*%
X155702000Y-92456000D03*
%TD*%
D12*
%TO.P,R8,1*%
%TO.N,Net-(Q6-Pad3)*%
X169897000Y-85090000D03*
D14*
%TO.P,R8,2*%
%TO.N,Net-(C2-Pad2)*%
X172437000Y-85090000D03*
%TD*%
D12*
%TO.P,R9,1*%
%TO.N,Net-(D3-Pad2)*%
X166116000Y-106045000D03*
D14*
%TO.P,R9,2*%
%TO.N,Net-(Q7-Pad3)*%
X166116000Y-103505000D03*
%TD*%
D12*
%TO.P,R10,1*%
%TO.N,Net-(D5-Pad1)*%
X165735000Y-101121000D03*
D14*
%TO.P,R10,2*%
%TO.N,Net-(D6-Pad2)*%
X165735000Y-98581000D03*
%TD*%
D12*
%TO.P,R12,1*%
%TO.N,Net-(Q9-Pad1)*%
X156845000Y-98835000D03*
D14*
%TO.P,R12,2*%
%TO.N,Net-(D7-Pad2)*%
X156845000Y-96295000D03*
%TD*%
D12*
%TO.P,R13,1*%
%TO.N,Net-(D7-Pad2)*%
X163576000Y-89945000D03*
D14*
%TO.P,R13,2*%
%TO.N,Net-(Q10-Pad1)*%
X163576000Y-87405000D03*
%TD*%
D17*
%TO.P,J6,1,Pin_1*%
%TO.N,GND*%
X168910000Y-100330000D03*
%TD*%
%TO.P,J1,1,Pin_1*%
%TO.N,Net-(D1-Pad2)*%
X148590000Y-97790000D03*
%TD*%
D12*
%TO.P,C2,1*%
%TO.N,Net-(C2-Pad1)*%
X164485000Y-85090000D03*
%TO.P,C2,2*%
%TO.N,Net-(C2-Pad2)*%
X166985000Y-85090000D03*
%TD*%
%TO.P,R11,1*%
%TO.N,Net-(C2-Pad1)*%
X172085000Y-87347000D03*
D14*
%TO.P,R11,2*%
%TO.N,Net-(C2-Pad2)*%
X172085000Y-89887000D03*
%TD*%
D18*
%TO.N,Net-(C1-Pad1)*%
X149098000Y-82804000D03*
%TO.N,Net-(D4-Pad1)*%
X155702000Y-90424000D03*
%TO.N,Net-(D9-Pad2)*%
X155448000Y-95094315D03*
%TD*%
D19*
%TO.N,Net-(D7-Pad2)*%
X166370000Y-93500686D02*
X168910000Y-90960686D01*
X168910000Y-90960686D02*
X168910000Y-90170000D01*
X164084000Y-95786686D02*
X166370000Y-93500686D01*
%TO.N,Net-(C1-Pad2)*%
X161310000Y-92456000D02*
X158242000Y-92456000D01*
%TO.N,Net-(C1-Pad1)*%
X157480000Y-89260000D02*
X155596000Y-89260000D01*
X155088000Y-89260000D02*
X152654000Y-91694000D01*
X155596000Y-89260000D02*
X155088000Y-89260000D01*
X156514800Y-86817200D02*
X154635200Y-86817200D01*
X154635200Y-86817200D02*
X153924000Y-86106000D01*
X164592000Y-92456000D02*
X166370000Y-90678000D01*
X155596000Y-88244000D02*
X155596000Y-89260000D01*
X153924000Y-86106000D02*
X149860000Y-86106000D01*
X158898000Y-90678000D02*
X161798000Y-90678000D01*
X149860000Y-86106000D02*
X149098000Y-85344000D01*
X156514800Y-86817200D02*
X156514800Y-87325200D01*
X157480000Y-89260000D02*
X158898000Y-90678000D01*
X156514800Y-87325200D02*
X155596000Y-88244000D01*
X149098000Y-85344000D02*
X149098000Y-82804000D01*
X163810000Y-92456000D02*
X164592000Y-92456000D01*
X152654000Y-91694000D02*
X152654000Y-92554315D01*
X156514800Y-85090000D02*
X156514800Y-86817200D01*
X163576000Y-92456000D02*
X163810000Y-92456000D01*
X161798000Y-90678000D02*
X163576000Y-92456000D01*
%TO.N,Net-(C2-Pad1)*%
X163830000Y-85090000D02*
X164485000Y-85090000D01*
X166009000Y-86614000D02*
X164485000Y-85090000D01*
X164485000Y-84582000D02*
X164338000Y-84582000D01*
X161290000Y-87630000D02*
X161290000Y-87990000D01*
X172085000Y-87347000D02*
X171352000Y-86614000D01*
X171352000Y-86614000D02*
X166009000Y-86614000D01*
X161290000Y-87630000D02*
X163830000Y-85090000D01*
X161290000Y-87990000D02*
X160020000Y-89260000D01*
%TO.N,Net-(C2-Pad2)*%
X172437000Y-84299000D02*
X171704000Y-83566000D01*
X151384000Y-83058000D02*
X150720315Y-83721685D01*
X167132000Y-83566000D02*
X163068000Y-83566000D01*
X158902400Y-83159600D02*
X159004000Y-83058000D01*
X172085000Y-90043000D02*
X168910000Y-93218000D01*
X172437000Y-84582000D02*
X172437000Y-84299000D01*
X171704000Y-83566000D02*
X167132000Y-83566000D01*
X168910000Y-93218000D02*
X168910000Y-95250000D01*
X163068000Y-83566000D02*
X162560000Y-83058000D01*
X150720315Y-83721685D02*
X150720315Y-84582000D01*
X172085000Y-89887000D02*
X172085000Y-90043000D01*
X159004000Y-83058000D02*
X151384000Y-83058000D01*
X158902400Y-85090000D02*
X158902400Y-83159600D01*
X162560000Y-83058000D02*
X159004000Y-83058000D01*
X166985000Y-83713000D02*
X167132000Y-83566000D01*
X166985000Y-85090000D02*
X166985000Y-83713000D01*
%TO.N,Net-(D1-Pad1)*%
X142240000Y-93980000D02*
X144272000Y-96012000D01*
X148590000Y-93980000D02*
X148590000Y-92710000D01*
X146558000Y-96012000D02*
X148590000Y-93980000D01*
X139700000Y-94135686D02*
X142084314Y-94135686D01*
X144272000Y-96012000D02*
X146558000Y-96012000D01*
X142084314Y-94135686D02*
X142240000Y-93980000D01*
%TO.N,Net-(D1-Pad2)*%
X142875000Y-97155000D02*
X146177000Y-97155000D01*
X142240000Y-96520000D02*
X139855686Y-96520000D01*
X146177000Y-97155000D02*
X146812000Y-97790000D01*
X150368000Y-93472000D02*
X150368000Y-91440000D01*
X139855686Y-96520000D02*
X139700000Y-96675686D01*
X150368000Y-91440000D02*
X151638000Y-90170000D01*
X142240000Y-96520000D02*
X142875000Y-97155000D01*
X151638000Y-90170000D02*
X152400000Y-90170000D01*
X148590000Y-95250000D02*
X150368000Y-93472000D01*
X146812000Y-97790000D02*
X148590000Y-97790000D01*
X148590000Y-97790000D02*
X148590000Y-95250000D01*
%TO.N,Net-(D3-Pad1)*%
X154305000Y-101282500D02*
X151447500Y-104140000D01*
X162835000Y-102235000D02*
X159160000Y-102235000D01*
X159160000Y-102235000D02*
X158115000Y-103280000D01*
X151447500Y-104140000D02*
X146410000Y-104140000D01*
X154305000Y-100965000D02*
X154305000Y-101282500D01*
X155575000Y-102235000D02*
X154305000Y-100965000D01*
X157070000Y-102235000D02*
X155575000Y-102235000D01*
X158115000Y-103280000D02*
X157070000Y-102235000D01*
X146410000Y-104140000D02*
X146050000Y-104500000D01*
%TO.N,Net-(D3-Pad2)*%
X168910000Y-105410000D02*
X166751000Y-105410000D01*
X166751000Y-105410000D02*
X166116000Y-106045000D01*
X158750000Y-107696000D02*
X158496000Y-107950000D01*
X158750000Y-106045000D02*
X158750000Y-105918000D01*
X153670000Y-107950000D02*
X158496000Y-107950000D01*
X164211000Y-107950000D02*
X166116000Y-106045000D01*
X152810000Y-105000000D02*
X154305000Y-103505000D01*
X152810000Y-106045000D02*
X152810000Y-107090000D01*
X158496000Y-107950000D02*
X159385000Y-107950000D01*
X158750000Y-106045000D02*
X158750000Y-107696000D01*
X152810000Y-107090000D02*
X153670000Y-107950000D01*
X159385000Y-107950000D02*
X163830000Y-107950000D01*
X152810000Y-106045000D02*
X152810000Y-105000000D01*
X163830000Y-107950000D02*
X164211000Y-107950000D01*
%TO.N,Net-(D4-Pad1)*%
X154178000Y-93413505D02*
X154744495Y-93980000D01*
X155448000Y-90424000D02*
X154178000Y-91694000D01*
X155702000Y-90424000D02*
X155448000Y-90424000D01*
X156972000Y-93980000D02*
X159512000Y-96520000D01*
X154178000Y-91694000D02*
X154178000Y-93413505D01*
X159512000Y-96520000D02*
X159766000Y-96520000D01*
X154744495Y-93980000D02*
X156972000Y-93980000D01*
%TO.N,Net-(D5-Pad2)*%
X165100000Y-96266000D02*
X165325314Y-96040686D01*
X161565000Y-100965000D02*
X161565000Y-100563000D01*
X165325314Y-96040686D02*
X166370000Y-96040686D01*
X161565000Y-100563000D02*
X165100000Y-97028000D01*
X165100000Y-97028000D02*
X165100000Y-96266000D01*
%TO.N,Net-(D7-Pad2)*%
X165383000Y-88138000D02*
X166370000Y-88138000D01*
X168402000Y-88138000D02*
X168910000Y-88646000D01*
X164084000Y-96804878D02*
X164084000Y-95786686D01*
X156845000Y-96295000D02*
X159102000Y-98552000D01*
X168910000Y-88646000D02*
X168910000Y-90170000D01*
X162336878Y-98552000D02*
X164084000Y-96804878D01*
X163576000Y-89945000D02*
X165383000Y-88138000D01*
X166370000Y-88138000D02*
X168402000Y-88138000D01*
X159102000Y-98552000D02*
X162336878Y-98552000D01*
%TO.N,Net-(D9-Pad2)*%
X142240000Y-88265000D02*
X144780000Y-88265000D01*
X145415000Y-88900000D02*
X144780000Y-88265000D01*
X155448000Y-95094315D02*
X152654000Y-95094315D01*
X147045000Y-88900000D02*
X145415000Y-88900000D01*
X139700000Y-85725000D02*
X142240000Y-88265000D01*
%TO.N,Net-(L1-Pad1)*%
X151405000Y-98425000D02*
X149500000Y-100330000D01*
X149500000Y-100330000D02*
X146275000Y-100330000D01*
X144780000Y-98835000D02*
X146275000Y-100330000D01*
%TO.N,Net-(L1-Pad2)*%
X153945000Y-98425000D02*
X151355000Y-101015000D01*
X154033630Y-98425000D02*
X154580000Y-98425000D01*
X151355000Y-101015000D02*
X151355000Y-102235000D01*
%TO.N,Net-(Q1-Pad1)*%
X144780000Y-101375000D02*
X147955000Y-101375000D01*
X144780000Y-105664000D02*
X144526000Y-105410000D01*
X144526000Y-105410000D02*
X144526000Y-103378000D01*
X144780000Y-103124000D02*
X144780000Y-101375000D01*
X144526000Y-103378000D02*
X144780000Y-103124000D01*
X144780000Y-105770000D02*
X144780000Y-105664000D01*
X147955000Y-101375000D02*
X148815000Y-102235000D01*
%TO.N,Net-(Q1-Pad3)*%
X147320000Y-105770000D02*
X149995000Y-105770000D01*
X149995000Y-105770000D02*
X150270000Y-106045000D01*
%TO.N,Net-(Q3-Pad2)*%
X142240000Y-89810000D02*
X142240000Y-89535000D01*
X143510000Y-85090000D02*
X142875000Y-84455000D01*
X138811000Y-84455000D02*
X140970000Y-84455000D01*
X142240000Y-89535000D02*
X140335000Y-87630000D01*
X139065000Y-87630000D02*
X138430000Y-86995000D01*
X140335000Y-87630000D02*
X139065000Y-87630000D01*
X138430000Y-86995000D02*
X138430000Y-84836000D01*
X142875000Y-84455000D02*
X140970000Y-84455000D01*
X144272000Y-86360000D02*
X143510000Y-85598000D01*
X151384000Y-88900000D02*
X148844000Y-86360000D01*
X143510000Y-85598000D02*
X143510000Y-85090000D01*
X148844000Y-86360000D02*
X144272000Y-86360000D01*
X153670000Y-88900000D02*
X151384000Y-88900000D01*
X138430000Y-84836000D02*
X138811000Y-84455000D01*
X140970000Y-91080000D02*
X142240000Y-89810000D01*
%TO.N,Net-(Q5-Pad3)*%
X143481000Y-92456000D02*
X140081000Y-92456000D01*
X140081000Y-92456000D02*
X139065000Y-91440000D01*
X139065000Y-90445000D02*
X139700000Y-89810000D01*
X139065000Y-91440000D02*
X139065000Y-90445000D01*
X145415000Y-94390000D02*
X143481000Y-92456000D01*
%TO.N,Net-(Q7-Pad3)*%
X161565000Y-103505000D02*
X166116000Y-103505000D01*
%TD*%
M02*
