%TF.GenerationSoftware,KiCad,Pcbnew,6.0.2+dfsg-1*%
%TF.CreationDate,2023-01-25T17:32:23+01:00*%
%TF.ProjectId,SK25,534b3235-2e6b-4696-9361-645f70636258,rev?*%
%TF.SameCoordinates,Original*%
%TF.FileFunction,Copper,L1,Top*%
%TF.FilePolarity,Positive*%
%FSLAX46Y46*%
G04 Gerber Fmt 4.6, Leading zero omitted, Abs format (unit mm)*
G04 Created by KiCad (PCBNEW 6.0.2+dfsg-1) date 2023-01-25 17:32:23*
%MOMM*%
%LPD*%
G01*
G04 APERTURE LIST*
%TA.AperFunction,NonConductor*%
%ADD10C,0.100000*%
%TD*%
%TA.AperFunction,NonConductor*%
%ADD11C,0.150000*%
%TD*%
%ADD12C,0.350000*%
%TA.AperFunction,NonConductor*%
%ADD13C,0.350000*%
%TD*%
%TA.AperFunction,ComponentPad*%
%ADD14O,1.747520X2.499360*%
%TD*%
%TA.AperFunction,ComponentPad*%
%ADD15C,1.300000*%
%TD*%
%TA.AperFunction,ComponentPad*%
%ADD16C,1.600000*%
%TD*%
%TA.AperFunction,ComponentPad*%
%ADD17R,1.600000X1.600000*%
%TD*%
%TA.AperFunction,ComponentPad*%
%ADD18O,1.600000X1.600000*%
%TD*%
%TA.AperFunction,ComponentPad*%
%ADD19R,1.800000X1.800000*%
%TD*%
%TA.AperFunction,ComponentPad*%
%ADD20C,1.800000*%
%TD*%
%TA.AperFunction,ComponentPad*%
%ADD21C,2.200000*%
%TD*%
%TA.AperFunction,ViaPad*%
%ADD22C,1.000000*%
%TD*%
%TA.AperFunction,Conductor*%
%ADD23C,0.350000*%
%TD*%
G04 APERTURE END LIST*
D10*
X135140000Y-94750000D02*
X135640000Y-94750000D01*
X135640000Y-94750000D02*
X135640000Y-97750000D01*
X135640000Y-97750000D02*
X135140000Y-97750000D01*
X135140000Y-97750000D02*
X134140000Y-96250000D01*
X134140000Y-96250000D02*
X135140000Y-94750000D01*
G36*
X135640000Y-97750000D02*
G01*
X135140000Y-97750000D01*
X134140000Y-96250000D01*
X135140000Y-94750000D01*
X135640000Y-94750000D01*
X135640000Y-97750000D01*
G37*
X135640000Y-97750000D02*
X135140000Y-97750000D01*
X134140000Y-96250000D01*
X135140000Y-94750000D01*
X135640000Y-94750000D01*
X135640000Y-97750000D01*
X136640000Y-94750000D02*
X137640000Y-96250000D01*
X137640000Y-96250000D02*
X136640000Y-97750000D01*
X136640000Y-97750000D02*
X136140000Y-97750000D01*
X136140000Y-97750000D02*
X136140000Y-94750000D01*
X136140000Y-94750000D02*
X136640000Y-94750000D01*
G36*
X137640000Y-96250000D02*
G01*
X136640000Y-97750000D01*
X136140000Y-97750000D01*
X136140000Y-94750000D01*
X136640000Y-94750000D01*
X137640000Y-96250000D01*
G37*
X137640000Y-96250000D02*
X136640000Y-97750000D01*
X136140000Y-97750000D01*
X136140000Y-94750000D01*
X136640000Y-94750000D01*
X137640000Y-96250000D01*
D11*
X137890000Y-96250000D02*
G75*
G03*
X137890000Y-96250000I-2000000J0D01*
G01*
D12*
D13*
X137583333Y-92142857D02*
X135916666Y-92642857D01*
X137583333Y-93000000D02*
X134083333Y-93000000D01*
X134083333Y-92428571D01*
X134250000Y-92285714D01*
X134416666Y-92214285D01*
X134750000Y-92142857D01*
X135250000Y-92142857D01*
X135583333Y-92214285D01*
X135750000Y-92285714D01*
X135916666Y-92428571D01*
X135916666Y-93000000D01*
X137583333Y-91500000D02*
X134083333Y-91500000D01*
X135750000Y-91500000D02*
X135750000Y-90642857D01*
X137583333Y-90642857D02*
X134083333Y-90642857D01*
X136250000Y-89928571D02*
X136250000Y-88785714D01*
X135750000Y-87571428D02*
X135916666Y-87357142D01*
X136083333Y-87285714D01*
X136416666Y-87214285D01*
X136916666Y-87214285D01*
X137250000Y-87285714D01*
X137416666Y-87357142D01*
X137583333Y-87500000D01*
X137583333Y-88071428D01*
X134083333Y-88071428D01*
X134083333Y-87571428D01*
X134250000Y-87428571D01*
X134416666Y-87357142D01*
X134750000Y-87285714D01*
X135083333Y-87285714D01*
X135416666Y-87357142D01*
X135583333Y-87428571D01*
X135750000Y-87571428D01*
X135750000Y-88071428D01*
X137583333Y-85785714D02*
X137583333Y-86642857D01*
X137583333Y-86214285D02*
X134083333Y-86214285D01*
X134583333Y-86357142D01*
X134916666Y-86500000D01*
X135083333Y-86642857D01*
X134083333Y-84857142D02*
X134083333Y-84714285D01*
X134250000Y-84571428D01*
X134416666Y-84500000D01*
X134750000Y-84428571D01*
X135416666Y-84357142D01*
X136250000Y-84357142D01*
X136916666Y-84428571D01*
X137250000Y-84500000D01*
X137416666Y-84571428D01*
X137583333Y-84714285D01*
X137583333Y-84857142D01*
X137416666Y-85000000D01*
X137250000Y-85071428D01*
X136916666Y-85142857D01*
X136250000Y-85214285D01*
X135416666Y-85214285D01*
X134750000Y-85142857D01*
X134416666Y-85071428D01*
X134250000Y-85000000D01*
X134083333Y-84857142D01*
X134416666Y-83785714D02*
X134250000Y-83714285D01*
X134083333Y-83571428D01*
X134083333Y-83214285D01*
X134250000Y-83071428D01*
X134416666Y-83000000D01*
X134750000Y-82928571D01*
X135083333Y-82928571D01*
X135583333Y-83000000D01*
X137583333Y-83857142D01*
X137583333Y-82928571D01*
D14*
%TO.P,Q9,1,E*%
%TO.N,Net-(Q9-Pad1)*%
X156362400Y-106045000D03*
%TO.P,Q9,2,C*%
%TO.N,Net-(D3-Pad2)*%
X158750000Y-106045000D03*
%TO.P,Q9,3,B*%
%TO.N,Net-(D5-Pad2)*%
X161137600Y-106045000D03*
%TD*%
%TO.P,Q10,1,E*%
%TO.N,Net-(Q10-Pad1)*%
X161290000Y-85090000D03*
%TO.P,Q10,2,C*%
%TO.N,Net-(C2-Pad2)*%
X158902400Y-85090000D03*
%TO.P,Q10,3,B*%
%TO.N,Net-(C1-Pad1)*%
X156514800Y-85090000D03*
%TD*%
D15*
%TO.P,Q8,3,E*%
%TO.N,Net-(C2-Pad1)*%
X160020000Y-89260000D03*
%TO.P,Q8,2,B*%
%TO.N,Net-(Q6-Pad3)*%
X158750000Y-87990000D03*
%TO.P,Q8,1,C*%
%TO.N,Net-(C1-Pad1)*%
X157480000Y-89260000D03*
%TD*%
%TO.P,Q7,3,E*%
%TO.N,Net-(Q7-Pad3)*%
X161565000Y-103505000D03*
%TO.P,Q7,2,B*%
%TO.N,Net-(D3-Pad1)*%
X162835000Y-102235000D03*
%TO.P,Q7,1,C*%
%TO.N,Net-(D5-Pad2)*%
X161565000Y-100965000D03*
%TD*%
%TO.P,Q6,1,C*%
%TO.N,Net-(D4-Pad1)*%
X159766000Y-96520000D03*
%TO.P,Q6,2,B*%
%TO.N,Net-(D9-Pad2)*%
X161036000Y-95250000D03*
%TO.P,Q6,3,E*%
%TO.N,Net-(Q6-Pad3)*%
X162306000Y-96520000D03*
%TD*%
%TO.P,Q5,1,C*%
%TO.N,Net-(Q3-Pad2)*%
X142240000Y-89810000D03*
%TO.P,Q5,2,B*%
X140970000Y-91080000D03*
%TO.P,Q5,3,E*%
%TO.N,Net-(Q5-Pad3)*%
X139700000Y-89810000D03*
%TD*%
%TO.P,Q4,1,C*%
%TO.N,Net-(D9-Pad2)*%
X139700000Y-85725000D03*
%TO.P,Q4,2,B*%
%TO.N,Net-(Q3-Pad2)*%
X140970000Y-84455000D03*
%TO.P,Q4,3,E*%
%TO.N,Net-(Q4-Pad3)*%
X142240000Y-85725000D03*
%TD*%
%TO.P,Q3,1,E*%
%TO.N,Net-(L1-Pad2)*%
X152400000Y-87630000D03*
%TO.P,Q3,2,C*%
%TO.N,Net-(Q3-Pad2)*%
X153670000Y-88900000D03*
%TO.P,Q3,3,B*%
%TO.N,Net-(D1-Pad2)*%
X152400000Y-90170000D03*
%TD*%
%TO.P,Q2,3,B*%
%TO.N,Net-(D1-Pad1)*%
X148315000Y-87630000D03*
%TO.P,Q2,2,C*%
%TO.N,Net-(D9-Pad2)*%
X147045000Y-88900000D03*
%TO.P,Q2,1,E*%
%TO.N,Net-(L1-Pad1)*%
X148315000Y-90170000D03*
%TD*%
%TO.P,Q1,1,C*%
%TO.N,Net-(Q1-Pad1)*%
X144780000Y-105770000D03*
%TO.P,Q1,2,B*%
%TO.N,Net-(D3-Pad1)*%
X146050000Y-104500000D03*
%TO.P,Q1,3,E*%
%TO.N,Net-(Q1-Pad3)*%
X147320000Y-105770000D03*
%TD*%
D16*
%TO.P,C1,1*%
%TO.N,Net-(C1-Pad1)*%
X163810000Y-92456000D03*
%TO.P,C1,2*%
%TO.N,Net-(C1-Pad2)*%
X161310000Y-92456000D03*
%TD*%
D17*
%TO.P,D1,1,K*%
%TO.N,Net-(D1-Pad1)*%
X142240000Y-93980000D03*
D18*
%TO.P,D1,2,A*%
%TO.N,Net-(D1-Pad2)*%
X142240000Y-96520000D03*
%TD*%
D17*
%TO.P,D2,1,K*%
%TO.N,Net-(D1-Pad2)*%
X139700000Y-96675686D03*
D18*
%TO.P,D2,2,A*%
%TO.N,Net-(D1-Pad1)*%
X139700000Y-94135686D03*
%TD*%
D19*
%TO.P,D3,1,K*%
%TO.N,Net-(D3-Pad1)*%
X154305000Y-100965000D03*
D20*
%TO.P,D3,2,A*%
%TO.N,Net-(D3-Pad2)*%
X154305000Y-103505000D03*
%TD*%
D17*
%TO.P,D4,1,K*%
%TO.N,Net-(D4-Pad1)*%
X153260315Y-84582000D03*
D18*
%TO.P,D4,2,A*%
%TO.N,Net-(C2-Pad2)*%
X150720315Y-84582000D03*
%TD*%
D17*
%TO.P,D5,1,K*%
%TO.N,Net-(D5-Pad1)*%
X163830000Y-109728000D03*
D18*
%TO.P,D5,2,A*%
%TO.N,Net-(D5-Pad2)*%
X153670000Y-109728000D03*
%TD*%
D17*
%TO.P,D6,1,K*%
%TO.N,Net-(C1-Pad1)*%
X152908000Y-81280000D03*
D18*
%TO.P,D6,2,A*%
%TO.N,Net-(D6-Pad2)*%
X163068000Y-81280000D03*
%TD*%
D17*
%TO.P,D7,1,K*%
%TO.N,Net-(D5-Pad2)*%
X166370000Y-96040686D03*
D18*
%TO.P,D7,2,A*%
%TO.N,Net-(D7-Pad2)*%
X166370000Y-93500686D03*
%TD*%
D17*
%TO.P,D8,1,K*%
%TO.N,Net-(D7-Pad2)*%
X166370000Y-88138000D03*
D18*
%TO.P,D8,2,A*%
%TO.N,Net-(C1-Pad1)*%
X166370000Y-90678000D03*
%TD*%
D17*
%TO.P,D9,1,K*%
%TO.N,Net-(C1-Pad1)*%
X152654000Y-92554315D03*
D18*
%TO.P,D9,2,A*%
%TO.N,Net-(D9-Pad2)*%
X152654000Y-95094315D03*
%TD*%
D21*
%TO.P,J2,1,Pin_1*%
%TO.N,Net-(D1-Pad1)*%
X148590000Y-92710000D03*
%TD*%
%TO.P,J3,1,Pin_1*%
%TO.N,Net-(D3-Pad2)*%
X168910000Y-105410000D03*
%TD*%
%TO.P,J4,1,Pin_1*%
%TO.N,Net-(D7-Pad2)*%
X168910000Y-90170000D03*
%TD*%
%TO.P,J5,1,Pin_1*%
%TO.N,Net-(C2-Pad2)*%
X168910000Y-95250000D03*
%TD*%
D16*
%TO.P,L1,1,1*%
%TO.N,Net-(L1-Pad1)*%
X151405000Y-98425000D03*
D18*
%TO.P,L1,2,2*%
%TO.N,Net-(L1-Pad2)*%
X153945000Y-98425000D03*
%TD*%
D16*
%TO.P,R1,1*%
%TO.N,Net-(D3-Pad2)*%
X152810000Y-106045000D03*
D18*
%TO.P,R1,2*%
%TO.N,Net-(Q1-Pad3)*%
X150270000Y-106045000D03*
%TD*%
D16*
%TO.P,R2,1*%
%TO.N,Net-(Q1-Pad1)*%
X144780000Y-101375000D03*
D18*
%TO.P,R2,2*%
%TO.N,Net-(L1-Pad1)*%
X144780000Y-98835000D03*
%TD*%
D16*
%TO.P,R3,1*%
%TO.N,Net-(Q1-Pad1)*%
X148815000Y-102235000D03*
D18*
%TO.P,R3,2*%
%TO.N,Net-(L1-Pad2)*%
X151355000Y-102235000D03*
%TD*%
D16*
%TO.P,R4,1*%
%TO.N,Net-(Q4-Pad3)*%
X145005000Y-84582000D03*
D18*
%TO.P,R4,2*%
%TO.N,Net-(C2-Pad2)*%
X147545000Y-84582000D03*
%TD*%
D16*
%TO.P,R5,1*%
%TO.N,Net-(Q5-Pad3)*%
X145415000Y-94390000D03*
D18*
%TO.P,R5,2*%
%TO.N,Net-(C2-Pad2)*%
X145415000Y-91850000D03*
%TD*%
D16*
%TO.P,R6,1*%
%TO.N,Net-(D3-Pad1)*%
X158115000Y-103280000D03*
D18*
%TO.P,R6,2*%
%TO.N,Net-(D4-Pad1)*%
X158115000Y-100740000D03*
%TD*%
D16*
%TO.P,R7,1*%
%TO.N,Net-(C1-Pad2)*%
X158242000Y-92456000D03*
D18*
%TO.P,R7,2*%
%TO.N,Net-(D9-Pad2)*%
X155702000Y-92456000D03*
%TD*%
D16*
%TO.P,R8,1*%
%TO.N,Net-(Q6-Pad3)*%
X169897000Y-85090000D03*
D18*
%TO.P,R8,2*%
%TO.N,Net-(C2-Pad2)*%
X172437000Y-85090000D03*
%TD*%
D16*
%TO.P,R9,1*%
%TO.N,Net-(D3-Pad2)*%
X166116000Y-106045000D03*
D18*
%TO.P,R9,2*%
%TO.N,Net-(Q7-Pad3)*%
X166116000Y-103505000D03*
%TD*%
D16*
%TO.P,R10,1*%
%TO.N,Net-(D5-Pad1)*%
X165735000Y-101121000D03*
D18*
%TO.P,R10,2*%
%TO.N,Net-(D6-Pad2)*%
X165735000Y-98581000D03*
%TD*%
D16*
%TO.P,R12,1*%
%TO.N,Net-(Q9-Pad1)*%
X156845000Y-98835000D03*
D18*
%TO.P,R12,2*%
%TO.N,Net-(D7-Pad2)*%
X156845000Y-96295000D03*
%TD*%
D16*
%TO.P,R13,1*%
%TO.N,Net-(D7-Pad2)*%
X163576000Y-89945000D03*
D18*
%TO.P,R13,2*%
%TO.N,Net-(Q10-Pad1)*%
X163576000Y-87405000D03*
%TD*%
D21*
%TO.P,J6,1,Pin_1*%
%TO.N,GND*%
X168910000Y-100330000D03*
%TD*%
%TO.P,J1,1,Pin_1*%
%TO.N,Net-(D1-Pad2)*%
X148590000Y-97790000D03*
%TD*%
D16*
%TO.P,C2,1*%
%TO.N,Net-(C2-Pad1)*%
X164485000Y-85090000D03*
%TO.P,C2,2*%
%TO.N,Net-(C2-Pad2)*%
X166985000Y-85090000D03*
%TD*%
%TO.P,R11,1*%
%TO.N,Net-(C2-Pad1)*%
X172085000Y-87347000D03*
D18*
%TO.P,R11,2*%
%TO.N,Net-(C2-Pad2)*%
X172085000Y-89887000D03*
%TD*%
D22*
%TO.N,Net-(C1-Pad1)*%
X149098000Y-82804000D03*
%TO.N,Net-(D4-Pad1)*%
X155702000Y-90424000D03*
%TO.N,Net-(D9-Pad2)*%
X155448000Y-95094315D03*
%TD*%
D23*
%TO.N,Net-(C1-Pad1)*%
X149352000Y-81280000D02*
X149098000Y-81534000D01*
X149098000Y-82804000D02*
X149098000Y-81534000D01*
X152908000Y-81280000D02*
X149352000Y-81280000D01*
%TO.N,Net-(C2-Pad2)*%
X171929000Y-89887000D02*
X172085000Y-89887000D01*
X167132000Y-85090000D02*
X171929000Y-89887000D01*
X144145000Y-88265000D02*
X145796000Y-86614000D01*
X150720315Y-84582000D02*
X147799000Y-84582000D01*
X166985000Y-85090000D02*
X167132000Y-85090000D01*
X145796000Y-86585000D02*
X145796000Y-86614000D01*
X145415000Y-91850000D02*
X144145000Y-90580000D01*
X144145000Y-90580000D02*
X144145000Y-88265000D01*
X147799000Y-84582000D02*
X145796000Y-86585000D01*
X172085000Y-90170000D02*
X171958000Y-90170000D01*
%TO.N,Net-(D1-Pad1)*%
X145415000Y-88519000D02*
X146304000Y-87630000D01*
X148590000Y-92710000D02*
X145415000Y-89535000D01*
X146304000Y-87630000D02*
X148315000Y-87630000D01*
X145415000Y-89535000D02*
X145415000Y-88519000D01*
%TO.N,Net-(D4-Pad1)*%
X159766000Y-99089000D02*
X159766000Y-96520000D01*
X155702000Y-87884000D02*
X153260315Y-85442315D01*
X153260315Y-85442315D02*
X153260315Y-84582000D01*
X155702000Y-90424000D02*
X155702000Y-87884000D01*
X158115000Y-100740000D02*
X159766000Y-99089000D01*
%TO.N,Net-(D5-Pad2)*%
X159766000Y-107950000D02*
X161137600Y-106578400D01*
X161137600Y-105257600D02*
X160020000Y-104140000D01*
X161137600Y-106578400D02*
X161137600Y-106045000D01*
X160020000Y-102510000D02*
X161565000Y-100965000D01*
X160020000Y-104140000D02*
X160020000Y-102510000D01*
X153670000Y-109728000D02*
X155448000Y-107950000D01*
X161137600Y-106045000D02*
X161137600Y-105257600D01*
X161137600Y-106045000D02*
X161137600Y-106832400D01*
X155448000Y-107950000D02*
X159766000Y-107950000D01*
%TO.N,Net-(D5-Pad1)*%
X164592000Y-102264000D02*
X165735000Y-101121000D01*
X164592000Y-102616000D02*
X164592000Y-102264000D01*
X163830000Y-103378000D02*
X164592000Y-102616000D01*
X163830000Y-103378000D02*
X163830000Y-109728000D01*
%TO.N,Net-(D6-Pad2)*%
X171196000Y-92710000D02*
X171196000Y-96774000D01*
X163068000Y-81280000D02*
X164592000Y-82804000D01*
X173990000Y-86106000D02*
X173736000Y-86360000D01*
X170180000Y-97790000D02*
X167894000Y-97790000D01*
X173228000Y-91440000D02*
X172466000Y-91440000D01*
X172720000Y-82804000D02*
X173990000Y-84074000D01*
X173990000Y-84074000D02*
X173990000Y-86106000D01*
X172466000Y-91440000D02*
X171196000Y-92710000D01*
X167103000Y-98581000D02*
X165735000Y-98581000D01*
X173736000Y-90932000D02*
X173228000Y-91440000D01*
X164592000Y-82804000D02*
X172720000Y-82804000D01*
X173736000Y-86360000D02*
X173736000Y-90932000D01*
X167894000Y-97790000D02*
X167103000Y-98581000D01*
X171196000Y-96774000D02*
X170180000Y-97790000D01*
%TO.N,Net-(D9-Pad2)*%
X161036000Y-95250000D02*
X158242000Y-95250000D01*
X155448000Y-95094315D02*
X155857685Y-95094315D01*
X155857685Y-95094315D02*
X156210000Y-94742000D01*
X149094022Y-88900000D02*
X151130000Y-90935978D01*
X158242000Y-95250000D02*
X157734000Y-94742000D01*
X157734000Y-94742000D02*
X156464000Y-94742000D01*
X156464000Y-93472000D02*
X155702000Y-92710000D01*
X151736315Y-95094315D02*
X152654000Y-95094315D01*
X147045000Y-88900000D02*
X149094022Y-88900000D01*
X156210000Y-94742000D02*
X156464000Y-94742000D01*
X151130000Y-94488000D02*
X151736315Y-95094315D01*
X156464000Y-94742000D02*
X156464000Y-93472000D01*
X151130000Y-90935978D02*
X151130000Y-94488000D01*
%TO.N,Net-(L1-Pad1)*%
X151405000Y-98425000D02*
X150368000Y-97388000D01*
X150368000Y-97388000D02*
X150368000Y-91694000D01*
X148844000Y-90170000D02*
X148315000Y-90170000D01*
X150368000Y-91694000D02*
X148844000Y-90170000D01*
%TO.N,Net-(L1-Pad2)*%
X153945000Y-98425000D02*
X154178000Y-98192000D01*
X154178000Y-98192000D02*
X154178000Y-90424000D01*
X154178000Y-90424000D02*
X154940000Y-89662000D01*
X154940000Y-88265000D02*
X154305000Y-87630000D01*
X154305000Y-87630000D02*
X152400000Y-87630000D01*
X154940000Y-89662000D02*
X154940000Y-88265000D01*
%TO.N,Net-(Q4-Pad3)*%
X145259000Y-84582000D02*
X144272000Y-84582000D01*
X144272000Y-84582000D02*
X143129000Y-85725000D01*
X143129000Y-85725000D02*
X142240000Y-85725000D01*
%TO.N,Net-(Q6-Pad3)*%
X154940000Y-86106000D02*
X156824000Y-87990000D01*
X168881000Y-83566000D02*
X163068000Y-83566000D01*
X162560000Y-83058000D02*
X155702000Y-83058000D01*
X162306000Y-96520000D02*
X163068000Y-95758000D01*
X163068000Y-83566000D02*
X162560000Y-83058000D01*
X160274000Y-93980000D02*
X159766000Y-93472000D01*
X155702000Y-83058000D02*
X154940000Y-83820000D01*
X169897000Y-84582000D02*
X168881000Y-83566000D01*
X159766000Y-91186000D02*
X158750000Y-90170000D01*
X159766000Y-93472000D02*
X159766000Y-91186000D01*
X163068000Y-95758000D02*
X163068000Y-94742000D01*
X163068000Y-94742000D02*
X162306000Y-93980000D01*
X162306000Y-93980000D02*
X160274000Y-93980000D01*
X156824000Y-87990000D02*
X158750000Y-87990000D01*
X158750000Y-90170000D02*
X158750000Y-87990000D01*
X154940000Y-83820000D02*
X154940000Y-86106000D01*
%TO.N,Net-(Q9-Pad1)*%
X156362400Y-100177600D02*
X156362400Y-106045000D01*
X156845000Y-99695000D02*
X156362400Y-100177600D01*
X156845000Y-98835000D02*
X156845000Y-99695000D01*
%TO.N,Net-(Q10-Pad1)*%
X161290000Y-85090000D02*
X161290000Y-85119000D01*
X161290000Y-85119000D02*
X163576000Y-87405000D01*
%TD*%
%TA.AperFunction,Conductor*%
%TO.N,Net-(D6-Pad2)*%
G36*
X164534121Y-79622002D02*
G01*
X164580614Y-79675658D01*
X164592000Y-79728000D01*
X164592000Y-82083590D01*
X164589579Y-82108171D01*
X164581666Y-82147953D01*
X164562852Y-82193374D01*
X164547345Y-82216582D01*
X164512582Y-82251345D01*
X164489374Y-82266852D01*
X164443953Y-82285666D01*
X164404171Y-82293579D01*
X164379590Y-82296000D01*
X158454410Y-82296000D01*
X158429829Y-82293579D01*
X158390047Y-82285666D01*
X158344626Y-82266852D01*
X158321418Y-82251345D01*
X158286655Y-82216582D01*
X158271148Y-82193374D01*
X158252334Y-82147953D01*
X158244421Y-82108171D01*
X158242000Y-82083590D01*
X158242000Y-79728000D01*
X158262002Y-79659879D01*
X158315658Y-79613386D01*
X158368000Y-79602000D01*
X164466000Y-79602000D01*
X164534121Y-79622002D01*
G37*
%TD.AperFunction*%
%TD*%
%TA.AperFunction,Conductor*%
%TO.N,Net-(C1-Pad1)*%
G36*
X155644121Y-79622002D02*
G01*
X155690614Y-79675658D01*
X155702000Y-79728000D01*
X155702000Y-82083590D01*
X155699579Y-82108171D01*
X155691666Y-82147953D01*
X155672852Y-82193374D01*
X155657345Y-82216582D01*
X155622582Y-82251345D01*
X155599374Y-82266852D01*
X155553953Y-82285666D01*
X155514171Y-82293579D01*
X155489590Y-82296000D01*
X142706410Y-82296000D01*
X142681829Y-82293579D01*
X142642047Y-82285666D01*
X142596626Y-82266852D01*
X142573418Y-82251345D01*
X142538655Y-82216582D01*
X142523148Y-82193374D01*
X142504334Y-82147953D01*
X142496421Y-82108171D01*
X142494000Y-82083590D01*
X142494000Y-79728000D01*
X142514002Y-79659879D01*
X142567658Y-79613386D01*
X142620000Y-79602000D01*
X155576000Y-79602000D01*
X155644121Y-79622002D01*
G37*
%TD.AperFunction*%
%TD*%
%TA.AperFunction,Conductor*%
%TO.N,Net-(D5-Pad1)*%
G36*
X171262171Y-108714421D02*
G01*
X171301953Y-108722334D01*
X171347374Y-108741148D01*
X171370582Y-108756655D01*
X171405345Y-108791418D01*
X171420852Y-108814626D01*
X171439666Y-108860047D01*
X171447579Y-108899829D01*
X171450000Y-108924410D01*
X171450000Y-111274000D01*
X171429998Y-111342121D01*
X171376342Y-111388614D01*
X171324000Y-111400000D01*
X158368000Y-111400000D01*
X158299879Y-111379998D01*
X158253386Y-111326342D01*
X158242000Y-111274000D01*
X158242000Y-108924410D01*
X158244421Y-108899829D01*
X158252334Y-108860047D01*
X158271148Y-108814626D01*
X158286655Y-108791418D01*
X158321418Y-108756655D01*
X158344626Y-108741148D01*
X158390047Y-108722334D01*
X158429829Y-108714421D01*
X158454410Y-108712000D01*
X171237590Y-108712000D01*
X171262171Y-108714421D01*
G37*
%TD.AperFunction*%
%TD*%
%TA.AperFunction,Conductor*%
%TO.N,Net-(D5-Pad2)*%
G36*
X155514171Y-108714421D02*
G01*
X155553953Y-108722334D01*
X155599374Y-108741148D01*
X155622582Y-108756655D01*
X155657345Y-108791418D01*
X155672852Y-108814626D01*
X155691666Y-108860047D01*
X155699579Y-108899829D01*
X155702000Y-108924410D01*
X155702000Y-111274000D01*
X155681998Y-111342121D01*
X155628342Y-111388614D01*
X155576000Y-111400000D01*
X142620000Y-111400000D01*
X142551879Y-111379998D01*
X142505386Y-111326342D01*
X142494000Y-111274000D01*
X142494000Y-108924410D01*
X142496421Y-108899829D01*
X142504334Y-108860047D01*
X142523148Y-108814626D01*
X142538655Y-108791418D01*
X142573418Y-108756655D01*
X142596626Y-108741148D01*
X142642047Y-108722334D01*
X142681829Y-108714421D01*
X142706410Y-108712000D01*
X155489590Y-108712000D01*
X155514171Y-108714421D01*
G37*
%TD.AperFunction*%
%TD*%
M02*
