M48
; DRILL file {KiCad 6.0.2+dfsg-1} date Mi 25 Jan 2023 17:40:48 CET
; FORMAT={-:-/ absolute / metric / decimal}
; #@! TF.CreationDate,2023-01-25T17:40:48+01:00
; #@! TF.GenerationSoftware,Kicad,Pcbnew,6.0.2+dfsg-1
; #@! TF.FileFunction,Plated,1,2,PTH
FMAT,2
METRIC
; #@! TA.AperFunction,Plated,PTH,ViaDrill
T1C0.500
; #@! TA.AperFunction,Plated,PTH,ComponentDrill
T2C0.750
; #@! TA.AperFunction,Plated,PTH,ComponentDrill
T3C0.800
; #@! TA.AperFunction,Plated,PTH,ComponentDrill
T4C0.900
; #@! TA.AperFunction,Plated,PTH,ComponentDrill
T5C1.100
; #@! TA.AperFunction,Plated,PTH,ComponentDrill
T6C1.250
%
G90
G05
T1
X149.098Y-82.804
X155.448Y-95.094
X155.702Y-90.424
T2
X139.7Y-85.725
X139.7Y-89.81
X140.97Y-84.455
X140.97Y-91.08
X142.24Y-85.725
X142.24Y-89.81
X144.78Y-105.77
X146.05Y-104.5
X147.045Y-88.9
X147.32Y-105.77
X148.315Y-87.63
X148.315Y-90.17
X152.4Y-87.63
X152.4Y-90.17
X153.67Y-88.9
X157.48Y-89.26
X158.75Y-87.99
X159.766Y-96.52
X160.02Y-89.26
X161.036Y-95.25
X161.565Y-100.965
X161.565Y-103.505
X162.306Y-96.52
X162.835Y-102.235
T3
X139.7Y-94.136
X139.7Y-96.676
X142.24Y-93.98
X142.24Y-96.52
X144.78Y-98.835
X144.78Y-101.375
X145.005Y-84.582
X145.415Y-91.85
X145.415Y-94.39
X147.545Y-84.582
X148.815Y-102.235
X150.27Y-106.045
X150.72Y-84.582
X151.355Y-102.235
X151.405Y-98.425
X152.654Y-92.554
X152.654Y-95.094
X152.81Y-106.045
X152.908Y-81.28
X153.26Y-84.582
X153.67Y-109.728
X153.945Y-98.425
X155.702Y-92.456
X156.845Y-96.295
X156.845Y-98.835
X158.115Y-100.74
X158.115Y-103.28
X158.242Y-92.456
X161.31Y-92.456
X163.068Y-81.28
X163.576Y-87.405
X163.576Y-89.945
X163.81Y-92.456
X163.83Y-109.728
X164.485Y-85.09
X165.735Y-98.581
X165.735Y-101.121
X166.116Y-103.505
X166.116Y-106.045
X166.37Y-88.138
X166.37Y-90.678
X166.37Y-93.501
X166.37Y-96.041
X166.985Y-85.09
X169.897Y-85.09
X172.085Y-87.347
X172.085Y-89.887
X172.437Y-85.09
T4
X154.305Y-100.965
X154.305Y-103.505
T5
X148.59Y-92.71
X148.59Y-97.79
X168.91Y-90.17
X168.91Y-95.25
X168.91Y-100.33
X168.91Y-105.41
T6
X156.362Y-106.045
X156.515Y-85.09
X158.75Y-106.045
X158.902Y-85.09
X161.138Y-106.045
X161.29Y-85.09
T0
M30
