  0
SECTION
  2
HEADER
  9
$ANGBASE
  50
0.0
  9
$ANGDIR
  70
1
  9
$MEASUREMENT
  70
1
  0
ENDSEC
  0
SECTION
  2
TABLES
  0
TABLE
  2
LTYPE
  70
4
  0
LTYPE
  5
40F
  2
CONTINUOUS
  70
0
  3
Solid line
  72
65
  73
0
  40
0.0
  0
LTYPE
  5
410
  2
DASHDOT
 70
0
  3
Dash Dot ____ _ ____ _
 72
65
 73
4
 40
2.0
 49
1.25
 49
-0.25
 49
0.25
 49
-0.25
  0
LTYPE
  5
411
  2
DASHED
 70
0
  3
Dashed __ __ __ __ __
 72
65
 73
2
 40
0.75
 49
0.5
 49
-0.25
  0
LTYPE
  5
43B
  2
DOTTED
 70
0
  3
Dotted .  .  .  .
 72
65
 73
2
 40
0.2
 49
0.0
 49
-0.2
  0
ENDTAB
  0
TABLE
  2
STYLE
  70
4
  0
STYLE
  2
KICAD
  70
0
  40
0
  41
1
  42
1
  50
0
  71
0
  3
isocp.shx
  0
STYLE
  2
KICADB
  70
0
  40
0
  41
1
  42
1
  50
0
  71
0
  3
isocp.shx
  0
STYLE
  2
KICADI
  70
0
  40
0
  41
1
  42
1
  50
15
  71
0
  3
isocp.shx
  0
STYLE
  2
KICADBI
  70
0
  40
0
  41
1
  42
1
  50
15
  71
0
  3
isocp.shx
  0
ENDTAB
  0
TABLE
  2
LAYER
  70
1
  0
LAYER
  2
BLACK
  70
0
  62
7
  6
CONTINUOUS
  0
ENDTAB
  0
ENDSEC
  0
SECTION
  2
ENTITIES
0
LINE
8
BLACK
6
CONTINUOUS
10
91.44
20
-163.83
11
96.52
21
-163.83
0
LINE
8
BLACK
6
CONTINUOUS
10
37.85
20
-160.953
11
37.35
21
-160.238
0
LINE
8
BLACK
6
CONTINUOUS
10
36.9929
20
-160.953
11
36.9929
21
-159.453
0
LINE
8
BLACK
6
CONTINUOUS
10
36.9929
20
-159.453
11
37.5643
21
-159.453
0
LINE
8
BLACK
6
CONTINUOUS
10
37.5643
20
-159.453
11
37.7071
21
-159.524
0
LINE
8
BLACK
6
CONTINUOUS
10
37.7071
20
-159.524
11
37.7786
21
-159.595
0
LINE
8
BLACK
6
CONTINUOUS
10
37.7786
20
-159.595
11
37.85
21
-159.738
0
LINE
8
BLACK
6
CONTINUOUS
10
37.85
20
-159.738
11
37.85
21
-159.953
0
LINE
8
BLACK
6
CONTINUOUS
10
37.85
20
-159.953
11
37.7786
21
-160.095
0
LINE
8
BLACK
6
CONTINUOUS
10
37.7786
20
-160.095
11
37.7071
21
-160.167
0
LINE
8
BLACK
6
CONTINUOUS
10
37.7071
20
-160.167
11
37.5643
21
-160.238
0
LINE
8
BLACK
6
CONTINUOUS
10
37.5643
20
-160.238
11
36.9929
21
-160.238
0
LINE
8
BLACK
6
CONTINUOUS
10
39.1357
20
-159.953
11
39.1357
21
-160.953
0
LINE
8
BLACK
6
CONTINUOUS
10
38.7786
20
-159.381
11
38.4214
21
-160.453
0
LINE
8
BLACK
6
CONTINUOUS
10
38.4214
20
-160.453
11
39.35
21
-160.453
0
LINE
8
BLACK
6
CONTINUOUS
10
34.04
20
-164.763
11
33.54
21
-164.048
0
LINE
8
BLACK
6
CONTINUOUS
10
33.1829
20
-164.763
11
33.1829
21
-163.263
0
LINE
8
BLACK
6
CONTINUOUS
10
33.1829
20
-163.263
11
33.7543
21
-163.263
0
LINE
8
BLACK
6
CONTINUOUS
10
33.7543
20
-163.263
11
33.8971
21
-163.334
0
LINE
8
BLACK
6
CONTINUOUS
10
33.8971
20
-163.334
11
33.9686
21
-163.405
0
LINE
8
BLACK
6
CONTINUOUS
10
33.9686
20
-163.405
11
34.04
21
-163.548
0
LINE
8
BLACK
6
CONTINUOUS
10
34.04
20
-163.548
11
34.04
21
-163.763
0
LINE
8
BLACK
6
CONTINUOUS
10
34.04
20
-163.763
11
33.9686
21
-163.905
0
LINE
8
BLACK
6
CONTINUOUS
10
33.9686
20
-163.905
11
33.8971
21
-163.977
0
LINE
8
BLACK
6
CONTINUOUS
10
33.8971
20
-163.977
11
33.7543
21
-164.048
0
LINE
8
BLACK
6
CONTINUOUS
10
33.7543
20
-164.048
11
33.1829
21
-164.048
0
LINE
8
BLACK
6
CONTINUOUS
10
34.54
20
-163.263
11
35.4686
21
-163.263
0
LINE
8
BLACK
6
CONTINUOUS
10
35.4686
20
-163.263
11
34.9686
21
-163.834
0
LINE
8
BLACK
6
CONTINUOUS
10
34.9686
20
-163.834
11
35.1829
21
-163.834
0
LINE
8
BLACK
6
CONTINUOUS
10
35.1829
20
-163.834
11
35.3257
21
-163.905
0
LINE
8
BLACK
6
CONTINUOUS
10
35.3257
20
-163.905
11
35.3971
21
-163.977
0
LINE
8
BLACK
6
CONTINUOUS
10
35.3971
20
-163.977
11
35.4686
21
-164.12
0
LINE
8
BLACK
6
CONTINUOUS
10
35.4686
20
-164.12
11
35.4686
21
-164.477
0
LINE
8
BLACK
6
CONTINUOUS
10
35.4686
20
-164.477
11
35.3971
21
-164.62
0
LINE
8
BLACK
6
CONTINUOUS
10
35.3971
20
-164.62
11
35.3257
21
-164.691
0
LINE
8
BLACK
6
CONTINUOUS
10
35.3257
20
-164.691
11
35.1829
21
-164.763
0
LINE
8
BLACK
6
CONTINUOUS
10
35.1829
20
-164.763
11
34.7543
21
-164.763
0
LINE
8
BLACK
6
CONTINUOUS
10
34.7543
20
-164.763
11
34.6114
21
-164.691
0
LINE
8
BLACK
6
CONTINUOUS
10
34.6114
20
-164.691
11
34.54
21
-164.62
0
LINE
8
BLACK
6
CONTINUOUS
10
50.55
20
-166.033
11
50.05
21
-165.318
0
LINE
8
BLACK
6
CONTINUOUS
10
49.6929
20
-166.033
11
49.6929
21
-164.533
0
LINE
8
BLACK
6
CONTINUOUS
10
49.6929
20
-164.533
11
50.2643
21
-164.533
0
LINE
8
BLACK
6
CONTINUOUS
10
50.2643
20
-164.533
11
50.4071
21
-164.604
0
LINE
8
BLACK
6
CONTINUOUS
10
50.4071
20
-164.604
11
50.4786
21
-164.675
0
LINE
8
BLACK
6
CONTINUOUS
10
50.4786
20
-164.675
11
50.55
21
-164.818
0
LINE
8
BLACK
6
CONTINUOUS
10
50.55
20
-164.818
11
50.55
21
-165.033
0
LINE
8
BLACK
6
CONTINUOUS
10
50.55
20
-165.033
11
50.4786
21
-165.175
0
LINE
8
BLACK
6
CONTINUOUS
10
50.4786
20
-165.175
11
50.4071
21
-165.247
0
LINE
8
BLACK
6
CONTINUOUS
10
50.4071
20
-165.247
11
50.2643
21
-165.318
0
LINE
8
BLACK
6
CONTINUOUS
10
50.2643
20
-165.318
11
49.6929
21
-165.318
0
LINE
8
BLACK
6
CONTINUOUS
10
51.9786
20
-166.033
11
51.1214
21
-166.033
0
LINE
8
BLACK
6
CONTINUOUS
10
51.55
20
-166.033
11
51.55
21
-164.533
0
LINE
8
BLACK
6
CONTINUOUS
10
51.55
20
-164.533
11
51.4071
21
-164.747
0
LINE
8
BLACK
6
CONTINUOUS
10
51.4071
20
-164.747
11
51.2643
21
-164.89
0
LINE
8
BLACK
6
CONTINUOUS
10
51.2643
20
-164.89
11
51.1214
21
-164.961
0
LINE
8
BLACK
6
CONTINUOUS
10
53.09
20
-162.223
11
52.59
21
-161.508
0
LINE
8
BLACK
6
CONTINUOUS
10
52.2329
20
-162.223
11
52.2329
21
-160.723
0
LINE
8
BLACK
6
CONTINUOUS
10
52.2329
20
-160.723
11
52.8043
21
-160.723
0
LINE
8
BLACK
6
CONTINUOUS
10
52.8043
20
-160.723
11
52.9471
21
-160.794
0
LINE
8
BLACK
6
CONTINUOUS
10
52.9471
20
-160.794
11
53.0186
21
-160.865
0
LINE
8
BLACK
6
CONTINUOUS
10
53.0186
20
-160.865
11
53.09
21
-161.008
0
LINE
8
BLACK
6
CONTINUOUS
10
53.09
20
-161.008
11
53.09
21
-161.223
0
LINE
8
BLACK
6
CONTINUOUS
10
53.09
20
-161.223
11
53.0186
21
-161.365
0
LINE
8
BLACK
6
CONTINUOUS
10
53.0186
20
-161.365
11
52.9471
21
-161.437
0
LINE
8
BLACK
6
CONTINUOUS
10
52.9471
20
-161.437
11
52.8043
21
-161.508
0
LINE
8
BLACK
6
CONTINUOUS
10
52.8043
20
-161.508
11
52.2329
21
-161.508
0
LINE
8
BLACK
6
CONTINUOUS
10
53.6614
20
-160.865
11
53.7329
21
-160.794
0
LINE
8
BLACK
6
CONTINUOUS
10
53.7329
20
-160.794
11
53.8757
21
-160.723
0
LINE
8
BLACK
6
CONTINUOUS
10
53.8757
20
-160.723
11
54.2329
21
-160.723
0
LINE
8
BLACK
6
CONTINUOUS
10
54.2329
20
-160.723
11
54.3757
21
-160.794
0
LINE
8
BLACK
6
CONTINUOUS
10
54.3757
20
-160.794
11
54.4471
21
-160.865
0
LINE
8
BLACK
6
CONTINUOUS
10
54.4471
20
-160.865
11
54.5186
21
-161.008
0
LINE
8
BLACK
6
CONTINUOUS
10
54.5186
20
-161.008
11
54.5186
21
-161.151
0
LINE
8
BLACK
6
CONTINUOUS
10
54.5186
20
-161.151
11
54.4471
21
-161.365
0
LINE
8
BLACK
6
CONTINUOUS
10
54.4471
20
-161.365
11
53.59
21
-162.223
0
LINE
8
BLACK
6
CONTINUOUS
10
53.59
20
-162.223
11
54.5186
21
-162.223
0
LINE
8
BLACK
6
CONTINUOUS
10
44.8471
20
-178.225
11
44.1329
21
-178.225
0
LINE
8
BLACK
6
CONTINUOUS
10
44.1329
20
-178.225
11
44.1329
21
-176.725
0
LINE
8
BLACK
6
CONTINUOUS
10
46.99
20
-177.439
11
47.2043
21
-177.51
0
LINE
8
BLACK
6
CONTINUOUS
10
47.2043
20
-177.51
11
47.2757
21
-177.582
0
LINE
8
BLACK
6
CONTINUOUS
10
47.2757
20
-177.582
11
47.3471
21
-177.725
0
LINE
8
BLACK
6
CONTINUOUS
10
47.3471
20
-177.725
11
47.3471
21
-177.939
0
LINE
8
BLACK
6
CONTINUOUS
10
47.3471
20
-177.939
11
47.2757
21
-178.082
0
LINE
8
BLACK
6
CONTINUOUS
10
47.2757
20
-178.082
11
47.2043
21
-178.153
0
LINE
8
BLACK
6
CONTINUOUS
10
47.2043
20
-178.153
11
47.0614
21
-178.225
0
LINE
8
BLACK
6
CONTINUOUS
10
47.0614
20
-178.225
11
46.49
21
-178.225
0
LINE
8
BLACK
6
CONTINUOUS
10
46.49
20
-178.225
11
46.49
21
-176.725
0
LINE
8
BLACK
6
CONTINUOUS
10
46.49
20
-176.725
11
46.99
21
-176.725
0
LINE
8
BLACK
6
CONTINUOUS
10
46.99
20
-176.725
11
47.1329
21
-176.796
0
LINE
8
BLACK
6
CONTINUOUS
10
47.1329
20
-176.796
11
47.2043
21
-176.867
0
LINE
8
BLACK
6
CONTINUOUS
10
47.2043
20
-176.867
11
47.2757
21
-177.01
0
LINE
8
BLACK
6
CONTINUOUS
10
47.2757
20
-177.01
11
47.2757
21
-177.153
0
LINE
8
BLACK
6
CONTINUOUS
10
47.2757
20
-177.153
11
47.2043
21
-177.296
0
LINE
8
BLACK
6
CONTINUOUS
10
47.2043
20
-177.296
11
47.1329
21
-177.367
0
LINE
8
BLACK
6
CONTINUOUS
10
47.1329
20
-177.367
11
46.99
21
-177.439
0
LINE
8
BLACK
6
CONTINUOUS
10
46.99
20
-177.439
11
46.49
21
-177.439
0
LINE
8
BLACK
6
CONTINUOUS
10
48.6329
20
-177.225
11
48.6329
21
-178.225
0
LINE
8
BLACK
6
CONTINUOUS
10
47.99
20
-177.225
11
47.99
21
-178.01
0
LINE
8
BLACK
6
CONTINUOUS
10
47.99
20
-178.01
11
48.0614
21
-178.153
0
LINE
8
BLACK
6
CONTINUOUS
10
48.0614
20
-178.153
11
48.2043
21
-178.225
0
LINE
8
BLACK
6
CONTINUOUS
10
48.2043
20
-178.225
11
48.4186
21
-178.225
0
LINE
8
BLACK
6
CONTINUOUS
10
48.4186
20
-178.225
11
48.5614
21
-178.153
0
LINE
8
BLACK
6
CONTINUOUS
10
48.5614
20
-178.153
11
48.6329
21
-178.082
0
LINE
8
BLACK
6
CONTINUOUS
10
49.2757
20
-178.153
11
49.4186
21
-178.225
0
LINE
8
BLACK
6
CONTINUOUS
10
49.4186
20
-178.225
11
49.7043
21
-178.225
0
LINE
8
BLACK
6
CONTINUOUS
10
49.7043
20
-178.225
11
49.8471
21
-178.153
0
LINE
8
BLACK
6
CONTINUOUS
10
49.8471
20
-178.153
11
49.9186
21
-178.01
0
LINE
8
BLACK
6
CONTINUOUS
10
49.9186
20
-178.01
11
49.9186
21
-177.939
0
LINE
8
BLACK
6
CONTINUOUS
10
49.9186
20
-177.939
11
49.8471
21
-177.796
0
LINE
8
BLACK
6
CONTINUOUS
10
49.8471
20
-177.796
11
49.7043
21
-177.725
0
LINE
8
BLACK
6
CONTINUOUS
10
49.7043
20
-177.725
11
49.49
21
-177.725
0
LINE
8
BLACK
6
CONTINUOUS
10
49.49
20
-177.725
11
49.3471
21
-177.653
0
LINE
8
BLACK
6
CONTINUOUS
10
49.3471
20
-177.653
11
49.2757
21
-177.51
0
LINE
8
BLACK
6
CONTINUOUS
10
49.2757
20
-177.51
11
49.2757
21
-177.439
0
LINE
8
BLACK
6
CONTINUOUS
10
49.2757
20
-177.439
11
49.3471
21
-177.296
0
LINE
8
BLACK
6
CONTINUOUS
10
49.3471
20
-177.296
11
49.49
21
-177.225
0
LINE
8
BLACK
6
CONTINUOUS
10
49.49
20
-177.225
11
49.7043
21
-177.225
0
LINE
8
BLACK
6
CONTINUOUS
10
49.7043
20
-177.225
11
49.8471
21
-177.296
0
LINE
8
BLACK
6
CONTINUOUS
10
34.6871
20
-178.225
11
34.1871
21
-177.51
0
LINE
8
BLACK
6
CONTINUOUS
10
33.83
20
-178.225
11
33.83
21
-176.725
0
LINE
8
BLACK
6
CONTINUOUS
10
33.83
20
-176.725
11
34.4014
21
-176.725
0
LINE
8
BLACK
6
CONTINUOUS
10
34.4014
20
-176.725
11
34.5443
21
-176.796
0
LINE
8
BLACK
6
CONTINUOUS
10
34.5443
20
-176.796
11
34.6157
21
-176.867
0
LINE
8
BLACK
6
CONTINUOUS
10
34.6157
20
-176.867
11
34.6871
21
-177.01
0
LINE
8
BLACK
6
CONTINUOUS
10
34.6871
20
-177.01
11
34.6871
21
-177.225
0
LINE
8
BLACK
6
CONTINUOUS
10
34.6871
20
-177.225
11
34.6157
21
-177.367
0
LINE
8
BLACK
6
CONTINUOUS
10
34.6157
20
-177.367
11
34.5443
21
-177.439
0
LINE
8
BLACK
6
CONTINUOUS
10
34.5443
20
-177.439
11
34.4014
21
-177.51
0
LINE
8
BLACK
6
CONTINUOUS
10
34.4014
20
-177.51
11
33.83
21
-177.51
0
LINE
8
BLACK
6
CONTINUOUS
10
36.9729
20
-177.439
11
37.1871
21
-177.51
0
LINE
8
BLACK
6
CONTINUOUS
10
37.1871
20
-177.51
11
37.2586
21
-177.582
0
LINE
8
BLACK
6
CONTINUOUS
10
37.2586
20
-177.582
11
37.33
21
-177.725
0
LINE
8
BLACK
6
CONTINUOUS
10
37.33
20
-177.725
11
37.33
21
-177.939
0
LINE
8
BLACK
6
CONTINUOUS
10
37.33
20
-177.939
11
37.2586
21
-178.082
0
LINE
8
BLACK
6
CONTINUOUS
10
37.2586
20
-178.082
11
37.1871
21
-178.153
0
LINE
8
BLACK
6
CONTINUOUS
10
37.1871
20
-178.153
11
37.0443
21
-178.225
0
LINE
8
BLACK
6
CONTINUOUS
10
37.0443
20
-178.225
11
36.4729
21
-178.225
0
LINE
8
BLACK
6
CONTINUOUS
10
36.4729
20
-178.225
11
36.4729
21
-176.725
0
LINE
8
BLACK
6
CONTINUOUS
10
36.4729
20
-176.725
11
36.9729
21
-176.725
0
LINE
8
BLACK
6
CONTINUOUS
10
36.9729
20
-176.725
11
37.1157
21
-176.796
0
LINE
8
BLACK
6
CONTINUOUS
10
37.1157
20
-176.796
11
37.1871
21
-176.867
0
LINE
8
BLACK
6
CONTINUOUS
10
37.1871
20
-176.867
11
37.2586
21
-177.01
0
LINE
8
BLACK
6
CONTINUOUS
10
37.2586
20
-177.01
11
37.2586
21
-177.153
0
LINE
8
BLACK
6
CONTINUOUS
10
37.2586
20
-177.153
11
37.1871
21
-177.296
0
LINE
8
BLACK
6
CONTINUOUS
10
37.1871
20
-177.296
11
37.1157
21
-177.367
0
LINE
8
BLACK
6
CONTINUOUS
10
37.1157
20
-177.367
11
36.9729
21
-177.439
0
LINE
8
BLACK
6
CONTINUOUS
10
36.9729
20
-177.439
11
36.4729
21
-177.439
0
LINE
8
BLACK
6
CONTINUOUS
10
38.6157
20
-177.225
11
38.6157
21
-178.225
0
LINE
8
BLACK
6
CONTINUOUS
10
37.9729
20
-177.225
11
37.9729
21
-178.01
0
LINE
8
BLACK
6
CONTINUOUS
10
37.9729
20
-178.01
11
38.0443
21
-178.153
0
LINE
8
BLACK
6
CONTINUOUS
10
38.0443
20
-178.153
11
38.1871
21
-178.225
0
LINE
8
BLACK
6
CONTINUOUS
10
38.1871
20
-178.225
11
38.4014
21
-178.225
0
LINE
8
BLACK
6
CONTINUOUS
10
38.4014
20
-178.225
11
38.5443
21
-178.153
0
LINE
8
BLACK
6
CONTINUOUS
10
38.5443
20
-178.153
11
38.6157
21
-178.082
0
LINE
8
BLACK
6
CONTINUOUS
10
39.2586
20
-178.153
11
39.4014
21
-178.225
0
LINE
8
BLACK
6
CONTINUOUS
10
39.4014
20
-178.225
11
39.6871
21
-178.225
0
LINE
8
BLACK
6
CONTINUOUS
10
39.6871
20
-178.225
11
39.83
21
-178.153
0
LINE
8
BLACK
6
CONTINUOUS
10
39.83
20
-178.153
11
39.9014
21
-178.01
0
LINE
8
BLACK
6
CONTINUOUS
10
39.9014
20
-178.01
11
39.9014
21
-177.939
0
LINE
8
BLACK
6
CONTINUOUS
10
39.9014
20
-177.939
11
39.83
21
-177.796
0
LINE
8
BLACK
6
CONTINUOUS
10
39.83
20
-177.796
11
39.6871
21
-177.725
0
LINE
8
BLACK
6
CONTINUOUS
10
39.6871
20
-177.725
11
39.4729
21
-177.725
0
LINE
8
BLACK
6
CONTINUOUS
10
39.4729
20
-177.725
11
39.33
21
-177.653
0
LINE
8
BLACK
6
CONTINUOUS
10
39.33
20
-177.653
11
39.2586
21
-177.51
0
LINE
8
BLACK
6
CONTINUOUS
10
39.2586
20
-177.51
11
39.2586
21
-177.439
0
LINE
8
BLACK
6
CONTINUOUS
10
39.2586
20
-177.439
11
39.33
21
-177.296
0
LINE
8
BLACK
6
CONTINUOUS
10
39.33
20
-177.296
11
39.4729
21
-177.225
0
LINE
8
BLACK
6
CONTINUOUS
10
39.4729
20
-177.225
11
39.6871
21
-177.225
0
LINE
8
BLACK
6
CONTINUOUS
10
39.6871
20
-177.225
11
39.83
21
-177.296
0
LINE
8
BLACK
6
CONTINUOUS
10
72.9143
20
-178.225
11
72.2
21
-178.225
0
LINE
8
BLACK
6
CONTINUOUS
10
72.2
20
-178.225
11
72.2
21
-176.725
0
LINE
8
BLACK
6
CONTINUOUS
10
74.5571
20
-178.225
11
74.5571
21
-176.725
0
LINE
8
BLACK
6
CONTINUOUS
10
75.2714
20
-177.225
11
75.2714
21
-178.225
0
LINE
8
BLACK
6
CONTINUOUS
10
75.2714
20
-177.367
11
75.3429
21
-177.296
0
LINE
8
BLACK
6
CONTINUOUS
10
75.3429
20
-177.296
11
75.4857
21
-177.225
0
LINE
8
BLACK
6
CONTINUOUS
10
75.4857
20
-177.225
11
75.7
21
-177.225
0
LINE
8
BLACK
6
CONTINUOUS
10
75.7
20
-177.225
11
75.8429
21
-177.296
0
LINE
8
BLACK
6
CONTINUOUS
10
75.8429
20
-177.296
11
75.9143
21
-177.439
0
LINE
8
BLACK
6
CONTINUOUS
10
75.9143
20
-177.439
11
75.9143
21
-178.225
0
LINE
8
BLACK
6
CONTINUOUS
10
76.5571
20
-178.153
11
76.7
21
-178.225
0
LINE
8
BLACK
6
CONTINUOUS
10
76.7
20
-178.225
11
76.9857
21
-178.225
0
LINE
8
BLACK
6
CONTINUOUS
10
76.9857
20
-178.225
11
77.1286
21
-178.153
0
LINE
8
BLACK
6
CONTINUOUS
10
77.1286
20
-178.153
11
77.2
21
-178.01
0
LINE
8
BLACK
6
CONTINUOUS
10
77.2
20
-178.01
11
77.2
21
-177.939
0
LINE
8
BLACK
6
CONTINUOUS
10
77.2
20
-177.939
11
77.1286
21
-177.796
0
LINE
8
BLACK
6
CONTINUOUS
10
77.1286
20
-177.796
11
76.9857
21
-177.725
0
LINE
8
BLACK
6
CONTINUOUS
10
76.9857
20
-177.725
11
76.7714
21
-177.725
0
LINE
8
BLACK
6
CONTINUOUS
10
76.7714
20
-177.725
11
76.6286
21
-177.653
0
LINE
8
BLACK
6
CONTINUOUS
10
76.6286
20
-177.653
11
76.5571
21
-177.51
0
LINE
8
BLACK
6
CONTINUOUS
10
76.5571
20
-177.51
11
76.5571
21
-177.439
0
LINE
8
BLACK
6
CONTINUOUS
10
76.5571
20
-177.439
11
76.6286
21
-177.296
0
LINE
8
BLACK
6
CONTINUOUS
10
76.6286
20
-177.296
11
76.7714
21
-177.225
0
LINE
8
BLACK
6
CONTINUOUS
10
76.7714
20
-177.225
11
76.9857
21
-177.225
0
LINE
8
BLACK
6
CONTINUOUS
10
76.9857
20
-177.225
11
77.1286
21
-177.296
0
LINE
8
BLACK
6
CONTINUOUS
10
78.4143
20
-178.153
11
78.2714
21
-178.225
0
LINE
8
BLACK
6
CONTINUOUS
10
78.2714
20
-178.225
11
77.9857
21
-178.225
0
LINE
8
BLACK
6
CONTINUOUS
10
77.9857
20
-178.225
11
77.8429
21
-178.153
0
LINE
8
BLACK
6
CONTINUOUS
10
77.8429
20
-178.153
11
77.7714
21
-178.01
0
LINE
8
BLACK
6
CONTINUOUS
10
77.7714
20
-178.01
11
77.7714
21
-177.439
0
LINE
8
BLACK
6
CONTINUOUS
10
77.7714
20
-177.439
11
77.8429
21
-177.296
0
LINE
8
BLACK
6
CONTINUOUS
10
77.8429
20
-177.296
11
77.9857
21
-177.225
0
LINE
8
BLACK
6
CONTINUOUS
10
77.9857
20
-177.225
11
78.2714
21
-177.225
0
LINE
8
BLACK
6
CONTINUOUS
10
78.2714
20
-177.225
11
78.4143
21
-177.296
0
LINE
8
BLACK
6
CONTINUOUS
10
78.4143
20
-177.296
11
78.4857
21
-177.439
0
LINE
8
BLACK
6
CONTINUOUS
10
78.4857
20
-177.439
11
78.4857
21
-177.582
0
LINE
8
BLACK
6
CONTINUOUS
10
78.4857
20
-177.582
11
77.7714
21
-177.725
0
LINE
8
BLACK
6
CONTINUOUS
10
79.1286
20
-178.225
11
79.1286
21
-177.225
0
LINE
8
BLACK
6
CONTINUOUS
10
79.1286
20
-177.51
11
79.2
21
-177.367
0
LINE
8
BLACK
6
CONTINUOUS
10
79.2
20
-177.367
11
79.2714
21
-177.296
0
LINE
8
BLACK
6
CONTINUOUS
10
79.2714
20
-177.296
11
79.4143
21
-177.225
0
LINE
8
BLACK
6
CONTINUOUS
10
79.4143
20
-177.225
11
79.5571
21
-177.225
0
LINE
8
BLACK
6
CONTINUOUS
10
79.8429
20
-177.225
11
80.4143
21
-177.225
0
LINE
8
BLACK
6
CONTINUOUS
10
80.0571
20
-176.725
11
80.0571
21
-178.01
0
LINE
8
BLACK
6
CONTINUOUS
10
80.0571
20
-178.01
11
80.1286
21
-178.153
0
LINE
8
BLACK
6
CONTINUOUS
10
80.1286
20
-178.153
11
80.2714
21
-178.225
0
LINE
8
BLACK
6
CONTINUOUS
10
80.2714
20
-178.225
11
80.4143
21
-178.225
0
LINE
8
BLACK
6
CONTINUOUS
10
62.7543
20
-178.225
11
62.2543
21
-177.51
0
LINE
8
BLACK
6
CONTINUOUS
10
61.8971
20
-178.225
11
61.8971
21
-176.725
0
LINE
8
BLACK
6
CONTINUOUS
10
61.8971
20
-176.725
11
62.4686
21
-176.725
0
LINE
8
BLACK
6
CONTINUOUS
10
62.4686
20
-176.725
11
62.6114
21
-176.796
0
LINE
8
BLACK
6
CONTINUOUS
10
62.6114
20
-176.796
11
62.6829
21
-176.867
0
LINE
8
BLACK
6
CONTINUOUS
10
62.6829
20
-176.867
11
62.7543
21
-177.01
0
LINE
8
BLACK
6
CONTINUOUS
10
62.7543
20
-177.01
11
62.7543
21
-177.225
0
LINE
8
BLACK
6
CONTINUOUS
10
62.7543
20
-177.225
11
62.6829
21
-177.367
0
LINE
8
BLACK
6
CONTINUOUS
10
62.6829
20
-177.367
11
62.6114
21
-177.439
0
LINE
8
BLACK
6
CONTINUOUS
10
62.6114
20
-177.439
11
62.4686
21
-177.51
0
LINE
8
BLACK
6
CONTINUOUS
10
62.4686
20
-177.51
11
61.8971
21
-177.51
0
LINE
8
BLACK
6
CONTINUOUS
10
64.54
20
-178.225
11
64.54
21
-176.725
0
LINE
8
BLACK
6
CONTINUOUS
10
65.2543
20
-177.225
11
65.2543
21
-178.225
0
LINE
8
BLACK
6
CONTINUOUS
10
65.2543
20
-177.367
11
65.3257
21
-177.296
0
LINE
8
BLACK
6
CONTINUOUS
10
65.3257
20
-177.296
11
65.4686
21
-177.225
0
LINE
8
BLACK
6
CONTINUOUS
10
65.4686
20
-177.225
11
65.6829
21
-177.225
0
LINE
8
BLACK
6
CONTINUOUS
10
65.6829
20
-177.225
11
65.8257
21
-177.296
0
LINE
8
BLACK
6
CONTINUOUS
10
65.8257
20
-177.296
11
65.8971
21
-177.439
0
LINE
8
BLACK
6
CONTINUOUS
10
65.8971
20
-177.439
11
65.8971
21
-178.225
0
LINE
8
BLACK
6
CONTINUOUS
10
66.54
20
-178.153
11
66.6829
21
-178.225
0
LINE
8
BLACK
6
CONTINUOUS
10
66.6829
20
-178.225
11
66.9686
21
-178.225
0
LINE
8
BLACK
6
CONTINUOUS
10
66.9686
20
-178.225
11
67.1114
21
-178.153
0
LINE
8
BLACK
6
CONTINUOUS
10
67.1114
20
-178.153
11
67.1829
21
-178.01
0
LINE
8
BLACK
6
CONTINUOUS
10
67.1829
20
-178.01
11
67.1829
21
-177.939
0
LINE
8
BLACK
6
CONTINUOUS
10
67.1829
20
-177.939
11
67.1114
21
-177.796
0
LINE
8
BLACK
6
CONTINUOUS
10
67.1114
20
-177.796
11
66.9686
21
-177.725
0
LINE
8
BLACK
6
CONTINUOUS
10
66.9686
20
-177.725
11
66.7543
21
-177.725
0
LINE
8
BLACK
6
CONTINUOUS
10
66.7543
20
-177.725
11
66.6114
21
-177.653
0
LINE
8
BLACK
6
CONTINUOUS
10
66.6114
20
-177.653
11
66.54
21
-177.51
0
LINE
8
BLACK
6
CONTINUOUS
10
66.54
20
-177.51
11
66.54
21
-177.439
0
LINE
8
BLACK
6
CONTINUOUS
10
66.54
20
-177.439
11
66.6114
21
-177.296
0
LINE
8
BLACK
6
CONTINUOUS
10
66.6114
20
-177.296
11
66.7543
21
-177.225
0
LINE
8
BLACK
6
CONTINUOUS
10
66.7543
20
-177.225
11
66.9686
21
-177.225
0
LINE
8
BLACK
6
CONTINUOUS
10
66.9686
20
-177.225
11
67.1114
21
-177.296
0
LINE
8
BLACK
6
CONTINUOUS
10
68.3971
20
-178.153
11
68.2543
21
-178.225
0
LINE
8
BLACK
6
CONTINUOUS
10
68.2543
20
-178.225
11
67.9686
21
-178.225
0
LINE
8
BLACK
6
CONTINUOUS
10
67.9686
20
-178.225
11
67.8257
21
-178.153
0
LINE
8
BLACK
6
CONTINUOUS
10
67.8257
20
-178.153
11
67.7543
21
-178.01
0
LINE
8
BLACK
6
CONTINUOUS
10
67.7543
20
-178.01
11
67.7543
21
-177.439
0
LINE
8
BLACK
6
CONTINUOUS
10
67.7543
20
-177.439
11
67.8257
21
-177.296
0
LINE
8
BLACK
6
CONTINUOUS
10
67.8257
20
-177.296
11
67.9686
21
-177.225
0
LINE
8
BLACK
6
CONTINUOUS
10
67.9686
20
-177.225
11
68.2543
21
-177.225
0
LINE
8
BLACK
6
CONTINUOUS
10
68.2543
20
-177.225
11
68.3971
21
-177.296
0
LINE
8
BLACK
6
CONTINUOUS
10
68.3971
20
-177.296
11
68.4686
21
-177.439
0
LINE
8
BLACK
6
CONTINUOUS
10
68.4686
20
-177.439
11
68.4686
21
-177.582
0
LINE
8
BLACK
6
CONTINUOUS
10
68.4686
20
-177.582
11
67.7543
21
-177.725
0
LINE
8
BLACK
6
CONTINUOUS
10
69.1114
20
-178.225
11
69.1114
21
-177.225
0
LINE
8
BLACK
6
CONTINUOUS
10
69.1114
20
-177.51
11
69.1829
21
-177.367
0
LINE
8
BLACK
6
CONTINUOUS
10
69.1829
20
-177.367
11
69.2543
21
-177.296
0
LINE
8
BLACK
6
CONTINUOUS
10
69.2543
20
-177.296
11
69.3971
21
-177.225
0
LINE
8
BLACK
6
CONTINUOUS
10
69.3971
20
-177.225
11
69.54
21
-177.225
0
LINE
8
BLACK
6
CONTINUOUS
10
69.8257
20
-177.225
11
70.3971
21
-177.225
0
LINE
8
BLACK
6
CONTINUOUS
10
70.04
20
-176.725
11
70.04
21
-178.01
0
LINE
8
BLACK
6
CONTINUOUS
10
70.04
20
-178.01
11
70.1114
21
-178.153
0
LINE
8
BLACK
6
CONTINUOUS
10
70.1114
20
-178.153
11
70.2543
21
-178.225
0
LINE
8
BLACK
6
CONTINUOUS
10
70.2543
20
-178.225
11
70.3971
21
-178.225
0
LINE
8
BLACK
6
CONTINUOUS
10
96.8257
20
-178.796
11
96.7543
21
-178.725
0
LINE
8
BLACK
6
CONTINUOUS
10
96.7543
20
-178.725
11
96.6114
21
-178.51
0
LINE
8
BLACK
6
CONTINUOUS
10
96.6114
20
-178.51
11
96.54
21
-178.367
0
LINE
8
BLACK
6
CONTINUOUS
10
96.54
20
-178.367
11
96.4686
21
-178.153
0
LINE
8
BLACK
6
CONTINUOUS
10
96.4686
20
-178.153
11
96.3971
21
-177.796
0
LINE
8
BLACK
6
CONTINUOUS
10
96.3971
20
-177.796
11
96.3971
21
-177.51
0
LINE
8
BLACK
6
CONTINUOUS
10
96.3971
20
-177.51
11
96.4686
21
-177.153
0
LINE
8
BLACK
6
CONTINUOUS
10
96.4686
20
-177.153
11
96.54
21
-176.939
0
LINE
8
BLACK
6
CONTINUOUS
10
96.54
20
-176.939
11
96.6114
21
-176.796
0
LINE
8
BLACK
6
CONTINUOUS
10
96.6114
20
-176.796
11
96.7543
21
-176.582
0
LINE
8
BLACK
6
CONTINUOUS
10
96.7543
20
-176.582
11
96.8257
21
-176.51
0
LINE
8
BLACK
6
CONTINUOUS
10
98.2543
20
-178.082
11
98.1829
21
-178.153
0
LINE
8
BLACK
6
CONTINUOUS
10
98.1829
20
-178.153
11
97.9686
21
-178.225
0
LINE
8
BLACK
6
CONTINUOUS
10
97.9686
20
-178.225
11
97.8257
21
-178.225
0
LINE
8
BLACK
6
CONTINUOUS
10
97.8257
20
-178.225
11
97.6114
21
-178.153
0
LINE
8
BLACK
6
CONTINUOUS
10
97.6114
20
-178.153
11
97.4686
21
-178.01
0
LINE
8
BLACK
6
CONTINUOUS
10
97.4686
20
-178.01
11
97.3971
21
-177.867
0
LINE
8
BLACK
6
CONTINUOUS
10
97.3971
20
-177.867
11
97.3257
21
-177.582
0
LINE
8
BLACK
6
CONTINUOUS
10
97.3257
20
-177.582
11
97.3257
21
-177.367
0
LINE
8
BLACK
6
CONTINUOUS
10
97.3257
20
-177.367
11
97.3971
21
-177.082
0
LINE
8
BLACK
6
CONTINUOUS
10
97.3971
20
-177.082
11
97.4686
21
-176.939
0
LINE
8
BLACK
6
CONTINUOUS
10
97.4686
20
-176.939
11
97.6114
21
-176.796
0
LINE
8
BLACK
6
CONTINUOUS
10
97.6114
20
-176.796
11
97.8257
21
-176.725
0
LINE
8
BLACK
6
CONTINUOUS
10
97.8257
20
-176.725
11
97.9686
21
-176.725
0
LINE
8
BLACK
6
CONTINUOUS
10
97.9686
20
-176.725
11
98.1829
21
-176.796
0
LINE
8
BLACK
6
CONTINUOUS
10
98.1829
20
-176.796
11
98.2543
21
-176.867
0
LINE
8
BLACK
6
CONTINUOUS
10
98.7543
20
-178.796
11
98.8257
21
-178.725
0
LINE
8
BLACK
6
CONTINUOUS
10
98.8257
20
-178.725
11
98.9686
21
-178.51
0
LINE
8
BLACK
6
CONTINUOUS
10
98.9686
20
-178.51
11
99.04
21
-178.367
0
LINE
8
BLACK
6
CONTINUOUS
10
99.04
20
-178.367
11
99.1114
21
-178.153
0
LINE
8
BLACK
6
CONTINUOUS
10
99.1114
20
-178.153
11
99.1829
21
-177.796
0
LINE
8
BLACK
6
CONTINUOUS
10
99.1829
20
-177.796
11
99.1829
21
-177.51
0
LINE
8
BLACK
6
CONTINUOUS
10
99.1829
20
-177.51
11
99.1114
21
-177.153
0
LINE
8
BLACK
6
CONTINUOUS
10
99.1114
20
-177.153
11
99.04
21
-176.939
0
LINE
8
BLACK
6
CONTINUOUS
10
99.04
20
-176.939
11
98.9686
21
-176.796
0
LINE
8
BLACK
6
CONTINUOUS
10
98.9686
20
-176.796
11
98.8257
21
-176.582
0
LINE
8
BLACK
6
CONTINUOUS
10
98.8257
20
-176.582
11
98.7543
21
-176.51
0
LINE
8
BLACK
6
CONTINUOUS
10
131.457
20
-159.992
11
131.671
21
-160.064
0
LINE
8
BLACK
6
CONTINUOUS
10
131.671
20
-160.064
11
132.029
21
-160.064
0
LINE
8
BLACK
6
CONTINUOUS
10
132.029
20
-160.064
11
132.171
21
-159.992
0
LINE
8
BLACK
6
CONTINUOUS
10
132.171
20
-159.992
11
132.243
21
-159.921
0
LINE
8
BLACK
6
CONTINUOUS
10
132.243
20
-159.921
11
132.314
21
-159.778
0
LINE
8
BLACK
6
CONTINUOUS
10
132.314
20
-159.778
11
132.314
21
-159.635
0
LINE
8
BLACK
6
CONTINUOUS
10
132.314
20
-159.635
11
132.243
21
-159.492
0
LINE
8
BLACK
6
CONTINUOUS
10
132.243
20
-159.492
11
132.171
21
-159.421
0
LINE
8
BLACK
6
CONTINUOUS
10
132.171
20
-159.421
11
132.029
21
-159.349
0
LINE
8
BLACK
6
CONTINUOUS
10
132.029
20
-159.349
11
131.743
21
-159.278
0
LINE
8
BLACK
6
CONTINUOUS
10
131.743
20
-159.278
11
131.6
21
-159.206
0
LINE
8
BLACK
6
CONTINUOUS
10
131.6
20
-159.206
11
131.529
21
-159.135
0
LINE
8
BLACK
6
CONTINUOUS
10
131.529
20
-159.135
11
131.457
21
-158.992
0
LINE
8
BLACK
6
CONTINUOUS
10
131.457
20
-158.992
11
131.457
21
-158.849
0
LINE
8
BLACK
6
CONTINUOUS
10
131.457
20
-158.849
11
131.529
21
-158.706
0
LINE
8
BLACK
6
CONTINUOUS
10
131.529
20
-158.706
11
131.6
21
-158.635
0
LINE
8
BLACK
6
CONTINUOUS
10
131.6
20
-158.635
11
131.743
21
-158.564
0
LINE
8
BLACK
6
CONTINUOUS
10
131.743
20
-158.564
11
132.1
21
-158.564
0
LINE
8
BLACK
6
CONTINUOUS
10
132.1
20
-158.564
11
132.314
21
-158.635
0
LINE
8
BLACK
6
CONTINUOUS
10
132.957
20
-160.064
11
132.957
21
-158.564
0
LINE
8
BLACK
6
CONTINUOUS
10
133.814
20
-160.064
11
133.171
21
-159.206
0
LINE
8
BLACK
6
CONTINUOUS
10
133.814
20
-158.564
11
132.957
21
-159.421
0
LINE
8
BLACK
6
CONTINUOUS
10
134.314
20
-158.564
11
135.314
21
-158.564
0
LINE
8
BLACK
6
CONTINUOUS
10
135.314
20
-158.564
11
134.671
21
-160.064
0
LINE
8
BLACK
6
CONTINUOUS
10
104.787
20
-159.992
11
105.001
21
-160.064
0
LINE
8
BLACK
6
CONTINUOUS
10
105.001
20
-160.064
11
105.359
21
-160.064
0
LINE
8
BLACK
6
CONTINUOUS
10
105.359
20
-160.064
11
105.501
21
-159.992
0
LINE
8
BLACK
6
CONTINUOUS
10
105.501
20
-159.992
11
105.573
21
-159.921
0
LINE
8
BLACK
6
CONTINUOUS
10
105.573
20
-159.921
11
105.644
21
-159.778
0
LINE
8
BLACK
6
CONTINUOUS
10
105.644
20
-159.778
11
105.644
21
-159.635
0
LINE
8
BLACK
6
CONTINUOUS
10
105.644
20
-159.635
11
105.573
21
-159.492
0
LINE
8
BLACK
6
CONTINUOUS
10
105.573
20
-159.492
11
105.501
21
-159.421
0
LINE
8
BLACK
6
CONTINUOUS
10
105.501
20
-159.421
11
105.359
21
-159.349
0
LINE
8
BLACK
6
CONTINUOUS
10
105.359
20
-159.349
11
105.073
21
-159.278
0
LINE
8
BLACK
6
CONTINUOUS
10
105.073
20
-159.278
11
104.93
21
-159.206
0
LINE
8
BLACK
6
CONTINUOUS
10
104.93
20
-159.206
11
104.859
21
-159.135
0
LINE
8
BLACK
6
CONTINUOUS
10
104.859
20
-159.135
11
104.787
21
-158.992
0
LINE
8
BLACK
6
CONTINUOUS
10
104.787
20
-158.992
11
104.787
21
-158.849
0
LINE
8
BLACK
6
CONTINUOUS
10
104.787
20
-158.849
11
104.859
21
-158.706
0
LINE
8
BLACK
6
CONTINUOUS
10
104.859
20
-158.706
11
104.93
21
-158.635
0
LINE
8
BLACK
6
CONTINUOUS
10
104.93
20
-158.635
11
105.073
21
-158.564
0
LINE
8
BLACK
6
CONTINUOUS
10
105.073
20
-158.564
11
105.43
21
-158.564
0
LINE
8
BLACK
6
CONTINUOUS
10
105.43
20
-158.564
11
105.644
21
-158.635
0
LINE
8
BLACK
6
CONTINUOUS
10
106.287
20
-160.064
11
106.287
21
-158.564
0
LINE
8
BLACK
6
CONTINUOUS
10
107.144
20
-160.064
11
106.501
21
-159.206
0
LINE
8
BLACK
6
CONTINUOUS
10
107.144
20
-158.564
11
106.287
21
-159.421
0
LINE
8
BLACK
6
CONTINUOUS
10
108.001
20
-159.206
11
107.859
21
-159.135
0
LINE
8
BLACK
6
CONTINUOUS
10
107.859
20
-159.135
11
107.787
21
-159.064
0
LINE
8
BLACK
6
CONTINUOUS
10
107.787
20
-159.064
11
107.716
21
-158.921
0
LINE
8
BLACK
6
CONTINUOUS
10
107.716
20
-158.921
11
107.716
21
-158.849
0
LINE
8
BLACK
6
CONTINUOUS
10
107.716
20
-158.849
11
107.787
21
-158.706
0
LINE
8
BLACK
6
CONTINUOUS
10
107.787
20
-158.706
11
107.859
21
-158.635
0
LINE
8
BLACK
6
CONTINUOUS
10
107.859
20
-158.635
11
108.001
21
-158.564
0
LINE
8
BLACK
6
CONTINUOUS
10
108.001
20
-158.564
11
108.287
21
-158.564
0
LINE
8
BLACK
6
CONTINUOUS
10
108.287
20
-158.564
11
108.43
21
-158.635
0
LINE
8
BLACK
6
CONTINUOUS
10
108.43
20
-158.635
11
108.501
21
-158.706
0
LINE
8
BLACK
6
CONTINUOUS
10
108.501
20
-158.706
11
108.573
21
-158.849
0
LINE
8
BLACK
6
CONTINUOUS
10
108.573
20
-158.849
11
108.573
21
-158.921
0
LINE
8
BLACK
6
CONTINUOUS
10
108.573
20
-158.921
11
108.501
21
-159.064
0
LINE
8
BLACK
6
CONTINUOUS
10
108.501
20
-159.064
11
108.43
21
-159.135
0
LINE
8
BLACK
6
CONTINUOUS
10
108.43
20
-159.135
11
108.287
21
-159.206
0
LINE
8
BLACK
6
CONTINUOUS
10
108.287
20
-159.206
11
108.001
21
-159.206
0
LINE
8
BLACK
6
CONTINUOUS
10
108.001
20
-159.206
11
107.859
21
-159.278
0
LINE
8
BLACK
6
CONTINUOUS
10
107.859
20
-159.278
11
107.787
21
-159.349
0
LINE
8
BLACK
6
CONTINUOUS
10
107.787
20
-159.349
11
107.716
21
-159.492
0
LINE
8
BLACK
6
CONTINUOUS
10
107.716
20
-159.492
11
107.716
21
-159.778
0
LINE
8
BLACK
6
CONTINUOUS
10
107.716
20
-159.778
11
107.787
21
-159.921
0
LINE
8
BLACK
6
CONTINUOUS
10
107.787
20
-159.921
11
107.859
21
-159.992
0
LINE
8
BLACK
6
CONTINUOUS
10
107.859
20
-159.992
11
108.001
21
-160.064
0
LINE
8
BLACK
6
CONTINUOUS
10
108.001
20
-160.064
11
108.287
21
-160.064
0
LINE
8
BLACK
6
CONTINUOUS
10
108.287
20
-160.064
11
108.43
21
-159.992
0
LINE
8
BLACK
6
CONTINUOUS
10
108.43
20
-159.992
11
108.501
21
-159.921
0
LINE
8
BLACK
6
CONTINUOUS
10
108.501
20
-159.921
11
108.573
21
-159.778
0
LINE
8
BLACK
6
CONTINUOUS
10
108.573
20
-159.778
11
108.573
21
-159.492
0
LINE
8
BLACK
6
CONTINUOUS
10
108.573
20
-159.492
11
108.501
21
-159.349
0
LINE
8
BLACK
6
CONTINUOUS
10
108.501
20
-159.349
11
108.43
21
-159.278
0
LINE
8
BLACK
6
CONTINUOUS
10
108.43
20
-159.278
11
108.287
21
-159.206
0
LINE
8
BLACK
6
CONTINUOUS
10
78.1171
20
-159.992
11
78.3314
21
-160.064
0
LINE
8
BLACK
6
CONTINUOUS
10
78.3314
20
-160.064
11
78.6886
21
-160.064
0
LINE
8
BLACK
6
CONTINUOUS
10
78.6886
20
-160.064
11
78.8314
21
-159.992
0
LINE
8
BLACK
6
CONTINUOUS
10
78.8314
20
-159.992
11
78.9029
21
-159.921
0
LINE
8
BLACK
6
CONTINUOUS
10
78.9029
20
-159.921
11
78.9743
21
-159.778
0
LINE
8
BLACK
6
CONTINUOUS
10
78.9743
20
-159.778
11
78.9743
21
-159.635
0
LINE
8
BLACK
6
CONTINUOUS
10
78.9743
20
-159.635
11
78.9029
21
-159.492
0
LINE
8
BLACK
6
CONTINUOUS
10
78.9029
20
-159.492
11
78.8314
21
-159.421
0
LINE
8
BLACK
6
CONTINUOUS
10
78.8314
20
-159.421
11
78.6886
21
-159.349
0
LINE
8
BLACK
6
CONTINUOUS
10
78.6886
20
-159.349
11
78.4029
21
-159.278
0
LINE
8
BLACK
6
CONTINUOUS
10
78.4029
20
-159.278
11
78.26
21
-159.206
0
LINE
8
BLACK
6
CONTINUOUS
10
78.26
20
-159.206
11
78.1886
21
-159.135
0
LINE
8
BLACK
6
CONTINUOUS
10
78.1886
20
-159.135
11
78.1171
21
-158.992
0
LINE
8
BLACK
6
CONTINUOUS
10
78.1171
20
-158.992
11
78.1171
21
-158.849
0
LINE
8
BLACK
6
CONTINUOUS
10
78.1171
20
-158.849
11
78.1886
21
-158.706
0
LINE
8
BLACK
6
CONTINUOUS
10
78.1886
20
-158.706
11
78.26
21
-158.635
0
LINE
8
BLACK
6
CONTINUOUS
10
78.26
20
-158.635
11
78.4029
21
-158.564
0
LINE
8
BLACK
6
CONTINUOUS
10
78.4029
20
-158.564
11
78.76
21
-158.564
0
LINE
8
BLACK
6
CONTINUOUS
10
78.76
20
-158.564
11
78.9743
21
-158.635
0
LINE
8
BLACK
6
CONTINUOUS
10
79.6171
20
-160.064
11
79.6171
21
-158.564
0
LINE
8
BLACK
6
CONTINUOUS
10
80.4743
20
-160.064
11
79.8314
21
-159.206
0
LINE
8
BLACK
6
CONTINUOUS
10
80.4743
20
-158.564
11
79.6171
21
-159.421
0
LINE
8
BLACK
6
CONTINUOUS
10
81.8314
20
-158.564
11
81.1171
21
-158.564
0
LINE
8
BLACK
6
CONTINUOUS
10
81.1171
20
-158.564
11
81.0457
21
-159.278
0
LINE
8
BLACK
6
CONTINUOUS
10
81.0457
20
-159.278
11
81.1171
21
-159.206
0
LINE
8
BLACK
6
CONTINUOUS
10
81.1171
20
-159.206
11
81.26
21
-159.135
0
LINE
8
BLACK
6
CONTINUOUS
10
81.26
20
-159.135
11
81.6171
21
-159.135
0
LINE
8
BLACK
6
CONTINUOUS
10
81.6171
20
-159.135
11
81.76
21
-159.206
0
LINE
8
BLACK
6
CONTINUOUS
10
81.76
20
-159.206
11
81.8314
21
-159.278
0
LINE
8
BLACK
6
CONTINUOUS
10
81.8314
20
-159.278
11
81.9029
21
-159.421
0
LINE
8
BLACK
6
CONTINUOUS
10
81.9029
20
-159.421
11
81.9029
21
-159.778
0
LINE
8
BLACK
6
CONTINUOUS
10
81.9029
20
-159.778
11
81.8314
21
-159.921
0
LINE
8
BLACK
6
CONTINUOUS
10
81.8314
20
-159.921
11
81.76
21
-159.992
0
LINE
8
BLACK
6
CONTINUOUS
10
81.76
20
-159.992
11
81.6171
21
-160.064
0
LINE
8
BLACK
6
CONTINUOUS
10
81.6171
20
-160.064
11
81.26
21
-160.064
0
LINE
8
BLACK
6
CONTINUOUS
10
81.26
20
-160.064
11
81.1171
21
-159.992
0
LINE
8
BLACK
6
CONTINUOUS
10
81.1171
20
-159.992
11
81.0457
21
-159.921
0
LINE
8
BLACK
6
CONTINUOUS
10
50.8121
20
-159.992
11
51.0264
21
-160.064
0
LINE
8
BLACK
6
CONTINUOUS
10
51.0264
20
-160.064
11
51.3836
21
-160.064
0
LINE
8
BLACK
6
CONTINUOUS
10
51.3836
20
-160.064
11
51.5264
21
-159.992
0
LINE
8
BLACK
6
CONTINUOUS
10
51.5264
20
-159.992
11
51.5979
21
-159.921
0
LINE
8
BLACK
6
CONTINUOUS
10
51.5979
20
-159.921
11
51.6693
21
-159.778
0
LINE
8
BLACK
6
CONTINUOUS
10
51.6693
20
-159.778
11
51.6693
21
-159.635
0
LINE
8
BLACK
6
CONTINUOUS
10
51.6693
20
-159.635
11
51.5979
21
-159.492
0
LINE
8
BLACK
6
CONTINUOUS
10
51.5979
20
-159.492
11
51.5264
21
-159.421
0
LINE
8
BLACK
6
CONTINUOUS
10
51.5264
20
-159.421
11
51.3836
21
-159.349
0
LINE
8
BLACK
6
CONTINUOUS
10
51.3836
20
-159.349
11
51.0979
21
-159.278
0
LINE
8
BLACK
6
CONTINUOUS
10
51.0979
20
-159.278
11
50.955
21
-159.206
0
LINE
8
BLACK
6
CONTINUOUS
10
50.955
20
-159.206
11
50.8836
21
-159.135
0
LINE
8
BLACK
6
CONTINUOUS
10
50.8836
20
-159.135
11
50.8121
21
-158.992
0
LINE
8
BLACK
6
CONTINUOUS
10
50.8121
20
-158.992
11
50.8121
21
-158.849
0
LINE
8
BLACK
6
CONTINUOUS
10
50.8121
20
-158.849
11
50.8836
21
-158.706
0
LINE
8
BLACK
6
CONTINUOUS
10
50.8836
20
-158.706
11
50.955
21
-158.635
0
LINE
8
BLACK
6
CONTINUOUS
10
50.955
20
-158.635
11
51.0979
21
-158.564
0
LINE
8
BLACK
6
CONTINUOUS
10
51.0979
20
-158.564
11
51.455
21
-158.564
0
LINE
8
BLACK
6
CONTINUOUS
10
51.455
20
-158.564
11
51.6693
21
-158.635
0
LINE
8
BLACK
6
CONTINUOUS
10
52.3121
20
-160.064
11
52.3121
21
-158.564
0
LINE
8
BLACK
6
CONTINUOUS
10
53.1693
20
-160.064
11
52.5264
21
-159.206
0
LINE
8
BLACK
6
CONTINUOUS
10
53.1693
20
-158.564
11
52.3121
21
-159.421
0
LINE
8
BLACK
6
CONTINUOUS
10
54.455
20
-158.564
11
54.1693
21
-158.564
0
LINE
8
BLACK
6
CONTINUOUS
10
54.1693
20
-158.564
11
54.0264
21
-158.635
0
LINE
8
BLACK
6
CONTINUOUS
10
54.0264
20
-158.635
11
53.955
21
-158.706
0
LINE
8
BLACK
6
CONTINUOUS
10
53.955
20
-158.706
11
53.8121
21
-158.921
0
LINE
8
BLACK
6
CONTINUOUS
10
53.8121
20
-158.921
11
53.7407
21
-159.206
0
LINE
8
BLACK
6
CONTINUOUS
10
53.7407
20
-159.206
11
53.7407
21
-159.778
0
LINE
8
BLACK
6
CONTINUOUS
10
53.7407
20
-159.778
11
53.8121
21
-159.921
0
LINE
8
BLACK
6
CONTINUOUS
10
53.8121
20
-159.921
11
53.8836
21
-159.992
0
LINE
8
BLACK
6
CONTINUOUS
10
53.8836
20
-159.992
11
54.0264
21
-160.064
0
LINE
8
BLACK
6
CONTINUOUS
10
54.0264
20
-160.064
11
54.3121
21
-160.064
0
LINE
8
BLACK
6
CONTINUOUS
10
54.3121
20
-160.064
11
54.455
21
-159.992
0
LINE
8
BLACK
6
CONTINUOUS
10
54.455
20
-159.992
11
54.5264
21
-159.921
0
LINE
8
BLACK
6
CONTINUOUS
10
54.5264
20
-159.921
11
54.5979
21
-159.778
0
LINE
8
BLACK
6
CONTINUOUS
10
54.5979
20
-159.778
11
54.5979
21
-159.421
0
LINE
8
BLACK
6
CONTINUOUS
10
54.5979
20
-159.421
11
54.5264
21
-159.278
0
LINE
8
BLACK
6
CONTINUOUS
10
54.5264
20
-159.278
11
54.455
21
-159.206
0
LINE
8
BLACK
6
CONTINUOUS
10
54.455
20
-159.206
11
54.3121
21
-159.135
0
LINE
8
BLACK
6
CONTINUOUS
10
54.3121
20
-159.135
11
54.0264
21
-159.135
0
LINE
8
BLACK
6
CONTINUOUS
10
54.0264
20
-159.135
11
53.8836
21
-159.206
0
LINE
8
BLACK
6
CONTINUOUS
10
53.8836
20
-159.206
11
53.8121
21
-159.278
0
LINE
8
BLACK
6
CONTINUOUS
10
53.8121
20
-159.278
11
53.7407
21
-159.421
0
LINE
8
BLACK
6
CONTINUOUS
10
176.915
20
-109.645
11
176.415
21
-108.93
0
LINE
8
BLACK
6
CONTINUOUS
10
176.058
20
-109.645
11
176.058
21
-108.145
0
LINE
8
BLACK
6
CONTINUOUS
10
176.058
20
-108.145
11
176.629
21
-108.145
0
LINE
8
BLACK
6
CONTINUOUS
10
176.629
20
-108.145
11
176.772
21
-108.216
0
LINE
8
BLACK
6
CONTINUOUS
10
176.772
20
-108.216
11
176.844
21
-108.287
0
LINE
8
BLACK
6
CONTINUOUS
10
176.844
20
-108.287
11
176.915
21
-108.43
0
LINE
8
BLACK
6
CONTINUOUS
10
176.915
20
-108.43
11
176.915
21
-108.645
0
LINE
8
BLACK
6
CONTINUOUS
10
176.915
20
-108.645
11
176.844
21
-108.787
0
LINE
8
BLACK
6
CONTINUOUS
10
176.844
20
-108.787
11
176.772
21
-108.859
0
LINE
8
BLACK
6
CONTINUOUS
10
176.772
20
-108.859
11
176.629
21
-108.93
0
LINE
8
BLACK
6
CONTINUOUS
10
176.629
20
-108.93
11
176.058
21
-108.93
0
LINE
8
BLACK
6
CONTINUOUS
10
178.201
20
-108.145
11
177.915
21
-108.145
0
LINE
8
BLACK
6
CONTINUOUS
10
177.915
20
-108.145
11
177.772
21
-108.216
0
LINE
8
BLACK
6
CONTINUOUS
10
177.772
20
-108.216
11
177.701
21
-108.287
0
LINE
8
BLACK
6
CONTINUOUS
10
177.701
20
-108.287
11
177.558
21
-108.502
0
LINE
8
BLACK
6
CONTINUOUS
10
177.558
20
-108.502
11
177.486
21
-108.787
0
LINE
8
BLACK
6
CONTINUOUS
10
177.486
20
-108.787
11
177.486
21
-109.359
0
LINE
8
BLACK
6
CONTINUOUS
10
177.486
20
-109.359
11
177.558
21
-109.502
0
LINE
8
BLACK
6
CONTINUOUS
10
177.558
20
-109.502
11
177.629
21
-109.573
0
LINE
8
BLACK
6
CONTINUOUS
10
177.629
20
-109.573
11
177.772
21
-109.645
0
LINE
8
BLACK
6
CONTINUOUS
10
177.772
20
-109.645
11
178.058
21
-109.645
0
LINE
8
BLACK
6
CONTINUOUS
10
178.058
20
-109.645
11
178.201
21
-109.573
0
LINE
8
BLACK
6
CONTINUOUS
10
178.201
20
-109.573
11
178.272
21
-109.502
0
LINE
8
BLACK
6
CONTINUOUS
10
178.272
20
-109.502
11
178.344
21
-109.359
0
LINE
8
BLACK
6
CONTINUOUS
10
178.344
20
-109.359
11
178.344
21
-109.002
0
LINE
8
BLACK
6
CONTINUOUS
10
178.344
20
-109.002
11
178.272
21
-108.859
0
LINE
8
BLACK
6
CONTINUOUS
10
178.272
20
-108.859
11
178.201
21
-108.787
0
LINE
8
BLACK
6
CONTINUOUS
10
178.201
20
-108.787
11
178.058
21
-108.716
0
LINE
8
BLACK
6
CONTINUOUS
10
178.058
20
-108.716
11
177.772
21
-108.716
0
LINE
8
BLACK
6
CONTINUOUS
10
177.772
20
-108.716
11
177.629
21
-108.787
0
LINE
8
BLACK
6
CONTINUOUS
10
177.629
20
-108.787
11
177.558
21
-108.859
0
LINE
8
BLACK
6
CONTINUOUS
10
177.558
20
-108.859
11
177.486
21
-109.002
0
LINE
8
BLACK
6
CONTINUOUS
10
162.945
20
-109.645
11
162.445
21
-108.93
0
LINE
8
BLACK
6
CONTINUOUS
10
162.088
20
-109.645
11
162.088
21
-108.145
0
LINE
8
BLACK
6
CONTINUOUS
10
162.088
20
-108.145
11
162.659
21
-108.145
0
LINE
8
BLACK
6
CONTINUOUS
10
162.659
20
-108.145
11
162.802
21
-108.216
0
LINE
8
BLACK
6
CONTINUOUS
10
162.802
20
-108.216
11
162.874
21
-108.287
0
LINE
8
BLACK
6
CONTINUOUS
10
162.874
20
-108.287
11
162.945
21
-108.43
0
LINE
8
BLACK
6
CONTINUOUS
10
162.945
20
-108.43
11
162.945
21
-108.645
0
LINE
8
BLACK
6
CONTINUOUS
10
162.945
20
-108.645
11
162.874
21
-108.787
0
LINE
8
BLACK
6
CONTINUOUS
10
162.874
20
-108.787
11
162.802
21
-108.859
0
LINE
8
BLACK
6
CONTINUOUS
10
162.802
20
-108.859
11
162.659
21
-108.93
0
LINE
8
BLACK
6
CONTINUOUS
10
162.659
20
-108.93
11
162.088
21
-108.93
0
LINE
8
BLACK
6
CONTINUOUS
10
164.302
20
-108.145
11
163.588
21
-108.145
0
LINE
8
BLACK
6
CONTINUOUS
10
163.588
20
-108.145
11
163.516
21
-108.859
0
LINE
8
BLACK
6
CONTINUOUS
10
163.516
20
-108.859
11
163.588
21
-108.787
0
LINE
8
BLACK
6
CONTINUOUS
10
163.588
20
-108.787
11
163.731
21
-108.716
0
LINE
8
BLACK
6
CONTINUOUS
10
163.731
20
-108.716
11
164.088
21
-108.716
0
LINE
8
BLACK
6
CONTINUOUS
10
164.088
20
-108.716
11
164.231
21
-108.787
0
LINE
8
BLACK
6
CONTINUOUS
10
164.231
20
-108.787
11
164.302
21
-108.859
0
LINE
8
BLACK
6
CONTINUOUS
10
164.302
20
-108.859
11
164.374
21
-109.002
0
LINE
8
BLACK
6
CONTINUOUS
10
164.374
20
-109.002
11
164.374
21
-109.359
0
LINE
8
BLACK
6
CONTINUOUS
10
164.374
20
-109.359
11
164.302
21
-109.502
0
LINE
8
BLACK
6
CONTINUOUS
10
164.302
20
-109.502
11
164.231
21
-109.573
0
LINE
8
BLACK
6
CONTINUOUS
10
164.231
20
-109.573
11
164.088
21
-109.645
0
LINE
8
BLACK
6
CONTINUOUS
10
164.088
20
-109.645
11
163.731
21
-109.645
0
LINE
8
BLACK
6
CONTINUOUS
10
163.731
20
-109.645
11
163.588
21
-109.573
0
LINE
8
BLACK
6
CONTINUOUS
10
163.588
20
-109.573
11
163.516
21
-109.502
0
LINE
8
BLACK
6
CONTINUOUS
10
83.5979
20
-122.916
11
83.5264
21
-122.845
0
LINE
8
BLACK
6
CONTINUOUS
10
83.5264
20
-122.845
11
83.3836
21
-122.63
0
LINE
8
BLACK
6
CONTINUOUS
10
83.3836
20
-122.63
11
83.3121
21
-122.487
0
LINE
8
BLACK
6
CONTINUOUS
10
83.3121
20
-122.487
11
83.2407
21
-122.273
0
LINE
8
BLACK
6
CONTINUOUS
10
83.2407
20
-122.273
11
83.1693
21
-121.916
0
LINE
8
BLACK
6
CONTINUOUS
10
83.1693
20
-121.916
11
83.1693
21
-121.63
0
LINE
8
BLACK
6
CONTINUOUS
10
83.1693
20
-121.63
11
83.2407
21
-121.273
0
LINE
8
BLACK
6
CONTINUOUS
10
83.2407
20
-121.273
11
83.3121
21
-121.059
0
LINE
8
BLACK
6
CONTINUOUS
10
83.3121
20
-121.059
11
83.3836
21
-120.916
0
LINE
8
BLACK
6
CONTINUOUS
10
83.3836
20
-120.916
11
83.5264
21
-120.702
0
LINE
8
BLACK
6
CONTINUOUS
10
83.5264
20
-120.702
11
83.5979
21
-120.63
0
LINE
8
BLACK
6
CONTINUOUS
10
84.0979
20
-121.916
11
84.8121
21
-121.916
0
LINE
8
BLACK
6
CONTINUOUS
10
83.955
20
-122.345
11
84.455
21
-120.845
0
LINE
8
BLACK
6
CONTINUOUS
10
84.455
20
-120.845
11
84.955
21
-122.345
0
LINE
8
BLACK
6
CONTINUOUS
10
85.3121
20
-122.916
11
85.3836
21
-122.845
0
LINE
8
BLACK
6
CONTINUOUS
10
85.3836
20
-122.845
11
85.5264
21
-122.63
0
LINE
8
BLACK
6
CONTINUOUS
10
85.5264
20
-122.63
11
85.5979
21
-122.487
0
LINE
8
BLACK
6
CONTINUOUS
10
85.5979
20
-122.487
11
85.6693
21
-122.273
0
LINE
8
BLACK
6
CONTINUOUS
10
85.6693
20
-122.273
11
85.7407
21
-121.916
0
LINE
8
BLACK
6
CONTINUOUS
10
85.7407
20
-121.916
11
85.7407
21
-121.63
0
LINE
8
BLACK
6
CONTINUOUS
10
85.7407
20
-121.63
11
85.6693
21
-121.273
0
LINE
8
BLACK
6
CONTINUOUS
10
85.6693
20
-121.273
11
85.5979
21
-121.059
0
LINE
8
BLACK
6
CONTINUOUS
10
85.5979
20
-121.059
11
85.5264
21
-120.916
0
LINE
8
BLACK
6
CONTINUOUS
10
85.5264
20
-120.916
11
85.3836
21
-120.702
0
LINE
8
BLACK
6
CONTINUOUS
10
85.3836
20
-120.702
11
85.3121
21
-120.63
0
LINE
8
BLACK
6
CONTINUOUS
10
67.9886
20
-112.768
11
66.4886
21
-112.768
0
LINE
8
BLACK
6
CONTINUOUS
10
66.4886
20
-112.768
11
66.4886
21
-112.196
0
LINE
8
BLACK
6
CONTINUOUS
10
66.4886
20
-112.196
11
66.56
21
-112.054
0
LINE
8
BLACK
6
CONTINUOUS
10
66.56
20
-112.054
11
66.6314
21
-111.982
0
LINE
8
BLACK
6
CONTINUOUS
10
66.6314
20
-111.982
11
66.7743
21
-111.911
0
LINE
8
BLACK
6
CONTINUOUS
10
66.7743
20
-111.911
11
66.9886
21
-111.911
0
LINE
8
BLACK
6
CONTINUOUS
10
66.9886
20
-111.911
11
67.1314
21
-111.982
0
LINE
8
BLACK
6
CONTINUOUS
10
67.1314
20
-111.982
11
67.2029
21
-112.054
0
LINE
8
BLACK
6
CONTINUOUS
10
67.2029
20
-112.054
11
67.2743
21
-112.196
0
LINE
8
BLACK
6
CONTINUOUS
10
67.2743
20
-112.196
11
67.2743
21
-112.768
0
LINE
8
BLACK
6
CONTINUOUS
10
67.2029
20
-110.768
11
67.2029
21
-111.268
0
LINE
8
BLACK
6
CONTINUOUS
10
67.9886
20
-111.268
11
66.4886
21
-111.268
0
LINE
8
BLACK
6
CONTINUOUS
10
66.4886
20
-111.268
11
66.4886
21
-110.554
0
LINE
8
BLACK
6
CONTINUOUS
10
67.9886
20
-109.268
11
67.9886
21
-109.982
0
LINE
8
BLACK
6
CONTINUOUS
10
67.9886
20
-109.982
11
66.4886
21
-109.982
0
LINE
8
BLACK
6
CONTINUOUS
10
65.4486
20
-111.931
11
64.7343
21
-112.431
0
LINE
8
BLACK
6
CONTINUOUS
10
65.4486
20
-112.788
11
63.9486
21
-112.788
0
LINE
8
BLACK
6
CONTINUOUS
10
63.9486
20
-112.788
11
63.9486
21
-112.216
0
LINE
8
BLACK
6
CONTINUOUS
10
63.9486
20
-112.216
11
64.02
21
-112.074
0
LINE
8
BLACK
6
CONTINUOUS
10
64.02
20
-112.074
11
64.0914
21
-112.002
0
LINE
8
BLACK
6
CONTINUOUS
10
64.0914
20
-112.002
11
64.2343
21
-111.931
0
LINE
8
BLACK
6
CONTINUOUS
10
64.2343
20
-111.931
11
64.4486
21
-111.931
0
LINE
8
BLACK
6
CONTINUOUS
10
64.4486
20
-111.931
11
64.5914
21
-112.002
0
LINE
8
BLACK
6
CONTINUOUS
10
64.5914
20
-112.002
11
64.6629
21
-112.074
0
LINE
8
BLACK
6
CONTINUOUS
10
64.6629
20
-112.074
11
64.7343
21
-112.216
0
LINE
8
BLACK
6
CONTINUOUS
10
64.7343
20
-112.216
11
64.7343
21
-112.788
0
LINE
8
BLACK
6
CONTINUOUS
10
62.9086
20
-111.931
11
62.9086
21
-112.645
0
LINE
8
BLACK
6
CONTINUOUS
10
62.9086
20
-112.645
11
61.4086
21
-112.645
0
LINE
8
BLACK
6
CONTINUOUS
10
62.1193
20
-122.345
11
62.1193
21
-120.845
0
LINE
8
BLACK
6
CONTINUOUS
10
62.1193
20
-120.845
11
62.6193
21
-121.916
0
LINE
8
BLACK
6
CONTINUOUS
10
62.6193
20
-121.916
11
63.1193
21
-120.845
0
LINE
8
BLACK
6
CONTINUOUS
10
63.1193
20
-120.845
11
63.1193
21
-122.345
0
LINE
8
BLACK
6
CONTINUOUS
10
64.405
20
-122.273
11
64.2621
21
-122.345
0
LINE
8
BLACK
6
CONTINUOUS
10
64.2621
20
-122.345
11
63.9764
21
-122.345
0
LINE
8
BLACK
6
CONTINUOUS
10
63.9764
20
-122.345
11
63.8336
21
-122.273
0
LINE
8
BLACK
6
CONTINUOUS
10
63.8336
20
-122.273
11
63.7621
21
-122.13
0
LINE
8
BLACK
6
CONTINUOUS
10
63.7621
20
-122.13
11
63.7621
21
-121.559
0
LINE
8
BLACK
6
CONTINUOUS
10
63.7621
20
-121.559
11
63.8336
21
-121.416
0
LINE
8
BLACK
6
CONTINUOUS
10
63.8336
20
-121.416
11
63.9764
21
-121.345
0
LINE
8
BLACK
6
CONTINUOUS
10
63.9764
20
-121.345
11
64.2621
21
-121.345
0
LINE
8
BLACK
6
CONTINUOUS
10
64.2621
20
-121.345
11
64.405
21
-121.416
0
LINE
8
BLACK
6
CONTINUOUS
10
64.405
20
-121.416
11
64.4764
21
-121.559
0
LINE
8
BLACK
6
CONTINUOUS
10
64.4764
20
-121.559
11
64.4764
21
-121.702
0
LINE
8
BLACK
6
CONTINUOUS
10
64.4764
20
-121.702
11
63.7621
21
-121.845
0
LINE
8
BLACK
6
CONTINUOUS
10
64.905
20
-121.345
11
65.4764
21
-121.345
0
LINE
8
BLACK
6
CONTINUOUS
10
65.1193
20
-120.845
11
65.1193
21
-122.13
0
LINE
8
BLACK
6
CONTINUOUS
10
65.1193
20
-122.13
11
65.1907
21
-122.273
0
LINE
8
BLACK
6
CONTINUOUS
10
65.1907
20
-122.273
11
65.3336
21
-122.345
0
LINE
8
BLACK
6
CONTINUOUS
10
65.3336
20
-122.345
11
65.4764
21
-122.345
0
LINE
8
BLACK
6
CONTINUOUS
10
66.5479
20
-122.273
11
66.405
21
-122.345
0
LINE
8
BLACK
6
CONTINUOUS
10
66.405
20
-122.345
11
66.1193
21
-122.345
0
LINE
8
BLACK
6
CONTINUOUS
10
66.1193
20
-122.345
11
65.9764
21
-122.273
0
LINE
8
BLACK
6
CONTINUOUS
10
65.9764
20
-122.273
11
65.905
21
-122.13
0
LINE
8
BLACK
6
CONTINUOUS
10
65.905
20
-122.13
11
65.905
21
-121.559
0
LINE
8
BLACK
6
CONTINUOUS
10
65.905
20
-121.559
11
65.9764
21
-121.416
0
LINE
8
BLACK
6
CONTINUOUS
10
65.9764
20
-121.416
11
66.1193
21
-121.345
0
LINE
8
BLACK
6
CONTINUOUS
10
66.1193
20
-121.345
11
66.405
21
-121.345
0
LINE
8
BLACK
6
CONTINUOUS
10
66.405
20
-121.345
11
66.5479
21
-121.416
0
LINE
8
BLACK
6
CONTINUOUS
10
66.5479
20
-121.416
11
66.6193
21
-121.559
0
LINE
8
BLACK
6
CONTINUOUS
10
66.6193
20
-121.559
11
66.6193
21
-121.702
0
LINE
8
BLACK
6
CONTINUOUS
10
66.6193
20
-121.702
11
65.905
21
-121.845
0
LINE
8
BLACK
6
CONTINUOUS
10
67.2621
20
-122.345
11
67.2621
21
-121.345
0
LINE
8
BLACK
6
CONTINUOUS
10
67.2621
20
-121.63
11
67.3336
21
-121.487
0
LINE
8
BLACK
6
CONTINUOUS
10
67.3336
20
-121.487
11
67.405
21
-121.416
0
LINE
8
BLACK
6
CONTINUOUS
10
67.405
20
-121.416
11
67.5479
21
-121.345
0
LINE
8
BLACK
6
CONTINUOUS
10
67.5479
20
-121.345
11
67.6907
21
-121.345
0
LINE
8
BLACK
6
CONTINUOUS
10
68.1193
20
-122.273
11
68.2621
21
-122.345
0
LINE
8
BLACK
6
CONTINUOUS
10
68.2621
20
-122.345
11
68.5479
21
-122.345
0
LINE
8
BLACK
6
CONTINUOUS
10
68.5479
20
-122.345
11
68.6907
21
-122.273
0
LINE
8
BLACK
6
CONTINUOUS
10
68.6907
20
-122.273
11
68.7621
21
-122.13
0
LINE
8
BLACK
6
CONTINUOUS
10
68.7621
20
-122.13
11
68.7621
21
-122.059
0
LINE
8
BLACK
6
CONTINUOUS
10
68.7621
20
-122.059
11
68.6907
21
-121.916
0
LINE
8
BLACK
6
CONTINUOUS
10
68.6907
20
-121.916
11
68.5479
21
-121.845
0
LINE
8
BLACK
6
CONTINUOUS
10
68.5479
20
-121.845
11
68.3336
21
-121.845
0
LINE
8
BLACK
6
CONTINUOUS
10
68.3336
20
-121.845
11
68.1907
21
-121.773
0
LINE
8
BLACK
6
CONTINUOUS
10
68.1907
20
-121.773
11
68.1193
21
-121.63
0
LINE
8
BLACK
6
CONTINUOUS
10
68.1193
20
-121.63
11
68.1193
21
-121.559
0
LINE
8
BLACK
6
CONTINUOUS
10
68.1193
20
-121.559
11
68.1907
21
-121.416
0
LINE
8
BLACK
6
CONTINUOUS
10
68.1907
20
-121.416
11
68.3336
21
-121.345
0
LINE
8
BLACK
6
CONTINUOUS
10
68.3336
20
-121.345
11
68.5479
21
-121.345
0
LINE
8
BLACK
6
CONTINUOUS
10
68.5479
20
-121.345
11
68.6907
21
-121.416
0
LINE
8
BLACK
6
CONTINUOUS
10
44.7557
20
-122.916
11
44.6843
21
-122.845
0
LINE
8
BLACK
6
CONTINUOUS
10
44.6843
20
-122.845
11
44.5414
21
-122.63
0
LINE
8
BLACK
6
CONTINUOUS
10
44.5414
20
-122.63
11
44.47
21
-122.487
0
LINE
8
BLACK
6
CONTINUOUS
10
44.47
20
-122.487
11
44.3986
21
-122.273
0
LINE
8
BLACK
6
CONTINUOUS
10
44.3986
20
-122.273
11
44.3271
21
-121.916
0
LINE
8
BLACK
6
CONTINUOUS
10
44.3271
20
-121.916
11
44.3271
21
-121.63
0
LINE
8
BLACK
6
CONTINUOUS
10
44.3271
20
-121.63
11
44.3986
21
-121.273
0
LINE
8
BLACK
6
CONTINUOUS
10
44.3986
20
-121.273
11
44.47
21
-121.059
0
LINE
8
BLACK
6
CONTINUOUS
10
44.47
20
-121.059
11
44.5414
21
-120.916
0
LINE
8
BLACK
6
CONTINUOUS
10
44.5414
20
-120.916
11
44.6843
21
-120.702
0
LINE
8
BLACK
6
CONTINUOUS
10
44.6843
20
-120.702
11
44.7557
21
-120.63
0
LINE
8
BLACK
6
CONTINUOUS
10
45.8271
20
-121.559
11
46.0414
21
-121.63
0
LINE
8
BLACK
6
CONTINUOUS
10
46.0414
20
-121.63
11
46.1129
21
-121.702
0
LINE
8
BLACK
6
CONTINUOUS
10
46.1129
20
-121.702
11
46.1843
21
-121.845
0
LINE
8
BLACK
6
CONTINUOUS
10
46.1843
20
-121.845
11
46.1843
21
-122.059
0
LINE
8
BLACK
6
CONTINUOUS
10
46.1843
20
-122.059
11
46.1129
21
-122.202
0
LINE
8
BLACK
6
CONTINUOUS
10
46.1129
20
-122.202
11
46.0414
21
-122.273
0
LINE
8
BLACK
6
CONTINUOUS
10
46.0414
20
-122.273
11
45.8986
21
-122.345
0
LINE
8
BLACK
6
CONTINUOUS
10
45.8986
20
-122.345
11
45.3271
21
-122.345
0
LINE
8
BLACK
6
CONTINUOUS
10
45.3271
20
-122.345
11
45.3271
21
-120.845
0
LINE
8
BLACK
6
CONTINUOUS
10
45.3271
20
-120.845
11
45.8271
21
-120.845
0
LINE
8
BLACK
6
CONTINUOUS
10
45.8271
20
-120.845
11
45.97
21
-120.916
0
LINE
8
BLACK
6
CONTINUOUS
10
45.97
20
-120.916
11
46.0414
21
-120.987
0
LINE
8
BLACK
6
CONTINUOUS
10
46.0414
20
-120.987
11
46.1129
21
-121.13
0
LINE
8
BLACK
6
CONTINUOUS
10
46.1129
20
-121.13
11
46.1129
21
-121.273
0
LINE
8
BLACK
6
CONTINUOUS
10
46.1129
20
-121.273
11
46.0414
21
-121.416
0
LINE
8
BLACK
6
CONTINUOUS
10
46.0414
20
-121.416
11
45.97
21
-121.487
0
LINE
8
BLACK
6
CONTINUOUS
10
45.97
20
-121.487
11
45.8271
21
-121.559
0
LINE
8
BLACK
6
CONTINUOUS
10
45.8271
20
-121.559
11
45.3271
21
-121.559
0
LINE
8
BLACK
6
CONTINUOUS
10
46.6843
20
-122.916
11
46.7557
21
-122.845
0
LINE
8
BLACK
6
CONTINUOUS
10
46.7557
20
-122.845
11
46.8986
21
-122.63
0
LINE
8
BLACK
6
CONTINUOUS
10
46.8986
20
-122.63
11
46.97
21
-122.487
0
LINE
8
BLACK
6
CONTINUOUS
10
46.97
20
-122.487
11
47.0414
21
-122.273
0
LINE
8
BLACK
6
CONTINUOUS
10
47.0414
20
-122.273
11
47.1129
21
-121.916
0
LINE
8
BLACK
6
CONTINUOUS
10
47.1129
20
-121.916
11
47.1129
21
-121.63
0
LINE
8
BLACK
6
CONTINUOUS
10
47.1129
20
-121.63
11
47.0414
21
-121.273
0
LINE
8
BLACK
6
CONTINUOUS
10
47.0414
20
-121.273
11
46.97
21
-121.059
0
LINE
8
BLACK
6
CONTINUOUS
10
46.97
20
-121.059
11
46.8986
21
-120.916
0
LINE
8
BLACK
6
CONTINUOUS
10
46.8986
20
-120.916
11
46.7557
21
-120.702
0
LINE
8
BLACK
6
CONTINUOUS
10
46.7557
20
-120.702
11
46.6843
21
-120.63
0
LINE
8
BLACK
6
CONTINUOUS
10
183.393
20
-104.112
11
183.607
21
-104.184
0
LINE
8
BLACK
6
CONTINUOUS
10
183.607
20
-104.184
11
183.964
21
-104.184
0
LINE
8
BLACK
6
CONTINUOUS
10
183.964
20
-104.184
11
184.107
21
-104.112
0
LINE
8
BLACK
6
CONTINUOUS
10
184.107
20
-104.112
11
184.179
21
-104.041
0
LINE
8
BLACK
6
CONTINUOUS
10
184.179
20
-104.041
11
184.25
21
-103.898
0
LINE
8
BLACK
6
CONTINUOUS
10
184.25
20
-103.898
11
184.25
21
-103.755
0
LINE
8
BLACK
6
CONTINUOUS
10
184.25
20
-103.755
11
184.179
21
-103.612
0
LINE
8
BLACK
6
CONTINUOUS
10
184.179
20
-103.612
11
184.107
21
-103.541
0
LINE
8
BLACK
6
CONTINUOUS
10
184.107
20
-103.541
11
183.964
21
-103.469
0
LINE
8
BLACK
6
CONTINUOUS
10
183.964
20
-103.469
11
183.679
21
-103.398
0
LINE
8
BLACK
6
CONTINUOUS
10
183.679
20
-103.398
11
183.536
21
-103.326
0
LINE
8
BLACK
6
CONTINUOUS
10
183.536
20
-103.326
11
183.464
21
-103.255
0
LINE
8
BLACK
6
CONTINUOUS
10
183.464
20
-103.255
11
183.393
21
-103.112
0
LINE
8
BLACK
6
CONTINUOUS
10
183.393
20
-103.112
11
183.393
21
-102.969
0
LINE
8
BLACK
6
CONTINUOUS
10
183.393
20
-102.969
11
183.464
21
-102.826
0
LINE
8
BLACK
6
CONTINUOUS
10
183.464
20
-102.826
11
183.536
21
-102.755
0
LINE
8
BLACK
6
CONTINUOUS
10
183.536
20
-102.755
11
183.679
21
-102.684
0
LINE
8
BLACK
6
CONTINUOUS
10
183.679
20
-102.684
11
184.036
21
-102.684
0
LINE
8
BLACK
6
CONTINUOUS
10
184.036
20
-102.684
11
184.25
21
-102.755
0
LINE
8
BLACK
6
CONTINUOUS
10
184.893
20
-104.184
11
184.893
21
-102.684
0
LINE
8
BLACK
6
CONTINUOUS
10
185.75
20
-104.184
11
185.107
21
-103.326
0
LINE
8
BLACK
6
CONTINUOUS
10
185.75
20
-102.684
11
184.893
21
-103.541
0
LINE
8
BLACK
6
CONTINUOUS
10
187.179
20
-104.184
11
186.321
21
-104.184
0
LINE
8
BLACK
6
CONTINUOUS
10
186.75
20
-104.184
11
186.75
21
-102.684
0
LINE
8
BLACK
6
CONTINUOUS
10
186.75
20
-102.684
11
186.607
21
-102.898
0
LINE
8
BLACK
6
CONTINUOUS
10
186.607
20
-102.898
11
186.464
21
-103.041
0
LINE
8
BLACK
6
CONTINUOUS
10
186.464
20
-103.041
11
186.321
21
-103.112
0
LINE
8
BLACK
6
CONTINUOUS
10
188.464
20
-103.184
11
188.464
21
-104.184
0
LINE
8
BLACK
6
CONTINUOUS
10
188.107
20
-102.612
11
187.75
21
-103.684
0
LINE
8
BLACK
6
CONTINUOUS
10
187.75
20
-103.684
11
188.679
21
-103.684
0
LINE
8
BLACK
6
CONTINUOUS
10
156.778
20
-104.112
11
156.992
21
-104.184
0
LINE
8
BLACK
6
CONTINUOUS
10
156.992
20
-104.184
11
157.349
21
-104.184
0
LINE
8
BLACK
6
CONTINUOUS
10
157.349
20
-104.184
11
157.492
21
-104.112
0
LINE
8
BLACK
6
CONTINUOUS
10
157.492
20
-104.112
11
157.564
21
-104.041
0
LINE
8
BLACK
6
CONTINUOUS
10
157.564
20
-104.041
11
157.635
21
-103.898
0
LINE
8
BLACK
6
CONTINUOUS
10
157.635
20
-103.898
11
157.635
21
-103.755
0
LINE
8
BLACK
6
CONTINUOUS
10
157.635
20
-103.755
11
157.564
21
-103.612
0
LINE
8
BLACK
6
CONTINUOUS
10
157.564
20
-103.612
11
157.492
21
-103.541
0
LINE
8
BLACK
6
CONTINUOUS
10
157.492
20
-103.541
11
157.349
21
-103.469
0
LINE
8
BLACK
6
CONTINUOUS
10
157.349
20
-103.469
11
157.064
21
-103.398
0
LINE
8
BLACK
6
CONTINUOUS
10
157.064
20
-103.398
11
156.921
21
-103.326
0
LINE
8
BLACK
6
CONTINUOUS
10
156.921
20
-103.326
11
156.849
21
-103.255
0
LINE
8
BLACK
6
CONTINUOUS
10
156.849
20
-103.255
11
156.778
21
-103.112
0
LINE
8
BLACK
6
CONTINUOUS
10
156.778
20
-103.112
11
156.778
21
-102.969
0
LINE
8
BLACK
6
CONTINUOUS
10
156.778
20
-102.969
11
156.849
21
-102.826
0
LINE
8
BLACK
6
CONTINUOUS
10
156.849
20
-102.826
11
156.921
21
-102.755
0
LINE
8
BLACK
6
CONTINUOUS
10
156.921
20
-102.755
11
157.064
21
-102.684
0
LINE
8
BLACK
6
CONTINUOUS
10
157.064
20
-102.684
11
157.421
21
-102.684
0
LINE
8
BLACK
6
CONTINUOUS
10
157.421
20
-102.684
11
157.635
21
-102.755
0
LINE
8
BLACK
6
CONTINUOUS
10
158.278
20
-104.184
11
158.278
21
-102.684
0
LINE
8
BLACK
6
CONTINUOUS
10
159.135
20
-104.184
11
158.492
21
-103.326
0
LINE
8
BLACK
6
CONTINUOUS
10
159.135
20
-102.684
11
158.278
21
-103.541
0
LINE
8
BLACK
6
CONTINUOUS
10
160.564
20
-104.184
11
159.706
21
-104.184
0
LINE
8
BLACK
6
CONTINUOUS
10
160.135
20
-104.184
11
160.135
21
-102.684
0
LINE
8
BLACK
6
CONTINUOUS
10
160.135
20
-102.684
11
159.992
21
-102.898
0
LINE
8
BLACK
6
CONTINUOUS
10
159.992
20
-102.898
11
159.849
21
-103.041
0
LINE
8
BLACK
6
CONTINUOUS
10
159.849
20
-103.041
11
159.706
21
-103.112
0
LINE
8
BLACK
6
CONTINUOUS
10
161.064
20
-102.684
11
161.992
21
-102.684
0
LINE
8
BLACK
6
CONTINUOUS
10
161.992
20
-102.684
11
161.492
21
-103.255
0
LINE
8
BLACK
6
CONTINUOUS
10
161.492
20
-103.255
11
161.706
21
-103.255
0
LINE
8
BLACK
6
CONTINUOUS
10
161.706
20
-103.255
11
161.849
21
-103.326
0
LINE
8
BLACK
6
CONTINUOUS
10
161.849
20
-103.326
11
161.921
21
-103.398
0
LINE
8
BLACK
6
CONTINUOUS
10
161.921
20
-103.398
11
161.992
21
-103.541
0
LINE
8
BLACK
6
CONTINUOUS
10
161.992
20
-103.541
11
161.992
21
-103.898
0
LINE
8
BLACK
6
CONTINUOUS
10
161.992
20
-103.898
11
161.921
21
-104.041
0
LINE
8
BLACK
6
CONTINUOUS
10
161.921
20
-104.041
11
161.849
21
-104.112
0
LINE
8
BLACK
6
CONTINUOUS
10
161.849
20
-104.112
11
161.706
21
-104.184
0
LINE
8
BLACK
6
CONTINUOUS
10
161.706
20
-104.184
11
161.278
21
-104.184
0
LINE
8
BLACK
6
CONTINUOUS
10
161.278
20
-104.184
11
161.135
21
-104.112
0
LINE
8
BLACK
6
CONTINUOUS
10
161.135
20
-104.112
11
161.064
21
-104.041
0
LINE
8
BLACK
6
CONTINUOUS
10
130.108
20
-104.112
11
130.322
21
-104.184
0
LINE
8
BLACK
6
CONTINUOUS
10
130.322
20
-104.184
11
130.679
21
-104.184
0
LINE
8
BLACK
6
CONTINUOUS
10
130.679
20
-104.184
11
130.822
21
-104.112
0
LINE
8
BLACK
6
CONTINUOUS
10
130.822
20
-104.112
11
130.894
21
-104.041
0
LINE
8
BLACK
6
CONTINUOUS
10
130.894
20
-104.041
11
130.965
21
-103.898
0
LINE
8
BLACK
6
CONTINUOUS
10
130.965
20
-103.898
11
130.965
21
-103.755
0
LINE
8
BLACK
6
CONTINUOUS
10
130.965
20
-103.755
11
130.894
21
-103.612
0
LINE
8
BLACK
6
CONTINUOUS
10
130.894
20
-103.612
11
130.822
21
-103.541
0
LINE
8
BLACK
6
CONTINUOUS
10
130.822
20
-103.541
11
130.679
21
-103.469
0
LINE
8
BLACK
6
CONTINUOUS
10
130.679
20
-103.469
11
130.394
21
-103.398
0
LINE
8
BLACK
6
CONTINUOUS
10
130.394
20
-103.398
11
130.251
21
-103.326
0
LINE
8
BLACK
6
CONTINUOUS
10
130.251
20
-103.326
11
130.179
21
-103.255
0
LINE
8
BLACK
6
CONTINUOUS
10
130.179
20
-103.255
11
130.108
21
-103.112
0
LINE
8
BLACK
6
CONTINUOUS
10
130.108
20
-103.112
11
130.108
21
-102.969
0
LINE
8
BLACK
6
CONTINUOUS
10
130.108
20
-102.969
11
130.179
21
-102.826
0
LINE
8
BLACK
6
CONTINUOUS
10
130.179
20
-102.826
11
130.251
21
-102.755
0
LINE
8
BLACK
6
CONTINUOUS
10
130.251
20
-102.755
11
130.394
21
-102.684
0
LINE
8
BLACK
6
CONTINUOUS
10
130.394
20
-102.684
11
130.751
21
-102.684
0
LINE
8
BLACK
6
CONTINUOUS
10
130.751
20
-102.684
11
130.965
21
-102.755
0
LINE
8
BLACK
6
CONTINUOUS
10
131.608
20
-104.184
11
131.608
21
-102.684
0
LINE
8
BLACK
6
CONTINUOUS
10
132.465
20
-104.184
11
131.822
21
-103.326
0
LINE
8
BLACK
6
CONTINUOUS
10
132.465
20
-102.684
11
131.608
21
-103.541
0
LINE
8
BLACK
6
CONTINUOUS
10
133.894
20
-104.184
11
133.036
21
-104.184
0
LINE
8
BLACK
6
CONTINUOUS
10
133.465
20
-104.184
11
133.465
21
-102.684
0
LINE
8
BLACK
6
CONTINUOUS
10
133.465
20
-102.684
11
133.322
21
-102.898
0
LINE
8
BLACK
6
CONTINUOUS
10
133.322
20
-102.898
11
133.179
21
-103.041
0
LINE
8
BLACK
6
CONTINUOUS
10
133.179
20
-103.041
11
133.036
21
-103.112
0
LINE
8
BLACK
6
CONTINUOUS
10
135.322
20
-104.184
11
134.465
21
-104.184
0
LINE
8
BLACK
6
CONTINUOUS
10
134.894
20
-104.184
11
134.894
21
-102.684
0
LINE
8
BLACK
6
CONTINUOUS
10
134.894
20
-102.684
11
134.751
21
-102.898
0
LINE
8
BLACK
6
CONTINUOUS
10
134.751
20
-102.898
11
134.608
21
-103.041
0
LINE
8
BLACK
6
CONTINUOUS
10
134.608
20
-103.041
11
134.465
21
-103.112
0
LINE
8
BLACK
6
CONTINUOUS
10
102.803
20
-104.112
11
103.017
21
-104.184
0
LINE
8
BLACK
6
CONTINUOUS
10
103.017
20
-104.184
11
103.374
21
-104.184
0
LINE
8
BLACK
6
CONTINUOUS
10
103.374
20
-104.184
11
103.517
21
-104.112
0
LINE
8
BLACK
6
CONTINUOUS
10
103.517
20
-104.112
11
103.589
21
-104.041
0
LINE
8
BLACK
6
CONTINUOUS
10
103.589
20
-104.041
11
103.66
21
-103.898
0
LINE
8
BLACK
6
CONTINUOUS
10
103.66
20
-103.898
11
103.66
21
-103.755
0
LINE
8
BLACK
6
CONTINUOUS
10
103.66
20
-103.755
11
103.589
21
-103.612
0
LINE
8
BLACK
6
CONTINUOUS
10
103.589
20
-103.612
11
103.517
21
-103.541
0
LINE
8
BLACK
6
CONTINUOUS
10
103.517
20
-103.541
11
103.374
21
-103.469
0
LINE
8
BLACK
6
CONTINUOUS
10
103.374
20
-103.469
11
103.089
21
-103.398
0
LINE
8
BLACK
6
CONTINUOUS
10
103.089
20
-103.398
11
102.946
21
-103.326
0
LINE
8
BLACK
6
CONTINUOUS
10
102.946
20
-103.326
11
102.874
21
-103.255
0
LINE
8
BLACK
6
CONTINUOUS
10
102.874
20
-103.255
11
102.803
21
-103.112
0
LINE
8
BLACK
6
CONTINUOUS
10
102.803
20
-103.112
11
102.803
21
-102.969
0
LINE
8
BLACK
6
CONTINUOUS
10
102.803
20
-102.969
11
102.874
21
-102.826
0
LINE
8
BLACK
6
CONTINUOUS
10
102.874
20
-102.826
11
102.946
21
-102.755
0
LINE
8
BLACK
6
CONTINUOUS
10
102.946
20
-102.755
11
103.089
21
-102.684
0
LINE
8
BLACK
6
CONTINUOUS
10
103.089
20
-102.684
11
103.446
21
-102.684
0
LINE
8
BLACK
6
CONTINUOUS
10
103.446
20
-102.684
11
103.66
21
-102.755
0
LINE
8
BLACK
6
CONTINUOUS
10
104.303
20
-104.184
11
104.303
21
-102.684
0
LINE
8
BLACK
6
CONTINUOUS
10
105.16
20
-104.184
11
104.517
21
-103.326
0
LINE
8
BLACK
6
CONTINUOUS
10
105.16
20
-102.684
11
104.303
21
-103.541
0
LINE
8
BLACK
6
CONTINUOUS
10
106.589
20
-104.184
11
105.731
21
-104.184
0
LINE
8
BLACK
6
CONTINUOUS
10
106.16
20
-104.184
11
106.16
21
-102.684
0
LINE
8
BLACK
6
CONTINUOUS
10
106.16
20
-102.684
11
106.017
21
-102.898
0
LINE
8
BLACK
6
CONTINUOUS
10
106.017
20
-102.898
11
105.874
21
-103.041
0
LINE
8
BLACK
6
CONTINUOUS
10
105.874
20
-103.041
11
105.731
21
-103.112
0
LINE
8
BLACK
6
CONTINUOUS
10
107.16
20
-102.826
11
107.231
21
-102.755
0
LINE
8
BLACK
6
CONTINUOUS
10
107.231
20
-102.755
11
107.374
21
-102.684
0
LINE
8
BLACK
6
CONTINUOUS
10
107.374
20
-102.684
11
107.731
21
-102.684
0
LINE
8
BLACK
6
CONTINUOUS
10
107.731
20
-102.684
11
107.874
21
-102.755
0
LINE
8
BLACK
6
CONTINUOUS
10
107.874
20
-102.755
11
107.946
21
-102.826
0
LINE
8
BLACK
6
CONTINUOUS
10
107.946
20
-102.826
11
108.017
21
-102.969
0
LINE
8
BLACK
6
CONTINUOUS
10
108.017
20
-102.969
11
108.017
21
-103.112
0
LINE
8
BLACK
6
CONTINUOUS
10
108.017
20
-103.112
11
107.946
21
-103.326
0
LINE
8
BLACK
6
CONTINUOUS
10
107.946
20
-103.326
11
107.089
21
-104.184
0
LINE
8
BLACK
6
CONTINUOUS
10
107.089
20
-104.184
11
108.017
21
-104.184
0
LINE
8
BLACK
6
CONTINUOUS
10
76.8471
20
-104.112
11
77.0614
21
-104.184
0
LINE
8
BLACK
6
CONTINUOUS
10
77.0614
20
-104.184
11
77.4186
21
-104.184
0
LINE
8
BLACK
6
CONTINUOUS
10
77.4186
20
-104.184
11
77.5614
21
-104.112
0
LINE
8
BLACK
6
CONTINUOUS
10
77.5614
20
-104.112
11
77.6329
21
-104.041
0
LINE
8
BLACK
6
CONTINUOUS
10
77.6329
20
-104.041
11
77.7043
21
-103.898
0
LINE
8
BLACK
6
CONTINUOUS
10
77.7043
20
-103.898
11
77.7043
21
-103.755
0
LINE
8
BLACK
6
CONTINUOUS
10
77.7043
20
-103.755
11
77.6329
21
-103.612
0
LINE
8
BLACK
6
CONTINUOUS
10
77.6329
20
-103.612
11
77.5614
21
-103.541
0
LINE
8
BLACK
6
CONTINUOUS
10
77.5614
20
-103.541
11
77.4186
21
-103.469
0
LINE
8
BLACK
6
CONTINUOUS
10
77.4186
20
-103.469
11
77.1329
21
-103.398
0
LINE
8
BLACK
6
CONTINUOUS
10
77.1329
20
-103.398
11
76.99
21
-103.326
0
LINE
8
BLACK
6
CONTINUOUS
10
76.99
20
-103.326
11
76.9186
21
-103.255
0
LINE
8
BLACK
6
CONTINUOUS
10
76.9186
20
-103.255
11
76.8471
21
-103.112
0
LINE
8
BLACK
6
CONTINUOUS
10
76.8471
20
-103.112
11
76.8471
21
-102.969
0
LINE
8
BLACK
6
CONTINUOUS
10
76.8471
20
-102.969
11
76.9186
21
-102.826
0
LINE
8
BLACK
6
CONTINUOUS
10
76.9186
20
-102.826
11
76.99
21
-102.755
0
LINE
8
BLACK
6
CONTINUOUS
10
76.99
20
-102.755
11
77.1329
21
-102.684
0
LINE
8
BLACK
6
CONTINUOUS
10
77.1329
20
-102.684
11
77.49
21
-102.684
0
LINE
8
BLACK
6
CONTINUOUS
10
77.49
20
-102.684
11
77.7043
21
-102.755
0
LINE
8
BLACK
6
CONTINUOUS
10
78.3471
20
-104.184
11
78.3471
21
-102.684
0
LINE
8
BLACK
6
CONTINUOUS
10
79.2043
20
-104.184
11
78.5614
21
-103.326
0
LINE
8
BLACK
6
CONTINUOUS
10
79.2043
20
-102.684
11
78.3471
21
-103.541
0
LINE
8
BLACK
6
CONTINUOUS
10
79.9186
20
-104.184
11
80.2043
21
-104.184
0
LINE
8
BLACK
6
CONTINUOUS
10
80.2043
20
-104.184
11
80.3471
21
-104.112
0
LINE
8
BLACK
6
CONTINUOUS
10
80.3471
20
-104.112
11
80.4186
21
-104.041
0
LINE
8
BLACK
6
CONTINUOUS
10
80.4186
20
-104.041
11
80.5614
21
-103.826
0
LINE
8
BLACK
6
CONTINUOUS
10
80.5614
20
-103.826
11
80.6329
21
-103.541
0
LINE
8
BLACK
6
CONTINUOUS
10
80.6329
20
-103.541
11
80.6329
21
-102.969
0
LINE
8
BLACK
6
CONTINUOUS
10
80.6329
20
-102.969
11
80.5614
21
-102.826
0
LINE
8
BLACK
6
CONTINUOUS
10
80.5614
20
-102.826
11
80.49
21
-102.755
0
LINE
8
BLACK
6
CONTINUOUS
10
80.49
20
-102.755
11
80.3471
21
-102.684
0
LINE
8
BLACK
6
CONTINUOUS
10
80.3471
20
-102.684
11
80.0614
21
-102.684
0
LINE
8
BLACK
6
CONTINUOUS
10
80.0614
20
-102.684
11
79.9186
21
-102.755
0
LINE
8
BLACK
6
CONTINUOUS
10
79.9186
20
-102.755
11
79.8471
21
-102.826
0
LINE
8
BLACK
6
CONTINUOUS
10
79.8471
20
-102.826
11
79.7757
21
-102.969
0
LINE
8
BLACK
6
CONTINUOUS
10
79.7757
20
-102.969
11
79.7757
21
-103.326
0
LINE
8
BLACK
6
CONTINUOUS
10
79.7757
20
-103.326
11
79.8471
21
-103.469
0
LINE
8
BLACK
6
CONTINUOUS
10
79.8471
20
-103.469
11
79.9186
21
-103.541
0
LINE
8
BLACK
6
CONTINUOUS
10
79.9186
20
-103.541
11
80.0614
21
-103.612
0
LINE
8
BLACK
6
CONTINUOUS
10
80.0614
20
-103.612
11
80.3471
21
-103.612
0
LINE
8
BLACK
6
CONTINUOUS
10
80.3471
20
-103.612
11
80.49
21
-103.541
0
LINE
8
BLACK
6
CONTINUOUS
10
80.49
20
-103.541
11
80.5614
21
-103.469
0
LINE
8
BLACK
6
CONTINUOUS
10
80.5614
20
-103.469
11
80.6329
21
-103.326
0
LINE
8
BLACK
6
CONTINUOUS
10
48.8279
20
-104.112
11
49.0421
21
-104.184
0
LINE
8
BLACK
6
CONTINUOUS
10
49.0421
20
-104.184
11
49.3993
21
-104.184
0
LINE
8
BLACK
6
CONTINUOUS
10
49.3993
20
-104.184
11
49.5421
21
-104.112
0
LINE
8
BLACK
6
CONTINUOUS
10
49.5421
20
-104.112
11
49.6136
21
-104.041
0
LINE
8
BLACK
6
CONTINUOUS
10
49.6136
20
-104.041
11
49.685
21
-103.898
0
LINE
8
BLACK
6
CONTINUOUS
10
49.685
20
-103.898
11
49.685
21
-103.755
0
LINE
8
BLACK
6
CONTINUOUS
10
49.685
20
-103.755
11
49.6136
21
-103.612
0
LINE
8
BLACK
6
CONTINUOUS
10
49.6136
20
-103.612
11
49.5421
21
-103.541
0
LINE
8
BLACK
6
CONTINUOUS
10
49.5421
20
-103.541
11
49.3993
21
-103.469
0
LINE
8
BLACK
6
CONTINUOUS
10
49.3993
20
-103.469
11
49.1136
21
-103.398
0
LINE
8
BLACK
6
CONTINUOUS
10
49.1136
20
-103.398
11
48.9707
21
-103.326
0
LINE
8
BLACK
6
CONTINUOUS
10
48.9707
20
-103.326
11
48.8993
21
-103.255
0
LINE
8
BLACK
6
CONTINUOUS
10
48.8993
20
-103.255
11
48.8279
21
-103.112
0
LINE
8
BLACK
6
CONTINUOUS
10
48.8279
20
-103.112
11
48.8279
21
-102.969
0
LINE
8
BLACK
6
CONTINUOUS
10
48.8279
20
-102.969
11
48.8993
21
-102.826
0
LINE
8
BLACK
6
CONTINUOUS
10
48.8993
20
-102.826
11
48.9707
21
-102.755
0
LINE
8
BLACK
6
CONTINUOUS
10
48.9707
20
-102.755
11
49.1136
21
-102.684
0
LINE
8
BLACK
6
CONTINUOUS
10
49.1136
20
-102.684
11
49.4707
21
-102.684
0
LINE
8
BLACK
6
CONTINUOUS
10
49.4707
20
-102.684
11
49.685
21
-102.755
0
LINE
8
BLACK
6
CONTINUOUS
10
50.3279
20
-104.184
11
50.3279
21
-102.684
0
LINE
8
BLACK
6
CONTINUOUS
10
51.185
20
-104.184
11
50.5421
21
-103.326
0
LINE
8
BLACK
6
CONTINUOUS
10
51.185
20
-102.684
11
50.3279
21
-103.541
0
LINE
8
BLACK
6
CONTINUOUS
10
52.6136
20
-104.184
11
51.7564
21
-104.184
0
LINE
8
BLACK
6
CONTINUOUS
10
52.185
20
-104.184
11
52.185
21
-102.684
0
LINE
8
BLACK
6
CONTINUOUS
10
52.185
20
-102.684
11
52.0421
21
-102.898
0
LINE
8
BLACK
6
CONTINUOUS
10
52.0421
20
-102.898
11
51.8993
21
-103.041
0
LINE
8
BLACK
6
CONTINUOUS
10
51.8993
20
-103.041
11
51.7564
21
-103.112
0
LINE
8
BLACK
6
CONTINUOUS
10
53.5421
20
-102.684
11
53.685
21
-102.684
0
LINE
8
BLACK
6
CONTINUOUS
10
53.685
20
-102.684
11
53.8279
21
-102.755
0
LINE
8
BLACK
6
CONTINUOUS
10
53.8279
20
-102.755
11
53.8993
21
-102.826
0
LINE
8
BLACK
6
CONTINUOUS
10
53.8993
20
-102.826
11
53.9707
21
-102.969
0
LINE
8
BLACK
6
CONTINUOUS
10
53.9707
20
-102.969
11
54.0421
21
-103.255
0
LINE
8
BLACK
6
CONTINUOUS
10
54.0421
20
-103.255
11
54.0421
21
-103.612
0
LINE
8
BLACK
6
CONTINUOUS
10
54.0421
20
-103.612
11
53.9707
21
-103.898
0
LINE
8
BLACK
6
CONTINUOUS
10
53.9707
20
-103.898
11
53.8993
21
-104.041
0
LINE
8
BLACK
6
CONTINUOUS
10
53.8993
20
-104.041
11
53.8279
21
-104.112
0
LINE
8
BLACK
6
CONTINUOUS
10
53.8279
20
-104.112
11
53.685
21
-104.184
0
LINE
8
BLACK
6
CONTINUOUS
10
53.685
20
-104.184
11
53.5421
21
-104.184
0
LINE
8
BLACK
6
CONTINUOUS
10
53.5421
20
-104.184
11
53.3993
21
-104.112
0
LINE
8
BLACK
6
CONTINUOUS
10
53.3993
20
-104.112
11
53.3279
21
-104.041
0
LINE
8
BLACK
6
CONTINUOUS
10
53.3279
20
-104.041
11
53.2564
21
-103.898
0
LINE
8
BLACK
6
CONTINUOUS
10
53.2564
20
-103.898
11
53.185
21
-103.612
0
LINE
8
BLACK
6
CONTINUOUS
10
53.185
20
-103.612
11
53.185
21
-103.255
0
LINE
8
BLACK
6
CONTINUOUS
10
53.185
20
-103.255
11
53.2564
21
-102.969
0
LINE
8
BLACK
6
CONTINUOUS
10
53.2564
20
-102.969
11
53.3279
21
-102.826
0
LINE
8
BLACK
6
CONTINUOUS
10
53.3279
20
-102.826
11
53.3993
21
-102.755
0
LINE
8
BLACK
6
CONTINUOUS
10
53.3993
20
-102.755
11
53.5421
21
-102.684
0
LINE
8
BLACK
6
CONTINUOUS
10
190
20
-80
11
30
21
-80
0
LINE
8
BLACK
6
CONTINUOUS
10
30
20
-80
11
30
21
-180
0
LINE
8
BLACK
6
CONTINUOUS
10
190
20
-180
11
190
21
-80
0
LINE
8
BLACK
6
CONTINUOUS
10
30
20
-180
11
190
21
-180
  0
ENDSEC
  0
EOF
