  0
SECTION
  2
HEADER
  9
$ANGBASE
  50
0.0
  9
$ANGDIR
  70
1
  9
$MEASUREMENT
  70
1
  0
ENDSEC
  0
SECTION
  2
TABLES
  0
TABLE
  2
LTYPE
  70
4
  0
LTYPE
  5
40F
  2
CONTINUOUS
  70
0
  3
Solid line
  72
65
  73
0
  40
0.0
  0
LTYPE
  5
410
  2
DASHDOT
 70
0
  3
Dash Dot ____ _ ____ _
 72
65
 73
4
 40
2.0
 49
1.25
 49
-0.25
 49
0.25
 49
-0.25
  0
LTYPE
  5
411
  2
DASHED
 70
0
  3
Dashed __ __ __ __ __
 72
65
 73
2
 40
0.75
 49
0.5
 49
-0.25
  0
LTYPE
  5
43B
  2
DOTTED
 70
0
  3
Dotted .  .  .  .
 72
65
 73
2
 40
0.2
 49
0.0
 49
-0.2
  0
ENDTAB
  0
TABLE
  2
STYLE
  70
4
  0
STYLE
  2
KICAD
  70
0
  40
0
  41
1
  42
1
  50
0
  71
0
  3
isocp.shx
  0
STYLE
  2
KICADB
  70
0
  40
0
  41
1
  42
1
  50
0
  71
0
  3
isocp.shx
  0
STYLE
  2
KICADI
  70
0
  40
0
  41
1
  42
1
  50
15
  71
0
  3
isocp.shx
  0
STYLE
  2
KICADBI
  70
0
  40
0
  41
1
  42
1
  50
15
  71
0
  3
isocp.shx
  0
ENDTAB
  0
TABLE
  2
LAYER
  70
1
  0
LAYER
  2
BLACK
  70
0
  62
7
  6
CONTINUOUS
  0
ENDTAB
  0
ENDSEC
  0
SECTION
  2
ENTITIES
0
LINE
8
BLACK
6
CONTINUOUS
10
95.2581
20
-137.565
11
95.401
21
-137.612
0
LINE
8
BLACK
6
CONTINUOUS
10
95.401
20
-137.612
11
95.639
21
-137.612
0
LINE
8
BLACK
6
CONTINUOUS
10
95.639
20
-137.612
11
95.7343
21
-137.565
0
LINE
8
BLACK
6
CONTINUOUS
10
95.7343
20
-137.565
11
95.7819
21
-137.517
0
LINE
8
BLACK
6
CONTINUOUS
10
95.7819
20
-137.517
11
95.8295
21
-137.422
0
LINE
8
BLACK
6
CONTINUOUS
10
95.8295
20
-137.422
11
95.8295
21
-137.327
0
LINE
8
BLACK
6
CONTINUOUS
10
95.8295
20
-137.327
11
95.7819
21
-137.231
0
LINE
8
BLACK
6
CONTINUOUS
10
95.7819
20
-137.231
11
95.7343
21
-137.184
0
LINE
8
BLACK
6
CONTINUOUS
10
95.7343
20
-137.184
11
95.639
21
-137.136
0
LINE
8
BLACK
6
CONTINUOUS
10
95.639
20
-137.136
11
95.4486
21
-137.089
0
LINE
8
BLACK
6
CONTINUOUS
10
95.4486
20
-137.089
11
95.3533
21
-137.041
0
LINE
8
BLACK
6
CONTINUOUS
10
95.3533
20
-137.041
11
95.3057
21
-136.993
0
LINE
8
BLACK
6
CONTINUOUS
10
95.3057
20
-136.993
11
95.2581
21
-136.898
0
LINE
8
BLACK
6
CONTINUOUS
10
95.2581
20
-136.898
11
95.2581
21
-136.803
0
LINE
8
BLACK
6
CONTINUOUS
10
95.2581
20
-136.803
11
95.3057
21
-136.708
0
LINE
8
BLACK
6
CONTINUOUS
10
95.3057
20
-136.708
11
95.3533
21
-136.66
0
LINE
8
BLACK
6
CONTINUOUS
10
95.3533
20
-136.66
11
95.4486
21
-136.612
0
LINE
8
BLACK
6
CONTINUOUS
10
95.4486
20
-136.612
11
95.6867
21
-136.612
0
LINE
8
BLACK
6
CONTINUOUS
10
95.6867
20
-136.612
11
95.8295
21
-136.66
0
LINE
8
BLACK
6
CONTINUOUS
10
96.2581
20
-137.612
11
96.2581
21
-136.612
0
LINE
8
BLACK
6
CONTINUOUS
10
96.8295
20
-137.612
11
96.401
21
-137.041
0
LINE
8
BLACK
6
CONTINUOUS
10
96.8295
20
-136.612
11
96.2581
21
-137.184
0
LINE
8
BLACK
6
CONTINUOUS
10
97.1629
20
-136.612
11
97.7819
21
-136.612
0
LINE
8
BLACK
6
CONTINUOUS
10
97.7819
20
-136.612
11
97.4486
21
-136.993
0
LINE
8
BLACK
6
CONTINUOUS
10
97.4486
20
-136.993
11
97.5914
21
-136.993
0
LINE
8
BLACK
6
CONTINUOUS
10
97.5914
20
-136.993
11
97.6867
21
-137.041
0
LINE
8
BLACK
6
CONTINUOUS
10
97.6867
20
-137.041
11
97.7343
21
-137.089
0
LINE
8
BLACK
6
CONTINUOUS
10
97.7343
20
-137.089
11
97.7819
21
-137.184
0
LINE
8
BLACK
6
CONTINUOUS
10
97.7819
20
-137.184
11
97.7819
21
-137.422
0
LINE
8
BLACK
6
CONTINUOUS
10
97.7819
20
-137.422
11
97.7343
21
-137.517
0
LINE
8
BLACK
6
CONTINUOUS
10
97.7343
20
-137.517
11
97.6867
21
-137.565
0
LINE
8
BLACK
6
CONTINUOUS
10
97.6867
20
-137.565
11
97.5914
21
-137.612
0
LINE
8
BLACK
6
CONTINUOUS
10
97.5914
20
-137.612
11
97.3057
21
-137.612
0
LINE
8
BLACK
6
CONTINUOUS
10
97.3057
20
-137.612
11
97.2105
21
-137.565
0
LINE
8
BLACK
6
CONTINUOUS
10
97.2105
20
-137.565
11
97.1629
21
-137.517
0
LINE
8
BLACK
6
CONTINUOUS
10
115.578
20
-137.565
11
115.721
21
-137.612
0
LINE
8
BLACK
6
CONTINUOUS
10
115.721
20
-137.612
11
115.959
21
-137.612
0
LINE
8
BLACK
6
CONTINUOUS
10
115.959
20
-137.612
11
116.054
21
-137.565
0
LINE
8
BLACK
6
CONTINUOUS
10
116.054
20
-137.565
11
116.102
21
-137.517
0
LINE
8
BLACK
6
CONTINUOUS
10
116.102
20
-137.517
11
116.15
21
-137.422
0
LINE
8
BLACK
6
CONTINUOUS
10
116.15
20
-137.422
11
116.15
21
-137.327
0
LINE
8
BLACK
6
CONTINUOUS
10
116.15
20
-137.327
11
116.102
21
-137.231
0
LINE
8
BLACK
6
CONTINUOUS
10
116.102
20
-137.231
11
116.054
21
-137.184
0
LINE
8
BLACK
6
CONTINUOUS
10
116.054
20
-137.184
11
115.959
21
-137.136
0
LINE
8
BLACK
6
CONTINUOUS
10
115.959
20
-137.136
11
115.769
21
-137.089
0
LINE
8
BLACK
6
CONTINUOUS
10
115.769
20
-137.089
11
115.673
21
-137.041
0
LINE
8
BLACK
6
CONTINUOUS
10
115.673
20
-137.041
11
115.626
21
-136.993
0
LINE
8
BLACK
6
CONTINUOUS
10
115.626
20
-136.993
11
115.578
21
-136.898
0
LINE
8
BLACK
6
CONTINUOUS
10
115.578
20
-136.898
11
115.578
21
-136.803
0
LINE
8
BLACK
6
CONTINUOUS
10
115.578
20
-136.803
11
115.626
21
-136.708
0
LINE
8
BLACK
6
CONTINUOUS
10
115.626
20
-136.708
11
115.673
21
-136.66
0
LINE
8
BLACK
6
CONTINUOUS
10
115.673
20
-136.66
11
115.769
21
-136.612
0
LINE
8
BLACK
6
CONTINUOUS
10
115.769
20
-136.612
11
116.007
21
-136.612
0
LINE
8
BLACK
6
CONTINUOUS
10
116.007
20
-136.612
11
116.15
21
-136.66
0
LINE
8
BLACK
6
CONTINUOUS
10
116.578
20
-137.612
11
116.578
21
-136.612
0
LINE
8
BLACK
6
CONTINUOUS
10
117.15
20
-137.612
11
116.721
21
-137.041
0
LINE
8
BLACK
6
CONTINUOUS
10
117.15
20
-136.612
11
116.578
21
-137.184
0
LINE
8
BLACK
6
CONTINUOUS
10
117.53
20
-136.708
11
117.578
21
-136.66
0
LINE
8
BLACK
6
CONTINUOUS
10
117.578
20
-136.66
11
117.673
21
-136.612
0
LINE
8
BLACK
6
CONTINUOUS
10
117.673
20
-136.612
11
117.911
21
-136.612
0
LINE
8
BLACK
6
CONTINUOUS
10
117.911
20
-136.612
11
118.007
21
-136.66
0
LINE
8
BLACK
6
CONTINUOUS
10
118.007
20
-136.66
11
118.054
21
-136.708
0
LINE
8
BLACK
6
CONTINUOUS
10
118.054
20
-136.708
11
118.102
21
-136.803
0
LINE
8
BLACK
6
CONTINUOUS
10
118.102
20
-136.803
11
118.102
21
-136.898
0
LINE
8
BLACK
6
CONTINUOUS
10
118.102
20
-136.898
11
118.054
21
-137.041
0
LINE
8
BLACK
6
CONTINUOUS
10
118.054
20
-137.041
11
117.483
21
-137.612
0
LINE
8
BLACK
6
CONTINUOUS
10
117.483
20
-137.612
11
118.102
21
-137.612
0
LINE
8
BLACK
6
CONTINUOUS
10
118.118
20
-143.915
11
118.261
21
-143.962
0
LINE
8
BLACK
6
CONTINUOUS
10
118.261
20
-143.962
11
118.499
21
-143.962
0
LINE
8
BLACK
6
CONTINUOUS
10
118.499
20
-143.962
11
118.594
21
-143.915
0
LINE
8
BLACK
6
CONTINUOUS
10
118.594
20
-143.915
11
118.642
21
-143.867
0
LINE
8
BLACK
6
CONTINUOUS
10
118.642
20
-143.867
11
118.69
21
-143.772
0
LINE
8
BLACK
6
CONTINUOUS
10
118.69
20
-143.772
11
118.69
21
-143.677
0
LINE
8
BLACK
6
CONTINUOUS
10
118.69
20
-143.677
11
118.642
21
-143.581
0
LINE
8
BLACK
6
CONTINUOUS
10
118.642
20
-143.581
11
118.594
21
-143.534
0
LINE
8
BLACK
6
CONTINUOUS
10
118.594
20
-143.534
11
118.499
21
-143.486
0
LINE
8
BLACK
6
CONTINUOUS
10
118.499
20
-143.486
11
118.309
21
-143.439
0
LINE
8
BLACK
6
CONTINUOUS
10
118.309
20
-143.439
11
118.213
21
-143.391
0
LINE
8
BLACK
6
CONTINUOUS
10
118.213
20
-143.391
11
118.166
21
-143.343
0
LINE
8
BLACK
6
CONTINUOUS
10
118.166
20
-143.343
11
118.118
21
-143.248
0
LINE
8
BLACK
6
CONTINUOUS
10
118.118
20
-143.248
11
118.118
21
-143.153
0
LINE
8
BLACK
6
CONTINUOUS
10
118.118
20
-143.153
11
118.166
21
-143.058
0
LINE
8
BLACK
6
CONTINUOUS
10
118.166
20
-143.058
11
118.213
21
-143.01
0
LINE
8
BLACK
6
CONTINUOUS
10
118.213
20
-143.01
11
118.309
21
-142.962
0
LINE
8
BLACK
6
CONTINUOUS
10
118.309
20
-142.962
11
118.547
21
-142.962
0
LINE
8
BLACK
6
CONTINUOUS
10
118.547
20
-142.962
11
118.69
21
-143.01
0
LINE
8
BLACK
6
CONTINUOUS
10
119.118
20
-143.962
11
119.118
21
-142.962
0
LINE
8
BLACK
6
CONTINUOUS
10
119.69
20
-143.962
11
119.261
21
-143.391
0
LINE
8
BLACK
6
CONTINUOUS
10
119.69
20
-142.962
11
119.118
21
-143.534
0
LINE
8
BLACK
6
CONTINUOUS
10
120.642
20
-143.962
11
120.07
21
-143.962
0
LINE
8
BLACK
6
CONTINUOUS
10
120.356
20
-143.962
11
120.356
21
-142.962
0
LINE
8
BLACK
6
CONTINUOUS
10
120.356
20
-142.962
11
120.261
21
-143.105
0
LINE
8
BLACK
6
CONTINUOUS
10
120.261
20
-143.105
11
120.166
21
-143.2
0
LINE
8
BLACK
6
CONTINUOUS
10
120.166
20
-143.2
11
120.07
21
-143.248
0
LINE
8
BLACK
6
CONTINUOUS
10
80.6055
20
-139.47
11
80.7483
21
-139.517
0
LINE
8
BLACK
6
CONTINUOUS
10
80.7483
20
-139.517
11
80.9864
21
-139.517
0
LINE
8
BLACK
6
CONTINUOUS
10
80.9864
20
-139.517
11
81.0817
21
-139.47
0
LINE
8
BLACK
6
CONTINUOUS
10
81.0817
20
-139.47
11
81.1293
21
-139.422
0
LINE
8
BLACK
6
CONTINUOUS
10
81.1293
20
-139.422
11
81.1769
21
-139.327
0
LINE
8
BLACK
6
CONTINUOUS
10
81.1769
20
-139.327
11
81.1769
21
-139.232
0
LINE
8
BLACK
6
CONTINUOUS
10
81.1769
20
-139.232
11
81.1293
21
-139.136
0
LINE
8
BLACK
6
CONTINUOUS
10
81.1293
20
-139.136
11
81.0817
21
-139.089
0
LINE
8
BLACK
6
CONTINUOUS
10
81.0817
20
-139.089
11
80.9864
21
-139.041
0
LINE
8
BLACK
6
CONTINUOUS
10
80.9864
20
-139.041
11
80.796
21
-138.994
0
LINE
8
BLACK
6
CONTINUOUS
10
80.796
20
-138.994
11
80.7007
21
-138.946
0
LINE
8
BLACK
6
CONTINUOUS
10
80.7007
20
-138.946
11
80.6531
21
-138.898
0
LINE
8
BLACK
6
CONTINUOUS
10
80.6531
20
-138.898
11
80.6055
21
-138.803
0
LINE
8
BLACK
6
CONTINUOUS
10
80.6055
20
-138.803
11
80.6055
21
-138.708
0
LINE
8
BLACK
6
CONTINUOUS
10
80.6055
20
-138.708
11
80.6531
21
-138.613
0
LINE
8
BLACK
6
CONTINUOUS
10
80.6531
20
-138.613
11
80.7007
21
-138.565
0
LINE
8
BLACK
6
CONTINUOUS
10
80.7007
20
-138.565
11
80.796
21
-138.517
0
LINE
8
BLACK
6
CONTINUOUS
10
80.796
20
-138.517
11
81.034
21
-138.517
0
LINE
8
BLACK
6
CONTINUOUS
10
81.034
20
-138.517
11
81.1769
21
-138.565
0
LINE
8
BLACK
6
CONTINUOUS
10
82.1769
20
-139.422
11
82.1293
21
-139.47
0
LINE
8
BLACK
6
CONTINUOUS
10
82.1293
20
-139.47
11
81.9864
21
-139.517
0
LINE
8
BLACK
6
CONTINUOUS
10
81.9864
20
-139.517
11
81.8912
21
-139.517
0
LINE
8
BLACK
6
CONTINUOUS
10
81.8912
20
-139.517
11
81.7483
21
-139.47
0
LINE
8
BLACK
6
CONTINUOUS
10
81.7483
20
-139.47
11
81.6531
21
-139.375
0
LINE
8
BLACK
6
CONTINUOUS
10
81.6531
20
-139.375
11
81.6055
21
-139.279
0
LINE
8
BLACK
6
CONTINUOUS
10
81.6055
20
-139.279
11
81.5579
21
-139.089
0
LINE
8
BLACK
6
CONTINUOUS
10
81.5579
20
-139.089
11
81.5579
21
-138.946
0
LINE
8
BLACK
6
CONTINUOUS
10
81.5579
20
-138.946
11
81.6055
21
-138.755
0
LINE
8
BLACK
6
CONTINUOUS
10
81.6055
20
-138.755
11
81.6531
21
-138.66
0
LINE
8
BLACK
6
CONTINUOUS
10
81.6531
20
-138.66
11
81.7483
21
-138.565
0
LINE
8
BLACK
6
CONTINUOUS
10
81.7483
20
-138.565
11
81.8912
21
-138.517
0
LINE
8
BLACK
6
CONTINUOUS
10
81.8912
20
-138.517
11
81.9864
21
-138.517
0
LINE
8
BLACK
6
CONTINUOUS
10
81.9864
20
-138.517
11
82.1293
21
-138.565
0
LINE
8
BLACK
6
CONTINUOUS
10
82.1293
20
-138.565
11
82.1769
21
-138.613
0
LINE
8
BLACK
6
CONTINUOUS
10
82.6055
20
-139.517
11
82.6055
21
-138.517
0
LINE
8
BLACK
6
CONTINUOUS
10
82.6055
20
-138.517
11
83.1769
21
-139.517
0
LINE
8
BLACK
6
CONTINUOUS
10
83.1769
20
-139.517
11
83.1769
21
-138.517
0
LINE
8
BLACK
6
CONTINUOUS
10
80.7643
20
-142.057
11
80.7643
21
-141.057
0
LINE
8
BLACK
6
CONTINUOUS
10
80.7643
20
-141.057
11
81.0976
21
-141.772
0
LINE
8
BLACK
6
CONTINUOUS
10
81.0976
20
-141.772
11
81.431
21
-141.057
0
LINE
8
BLACK
6
CONTINUOUS
10
81.431
20
-141.057
11
81.431
21
-142.057
0
LINE
8
BLACK
6
CONTINUOUS
10
82.2881
20
-142.01
11
82.1929
21
-142.057
0
LINE
8
BLACK
6
CONTINUOUS
10
82.1929
20
-142.057
11
82.0024
21
-142.057
0
LINE
8
BLACK
6
CONTINUOUS
10
82.0024
20
-142.057
11
81.9071
21
-142.01
0
LINE
8
BLACK
6
CONTINUOUS
10
81.9071
20
-142.01
11
81.8595
21
-141.915
0
LINE
8
BLACK
6
CONTINUOUS
10
81.8595
20
-141.915
11
81.8595
21
-141.534
0
LINE
8
BLACK
6
CONTINUOUS
10
81.8595
20
-141.534
11
81.9071
21
-141.438
0
LINE
8
BLACK
6
CONTINUOUS
10
81.9071
20
-141.438
11
82.0024
21
-141.391
0
LINE
8
BLACK
6
CONTINUOUS
10
82.0024
20
-141.391
11
82.1929
21
-141.391
0
LINE
8
BLACK
6
CONTINUOUS
10
82.1929
20
-141.391
11
82.2881
21
-141.438
0
LINE
8
BLACK
6
CONTINUOUS
10
82.2881
20
-141.438
11
82.3357
21
-141.534
0
LINE
8
BLACK
6
CONTINUOUS
10
82.3357
20
-141.534
11
82.3357
21
-141.629
0
LINE
8
BLACK
6
CONTINUOUS
10
82.3357
20
-141.629
11
81.8595
21
-141.724
0
LINE
8
BLACK
6
CONTINUOUS
10
82.6214
20
-141.391
11
83.0024
21
-141.391
0
LINE
8
BLACK
6
CONTINUOUS
10
82.7643
20
-141.057
11
82.7643
21
-141.915
0
LINE
8
BLACK
6
CONTINUOUS
10
82.7643
20
-141.915
11
82.8119
21
-142.01
0
LINE
8
BLACK
6
CONTINUOUS
10
82.8119
20
-142.01
11
82.9071
21
-142.057
0
LINE
8
BLACK
6
CONTINUOUS
10
82.9071
20
-142.057
11
83.0024
21
-142.057
0
LINE
8
BLACK
6
CONTINUOUS
10
83.7167
20
-142.01
11
83.6214
21
-142.057
0
LINE
8
BLACK
6
CONTINUOUS
10
83.6214
20
-142.057
11
83.431
21
-142.057
0
LINE
8
BLACK
6
CONTINUOUS
10
83.431
20
-142.057
11
83.3357
21
-142.01
0
LINE
8
BLACK
6
CONTINUOUS
10
83.3357
20
-142.01
11
83.2881
21
-141.915
0
LINE
8
BLACK
6
CONTINUOUS
10
83.2881
20
-141.915
11
83.2881
21
-141.534
0
LINE
8
BLACK
6
CONTINUOUS
10
83.2881
20
-141.534
11
83.3357
21
-141.438
0
LINE
8
BLACK
6
CONTINUOUS
10
83.3357
20
-141.438
11
83.431
21
-141.391
0
LINE
8
BLACK
6
CONTINUOUS
10
83.431
20
-141.391
11
83.6214
21
-141.391
0
LINE
8
BLACK
6
CONTINUOUS
10
83.6214
20
-141.391
11
83.7167
21
-141.438
0
LINE
8
BLACK
6
CONTINUOUS
10
83.7167
20
-141.438
11
83.7643
21
-141.534
0
LINE
8
BLACK
6
CONTINUOUS
10
83.7643
20
-141.534
11
83.7643
21
-141.629
0
LINE
8
BLACK
6
CONTINUOUS
10
83.7643
20
-141.629
11
83.2881
21
-141.724
0
LINE
8
BLACK
6
CONTINUOUS
10
84.1929
20
-142.057
11
84.1929
21
-141.391
0
LINE
8
BLACK
6
CONTINUOUS
10
84.1929
20
-141.581
11
84.2405
21
-141.486
0
LINE
8
BLACK
6
CONTINUOUS
10
84.2405
20
-141.486
11
84.2881
21
-141.438
0
LINE
8
BLACK
6
CONTINUOUS
10
84.2881
20
-141.438
11
84.3833
21
-141.391
0
LINE
8
BLACK
6
CONTINUOUS
10
84.3833
20
-141.391
11
84.4786
21
-141.391
0
LINE
8
BLACK
6
CONTINUOUS
10
107.085
20
-153.075
11
107.132
21
-152.932
0
LINE
8
BLACK
6
CONTINUOUS
10
107.132
20
-152.932
11
107.132
21
-152.694
0
LINE
8
BLACK
6
CONTINUOUS
10
107.132
20
-152.694
11
107.085
21
-152.598
0
LINE
8
BLACK
6
CONTINUOUS
10
107.085
20
-152.598
11
107.037
21
-152.551
0
LINE
8
BLACK
6
CONTINUOUS
10
107.037
20
-152.551
11
106.942
21
-152.503
0
LINE
8
BLACK
6
CONTINUOUS
10
106.942
20
-152.503
11
106.847
21
-152.503
0
LINE
8
BLACK
6
CONTINUOUS
10
106.847
20
-152.503
11
106.751
21
-152.551
0
LINE
8
BLACK
6
CONTINUOUS
10
106.751
20
-152.551
11
106.704
21
-152.598
0
LINE
8
BLACK
6
CONTINUOUS
10
106.704
20
-152.598
11
106.656
21
-152.694
0
LINE
8
BLACK
6
CONTINUOUS
10
106.656
20
-152.694
11
106.609
21
-152.884
0
LINE
8
BLACK
6
CONTINUOUS
10
106.609
20
-152.884
11
106.561
21
-152.979
0
LINE
8
BLACK
6
CONTINUOUS
10
106.561
20
-152.979
11
106.513
21
-153.027
0
LINE
8
BLACK
6
CONTINUOUS
10
106.513
20
-153.027
11
106.418
21
-153.075
0
LINE
8
BLACK
6
CONTINUOUS
10
106.418
20
-153.075
11
106.323
21
-153.075
0
LINE
8
BLACK
6
CONTINUOUS
10
106.323
20
-153.075
11
106.228
21
-153.027
0
LINE
8
BLACK
6
CONTINUOUS
10
106.228
20
-153.027
11
106.18
21
-152.979
0
LINE
8
BLACK
6
CONTINUOUS
10
106.18
20
-152.979
11
106.132
21
-152.884
0
LINE
8
BLACK
6
CONTINUOUS
10
106.132
20
-152.884
11
106.132
21
-152.646
0
LINE
8
BLACK
6
CONTINUOUS
10
106.132
20
-152.646
11
106.18
21
-152.503
0
LINE
8
BLACK
6
CONTINUOUS
10
107.037
20
-151.503
11
107.085
21
-151.551
0
LINE
8
BLACK
6
CONTINUOUS
10
107.085
20
-151.551
11
107.132
21
-151.694
0
LINE
8
BLACK
6
CONTINUOUS
10
107.132
20
-151.694
11
107.132
21
-151.789
0
LINE
8
BLACK
6
CONTINUOUS
10
107.132
20
-151.789
11
107.085
21
-151.932
0
LINE
8
BLACK
6
CONTINUOUS
10
107.085
20
-151.932
11
106.99
21
-152.027
0
LINE
8
BLACK
6
CONTINUOUS
10
106.99
20
-152.027
11
106.894
21
-152.075
0
LINE
8
BLACK
6
CONTINUOUS
10
106.894
20
-152.075
11
106.704
21
-152.122
0
LINE
8
BLACK
6
CONTINUOUS
10
106.704
20
-152.122
11
106.561
21
-152.122
0
LINE
8
BLACK
6
CONTINUOUS
10
106.561
20
-152.122
11
106.37
21
-152.075
0
LINE
8
BLACK
6
CONTINUOUS
10
106.37
20
-152.075
11
106.275
21
-152.027
0
LINE
8
BLACK
6
CONTINUOUS
10
106.275
20
-152.027
11
106.18
21
-151.932
0
LINE
8
BLACK
6
CONTINUOUS
10
106.18
20
-151.932
11
106.132
21
-151.789
0
LINE
8
BLACK
6
CONTINUOUS
10
106.132
20
-151.789
11
106.132
21
-151.694
0
LINE
8
BLACK
6
CONTINUOUS
10
106.132
20
-151.694
11
106.18
21
-151.551
0
LINE
8
BLACK
6
CONTINUOUS
10
106.18
20
-151.551
11
106.228
21
-151.503
0
LINE
8
BLACK
6
CONTINUOUS
10
107.132
20
-151.075
11
106.132
21
-151.075
0
LINE
8
BLACK
6
CONTINUOUS
10
106.132
20
-151.075
11
107.132
21
-150.503
0
LINE
8
BLACK
6
CONTINUOUS
10
107.132
20
-150.503
11
106.132
21
-150.503
0
LINE
8
BLACK
6
CONTINUOUS
10
108.672
20
-153.051
11
108.672
21
-152.479
0
LINE
8
BLACK
6
CONTINUOUS
10
109.672
20
-152.765
11
108.672
21
-152.765
0
LINE
8
BLACK
6
CONTINUOUS
10
109.672
20
-151.575
11
109.196
21
-151.908
0
LINE
8
BLACK
6
CONTINUOUS
10
109.672
20
-152.146
11
108.672
21
-152.146
0
LINE
8
BLACK
6
CONTINUOUS
10
108.672
20
-152.146
11
108.672
21
-151.765
0
LINE
8
BLACK
6
CONTINUOUS
10
108.672
20
-151.765
11
108.72
21
-151.67
0
LINE
8
BLACK
6
CONTINUOUS
10
108.72
20
-151.67
11
108.768
21
-151.622
0
LINE
8
BLACK
6
CONTINUOUS
10
108.768
20
-151.622
11
108.863
21
-151.575
0
LINE
8
BLACK
6
CONTINUOUS
10
108.863
20
-151.575
11
109.006
21
-151.575
0
LINE
8
BLACK
6
CONTINUOUS
10
109.006
20
-151.575
11
109.101
21
-151.622
0
LINE
8
BLACK
6
CONTINUOUS
10
109.101
20
-151.622
11
109.149
21
-151.67
0
LINE
8
BLACK
6
CONTINUOUS
10
109.149
20
-151.67
11
109.196
21
-151.765
0
LINE
8
BLACK
6
CONTINUOUS
10
109.196
20
-151.765
11
109.196
21
-152.146
0
LINE
8
BLACK
6
CONTINUOUS
10
109.672
20
-150.575
11
109.196
21
-150.908
0
LINE
8
BLACK
6
CONTINUOUS
10
109.672
20
-151.146
11
108.672
21
-151.146
0
LINE
8
BLACK
6
CONTINUOUS
10
108.672
20
-151.146
11
108.672
21
-150.765
0
LINE
8
BLACK
6
CONTINUOUS
10
108.672
20
-150.765
11
108.72
21
-150.67
0
LINE
8
BLACK
6
CONTINUOUS
10
108.72
20
-150.67
11
108.768
21
-150.622
0
LINE
8
BLACK
6
CONTINUOUS
10
108.768
20
-150.622
11
108.863
21
-150.575
0
LINE
8
BLACK
6
CONTINUOUS
10
108.863
20
-150.575
11
109.006
21
-150.575
0
LINE
8
BLACK
6
CONTINUOUS
10
109.006
20
-150.575
11
109.101
21
-150.622
0
LINE
8
BLACK
6
CONTINUOUS
10
109.101
20
-150.622
11
109.149
21
-150.67
0
LINE
8
BLACK
6
CONTINUOUS
10
109.149
20
-150.67
11
109.196
21
-150.765
0
LINE
8
BLACK
6
CONTINUOUS
10
109.196
20
-150.765
11
109.196
21
-151.146
0
LINE
8
BLACK
6
CONTINUOUS
10
111.212
20
-152.932
11
111.212
21
-152.36
0
LINE
8
BLACK
6
CONTINUOUS
10
112.212
20
-152.646
11
111.212
21
-152.646
0
LINE
8
BLACK
6
CONTINUOUS
10
112.212
20
-151.455
11
111.736
21
-151.789
0
LINE
8
BLACK
6
CONTINUOUS
10
112.212
20
-152.027
11
111.212
21
-152.027
0
LINE
8
BLACK
6
CONTINUOUS
10
111.212
20
-152.027
11
111.212
21
-151.646
0
LINE
8
BLACK
6
CONTINUOUS
10
111.212
20
-151.646
11
111.26
21
-151.551
0
LINE
8
BLACK
6
CONTINUOUS
10
111.26
20
-151.551
11
111.308
21
-151.503
0
LINE
8
BLACK
6
CONTINUOUS
10
111.308
20
-151.503
11
111.403
21
-151.455
0
LINE
8
BLACK
6
CONTINUOUS
10
111.403
20
-151.455
11
111.546
21
-151.455
0
LINE
8
BLACK
6
CONTINUOUS
10
111.546
20
-151.455
11
111.641
21
-151.503
0
LINE
8
BLACK
6
CONTINUOUS
10
111.641
20
-151.503
11
111.689
21
-151.551
0
LINE
8
BLACK
6
CONTINUOUS
10
111.689
20
-151.551
11
111.736
21
-151.646
0
LINE
8
BLACK
6
CONTINUOUS
10
111.736
20
-151.646
11
111.736
21
-152.027
0
LINE
8
BLACK
6
CONTINUOUS
10
111.212
20
-151.17
11
111.212
21
-150.598
0
LINE
8
BLACK
6
CONTINUOUS
10
112.212
20
-150.884
11
111.212
21
-150.884
0
LINE
8
BLACK
6
CONTINUOUS
10
116.388
20
-152.051
11
116.34
21
-152.003
0
LINE
8
BLACK
6
CONTINUOUS
10
116.34
20
-152.003
11
116.292
21
-151.908
0
LINE
8
BLACK
6
CONTINUOUS
10
116.292
20
-151.908
11
116.292
21
-151.67
0
LINE
8
BLACK
6
CONTINUOUS
10
116.292
20
-151.67
11
116.34
21
-151.575
0
LINE
8
BLACK
6
CONTINUOUS
10
116.34
20
-151.575
11
116.388
21
-151.527
0
LINE
8
BLACK
6
CONTINUOUS
10
116.388
20
-151.527
11
116.483
21
-151.479
0
LINE
8
BLACK
6
CONTINUOUS
10
116.483
20
-151.479
11
116.578
21
-151.479
0
LINE
8
BLACK
6
CONTINUOUS
10
116.578
20
-151.479
11
116.721
21
-151.527
0
LINE
8
BLACK
6
CONTINUOUS
10
116.721
20
-151.527
11
117.292
21
-152.098
0
LINE
8
BLACK
6
CONTINUOUS
10
117.292
20
-152.098
11
117.292
21
-151.479
0
LINE
8
BLACK
6
CONTINUOUS
10
118.832
20
-152.098
11
118.832
21
-151.479
0
LINE
8
BLACK
6
CONTINUOUS
10
118.832
20
-151.479
11
119.213
21
-151.813
0
LINE
8
BLACK
6
CONTINUOUS
10
119.213
20
-151.813
11
119.213
21
-151.67
0
LINE
8
BLACK
6
CONTINUOUS
10
119.213
20
-151.67
11
119.261
21
-151.575
0
LINE
8
BLACK
6
CONTINUOUS
10
119.261
20
-151.575
11
119.309
21
-151.527
0
LINE
8
BLACK
6
CONTINUOUS
10
119.309
20
-151.527
11
119.404
21
-151.479
0
LINE
8
BLACK
6
CONTINUOUS
10
119.404
20
-151.479
11
119.642
21
-151.479
0
LINE
8
BLACK
6
CONTINUOUS
10
119.642
20
-151.479
11
119.737
21
-151.527
0
LINE
8
BLACK
6
CONTINUOUS
10
119.737
20
-151.527
11
119.785
21
-151.575
0
LINE
8
BLACK
6
CONTINUOUS
10
119.785
20
-151.575
11
119.832
21
-151.67
0
LINE
8
BLACK
6
CONTINUOUS
10
119.832
20
-151.67
11
119.832
21
-151.955
0
LINE
8
BLACK
6
CONTINUOUS
10
119.832
20
-151.955
11
119.785
21
-152.051
0
LINE
8
BLACK
6
CONTINUOUS
10
119.785
20
-152.051
11
119.737
21
-152.098
0
LINE
8
BLACK
6
CONTINUOUS
10
122.372
20
-151.479
11
122.372
21
-152.051
0
LINE
8
BLACK
6
CONTINUOUS
10
122.372
20
-151.765
11
121.372
21
-151.765
0
LINE
8
BLACK
6
CONTINUOUS
10
121.372
20
-151.765
11
121.515
21
-151.86
0
LINE
8
BLACK
6
CONTINUOUS
10
121.515
20
-151.86
11
121.61
21
-151.955
0
LINE
8
BLACK
6
CONTINUOUS
10
121.61
20
-151.955
11
121.658
21
-152.051
0
LINE
8
BLACK
6
CONTINUOUS
10
76
20
-154
11
76
21
-115
0
LINE
8
BLACK
6
CONTINUOUS
10
125
20
-154
11
76
21
-154
0
LINE
8
BLACK
6
CONTINUOUS
10
125
20
-115
11
125
21
-154
0
LINE
8
BLACK
6
CONTINUOUS
10
76
20
-115
11
125
21
-115
  0
ENDSEC
  0
EOF
