  0
SECTION
  2
HEADER
  9
$ANGBASE
  50
0.0
  9
$ANGDIR
  70
1
  9
$MEASUREMENT
  70
1
  0
ENDSEC
  0
SECTION
  2
TABLES
  0
TABLE
  2
LTYPE
  70
4
  0
LTYPE
  5
40F
  2
CONTINUOUS
  70
0
  3
Solid line
  72
65
  73
0
  40
0.0
  0
LTYPE
  5
410
  2
DASHDOT
 70
0
  3
Dash Dot ____ _ ____ _
 72
65
 73
4
 40
2.0
 49
1.25
 49
-0.25
 49
0.25
 49
-0.25
  0
LTYPE
  5
411
  2
DASHED
 70
0
  3
Dashed __ __ __ __ __
 72
65
 73
2
 40
0.75
 49
0.5
 49
-0.25
  0
LTYPE
  5
43B
  2
DOTTED
 70
0
  3
Dotted .  .  .  .
 72
65
 73
2
 40
0.2
 49
0.0
 49
-0.2
  0
ENDTAB
  0
TABLE
  2
STYLE
  70
4
  0
STYLE
  2
KICAD
  70
0
  40
0
  41
1
  42
1
  50
0
  71
0
  3
isocp.shx
  0
STYLE
  2
KICADB
  70
0
  40
0
  41
1
  42
1
  50
0
  71
0
  3
isocp.shx
  0
STYLE
  2
KICADI
  70
0
  40
0
  41
1
  42
1
  50
15
  71
0
  3
isocp.shx
  0
STYLE
  2
KICADBI
  70
0
  40
0
  41
1
  42
1
  50
15
  71
0
  3
isocp.shx
  0
ENDTAB
  0
TABLE
  2
LAYER
  70
1
  0
LAYER
  2
BLACK
  70
0
  62
7
  6
CONTINUOUS
  0
ENDTAB
  0
ENDSEC
  0
SECTION
  2
ENTITIES
0
LINE
8
BLACK
6
CONTINUOUS
10
93
20
-118
11
93
21
-180
0
LINE
8
BLACK
6
CONTINUOUS
10
93
20
-180
11
130
21
-180
0
LINE
8
BLACK
6
CONTINUOUS
10
105.388
20
-161.672
11
105.316
21
-161.886
0
LINE
8
BLACK
6
CONTINUOUS
10
105.316
20
-161.886
11
105.316
21
-162.244
0
LINE
8
BLACK
6
CONTINUOUS
10
105.316
20
-162.244
11
105.388
21
-162.386
0
LINE
8
BLACK
6
CONTINUOUS
10
105.388
20
-162.386
11
105.459
21
-162.458
0
LINE
8
BLACK
6
CONTINUOUS
10
105.459
20
-162.458
11
105.602
21
-162.529
0
LINE
8
BLACK
6
CONTINUOUS
10
105.602
20
-162.529
11
105.745
21
-162.529
0
LINE
8
BLACK
6
CONTINUOUS
10
105.745
20
-162.529
11
105.888
21
-162.458
0
LINE
8
BLACK
6
CONTINUOUS
10
105.888
20
-162.458
11
105.959
21
-162.386
0
LINE
8
BLACK
6
CONTINUOUS
10
105.959
20
-162.386
11
106.031
21
-162.244
0
LINE
8
BLACK
6
CONTINUOUS
10
106.031
20
-162.244
11
106.102
21
-161.958
0
LINE
8
BLACK
6
CONTINUOUS
10
106.102
20
-161.958
11
106.174
21
-161.815
0
LINE
8
BLACK
6
CONTINUOUS
10
106.174
20
-161.815
11
106.245
21
-161.744
0
LINE
8
BLACK
6
CONTINUOUS
10
106.245
20
-161.744
11
106.388
21
-161.672
0
LINE
8
BLACK
6
CONTINUOUS
10
106.388
20
-161.672
11
106.531
21
-161.672
0
LINE
8
BLACK
6
CONTINUOUS
10
106.531
20
-161.672
11
106.674
21
-161.744
0
LINE
8
BLACK
6
CONTINUOUS
10
106.674
20
-161.744
11
106.745
21
-161.815
0
LINE
8
BLACK
6
CONTINUOUS
10
106.745
20
-161.815
11
106.816
21
-161.958
0
LINE
8
BLACK
6
CONTINUOUS
10
106.816
20
-161.958
11
106.816
21
-162.315
0
LINE
8
BLACK
6
CONTINUOUS
10
106.816
20
-162.315
11
106.745
21
-162.529
0
LINE
8
BLACK
6
CONTINUOUS
10
105.316
20
-163.172
11
106.816
21
-163.172
0
LINE
8
BLACK
6
CONTINUOUS
10
105.316
20
-164.029
11
106.174
21
-163.386
0
LINE
8
BLACK
6
CONTINUOUS
10
106.816
20
-164.029
11
105.959
21
-163.172
0
LINE
8
BLACK
6
CONTINUOUS
10
105.316
20
-165.458
11
105.316
21
-164.601
0
LINE
8
BLACK
6
CONTINUOUS
10
105.316
20
-165.029
11
106.816
21
-165.029
0
LINE
8
BLACK
6
CONTINUOUS
10
106.816
20
-165.029
11
106.602
21
-164.886
0
LINE
8
BLACK
6
CONTINUOUS
10
106.602
20
-164.886
11
106.459
21
-164.744
0
LINE
8
BLACK
6
CONTINUOUS
10
106.459
20
-164.744
11
106.388
21
-164.601
0
LINE
8
BLACK
6
CONTINUOUS
10
93.8707
20
-168.617
11
94.085
21
-168.689
0
LINE
8
BLACK
6
CONTINUOUS
10
94.085
20
-168.689
11
94.4421
21
-168.689
0
LINE
8
BLACK
6
CONTINUOUS
10
94.4421
20
-168.689
11
94.585
21
-168.617
0
LINE
8
BLACK
6
CONTINUOUS
10
94.585
20
-168.617
11
94.6564
21
-168.546
0
LINE
8
BLACK
6
CONTINUOUS
10
94.6564
20
-168.546
11
94.7279
21
-168.403
0
LINE
8
BLACK
6
CONTINUOUS
10
94.7279
20
-168.403
11
94.7279
21
-168.26
0
LINE
8
BLACK
6
CONTINUOUS
10
94.7279
20
-168.26
11
94.6564
21
-168.117
0
LINE
8
BLACK
6
CONTINUOUS
10
94.6564
20
-168.117
11
94.585
21
-168.046
0
LINE
8
BLACK
6
CONTINUOUS
10
94.585
20
-168.046
11
94.4421
21
-167.974
0
LINE
8
BLACK
6
CONTINUOUS
10
94.4421
20
-167.974
11
94.1564
21
-167.903
0
LINE
8
BLACK
6
CONTINUOUS
10
94.1564
20
-167.903
11
94.0136
21
-167.831
0
LINE
8
BLACK
6
CONTINUOUS
10
94.0136
20
-167.831
11
93.9421
21
-167.76
0
LINE
8
BLACK
6
CONTINUOUS
10
93.9421
20
-167.76
11
93.8707
21
-167.617
0
LINE
8
BLACK
6
CONTINUOUS
10
93.8707
20
-167.617
11
93.8707
21
-167.474
0
LINE
8
BLACK
6
CONTINUOUS
10
93.8707
20
-167.474
11
93.9421
21
-167.331
0
LINE
8
BLACK
6
CONTINUOUS
10
93.9421
20
-167.331
11
94.0136
21
-167.26
0
LINE
8
BLACK
6
CONTINUOUS
10
94.0136
20
-167.26
11
94.1564
21
-167.189
0
LINE
8
BLACK
6
CONTINUOUS
10
94.1564
20
-167.189
11
94.5136
21
-167.189
0
LINE
8
BLACK
6
CONTINUOUS
10
94.5136
20
-167.189
11
94.7279
21
-167.26
0
LINE
8
BLACK
6
CONTINUOUS
10
96.2279
20
-168.546
11
96.1564
21
-168.617
0
LINE
8
BLACK
6
CONTINUOUS
10
96.1564
20
-168.617
11
95.9421
21
-168.689
0
LINE
8
BLACK
6
CONTINUOUS
10
95.9421
20
-168.689
11
95.7993
21
-168.689
0
LINE
8
BLACK
6
CONTINUOUS
10
95.7993
20
-168.689
11
95.585
21
-168.617
0
LINE
8
BLACK
6
CONTINUOUS
10
95.585
20
-168.617
11
95.4421
21
-168.474
0
LINE
8
BLACK
6
CONTINUOUS
10
95.4421
20
-168.474
11
95.3707
21
-168.331
0
LINE
8
BLACK
6
CONTINUOUS
10
95.3707
20
-168.331
11
95.2993
21
-168.046
0
LINE
8
BLACK
6
CONTINUOUS
10
95.2993
20
-168.046
11
95.2993
21
-167.831
0
LINE
8
BLACK
6
CONTINUOUS
10
95.2993
20
-167.831
11
95.3707
21
-167.546
0
LINE
8
BLACK
6
CONTINUOUS
10
95.3707
20
-167.546
11
95.4421
21
-167.403
0
LINE
8
BLACK
6
CONTINUOUS
10
95.4421
20
-167.403
11
95.585
21
-167.26
0
LINE
8
BLACK
6
CONTINUOUS
10
95.585
20
-167.26
11
95.7993
21
-167.189
0
LINE
8
BLACK
6
CONTINUOUS
10
95.7993
20
-167.189
11
95.9421
21
-167.189
0
LINE
8
BLACK
6
CONTINUOUS
10
95.9421
20
-167.189
11
96.1564
21
-167.26
0
LINE
8
BLACK
6
CONTINUOUS
10
96.1564
20
-167.26
11
96.2279
21
-167.331
0
LINE
8
BLACK
6
CONTINUOUS
10
96.8707
20
-168.689
11
96.8707
21
-167.189
0
LINE
8
BLACK
6
CONTINUOUS
10
96.8707
20
-167.189
11
97.7279
21
-168.689
0
LINE
8
BLACK
6
CONTINUOUS
10
97.7279
20
-168.689
11
97.7279
21
-167.189
0
LINE
8
BLACK
6
CONTINUOUS
10
130
20
-118
11
93
21
-118
0
LINE
8
BLACK
6
CONTINUOUS
10
104.102
20
-138.137
11
104.316
21
-138.209
0
LINE
8
BLACK
6
CONTINUOUS
10
104.316
20
-138.209
11
104.674
21
-138.209
0
LINE
8
BLACK
6
CONTINUOUS
10
104.674
20
-138.209
11
104.816
21
-138.137
0
LINE
8
BLACK
6
CONTINUOUS
10
104.816
20
-138.137
11
104.888
21
-138.066
0
LINE
8
BLACK
6
CONTINUOUS
10
104.888
20
-138.066
11
104.959
21
-137.923
0
LINE
8
BLACK
6
CONTINUOUS
10
104.959
20
-137.923
11
104.959
21
-137.78
0
LINE
8
BLACK
6
CONTINUOUS
10
104.959
20
-137.78
11
104.888
21
-137.637
0
LINE
8
BLACK
6
CONTINUOUS
10
104.888
20
-137.637
11
104.816
21
-137.566
0
LINE
8
BLACK
6
CONTINUOUS
10
104.816
20
-137.566
11
104.674
21
-137.494
0
LINE
8
BLACK
6
CONTINUOUS
10
104.674
20
-137.494
11
104.388
21
-137.423
0
LINE
8
BLACK
6
CONTINUOUS
10
104.388
20
-137.423
11
104.245
21
-137.351
0
LINE
8
BLACK
6
CONTINUOUS
10
104.245
20
-137.351
11
104.174
21
-137.28
0
LINE
8
BLACK
6
CONTINUOUS
10
104.174
20
-137.28
11
104.102
21
-137.137
0
LINE
8
BLACK
6
CONTINUOUS
10
104.102
20
-137.137
11
104.102
21
-136.994
0
LINE
8
BLACK
6
CONTINUOUS
10
104.102
20
-136.994
11
104.174
21
-136.851
0
LINE
8
BLACK
6
CONTINUOUS
10
104.174
20
-136.851
11
104.245
21
-136.78
0
LINE
8
BLACK
6
CONTINUOUS
10
104.245
20
-136.78
11
104.388
21
-136.709
0
LINE
8
BLACK
6
CONTINUOUS
10
104.388
20
-136.709
11
104.745
21
-136.709
0
LINE
8
BLACK
6
CONTINUOUS
10
104.745
20
-136.709
11
104.959
21
-136.78
0
LINE
8
BLACK
6
CONTINUOUS
10
105.602
20
-138.209
11
105.602
21
-136.709
0
LINE
8
BLACK
6
CONTINUOUS
10
106.459
20
-138.209
11
105.816
21
-137.351
0
LINE
8
BLACK
6
CONTINUOUS
10
106.459
20
-136.709
11
105.602
21
-137.566
0
LINE
8
BLACK
6
CONTINUOUS
10
107.745
20
-137.209
11
107.745
21
-138.209
0
LINE
8
BLACK
6
CONTINUOUS
10
107.388
20
-136.637
11
107.031
21
-137.709
0
LINE
8
BLACK
6
CONTINUOUS
10
107.031
20
-137.709
11
107.959
21
-137.709
0
LINE
8
BLACK
6
CONTINUOUS
10
95.7914
20
-125.215
11
96.5057
21
-124.715
0
LINE
8
BLACK
6
CONTINUOUS
10
95.7914
20
-124.358
11
97.2914
21
-124.358
0
LINE
8
BLACK
6
CONTINUOUS
10
97.2914
20
-124.358
11
97.2914
21
-124.929
0
LINE
8
BLACK
6
CONTINUOUS
10
97.2914
20
-124.929
11
97.22
21
-125.072
0
LINE
8
BLACK
6
CONTINUOUS
10
97.22
20
-125.072
11
97.1486
21
-125.144
0
LINE
8
BLACK
6
CONTINUOUS
10
97.1486
20
-125.144
11
97.0057
21
-125.215
0
LINE
8
BLACK
6
CONTINUOUS
10
97.0057
20
-125.215
11
96.7914
21
-125.215
0
LINE
8
BLACK
6
CONTINUOUS
10
96.7914
20
-125.215
11
96.6486
21
-125.144
0
LINE
8
BLACK
6
CONTINUOUS
10
96.6486
20
-125.144
11
96.5771
21
-125.072
0
LINE
8
BLACK
6
CONTINUOUS
10
96.5771
20
-125.072
11
96.5057
21
-124.929
0
LINE
8
BLACK
6
CONTINUOUS
10
96.5057
20
-124.929
11
96.5057
21
-124.358
0
LINE
8
BLACK
6
CONTINUOUS
10
97.2914
20
-125.715
11
97.2914
21
-126.644
0
LINE
8
BLACK
6
CONTINUOUS
10
97.2914
20
-126.644
11
96.72
21
-126.144
0
LINE
8
BLACK
6
CONTINUOUS
10
96.72
20
-126.144
11
96.72
21
-126.358
0
LINE
8
BLACK
6
CONTINUOUS
10
96.72
20
-126.358
11
96.6486
21
-126.501
0
LINE
8
BLACK
6
CONTINUOUS
10
96.6486
20
-126.501
11
96.5771
21
-126.572
0
LINE
8
BLACK
6
CONTINUOUS
10
96.5771
20
-126.572
11
96.4343
21
-126.644
0
LINE
8
BLACK
6
CONTINUOUS
10
96.4343
20
-126.644
11
96.0771
21
-126.644
0
LINE
8
BLACK
6
CONTINUOUS
10
96.0771
20
-126.644
11
95.9343
21
-126.572
0
LINE
8
BLACK
6
CONTINUOUS
10
95.9343
20
-126.572
11
95.8629
21
-126.501
0
LINE
8
BLACK
6
CONTINUOUS
10
95.8629
20
-126.501
11
95.7914
21
-126.358
0
LINE
8
BLACK
6
CONTINUOUS
10
95.7914
20
-126.358
11
95.7914
21
-125.929
0
LINE
8
BLACK
6
CONTINUOUS
10
95.7914
20
-125.929
11
95.8629
21
-125.786
0
LINE
8
BLACK
6
CONTINUOUS
10
95.8629
20
-125.786
11
95.9343
21
-125.715
0
LINE
8
BLACK
6
CONTINUOUS
10
96.5336
20
-163.037
11
97.6764
21
-163.037
0
LINE
8
BLACK
6
CONTINUOUS
10
97.105
20
-163.609
11
97.105
21
-162.466
0
LINE
8
BLACK
6
CONTINUOUS
10
104.102
20
-158.457
11
104.316
21
-158.529
0
LINE
8
BLACK
6
CONTINUOUS
10
104.316
20
-158.529
11
104.674
21
-158.529
0
LINE
8
BLACK
6
CONTINUOUS
10
104.674
20
-158.529
11
104.816
21
-158.457
0
LINE
8
BLACK
6
CONTINUOUS
10
104.816
20
-158.457
11
104.888
21
-158.386
0
LINE
8
BLACK
6
CONTINUOUS
10
104.888
20
-158.386
11
104.959
21
-158.243
0
LINE
8
BLACK
6
CONTINUOUS
10
104.959
20
-158.243
11
104.959
21
-158.1
0
LINE
8
BLACK
6
CONTINUOUS
10
104.959
20
-158.1
11
104.888
21
-157.957
0
LINE
8
BLACK
6
CONTINUOUS
10
104.888
20
-157.957
11
104.816
21
-157.886
0
LINE
8
BLACK
6
CONTINUOUS
10
104.816
20
-157.886
11
104.674
21
-157.814
0
LINE
8
BLACK
6
CONTINUOUS
10
104.674
20
-157.814
11
104.388
21
-157.743
0
LINE
8
BLACK
6
CONTINUOUS
10
104.388
20
-157.743
11
104.245
21
-157.671
0
LINE
8
BLACK
6
CONTINUOUS
10
104.245
20
-157.671
11
104.174
21
-157.6
0
LINE
8
BLACK
6
CONTINUOUS
10
104.174
20
-157.6
11
104.102
21
-157.457
0
LINE
8
BLACK
6
CONTINUOUS
10
104.102
20
-157.457
11
104.102
21
-157.314
0
LINE
8
BLACK
6
CONTINUOUS
10
104.102
20
-157.314
11
104.174
21
-157.171
0
LINE
8
BLACK
6
CONTINUOUS
10
104.174
20
-157.171
11
104.245
21
-157.1
0
LINE
8
BLACK
6
CONTINUOUS
10
104.245
20
-157.1
11
104.388
21
-157.029
0
LINE
8
BLACK
6
CONTINUOUS
10
104.388
20
-157.029
11
104.745
21
-157.029
0
LINE
8
BLACK
6
CONTINUOUS
10
104.745
20
-157.029
11
104.959
21
-157.1
0
LINE
8
BLACK
6
CONTINUOUS
10
105.602
20
-158.529
11
105.602
21
-157.029
0
LINE
8
BLACK
6
CONTINUOUS
10
106.459
20
-158.529
11
105.816
21
-157.671
0
LINE
8
BLACK
6
CONTINUOUS
10
106.459
20
-157.029
11
105.602
21
-157.886
0
LINE
8
BLACK
6
CONTINUOUS
10
106.959
20
-157.029
11
107.888
21
-157.029
0
LINE
8
BLACK
6
CONTINUOUS
10
107.888
20
-157.029
11
107.388
21
-157.6
0
LINE
8
BLACK
6
CONTINUOUS
10
107.388
20
-157.6
11
107.602
21
-157.6
0
LINE
8
BLACK
6
CONTINUOUS
10
107.602
20
-157.6
11
107.745
21
-157.671
0
LINE
8
BLACK
6
CONTINUOUS
10
107.745
20
-157.671
11
107.816
21
-157.743
0
LINE
8
BLACK
6
CONTINUOUS
10
107.816
20
-157.743
11
107.888
21
-157.886
0
LINE
8
BLACK
6
CONTINUOUS
10
107.888
20
-157.886
11
107.888
21
-158.243
0
LINE
8
BLACK
6
CONTINUOUS
10
107.888
20
-158.243
11
107.816
21
-158.386
0
LINE
8
BLACK
6
CONTINUOUS
10
107.816
20
-158.386
11
107.745
21
-158.457
0
LINE
8
BLACK
6
CONTINUOUS
10
107.745
20
-158.457
11
107.602
21
-158.529
0
LINE
8
BLACK
6
CONTINUOUS
10
107.602
20
-158.529
11
107.174
21
-158.529
0
LINE
8
BLACK
6
CONTINUOUS
10
107.174
20
-158.529
11
107.031
21
-158.457
0
LINE
8
BLACK
6
CONTINUOUS
10
107.031
20
-158.457
11
106.959
21
-158.386
0
LINE
8
BLACK
6
CONTINUOUS
10
96.5336
20
-165.577
11
97.6764
21
-165.577
0
LINE
8
BLACK
6
CONTINUOUS
10
130
20
-180
11
130
21
-118
0
LINE
8
BLACK
6
CONTINUOUS
10
93.8707
20
-176.237
11
94.085
21
-176.309
0
LINE
8
BLACK
6
CONTINUOUS
10
94.085
20
-176.309
11
94.4421
21
-176.309
0
LINE
8
BLACK
6
CONTINUOUS
10
94.4421
20
-176.309
11
94.585
21
-176.237
0
LINE
8
BLACK
6
CONTINUOUS
10
94.585
20
-176.237
11
94.6564
21
-176.166
0
LINE
8
BLACK
6
CONTINUOUS
10
94.6564
20
-176.166
11
94.7279
21
-176.023
0
LINE
8
BLACK
6
CONTINUOUS
10
94.7279
20
-176.023
11
94.7279
21
-175.88
0
LINE
8
BLACK
6
CONTINUOUS
10
94.7279
20
-175.88
11
94.6564
21
-175.737
0
LINE
8
BLACK
6
CONTINUOUS
10
94.6564
20
-175.737
11
94.585
21
-175.666
0
LINE
8
BLACK
6
CONTINUOUS
10
94.585
20
-175.666
11
94.4421
21
-175.594
0
LINE
8
BLACK
6
CONTINUOUS
10
94.4421
20
-175.594
11
94.1564
21
-175.523
0
LINE
8
BLACK
6
CONTINUOUS
10
94.1564
20
-175.523
11
94.0136
21
-175.451
0
LINE
8
BLACK
6
CONTINUOUS
10
94.0136
20
-175.451
11
93.9421
21
-175.38
0
LINE
8
BLACK
6
CONTINUOUS
10
93.9421
20
-175.38
11
93.8707
21
-175.237
0
LINE
8
BLACK
6
CONTINUOUS
10
93.8707
20
-175.237
11
93.8707
21
-175.094
0
LINE
8
BLACK
6
CONTINUOUS
10
93.8707
20
-175.094
11
93.9421
21
-174.951
0
LINE
8
BLACK
6
CONTINUOUS
10
93.9421
20
-174.951
11
94.0136
21
-174.88
0
LINE
8
BLACK
6
CONTINUOUS
10
94.0136
20
-174.88
11
94.1564
21
-174.809
0
LINE
8
BLACK
6
CONTINUOUS
10
94.1564
20
-174.809
11
94.5136
21
-174.809
0
LINE
8
BLACK
6
CONTINUOUS
10
94.5136
20
-174.809
11
94.7279
21
-174.88
0
LINE
8
BLACK
6
CONTINUOUS
10
96.2279
20
-176.166
11
96.1564
21
-176.237
0
LINE
8
BLACK
6
CONTINUOUS
10
96.1564
20
-176.237
11
95.9421
21
-176.309
0
LINE
8
BLACK
6
CONTINUOUS
10
95.9421
20
-176.309
11
95.7993
21
-176.309
0
LINE
8
BLACK
6
CONTINUOUS
10
95.7993
20
-176.309
11
95.585
21
-176.237
0
LINE
8
BLACK
6
CONTINUOUS
10
95.585
20
-176.237
11
95.4421
21
-176.094
0
LINE
8
BLACK
6
CONTINUOUS
10
95.4421
20
-176.094
11
95.3707
21
-175.951
0
LINE
8
BLACK
6
CONTINUOUS
10
95.3707
20
-175.951
11
95.2993
21
-175.666
0
LINE
8
BLACK
6
CONTINUOUS
10
95.2993
20
-175.666
11
95.2993
21
-175.451
0
LINE
8
BLACK
6
CONTINUOUS
10
95.2993
20
-175.451
11
95.3707
21
-175.166
0
LINE
8
BLACK
6
CONTINUOUS
10
95.3707
20
-175.166
11
95.4421
21
-175.023
0
LINE
8
BLACK
6
CONTINUOUS
10
95.4421
20
-175.023
11
95.585
21
-174.88
0
LINE
8
BLACK
6
CONTINUOUS
10
95.585
20
-174.88
11
95.7993
21
-174.809
0
LINE
8
BLACK
6
CONTINUOUS
10
95.7993
20
-174.809
11
95.9421
21
-174.809
0
LINE
8
BLACK
6
CONTINUOUS
10
95.9421
20
-174.809
11
96.1564
21
-174.88
0
LINE
8
BLACK
6
CONTINUOUS
10
96.1564
20
-174.88
11
96.2279
21
-174.951
0
LINE
8
BLACK
6
CONTINUOUS
10
96.8707
20
-176.309
11
96.8707
21
-174.809
0
LINE
8
BLACK
6
CONTINUOUS
10
96.8707
20
-174.809
11
97.7279
21
-176.309
0
LINE
8
BLACK
6
CONTINUOUS
10
97.7279
20
-176.309
11
97.7279
21
-174.809
0
LINE
8
BLACK
6
CONTINUOUS
10
93.9064
20
-172.269
11
94.7636
21
-172.269
0
LINE
8
BLACK
6
CONTINUOUS
10
94.335
20
-173.769
11
94.335
21
-172.269
0
LINE
8
BLACK
6
CONTINUOUS
10
96.1207
20
-173.769
11
95.6207
21
-173.054
0
LINE
8
BLACK
6
CONTINUOUS
10
95.2636
20
-173.769
11
95.2636
21
-172.269
0
LINE
8
BLACK
6
CONTINUOUS
10
95.2636
20
-172.269
11
95.835
21
-172.269
0
LINE
8
BLACK
6
CONTINUOUS
10
95.835
20
-172.269
11
95.9779
21
-172.34
0
LINE
8
BLACK
6
CONTINUOUS
10
95.9779
20
-172.34
11
96.0493
21
-172.411
0
LINE
8
BLACK
6
CONTINUOUS
10
96.0493
20
-172.411
11
96.1207
21
-172.554
0
LINE
8
BLACK
6
CONTINUOUS
10
96.1207
20
-172.554
11
96.1207
21
-172.769
0
LINE
8
BLACK
6
CONTINUOUS
10
96.1207
20
-172.769
11
96.0493
21
-172.911
0
LINE
8
BLACK
6
CONTINUOUS
10
96.0493
20
-172.911
11
95.9779
21
-172.983
0
LINE
8
BLACK
6
CONTINUOUS
10
95.9779
20
-172.983
11
95.835
21
-173.054
0
LINE
8
BLACK
6
CONTINUOUS
10
95.835
20
-173.054
11
95.2636
21
-173.054
0
LINE
8
BLACK
6
CONTINUOUS
10
97.6207
20
-173.769
11
97.1207
21
-173.054
0
LINE
8
BLACK
6
CONTINUOUS
10
96.7636
20
-173.769
11
96.7636
21
-172.269
0
LINE
8
BLACK
6
CONTINUOUS
10
96.7636
20
-172.269
11
97.335
21
-172.269
0
LINE
8
BLACK
6
CONTINUOUS
10
97.335
20
-172.269
11
97.4779
21
-172.34
0
LINE
8
BLACK
6
CONTINUOUS
10
97.4779
20
-172.34
11
97.5493
21
-172.411
0
LINE
8
BLACK
6
CONTINUOUS
10
97.5493
20
-172.411
11
97.6207
21
-172.554
0
LINE
8
BLACK
6
CONTINUOUS
10
97.6207
20
-172.554
11
97.6207
21
-172.769
0
LINE
8
BLACK
6
CONTINUOUS
10
97.6207
20
-172.769
11
97.5493
21
-172.911
0
LINE
8
BLACK
6
CONTINUOUS
10
97.5493
20
-172.911
11
97.4779
21
-172.983
0
LINE
8
BLACK
6
CONTINUOUS
10
97.4779
20
-172.983
11
97.335
21
-173.054
0
LINE
8
BLACK
6
CONTINUOUS
10
97.335
20
-173.054
11
96.7636
21
-173.054
0
LINE
8
BLACK
6
CONTINUOUS
10
104.102
20
-178.777
11
104.316
21
-178.849
0
LINE
8
BLACK
6
CONTINUOUS
10
104.316
20
-178.849
11
104.674
21
-178.849
0
LINE
8
BLACK
6
CONTINUOUS
10
104.674
20
-178.849
11
104.816
21
-178.777
0
LINE
8
BLACK
6
CONTINUOUS
10
104.816
20
-178.777
11
104.888
21
-178.706
0
LINE
8
BLACK
6
CONTINUOUS
10
104.888
20
-178.706
11
104.959
21
-178.563
0
LINE
8
BLACK
6
CONTINUOUS
10
104.959
20
-178.563
11
104.959
21
-178.42
0
LINE
8
BLACK
6
CONTINUOUS
10
104.959
20
-178.42
11
104.888
21
-178.277
0
LINE
8
BLACK
6
CONTINUOUS
10
104.888
20
-178.277
11
104.816
21
-178.206
0
LINE
8
BLACK
6
CONTINUOUS
10
104.816
20
-178.206
11
104.674
21
-178.134
0
LINE
8
BLACK
6
CONTINUOUS
10
104.674
20
-178.134
11
104.388
21
-178.063
0
LINE
8
BLACK
6
CONTINUOUS
10
104.388
20
-178.063
11
104.245
21
-177.991
0
LINE
8
BLACK
6
CONTINUOUS
10
104.245
20
-177.991
11
104.174
21
-177.92
0
LINE
8
BLACK
6
CONTINUOUS
10
104.174
20
-177.92
11
104.102
21
-177.777
0
LINE
8
BLACK
6
CONTINUOUS
10
104.102
20
-177.777
11
104.102
21
-177.634
0
LINE
8
BLACK
6
CONTINUOUS
10
104.102
20
-177.634
11
104.174
21
-177.491
0
LINE
8
BLACK
6
CONTINUOUS
10
104.174
20
-177.491
11
104.245
21
-177.42
0
LINE
8
BLACK
6
CONTINUOUS
10
104.245
20
-177.42
11
104.388
21
-177.349
0
LINE
8
BLACK
6
CONTINUOUS
10
104.388
20
-177.349
11
104.745
21
-177.349
0
LINE
8
BLACK
6
CONTINUOUS
10
104.745
20
-177.349
11
104.959
21
-177.42
0
LINE
8
BLACK
6
CONTINUOUS
10
105.602
20
-178.849
11
105.602
21
-177.349
0
LINE
8
BLACK
6
CONTINUOUS
10
106.459
20
-178.849
11
105.816
21
-177.991
0
LINE
8
BLACK
6
CONTINUOUS
10
106.459
20
-177.349
11
105.602
21
-178.206
0
LINE
8
BLACK
6
CONTINUOUS
10
107.031
20
-177.491
11
107.102
21
-177.42
0
LINE
8
BLACK
6
CONTINUOUS
10
107.102
20
-177.42
11
107.245
21
-177.349
0
LINE
8
BLACK
6
CONTINUOUS
10
107.245
20
-177.349
11
107.602
21
-177.349
0
LINE
8
BLACK
6
CONTINUOUS
10
107.602
20
-177.349
11
107.745
21
-177.42
0
LINE
8
BLACK
6
CONTINUOUS
10
107.745
20
-177.42
11
107.816
21
-177.491
0
LINE
8
BLACK
6
CONTINUOUS
10
107.816
20
-177.491
11
107.888
21
-177.634
0
LINE
8
BLACK
6
CONTINUOUS
10
107.888
20
-177.634
11
107.888
21
-177.777
0
LINE
8
BLACK
6
CONTINUOUS
10
107.888
20
-177.777
11
107.816
21
-177.991
0
LINE
8
BLACK
6
CONTINUOUS
10
107.816
20
-177.991
11
106.959
21
-178.849
0
LINE
8
BLACK
6
CONTINUOUS
10
106.959
20
-178.849
11
107.888
21
-178.849
0
LINE
8
BLACK
6
CONTINUOUS
10
100.871
20
-128.39
11
101.586
21
-127.89
0
LINE
8
BLACK
6
CONTINUOUS
10
100.871
20
-127.533
11
102.371
21
-127.533
0
LINE
8
BLACK
6
CONTINUOUS
10
102.371
20
-127.533
11
102.371
21
-128.104
0
LINE
8
BLACK
6
CONTINUOUS
10
102.371
20
-128.104
11
102.3
21
-128.247
0
LINE
8
BLACK
6
CONTINUOUS
10
102.3
20
-128.247
11
102.229
21
-128.319
0
LINE
8
BLACK
6
CONTINUOUS
10
102.229
20
-128.319
11
102.086
21
-128.39
0
LINE
8
BLACK
6
CONTINUOUS
10
102.086
20
-128.39
11
101.871
21
-128.39
0
LINE
8
BLACK
6
CONTINUOUS
10
101.871
20
-128.39
11
101.729
21
-128.319
0
LINE
8
BLACK
6
CONTINUOUS
10
101.729
20
-128.319
11
101.657
21
-128.247
0
LINE
8
BLACK
6
CONTINUOUS
10
101.657
20
-128.247
11
101.586
21
-128.104
0
LINE
8
BLACK
6
CONTINUOUS
10
101.586
20
-128.104
11
101.586
21
-127.533
0
LINE
8
BLACK
6
CONTINUOUS
10
102.229
20
-128.961
11
102.3
21
-129.033
0
LINE
8
BLACK
6
CONTINUOUS
10
102.3
20
-129.033
11
102.371
21
-129.176
0
LINE
8
BLACK
6
CONTINUOUS
10
102.371
20
-129.176
11
102.371
21
-129.533
0
LINE
8
BLACK
6
CONTINUOUS
10
102.371
20
-129.533
11
102.3
21
-129.676
0
LINE
8
BLACK
6
CONTINUOUS
10
102.3
20
-129.676
11
102.229
21
-129.747
0
LINE
8
BLACK
6
CONTINUOUS
10
102.229
20
-129.747
11
102.086
21
-129.819
0
LINE
8
BLACK
6
CONTINUOUS
10
102.086
20
-129.819
11
101.943
21
-129.819
0
LINE
8
BLACK
6
CONTINUOUS
10
101.943
20
-129.819
11
101.729
21
-129.747
0
LINE
8
BLACK
6
CONTINUOUS
10
101.729
20
-129.747
11
100.871
21
-128.89
0
LINE
8
BLACK
6
CONTINUOUS
10
100.871
20
-128.89
11
100.871
21
-129.819
0
LINE
8
BLACK
6
CONTINUOUS
10
94.085
20
-169.729
11
94.9421
21
-169.729
0
LINE
8
BLACK
6
CONTINUOUS
10
94.5136
20
-171.229
11
94.5136
21
-169.729
0
LINE
8
BLACK
6
CONTINUOUS
10
96.2993
20
-171.229
11
95.7993
21
-170.514
0
LINE
8
BLACK
6
CONTINUOUS
10
95.4421
20
-171.229
11
95.4421
21
-169.729
0
LINE
8
BLACK
6
CONTINUOUS
10
95.4421
20
-169.729
11
96.0136
21
-169.729
0
LINE
8
BLACK
6
CONTINUOUS
10
96.0136
20
-169.729
11
96.1564
21
-169.8
0
LINE
8
BLACK
6
CONTINUOUS
10
96.1564
20
-169.8
11
96.2279
21
-169.871
0
LINE
8
BLACK
6
CONTINUOUS
10
96.2279
20
-169.871
11
96.2993
21
-170.014
0
LINE
8
BLACK
6
CONTINUOUS
10
96.2993
20
-170.014
11
96.2993
21
-170.229
0
LINE
8
BLACK
6
CONTINUOUS
10
96.2993
20
-170.229
11
96.2279
21
-170.371
0
LINE
8
BLACK
6
CONTINUOUS
10
96.2279
20
-170.371
11
96.1564
21
-170.443
0
LINE
8
BLACK
6
CONTINUOUS
10
96.1564
20
-170.443
11
96.0136
21
-170.514
0
LINE
8
BLACK
6
CONTINUOUS
10
96.0136
20
-170.514
11
95.4421
21
-170.514
0
LINE
8
BLACK
6
CONTINUOUS
10
96.7279
20
-169.729
11
97.585
21
-169.729
0
LINE
8
BLACK
6
CONTINUOUS
10
97.1564
20
-171.229
11
97.1564
21
-169.729
0
LINE
8
BLACK
6
CONTINUOUS
10
100.871
20
-52.39
11
101.586
21
-51.89
0
LINE
8
BLACK
6
CONTINUOUS
10
100.871
20
-51.5329
11
102.371
21
-51.5329
0
LINE
8
BLACK
6
CONTINUOUS
10
102.371
20
-51.5329
11
102.371
21
-52.1043
0
LINE
8
BLACK
6
CONTINUOUS
10
102.371
20
-52.1043
11
102.3
21
-52.2471
0
LINE
8
BLACK
6
CONTINUOUS
10
102.3
20
-52.2471
11
102.229
21
-52.3186
0
LINE
8
BLACK
6
CONTINUOUS
10
102.229
20
-52.3186
11
102.086
21
-52.39
0
LINE
8
BLACK
6
CONTINUOUS
10
102.086
20
-52.39
11
101.871
21
-52.39
0
LINE
8
BLACK
6
CONTINUOUS
10
101.871
20
-52.39
11
101.729
21
-52.3186
0
LINE
8
BLACK
6
CONTINUOUS
10
101.729
20
-52.3186
11
101.657
21
-52.2471
0
LINE
8
BLACK
6
CONTINUOUS
10
101.657
20
-52.2471
11
101.586
21
-52.1043
0
LINE
8
BLACK
6
CONTINUOUS
10
101.586
20
-52.1043
11
101.586
21
-51.5329
0
LINE
8
BLACK
6
CONTINUOUS
10
102.229
20
-52.9614
11
102.3
21
-53.0329
0
LINE
8
BLACK
6
CONTINUOUS
10
102.3
20
-53.0329
11
102.371
21
-53.1757
0
LINE
8
BLACK
6
CONTINUOUS
10
102.371
20
-53.1757
11
102.371
21
-53.5329
0
LINE
8
BLACK
6
CONTINUOUS
10
102.371
20
-53.5329
11
102.3
21
-53.6757
0
LINE
8
BLACK
6
CONTINUOUS
10
102.3
20
-53.6757
11
102.229
21
-53.7471
0
LINE
8
BLACK
6
CONTINUOUS
10
102.229
20
-53.7471
11
102.086
21
-53.8186
0
LINE
8
BLACK
6
CONTINUOUS
10
102.086
20
-53.8186
11
101.943
21
-53.8186
0
LINE
8
BLACK
6
CONTINUOUS
10
101.943
20
-53.8186
11
101.729
21
-53.7471
0
LINE
8
BLACK
6
CONTINUOUS
10
101.729
20
-53.7471
11
100.871
21
-52.89
0
LINE
8
BLACK
6
CONTINUOUS
10
100.871
20
-52.89
11
100.871
21
-53.8186
0
LINE
8
BLACK
6
CONTINUOUS
10
94.085
20
-93.7286
11
94.9421
21
-93.7286
0
LINE
8
BLACK
6
CONTINUOUS
10
94.5136
20
-95.2286
11
94.5136
21
-93.7286
0
LINE
8
BLACK
6
CONTINUOUS
10
96.2993
20
-95.2286
11
95.7993
21
-94.5143
0
LINE
8
BLACK
6
CONTINUOUS
10
95.4421
20
-95.2286
11
95.4421
21
-93.7286
0
LINE
8
BLACK
6
CONTINUOUS
10
95.4421
20
-93.7286
11
96.0136
21
-93.7286
0
LINE
8
BLACK
6
CONTINUOUS
10
96.0136
20
-93.7286
11
96.1564
21
-93.8
0
LINE
8
BLACK
6
CONTINUOUS
10
96.1564
20
-93.8
11
96.2279
21
-93.8714
0
LINE
8
BLACK
6
CONTINUOUS
10
96.2279
20
-93.8714
11
96.2993
21
-94.0143
0
LINE
8
BLACK
6
CONTINUOUS
10
96.2993
20
-94.0143
11
96.2993
21
-94.2286
0
LINE
8
BLACK
6
CONTINUOUS
10
96.2993
20
-94.2286
11
96.2279
21
-94.3714
0
LINE
8
BLACK
6
CONTINUOUS
10
96.2279
20
-94.3714
11
96.1564
21
-94.4429
0
LINE
8
BLACK
6
CONTINUOUS
10
96.1564
20
-94.4429
11
96.0136
21
-94.5143
0
LINE
8
BLACK
6
CONTINUOUS
10
96.0136
20
-94.5143
11
95.4421
21
-94.5143
0
LINE
8
BLACK
6
CONTINUOUS
10
96.7279
20
-93.7286
11
97.585
21
-93.7286
0
LINE
8
BLACK
6
CONTINUOUS
10
97.1564
20
-95.2286
11
97.1564
21
-93.7286
0
LINE
8
BLACK
6
CONTINUOUS
10
104.102
20
-62.1371
11
104.316
21
-62.2086
0
LINE
8
BLACK
6
CONTINUOUS
10
104.316
20
-62.2086
11
104.674
21
-62.2086
0
LINE
8
BLACK
6
CONTINUOUS
10
104.674
20
-62.2086
11
104.816
21
-62.1371
0
LINE
8
BLACK
6
CONTINUOUS
10
104.816
20
-62.1371
11
104.888
21
-62.0657
0
LINE
8
BLACK
6
CONTINUOUS
10
104.888
20
-62.0657
11
104.959
21
-61.9229
0
LINE
8
BLACK
6
CONTINUOUS
10
104.959
20
-61.9229
11
104.959
21
-61.78
0
LINE
8
BLACK
6
CONTINUOUS
10
104.959
20
-61.78
11
104.888
21
-61.6371
0
LINE
8
BLACK
6
CONTINUOUS
10
104.888
20
-61.6371
11
104.816
21
-61.5657
0
LINE
8
BLACK
6
CONTINUOUS
10
104.816
20
-61.5657
11
104.674
21
-61.4943
0
LINE
8
BLACK
6
CONTINUOUS
10
104.674
20
-61.4943
11
104.388
21
-61.4229
0
LINE
8
BLACK
6
CONTINUOUS
10
104.388
20
-61.4229
11
104.245
21
-61.3514
0
LINE
8
BLACK
6
CONTINUOUS
10
104.245
20
-61.3514
11
104.174
21
-61.28
0
LINE
8
BLACK
6
CONTINUOUS
10
104.174
20
-61.28
11
104.102
21
-61.1371
0
LINE
8
BLACK
6
CONTINUOUS
10
104.102
20
-61.1371
11
104.102
21
-60.9943
0
LINE
8
BLACK
6
CONTINUOUS
10
104.102
20
-60.9943
11
104.174
21
-60.8514
0
LINE
8
BLACK
6
CONTINUOUS
10
104.174
20
-60.8514
11
104.245
21
-60.78
0
LINE
8
BLACK
6
CONTINUOUS
10
104.245
20
-60.78
11
104.388
21
-60.7086
0
LINE
8
BLACK
6
CONTINUOUS
10
104.388
20
-60.7086
11
104.745
21
-60.7086
0
LINE
8
BLACK
6
CONTINUOUS
10
104.745
20
-60.7086
11
104.959
21
-60.78
0
LINE
8
BLACK
6
CONTINUOUS
10
105.602
20
-62.2086
11
105.602
21
-60.7086
0
LINE
8
BLACK
6
CONTINUOUS
10
106.459
20
-62.2086
11
105.816
21
-61.3514
0
LINE
8
BLACK
6
CONTINUOUS
10
106.459
20
-60.7086
11
105.602
21
-61.5657
0
LINE
8
BLACK
6
CONTINUOUS
10
107.745
20
-61.2086
11
107.745
21
-62.2086
0
LINE
8
BLACK
6
CONTINUOUS
10
107.388
20
-60.6371
11
107.031
21
-61.7086
0
LINE
8
BLACK
6
CONTINUOUS
10
107.031
20
-61.7086
11
107.959
21
-61.7086
0
LINE
8
BLACK
6
CONTINUOUS
10
95.7914
20
-49.215
11
96.5057
21
-48.715
0
LINE
8
BLACK
6
CONTINUOUS
10
95.7914
20
-48.3579
11
97.2914
21
-48.3579
0
LINE
8
BLACK
6
CONTINUOUS
10
97.2914
20
-48.3579
11
97.2914
21
-48.9293
0
LINE
8
BLACK
6
CONTINUOUS
10
97.2914
20
-48.9293
11
97.22
21
-49.0721
0
LINE
8
BLACK
6
CONTINUOUS
10
97.22
20
-49.0721
11
97.1486
21
-49.1436
0
LINE
8
BLACK
6
CONTINUOUS
10
97.1486
20
-49.1436
11
97.0057
21
-49.215
0
LINE
8
BLACK
6
CONTINUOUS
10
97.0057
20
-49.215
11
96.7914
21
-49.215
0
LINE
8
BLACK
6
CONTINUOUS
10
96.7914
20
-49.215
11
96.6486
21
-49.1436
0
LINE
8
BLACK
6
CONTINUOUS
10
96.6486
20
-49.1436
11
96.5771
21
-49.0721
0
LINE
8
BLACK
6
CONTINUOUS
10
96.5771
20
-49.0721
11
96.5057
21
-48.9293
0
LINE
8
BLACK
6
CONTINUOUS
10
96.5057
20
-48.9293
11
96.5057
21
-48.3579
0
LINE
8
BLACK
6
CONTINUOUS
10
97.2914
20
-49.715
11
97.2914
21
-50.6436
0
LINE
8
BLACK
6
CONTINUOUS
10
97.2914
20
-50.6436
11
96.72
21
-50.1436
0
LINE
8
BLACK
6
CONTINUOUS
10
96.72
20
-50.1436
11
96.72
21
-50.3579
0
LINE
8
BLACK
6
CONTINUOUS
10
96.72
20
-50.3579
11
96.6486
21
-50.5007
0
LINE
8
BLACK
6
CONTINUOUS
10
96.6486
20
-50.5007
11
96.5771
21
-50.5721
0
LINE
8
BLACK
6
CONTINUOUS
10
96.5771
20
-50.5721
11
96.4343
21
-50.6436
0
LINE
8
BLACK
6
CONTINUOUS
10
96.4343
20
-50.6436
11
96.0771
21
-50.6436
0
LINE
8
BLACK
6
CONTINUOUS
10
96.0771
20
-50.6436
11
95.9343
21
-50.5721
0
LINE
8
BLACK
6
CONTINUOUS
10
95.9343
20
-50.5721
11
95.8629
21
-50.5007
0
LINE
8
BLACK
6
CONTINUOUS
10
95.8629
20
-50.5007
11
95.7914
21
-50.3579
0
LINE
8
BLACK
6
CONTINUOUS
10
95.7914
20
-50.3579
11
95.7914
21
-49.9293
0
LINE
8
BLACK
6
CONTINUOUS
10
95.7914
20
-49.9293
11
95.8629
21
-49.7864
0
LINE
8
BLACK
6
CONTINUOUS
10
95.8629
20
-49.7864
11
95.9343
21
-49.715
0
LINE
8
BLACK
6
CONTINUOUS
10
96.5336
20
-87.0371
11
97.6764
21
-87.0371
0
LINE
8
BLACK
6
CONTINUOUS
10
97.105
20
-87.6086
11
97.105
21
-86.4657
0
LINE
8
BLACK
6
CONTINUOUS
10
104.102
20
-82.4571
11
104.316
21
-82.5286
0
LINE
8
BLACK
6
CONTINUOUS
10
104.316
20
-82.5286
11
104.674
21
-82.5286
0
LINE
8
BLACK
6
CONTINUOUS
10
104.674
20
-82.5286
11
104.816
21
-82.4571
0
LINE
8
BLACK
6
CONTINUOUS
10
104.816
20
-82.4571
11
104.888
21
-82.3857
0
LINE
8
BLACK
6
CONTINUOUS
10
104.888
20
-82.3857
11
104.959
21
-82.2429
0
LINE
8
BLACK
6
CONTINUOUS
10
104.959
20
-82.2429
11
104.959
21
-82.1
0
LINE
8
BLACK
6
CONTINUOUS
10
104.959
20
-82.1
11
104.888
21
-81.9571
0
LINE
8
BLACK
6
CONTINUOUS
10
104.888
20
-81.9571
11
104.816
21
-81.8857
0
LINE
8
BLACK
6
CONTINUOUS
10
104.816
20
-81.8857
11
104.674
21
-81.8143
0
LINE
8
BLACK
6
CONTINUOUS
10
104.674
20
-81.8143
11
104.388
21
-81.7429
0
LINE
8
BLACK
6
CONTINUOUS
10
104.388
20
-81.7429
11
104.245
21
-81.6714
0
LINE
8
BLACK
6
CONTINUOUS
10
104.245
20
-81.6714
11
104.174
21
-81.6
0
LINE
8
BLACK
6
CONTINUOUS
10
104.174
20
-81.6
11
104.102
21
-81.4571
0
LINE
8
BLACK
6
CONTINUOUS
10
104.102
20
-81.4571
11
104.102
21
-81.3143
0
LINE
8
BLACK
6
CONTINUOUS
10
104.102
20
-81.3143
11
104.174
21
-81.1714
0
LINE
8
BLACK
6
CONTINUOUS
10
104.174
20
-81.1714
11
104.245
21
-81.1
0
LINE
8
BLACK
6
CONTINUOUS
10
104.245
20
-81.1
11
104.388
21
-81.0286
0
LINE
8
BLACK
6
CONTINUOUS
10
104.388
20
-81.0286
11
104.745
21
-81.0286
0
LINE
8
BLACK
6
CONTINUOUS
10
104.745
20
-81.0286
11
104.959
21
-81.1
0
LINE
8
BLACK
6
CONTINUOUS
10
105.602
20
-82.5286
11
105.602
21
-81.0286
0
LINE
8
BLACK
6
CONTINUOUS
10
106.459
20
-82.5286
11
105.816
21
-81.6714
0
LINE
8
BLACK
6
CONTINUOUS
10
106.459
20
-81.0286
11
105.602
21
-81.8857
0
LINE
8
BLACK
6
CONTINUOUS
10
106.959
20
-81.0286
11
107.888
21
-81.0286
0
LINE
8
BLACK
6
CONTINUOUS
10
107.888
20
-81.0286
11
107.388
21
-81.6
0
LINE
8
BLACK
6
CONTINUOUS
10
107.388
20
-81.6
11
107.602
21
-81.6
0
LINE
8
BLACK
6
CONTINUOUS
10
107.602
20
-81.6
11
107.745
21
-81.6714
0
LINE
8
BLACK
6
CONTINUOUS
10
107.745
20
-81.6714
11
107.816
21
-81.7429
0
LINE
8
BLACK
6
CONTINUOUS
10
107.816
20
-81.7429
11
107.888
21
-81.8857
0
LINE
8
BLACK
6
CONTINUOUS
10
107.888
20
-81.8857
11
107.888
21
-82.2429
0
LINE
8
BLACK
6
CONTINUOUS
10
107.888
20
-82.2429
11
107.816
21
-82.3857
0
LINE
8
BLACK
6
CONTINUOUS
10
107.816
20
-82.3857
11
107.745
21
-82.4571
0
LINE
8
BLACK
6
CONTINUOUS
10
107.745
20
-82.4571
11
107.602
21
-82.5286
0
LINE
8
BLACK
6
CONTINUOUS
10
107.602
20
-82.5286
11
107.174
21
-82.5286
0
LINE
8
BLACK
6
CONTINUOUS
10
107.174
20
-82.5286
11
107.031
21
-82.4571
0
LINE
8
BLACK
6
CONTINUOUS
10
107.031
20
-82.4571
11
106.959
21
-82.3857
0
LINE
8
BLACK
6
CONTINUOUS
10
96.5336
20
-89.5771
11
97.6764
21
-89.5771
0
LINE
8
BLACK
6
CONTINUOUS
10
130
20
-104
11
130
21
-42
0
LINE
8
BLACK
6
CONTINUOUS
10
93.8707
20
-100.237
11
94.085
21
-100.309
0
LINE
8
BLACK
6
CONTINUOUS
10
94.085
20
-100.309
11
94.4421
21
-100.309
0
LINE
8
BLACK
6
CONTINUOUS
10
94.4421
20
-100.309
11
94.585
21
-100.237
0
LINE
8
BLACK
6
CONTINUOUS
10
94.585
20
-100.237
11
94.6564
21
-100.166
0
LINE
8
BLACK
6
CONTINUOUS
10
94.6564
20
-100.166
11
94.7279
21
-100.023
0
LINE
8
BLACK
6
CONTINUOUS
10
94.7279
20
-100.023
11
94.7279
21
-99.88
0
LINE
8
BLACK
6
CONTINUOUS
10
94.7279
20
-99.88
11
94.6564
21
-99.7371
0
LINE
8
BLACK
6
CONTINUOUS
10
94.6564
20
-99.7371
11
94.585
21
-99.6657
0
LINE
8
BLACK
6
CONTINUOUS
10
94.585
20
-99.6657
11
94.4421
21
-99.5943
0
LINE
8
BLACK
6
CONTINUOUS
10
94.4421
20
-99.5943
11
94.1564
21
-99.5229
0
LINE
8
BLACK
6
CONTINUOUS
10
94.1564
20
-99.5229
11
94.0136
21
-99.4514
0
LINE
8
BLACK
6
CONTINUOUS
10
94.0136
20
-99.4514
11
93.9421
21
-99.38
0
LINE
8
BLACK
6
CONTINUOUS
10
93.9421
20
-99.38
11
93.8707
21
-99.2371
0
LINE
8
BLACK
6
CONTINUOUS
10
93.8707
20
-99.2371
11
93.8707
21
-99.0943
0
LINE
8
BLACK
6
CONTINUOUS
10
93.8707
20
-99.0943
11
93.9421
21
-98.9514
0
LINE
8
BLACK
6
CONTINUOUS
10
93.9421
20
-98.9514
11
94.0136
21
-98.88
0
LINE
8
BLACK
6
CONTINUOUS
10
94.0136
20
-98.88
11
94.1564
21
-98.8086
0
LINE
8
BLACK
6
CONTINUOUS
10
94.1564
20
-98.8086
11
94.5136
21
-98.8086
0
LINE
8
BLACK
6
CONTINUOUS
10
94.5136
20
-98.8086
11
94.7279
21
-98.88
0
LINE
8
BLACK
6
CONTINUOUS
10
96.2279
20
-100.166
11
96.1564
21
-100.237
0
LINE
8
BLACK
6
CONTINUOUS
10
96.1564
20
-100.237
11
95.9421
21
-100.309
0
LINE
8
BLACK
6
CONTINUOUS
10
95.9421
20
-100.309
11
95.7993
21
-100.309
0
LINE
8
BLACK
6
CONTINUOUS
10
95.7993
20
-100.309
11
95.585
21
-100.237
0
LINE
8
BLACK
6
CONTINUOUS
10
95.585
20
-100.237
11
95.4421
21
-100.094
0
LINE
8
BLACK
6
CONTINUOUS
10
95.4421
20
-100.094
11
95.3707
21
-99.9514
0
LINE
8
BLACK
6
CONTINUOUS
10
95.3707
20
-99.9514
11
95.2993
21
-99.6657
0
LINE
8
BLACK
6
CONTINUOUS
10
95.2993
20
-99.6657
11
95.2993
21
-99.4514
0
LINE
8
BLACK
6
CONTINUOUS
10
95.2993
20
-99.4514
11
95.3707
21
-99.1657
0
LINE
8
BLACK
6
CONTINUOUS
10
95.3707
20
-99.1657
11
95.4421
21
-99.0229
0
LINE
8
BLACK
6
CONTINUOUS
10
95.4421
20
-99.0229
11
95.585
21
-98.88
0
LINE
8
BLACK
6
CONTINUOUS
10
95.585
20
-98.88
11
95.7993
21
-98.8086
0
LINE
8
BLACK
6
CONTINUOUS
10
95.7993
20
-98.8086
11
95.9421
21
-98.8086
0
LINE
8
BLACK
6
CONTINUOUS
10
95.9421
20
-98.8086
11
96.1564
21
-98.88
0
LINE
8
BLACK
6
CONTINUOUS
10
96.1564
20
-98.88
11
96.2279
21
-98.9514
0
LINE
8
BLACK
6
CONTINUOUS
10
96.8707
20
-100.309
11
96.8707
21
-98.8086
0
LINE
8
BLACK
6
CONTINUOUS
10
96.8707
20
-98.8086
11
97.7279
21
-100.309
0
LINE
8
BLACK
6
CONTINUOUS
10
97.7279
20
-100.309
11
97.7279
21
-98.8086
0
LINE
8
BLACK
6
CONTINUOUS
10
93.9064
20
-96.2686
11
94.7636
21
-96.2686
0
LINE
8
BLACK
6
CONTINUOUS
10
94.335
20
-97.7686
11
94.335
21
-96.2686
0
LINE
8
BLACK
6
CONTINUOUS
10
96.1207
20
-97.7686
11
95.6207
21
-97.0543
0
LINE
8
BLACK
6
CONTINUOUS
10
95.2636
20
-97.7686
11
95.2636
21
-96.2686
0
LINE
8
BLACK
6
CONTINUOUS
10
95.2636
20
-96.2686
11
95.835
21
-96.2686
0
LINE
8
BLACK
6
CONTINUOUS
10
95.835
20
-96.2686
11
95.9779
21
-96.34
0
LINE
8
BLACK
6
CONTINUOUS
10
95.9779
20
-96.34
11
96.0493
21
-96.4114
0
LINE
8
BLACK
6
CONTINUOUS
10
96.0493
20
-96.4114
11
96.1207
21
-96.5543
0
LINE
8
BLACK
6
CONTINUOUS
10
96.1207
20
-96.5543
11
96.1207
21
-96.7686
0
LINE
8
BLACK
6
CONTINUOUS
10
96.1207
20
-96.7686
11
96.0493
21
-96.9114
0
LINE
8
BLACK
6
CONTINUOUS
10
96.0493
20
-96.9114
11
95.9779
21
-96.9829
0
LINE
8
BLACK
6
CONTINUOUS
10
95.9779
20
-96.9829
11
95.835
21
-97.0543
0
LINE
8
BLACK
6
CONTINUOUS
10
95.835
20
-97.0543
11
95.2636
21
-97.0543
0
LINE
8
BLACK
6
CONTINUOUS
10
97.6207
20
-97.7686
11
97.1207
21
-97.0543
0
LINE
8
BLACK
6
CONTINUOUS
10
96.7636
20
-97.7686
11
96.7636
21
-96.2686
0
LINE
8
BLACK
6
CONTINUOUS
10
96.7636
20
-96.2686
11
97.335
21
-96.2686
0
LINE
8
BLACK
6
CONTINUOUS
10
97.335
20
-96.2686
11
97.4779
21
-96.34
0
LINE
8
BLACK
6
CONTINUOUS
10
97.4779
20
-96.34
11
97.5493
21
-96.4114
0
LINE
8
BLACK
6
CONTINUOUS
10
97.5493
20
-96.4114
11
97.6207
21
-96.5543
0
LINE
8
BLACK
6
CONTINUOUS
10
97.6207
20
-96.5543
11
97.6207
21
-96.7686
0
LINE
8
BLACK
6
CONTINUOUS
10
97.6207
20
-96.7686
11
97.5493
21
-96.9114
0
LINE
8
BLACK
6
CONTINUOUS
10
97.5493
20
-96.9114
11
97.4779
21
-96.9829
0
LINE
8
BLACK
6
CONTINUOUS
10
97.4779
20
-96.9829
11
97.335
21
-97.0543
0
LINE
8
BLACK
6
CONTINUOUS
10
97.335
20
-97.0543
11
96.7636
21
-97.0543
0
LINE
8
BLACK
6
CONTINUOUS
10
104.102
20
-102.777
11
104.316
21
-102.849
0
LINE
8
BLACK
6
CONTINUOUS
10
104.316
20
-102.849
11
104.674
21
-102.849
0
LINE
8
BLACK
6
CONTINUOUS
10
104.674
20
-102.849
11
104.816
21
-102.777
0
LINE
8
BLACK
6
CONTINUOUS
10
104.816
20
-102.777
11
104.888
21
-102.706
0
LINE
8
BLACK
6
CONTINUOUS
10
104.888
20
-102.706
11
104.959
21
-102.563
0
LINE
8
BLACK
6
CONTINUOUS
10
104.959
20
-102.563
11
104.959
21
-102.42
0
LINE
8
BLACK
6
CONTINUOUS
10
104.959
20
-102.42
11
104.888
21
-102.277
0
LINE
8
BLACK
6
CONTINUOUS
10
104.888
20
-102.277
11
104.816
21
-102.206
0
LINE
8
BLACK
6
CONTINUOUS
10
104.816
20
-102.206
11
104.674
21
-102.134
0
LINE
8
BLACK
6
CONTINUOUS
10
104.674
20
-102.134
11
104.388
21
-102.063
0
LINE
8
BLACK
6
CONTINUOUS
10
104.388
20
-102.063
11
104.245
21
-101.991
0
LINE
8
BLACK
6
CONTINUOUS
10
104.245
20
-101.991
11
104.174
21
-101.92
0
LINE
8
BLACK
6
CONTINUOUS
10
104.174
20
-101.92
11
104.102
21
-101.777
0
LINE
8
BLACK
6
CONTINUOUS
10
104.102
20
-101.777
11
104.102
21
-101.634
0
LINE
8
BLACK
6
CONTINUOUS
10
104.102
20
-101.634
11
104.174
21
-101.491
0
LINE
8
BLACK
6
CONTINUOUS
10
104.174
20
-101.491
11
104.245
21
-101.42
0
LINE
8
BLACK
6
CONTINUOUS
10
104.245
20
-101.42
11
104.388
21
-101.349
0
LINE
8
BLACK
6
CONTINUOUS
10
104.388
20
-101.349
11
104.745
21
-101.349
0
LINE
8
BLACK
6
CONTINUOUS
10
104.745
20
-101.349
11
104.959
21
-101.42
0
LINE
8
BLACK
6
CONTINUOUS
10
105.602
20
-102.849
11
105.602
21
-101.349
0
LINE
8
BLACK
6
CONTINUOUS
10
106.459
20
-102.849
11
105.816
21
-101.991
0
LINE
8
BLACK
6
CONTINUOUS
10
106.459
20
-101.349
11
105.602
21
-102.206
0
LINE
8
BLACK
6
CONTINUOUS
10
107.031
20
-101.491
11
107.102
21
-101.42
0
LINE
8
BLACK
6
CONTINUOUS
10
107.102
20
-101.42
11
107.245
21
-101.349
0
LINE
8
BLACK
6
CONTINUOUS
10
107.245
20
-101.349
11
107.602
21
-101.349
0
LINE
8
BLACK
6
CONTINUOUS
10
107.602
20
-101.349
11
107.745
21
-101.42
0
LINE
8
BLACK
6
CONTINUOUS
10
107.745
20
-101.42
11
107.816
21
-101.491
0
LINE
8
BLACK
6
CONTINUOUS
10
107.816
20
-101.491
11
107.888
21
-101.634
0
LINE
8
BLACK
6
CONTINUOUS
10
107.888
20
-101.634
11
107.888
21
-101.777
0
LINE
8
BLACK
6
CONTINUOUS
10
107.888
20
-101.777
11
107.816
21
-101.991
0
LINE
8
BLACK
6
CONTINUOUS
10
107.816
20
-101.991
11
106.959
21
-102.849
0
LINE
8
BLACK
6
CONTINUOUS
10
106.959
20
-102.849
11
107.888
21
-102.849
0
LINE
8
BLACK
6
CONTINUOUS
10
93
20
-42
11
93
21
-104
0
LINE
8
BLACK
6
CONTINUOUS
10
93
20
-104
11
130
21
-104
0
LINE
8
BLACK
6
CONTINUOUS
10
105.388
20
-85.6721
11
105.316
21
-85.8864
0
LINE
8
BLACK
6
CONTINUOUS
10
105.316
20
-85.8864
11
105.316
21
-86.2436
0
LINE
8
BLACK
6
CONTINUOUS
10
105.316
20
-86.2436
11
105.388
21
-86.3864
0
LINE
8
BLACK
6
CONTINUOUS
10
105.388
20
-86.3864
11
105.459
21
-86.4579
0
LINE
8
BLACK
6
CONTINUOUS
10
105.459
20
-86.4579
11
105.602
21
-86.5293
0
LINE
8
BLACK
6
CONTINUOUS
10
105.602
20
-86.5293
11
105.745
21
-86.5293
0
LINE
8
BLACK
6
CONTINUOUS
10
105.745
20
-86.5293
11
105.888
21
-86.4579
0
LINE
8
BLACK
6
CONTINUOUS
10
105.888
20
-86.4579
11
105.959
21
-86.3864
0
LINE
8
BLACK
6
CONTINUOUS
10
105.959
20
-86.3864
11
106.031
21
-86.2436
0
LINE
8
BLACK
6
CONTINUOUS
10
106.031
20
-86.2436
11
106.102
21
-85.9579
0
LINE
8
BLACK
6
CONTINUOUS
10
106.102
20
-85.9579
11
106.174
21
-85.815
0
LINE
8
BLACK
6
CONTINUOUS
10
106.174
20
-85.815
11
106.245
21
-85.7436
0
LINE
8
BLACK
6
CONTINUOUS
10
106.245
20
-85.7436
11
106.388
21
-85.6721
0
LINE
8
BLACK
6
CONTINUOUS
10
106.388
20
-85.6721
11
106.531
21
-85.6721
0
LINE
8
BLACK
6
CONTINUOUS
10
106.531
20
-85.6721
11
106.674
21
-85.7436
0
LINE
8
BLACK
6
CONTINUOUS
10
106.674
20
-85.7436
11
106.745
21
-85.815
0
LINE
8
BLACK
6
CONTINUOUS
10
106.745
20
-85.815
11
106.816
21
-85.9579
0
LINE
8
BLACK
6
CONTINUOUS
10
106.816
20
-85.9579
11
106.816
21
-86.315
0
LINE
8
BLACK
6
CONTINUOUS
10
106.816
20
-86.315
11
106.745
21
-86.5293
0
LINE
8
BLACK
6
CONTINUOUS
10
105.316
20
-87.1721
11
106.816
21
-87.1721
0
LINE
8
BLACK
6
CONTINUOUS
10
105.316
20
-88.0293
11
106.174
21
-87.3864
0
LINE
8
BLACK
6
CONTINUOUS
10
106.816
20
-88.0293
11
105.959
21
-87.1721
0
LINE
8
BLACK
6
CONTINUOUS
10
105.316
20
-89.4579
11
105.316
21
-88.6007
0
LINE
8
BLACK
6
CONTINUOUS
10
105.316
20
-89.0293
11
106.816
21
-89.0293
0
LINE
8
BLACK
6
CONTINUOUS
10
106.816
20
-89.0293
11
106.602
21
-88.8864
0
LINE
8
BLACK
6
CONTINUOUS
10
106.602
20
-88.8864
11
106.459
21
-88.7436
0
LINE
8
BLACK
6
CONTINUOUS
10
106.459
20
-88.7436
11
106.388
21
-88.6007
0
LINE
8
BLACK
6
CONTINUOUS
10
93.8707
20
-92.6171
11
94.085
21
-92.6886
0
LINE
8
BLACK
6
CONTINUOUS
10
94.085
20
-92.6886
11
94.4421
21
-92.6886
0
LINE
8
BLACK
6
CONTINUOUS
10
94.4421
20
-92.6886
11
94.585
21
-92.6171
0
LINE
8
BLACK
6
CONTINUOUS
10
94.585
20
-92.6171
11
94.6564
21
-92.5457
0
LINE
8
BLACK
6
CONTINUOUS
10
94.6564
20
-92.5457
11
94.7279
21
-92.4029
0
LINE
8
BLACK
6
CONTINUOUS
10
94.7279
20
-92.4029
11
94.7279
21
-92.26
0
LINE
8
BLACK
6
CONTINUOUS
10
94.7279
20
-92.26
11
94.6564
21
-92.1171
0
LINE
8
BLACK
6
CONTINUOUS
10
94.6564
20
-92.1171
11
94.585
21
-92.0457
0
LINE
8
BLACK
6
CONTINUOUS
10
94.585
20
-92.0457
11
94.4421
21
-91.9743
0
LINE
8
BLACK
6
CONTINUOUS
10
94.4421
20
-91.9743
11
94.1564
21
-91.9029
0
LINE
8
BLACK
6
CONTINUOUS
10
94.1564
20
-91.9029
11
94.0136
21
-91.8314
0
LINE
8
BLACK
6
CONTINUOUS
10
94.0136
20
-91.8314
11
93.9421
21
-91.76
0
LINE
8
BLACK
6
CONTINUOUS
10
93.9421
20
-91.76
11
93.8707
21
-91.6171
0
LINE
8
BLACK
6
CONTINUOUS
10
93.8707
20
-91.6171
11
93.8707
21
-91.4743
0
LINE
8
BLACK
6
CONTINUOUS
10
93.8707
20
-91.4743
11
93.9421
21
-91.3314
0
LINE
8
BLACK
6
CONTINUOUS
10
93.9421
20
-91.3314
11
94.0136
21
-91.26
0
LINE
8
BLACK
6
CONTINUOUS
10
94.0136
20
-91.26
11
94.1564
21
-91.1886
0
LINE
8
BLACK
6
CONTINUOUS
10
94.1564
20
-91.1886
11
94.5136
21
-91.1886
0
LINE
8
BLACK
6
CONTINUOUS
10
94.5136
20
-91.1886
11
94.7279
21
-91.26
0
LINE
8
BLACK
6
CONTINUOUS
10
96.2279
20
-92.5457
11
96.1564
21
-92.6171
0
LINE
8
BLACK
6
CONTINUOUS
10
96.1564
20
-92.6171
11
95.9421
21
-92.6886
0
LINE
8
BLACK
6
CONTINUOUS
10
95.9421
20
-92.6886
11
95.7993
21
-92.6886
0
LINE
8
BLACK
6
CONTINUOUS
10
95.7993
20
-92.6886
11
95.585
21
-92.6171
0
LINE
8
BLACK
6
CONTINUOUS
10
95.585
20
-92.6171
11
95.4421
21
-92.4743
0
LINE
8
BLACK
6
CONTINUOUS
10
95.4421
20
-92.4743
11
95.3707
21
-92.3314
0
LINE
8
BLACK
6
CONTINUOUS
10
95.3707
20
-92.3314
11
95.2993
21
-92.0457
0
LINE
8
BLACK
6
CONTINUOUS
10
95.2993
20
-92.0457
11
95.2993
21
-91.8314
0
LINE
8
BLACK
6
CONTINUOUS
10
95.2993
20
-91.8314
11
95.3707
21
-91.5457
0
LINE
8
BLACK
6
CONTINUOUS
10
95.3707
20
-91.5457
11
95.4421
21
-91.4029
0
LINE
8
BLACK
6
CONTINUOUS
10
95.4421
20
-91.4029
11
95.585
21
-91.26
0
LINE
8
BLACK
6
CONTINUOUS
10
95.585
20
-91.26
11
95.7993
21
-91.1886
0
LINE
8
BLACK
6
CONTINUOUS
10
95.7993
20
-91.1886
11
95.9421
21
-91.1886
0
LINE
8
BLACK
6
CONTINUOUS
10
95.9421
20
-91.1886
11
96.1564
21
-91.26
0
LINE
8
BLACK
6
CONTINUOUS
10
96.1564
20
-91.26
11
96.2279
21
-91.3314
0
LINE
8
BLACK
6
CONTINUOUS
10
96.8707
20
-92.6886
11
96.8707
21
-91.1886
0
LINE
8
BLACK
6
CONTINUOUS
10
96.8707
20
-91.1886
11
97.7279
21
-92.6886
0
LINE
8
BLACK
6
CONTINUOUS
10
97.7279
20
-92.6886
11
97.7279
21
-91.1886
0
LINE
8
BLACK
6
CONTINUOUS
10
130
20
-42
11
93
21
-42
0
LINE
8
BLACK
6
CONTINUOUS
10
50.1371
20
-54.8979
11
50.2086
21
-54.6836
0
LINE
8
BLACK
6
CONTINUOUS
10
50.2086
20
-54.6836
11
50.2086
21
-54.3264
0
LINE
8
BLACK
6
CONTINUOUS
10
50.2086
20
-54.3264
11
50.1371
21
-54.1836
0
LINE
8
BLACK
6
CONTINUOUS
10
50.1371
20
-54.1836
11
50.0657
21
-54.1121
0
LINE
8
BLACK
6
CONTINUOUS
10
50.0657
20
-54.1121
11
49.9229
21
-54.0407
0
LINE
8
BLACK
6
CONTINUOUS
10
49.9229
20
-54.0407
11
49.78
21
-54.0407
0
LINE
8
BLACK
6
CONTINUOUS
10
49.78
20
-54.0407
11
49.6371
21
-54.1121
0
LINE
8
BLACK
6
CONTINUOUS
10
49.6371
20
-54.1121
11
49.5657
21
-54.1836
0
LINE
8
BLACK
6
CONTINUOUS
10
49.5657
20
-54.1836
11
49.4943
21
-54.3264
0
LINE
8
BLACK
6
CONTINUOUS
10
49.4943
20
-54.3264
11
49.4229
21
-54.6121
0
LINE
8
BLACK
6
CONTINUOUS
10
49.4229
20
-54.6121
11
49.3514
21
-54.755
0
LINE
8
BLACK
6
CONTINUOUS
10
49.3514
20
-54.755
11
49.28
21
-54.8264
0
LINE
8
BLACK
6
CONTINUOUS
10
49.28
20
-54.8264
11
49.1371
21
-54.8979
0
LINE
8
BLACK
6
CONTINUOUS
10
49.1371
20
-54.8979
11
48.9943
21
-54.8979
0
LINE
8
BLACK
6
CONTINUOUS
10
48.9943
20
-54.8979
11
48.8514
21
-54.8264
0
LINE
8
BLACK
6
CONTINUOUS
10
48.8514
20
-54.8264
11
48.78
21
-54.755
0
LINE
8
BLACK
6
CONTINUOUS
10
48.78
20
-54.755
11
48.7086
21
-54.6121
0
LINE
8
BLACK
6
CONTINUOUS
10
48.7086
20
-54.6121
11
48.7086
21
-54.255
0
LINE
8
BLACK
6
CONTINUOUS
10
48.7086
20
-54.255
11
48.78
21
-54.0407
0
LINE
8
BLACK
6
CONTINUOUS
10
50.2086
20
-53.3979
11
48.7086
21
-53.3979
0
LINE
8
BLACK
6
CONTINUOUS
10
50.2086
20
-52.5407
11
49.3514
21
-53.1836
0
LINE
8
BLACK
6
CONTINUOUS
10
48.7086
20
-52.5407
11
49.5657
21
-53.3979
0
LINE
8
BLACK
6
CONTINUOUS
10
49.2086
20
-51.255
11
50.2086
21
-51.255
0
LINE
8
BLACK
6
CONTINUOUS
10
48.6371
20
-51.6121
11
49.7086
21
-51.9693
0
LINE
8
BLACK
6
CONTINUOUS
10
49.7086
20
-51.9693
11
49.7086
21
-51.0407
0
LINE
8
BLACK
6
CONTINUOUS
10
73.6721
20
-91.6121
11
73.8864
21
-91.6836
0
LINE
8
BLACK
6
CONTINUOUS
10
73.8864
20
-91.6836
11
74.2436
21
-91.6836
0
LINE
8
BLACK
6
CONTINUOUS
10
74.2436
20
-91.6836
11
74.3864
21
-91.6121
0
LINE
8
BLACK
6
CONTINUOUS
10
74.3864
20
-91.6121
11
74.4579
21
-91.5407
0
LINE
8
BLACK
6
CONTINUOUS
10
74.4579
20
-91.5407
11
74.5293
21
-91.3979
0
LINE
8
BLACK
6
CONTINUOUS
10
74.5293
20
-91.3979
11
74.5293
21
-91.255
0
LINE
8
BLACK
6
CONTINUOUS
10
74.5293
20
-91.255
11
74.4579
21
-91.1121
0
LINE
8
BLACK
6
CONTINUOUS
10
74.4579
20
-91.1121
11
74.3864
21
-91.0407
0
LINE
8
BLACK
6
CONTINUOUS
10
74.3864
20
-91.0407
11
74.2436
21
-90.9693
0
LINE
8
BLACK
6
CONTINUOUS
10
74.2436
20
-90.9693
11
73.9579
21
-90.8979
0
LINE
8
BLACK
6
CONTINUOUS
10
73.9579
20
-90.8979
11
73.815
21
-90.8264
0
LINE
8
BLACK
6
CONTINUOUS
10
73.815
20
-90.8264
11
73.7436
21
-90.755
0
LINE
8
BLACK
6
CONTINUOUS
10
73.7436
20
-90.755
11
73.6721
21
-90.6121
0
LINE
8
BLACK
6
CONTINUOUS
10
73.6721
20
-90.6121
11
73.6721
21
-90.4693
0
LINE
8
BLACK
6
CONTINUOUS
10
73.6721
20
-90.4693
11
73.7436
21
-90.3264
0
LINE
8
BLACK
6
CONTINUOUS
10
73.7436
20
-90.3264
11
73.815
21
-90.255
0
LINE
8
BLACK
6
CONTINUOUS
10
73.815
20
-90.255
11
73.9579
21
-90.1836
0
LINE
8
BLACK
6
CONTINUOUS
10
73.9579
20
-90.1836
11
74.315
21
-90.1836
0
LINE
8
BLACK
6
CONTINUOUS
10
74.315
20
-90.1836
11
74.5293
21
-90.255
0
LINE
8
BLACK
6
CONTINUOUS
10
75.1721
20
-91.6836
11
75.1721
21
-90.1836
0
LINE
8
BLACK
6
CONTINUOUS
10
76.0293
20
-91.6836
11
75.3864
21
-90.8264
0
LINE
8
BLACK
6
CONTINUOUS
10
76.0293
20
-90.1836
11
75.1721
21
-91.0407
0
LINE
8
BLACK
6
CONTINUOUS
10
77.4579
20
-91.6836
11
76.6007
21
-91.6836
0
LINE
8
BLACK
6
CONTINUOUS
10
77.0293
20
-91.6836
11
77.0293
21
-90.1836
0
LINE
8
BLACK
6
CONTINUOUS
10
77.0293
20
-90.1836
11
76.8864
21
-90.3979
0
LINE
8
BLACK
6
CONTINUOUS
10
76.8864
20
-90.3979
11
76.7436
21
-90.5407
0
LINE
8
BLACK
6
CONTINUOUS
10
76.7436
20
-90.5407
11
76.6007
21
-90.6121
0
LINE
8
BLACK
6
CONTINUOUS
10
37.215
20
-63.2086
11
36.715
21
-62.4943
0
LINE
8
BLACK
6
CONTINUOUS
10
36.3579
20
-63.2086
11
36.3579
21
-61.7086
0
LINE
8
BLACK
6
CONTINUOUS
10
36.3579
20
-61.7086
11
36.9293
21
-61.7086
0
LINE
8
BLACK
6
CONTINUOUS
10
36.9293
20
-61.7086
11
37.0721
21
-61.78
0
LINE
8
BLACK
6
CONTINUOUS
10
37.0721
20
-61.78
11
37.1436
21
-61.8514
0
LINE
8
BLACK
6
CONTINUOUS
10
37.1436
20
-61.8514
11
37.215
21
-61.9943
0
LINE
8
BLACK
6
CONTINUOUS
10
37.215
20
-61.9943
11
37.215
21
-62.2086
0
LINE
8
BLACK
6
CONTINUOUS
10
37.215
20
-62.2086
11
37.1436
21
-62.3514
0
LINE
8
BLACK
6
CONTINUOUS
10
37.1436
20
-62.3514
11
37.0721
21
-62.4229
0
LINE
8
BLACK
6
CONTINUOUS
10
37.0721
20
-62.4229
11
36.9293
21
-62.4943
0
LINE
8
BLACK
6
CONTINUOUS
10
36.9293
20
-62.4943
11
36.3579
21
-62.4943
0
LINE
8
BLACK
6
CONTINUOUS
10
37.715
20
-61.7086
11
38.6436
21
-61.7086
0
LINE
8
BLACK
6
CONTINUOUS
10
38.6436
20
-61.7086
11
38.1436
21
-62.28
0
LINE
8
BLACK
6
CONTINUOUS
10
38.1436
20
-62.28
11
38.3579
21
-62.28
0
LINE
8
BLACK
6
CONTINUOUS
10
38.3579
20
-62.28
11
38.5007
21
-62.3514
0
LINE
8
BLACK
6
CONTINUOUS
10
38.5007
20
-62.3514
11
38.5721
21
-62.4229
0
LINE
8
BLACK
6
CONTINUOUS
10
38.5721
20
-62.4229
11
38.6436
21
-62.5657
0
LINE
8
BLACK
6
CONTINUOUS
10
38.6436
20
-62.5657
11
38.6436
21
-62.9229
0
LINE
8
BLACK
6
CONTINUOUS
10
38.6436
20
-62.9229
11
38.5721
21
-63.0657
0
LINE
8
BLACK
6
CONTINUOUS
10
38.5721
20
-63.0657
11
38.5007
21
-63.1371
0
LINE
8
BLACK
6
CONTINUOUS
10
38.5007
20
-63.1371
11
38.3579
21
-63.2086
0
LINE
8
BLACK
6
CONTINUOUS
10
38.3579
20
-63.2086
11
37.9293
21
-63.2086
0
LINE
8
BLACK
6
CONTINUOUS
10
37.9293
20
-63.2086
11
37.7864
21
-63.1371
0
LINE
8
BLACK
6
CONTINUOUS
10
37.7864
20
-63.1371
11
37.715
21
-63.0657
0
LINE
8
BLACK
6
CONTINUOUS
10
75.0371
20
-62.4664
11
75.0371
21
-61.3236
0
LINE
8
BLACK
6
CONTINUOUS
10
75.6086
20
-61.895
11
74.4657
21
-61.895
0
LINE
8
BLACK
6
CONTINUOUS
10
70.4571
20
-54.8979
11
70.5286
21
-54.6836
0
LINE
8
BLACK
6
CONTINUOUS
10
70.5286
20
-54.6836
11
70.5286
21
-54.3264
0
LINE
8
BLACK
6
CONTINUOUS
10
70.5286
20
-54.3264
11
70.4571
21
-54.1836
0
LINE
8
BLACK
6
CONTINUOUS
10
70.4571
20
-54.1836
11
70.3857
21
-54.1121
0
LINE
8
BLACK
6
CONTINUOUS
10
70.3857
20
-54.1121
11
70.2429
21
-54.0407
0
LINE
8
BLACK
6
CONTINUOUS
10
70.2429
20
-54.0407
11
70.1
21
-54.0407
0
LINE
8
BLACK
6
CONTINUOUS
10
70.1
20
-54.0407
11
69.9571
21
-54.1121
0
LINE
8
BLACK
6
CONTINUOUS
10
69.9571
20
-54.1121
11
69.8857
21
-54.1836
0
LINE
8
BLACK
6
CONTINUOUS
10
69.8857
20
-54.1836
11
69.8143
21
-54.3264
0
LINE
8
BLACK
6
CONTINUOUS
10
69.8143
20
-54.3264
11
69.7429
21
-54.6121
0
LINE
8
BLACK
6
CONTINUOUS
10
69.7429
20
-54.6121
11
69.6714
21
-54.755
0
LINE
8
BLACK
6
CONTINUOUS
10
69.6714
20
-54.755
11
69.6
21
-54.8264
0
LINE
8
BLACK
6
CONTINUOUS
10
69.6
20
-54.8264
11
69.4571
21
-54.8979
0
LINE
8
BLACK
6
CONTINUOUS
10
69.4571
20
-54.8979
11
69.3143
21
-54.8979
0
LINE
8
BLACK
6
CONTINUOUS
10
69.3143
20
-54.8979
11
69.1714
21
-54.8264
0
LINE
8
BLACK
6
CONTINUOUS
10
69.1714
20
-54.8264
11
69.1
21
-54.755
0
LINE
8
BLACK
6
CONTINUOUS
10
69.1
20
-54.755
11
69.0286
21
-54.6121
0
LINE
8
BLACK
6
CONTINUOUS
10
69.0286
20
-54.6121
11
69.0286
21
-54.255
0
LINE
8
BLACK
6
CONTINUOUS
10
69.0286
20
-54.255
11
69.1
21
-54.0407
0
LINE
8
BLACK
6
CONTINUOUS
10
70.5286
20
-53.3979
11
69.0286
21
-53.3979
0
LINE
8
BLACK
6
CONTINUOUS
10
70.5286
20
-52.5407
11
69.6714
21
-53.1836
0
LINE
8
BLACK
6
CONTINUOUS
10
69.0286
20
-52.5407
11
69.8857
21
-53.3979
0
LINE
8
BLACK
6
CONTINUOUS
10
69.0286
20
-52.0407
11
69.0286
21
-51.1121
0
LINE
8
BLACK
6
CONTINUOUS
10
69.0286
20
-51.1121
11
69.6
21
-51.6121
0
LINE
8
BLACK
6
CONTINUOUS
10
69.6
20
-51.6121
11
69.6
21
-51.3979
0
LINE
8
BLACK
6
CONTINUOUS
10
69.6
20
-51.3979
11
69.6714
21
-51.255
0
LINE
8
BLACK
6
CONTINUOUS
10
69.6714
20
-51.255
11
69.7429
21
-51.1836
0
LINE
8
BLACK
6
CONTINUOUS
10
69.7429
20
-51.1836
11
69.8857
21
-51.1121
0
LINE
8
BLACK
6
CONTINUOUS
10
69.8857
20
-51.1121
11
70.2429
21
-51.1121
0
LINE
8
BLACK
6
CONTINUOUS
10
70.2429
20
-51.1121
11
70.3857
21
-51.1836
0
LINE
8
BLACK
6
CONTINUOUS
10
70.3857
20
-51.1836
11
70.4571
21
-51.255
0
LINE
8
BLACK
6
CONTINUOUS
10
70.4571
20
-51.255
11
70.5286
21
-51.3979
0
LINE
8
BLACK
6
CONTINUOUS
10
70.5286
20
-51.3979
11
70.5286
21
-51.8264
0
LINE
8
BLACK
6
CONTINUOUS
10
70.5286
20
-51.8264
11
70.4571
21
-51.9693
0
LINE
8
BLACK
6
CONTINUOUS
10
70.4571
20
-51.9693
11
70.3857
21
-52.0407
0
LINE
8
BLACK
6
CONTINUOUS
10
92
20
-104
11
92
21
-67
0
LINE
8
BLACK
6
CONTINUOUS
10
50.1371
20
-92.8979
11
50.2086
21
-92.6836
0
LINE
8
BLACK
6
CONTINUOUS
10
50.2086
20
-92.6836
11
50.2086
21
-92.3264
0
LINE
8
BLACK
6
CONTINUOUS
10
50.2086
20
-92.3264
11
50.1371
21
-92.1836
0
LINE
8
BLACK
6
CONTINUOUS
10
50.1371
20
-92.1836
11
50.0657
21
-92.1121
0
LINE
8
BLACK
6
CONTINUOUS
10
50.0657
20
-92.1121
11
49.9229
21
-92.0407
0
LINE
8
BLACK
6
CONTINUOUS
10
49.9229
20
-92.0407
11
49.78
21
-92.0407
0
LINE
8
BLACK
6
CONTINUOUS
10
49.78
20
-92.0407
11
49.6371
21
-92.1121
0
LINE
8
BLACK
6
CONTINUOUS
10
49.6371
20
-92.1121
11
49.5657
21
-92.1836
0
LINE
8
BLACK
6
CONTINUOUS
10
49.5657
20
-92.1836
11
49.4943
21
-92.3264
0
LINE
8
BLACK
6
CONTINUOUS
10
49.4943
20
-92.3264
11
49.4229
21
-92.6121
0
LINE
8
BLACK
6
CONTINUOUS
10
49.4229
20
-92.6121
11
49.3514
21
-92.755
0
LINE
8
BLACK
6
CONTINUOUS
10
49.3514
20
-92.755
11
49.28
21
-92.8264
0
LINE
8
BLACK
6
CONTINUOUS
10
49.28
20
-92.8264
11
49.1371
21
-92.8979
0
LINE
8
BLACK
6
CONTINUOUS
10
49.1371
20
-92.8979
11
48.9943
21
-92.8979
0
LINE
8
BLACK
6
CONTINUOUS
10
48.9943
20
-92.8979
11
48.8514
21
-92.8264
0
LINE
8
BLACK
6
CONTINUOUS
10
48.8514
20
-92.8264
11
48.78
21
-92.755
0
LINE
8
BLACK
6
CONTINUOUS
10
48.78
20
-92.755
11
48.7086
21
-92.6121
0
LINE
8
BLACK
6
CONTINUOUS
10
48.7086
20
-92.6121
11
48.7086
21
-92.255
0
LINE
8
BLACK
6
CONTINUOUS
10
48.7086
20
-92.255
11
48.78
21
-92.0407
0
LINE
8
BLACK
6
CONTINUOUS
10
50.2086
20
-91.3979
11
48.7086
21
-91.3979
0
LINE
8
BLACK
6
CONTINUOUS
10
50.2086
20
-90.5407
11
49.3514
21
-91.1836
0
LINE
8
BLACK
6
CONTINUOUS
10
48.7086
20
-90.5407
11
49.5657
21
-91.3979
0
LINE
8
BLACK
6
CONTINUOUS
10
49.2086
20
-89.255
11
50.2086
21
-89.255
0
LINE
8
BLACK
6
CONTINUOUS
10
48.6371
20
-89.6121
11
49.7086
21
-89.9693
0
LINE
8
BLACK
6
CONTINUOUS
10
49.7086
20
-89.9693
11
49.7086
21
-89.0407
0
LINE
8
BLACK
6
CONTINUOUS
10
77.5771
20
-62.4664
11
77.5771
21
-61.3236
0
LINE
8
BLACK
6
CONTINUOUS
10
88.2371
20
-103.129
11
88.3086
21
-102.915
0
LINE
8
BLACK
6
CONTINUOUS
10
88.3086
20
-102.915
11
88.3086
21
-102.558
0
LINE
8
BLACK
6
CONTINUOUS
10
88.3086
20
-102.558
11
88.2371
21
-102.415
0
LINE
8
BLACK
6
CONTINUOUS
10
88.2371
20
-102.415
11
88.1657
21
-102.344
0
LINE
8
BLACK
6
CONTINUOUS
10
88.1657
20
-102.344
11
88.0229
21
-102.272
0
LINE
8
BLACK
6
CONTINUOUS
10
88.0229
20
-102.272
11
87.88
21
-102.272
0
LINE
8
BLACK
6
CONTINUOUS
10
87.88
20
-102.272
11
87.7371
21
-102.344
0
LINE
8
BLACK
6
CONTINUOUS
10
87.7371
20
-102.344
11
87.6657
21
-102.415
0
LINE
8
BLACK
6
CONTINUOUS
10
87.6657
20
-102.415
11
87.5943
21
-102.558
0
LINE
8
BLACK
6
CONTINUOUS
10
87.5943
20
-102.558
11
87.5229
21
-102.844
0
LINE
8
BLACK
6
CONTINUOUS
10
87.5229
20
-102.844
11
87.4514
21
-102.986
0
LINE
8
BLACK
6
CONTINUOUS
10
87.4514
20
-102.986
11
87.38
21
-103.058
0
LINE
8
BLACK
6
CONTINUOUS
10
87.38
20
-103.058
11
87.2371
21
-103.129
0
LINE
8
BLACK
6
CONTINUOUS
10
87.2371
20
-103.129
11
87.0943
21
-103.129
0
LINE
8
BLACK
6
CONTINUOUS
10
87.0943
20
-103.129
11
86.9514
21
-103.058
0
LINE
8
BLACK
6
CONTINUOUS
10
86.9514
20
-103.058
11
86.88
21
-102.986
0
LINE
8
BLACK
6
CONTINUOUS
10
86.88
20
-102.986
11
86.8086
21
-102.844
0
LINE
8
BLACK
6
CONTINUOUS
10
86.8086
20
-102.844
11
86.8086
21
-102.486
0
LINE
8
BLACK
6
CONTINUOUS
10
86.8086
20
-102.486
11
86.88
21
-102.272
0
LINE
8
BLACK
6
CONTINUOUS
10
88.1657
20
-100.772
11
88.2371
21
-100.844
0
LINE
8
BLACK
6
CONTINUOUS
10
88.2371
20
-100.844
11
88.3086
21
-101.058
0
LINE
8
BLACK
6
CONTINUOUS
10
88.3086
20
-101.058
11
88.3086
21
-101.201
0
LINE
8
BLACK
6
CONTINUOUS
10
88.3086
20
-101.201
11
88.2371
21
-101.415
0
LINE
8
BLACK
6
CONTINUOUS
10
88.2371
20
-101.415
11
88.0943
21
-101.558
0
LINE
8
BLACK
6
CONTINUOUS
10
88.0943
20
-101.558
11
87.9514
21
-101.629
0
LINE
8
BLACK
6
CONTINUOUS
10
87.9514
20
-101.629
11
87.6657
21
-101.701
0
LINE
8
BLACK
6
CONTINUOUS
10
87.6657
20
-101.701
11
87.4514
21
-101.701
0
LINE
8
BLACK
6
CONTINUOUS
10
87.4514
20
-101.701
11
87.1657
21
-101.629
0
LINE
8
BLACK
6
CONTINUOUS
10
87.1657
20
-101.629
11
87.0229
21
-101.558
0
LINE
8
BLACK
6
CONTINUOUS
10
87.0229
20
-101.558
11
86.88
21
-101.415
0
LINE
8
BLACK
6
CONTINUOUS
10
86.88
20
-101.415
11
86.8086
21
-101.201
0
LINE
8
BLACK
6
CONTINUOUS
10
86.8086
20
-101.201
11
86.8086
21
-101.058
0
LINE
8
BLACK
6
CONTINUOUS
10
86.8086
20
-101.058
11
86.88
21
-100.844
0
LINE
8
BLACK
6
CONTINUOUS
10
86.88
20
-100.844
11
86.9514
21
-100.772
0
LINE
8
BLACK
6
CONTINUOUS
10
88.3086
20
-100.129
11
86.8086
21
-100.129
0
LINE
8
BLACK
6
CONTINUOUS
10
86.8086
20
-100.129
11
88.3086
21
-99.2721
0
LINE
8
BLACK
6
CONTINUOUS
10
88.3086
20
-99.2721
11
86.8086
21
-99.2721
0
LINE
8
BLACK
6
CONTINUOUS
10
81.7286
20
-102.915
11
81.7286
21
-102.058
0
LINE
8
BLACK
6
CONTINUOUS
10
83.2286
20
-102.486
11
81.7286
21
-102.486
0
LINE
8
BLACK
6
CONTINUOUS
10
83.2286
20
-100.701
11
82.5143
21
-101.201
0
LINE
8
BLACK
6
CONTINUOUS
10
83.2286
20
-101.558
11
81.7286
21
-101.558
0
LINE
8
BLACK
6
CONTINUOUS
10
81.7286
20
-101.558
11
81.7286
21
-100.986
0
LINE
8
BLACK
6
CONTINUOUS
10
81.7286
20
-100.986
11
81.8
21
-100.844
0
LINE
8
BLACK
6
CONTINUOUS
10
81.8
20
-100.844
11
81.8714
21
-100.772
0
LINE
8
BLACK
6
CONTINUOUS
10
81.8714
20
-100.772
11
82.0143
21
-100.701
0
LINE
8
BLACK
6
CONTINUOUS
10
82.0143
20
-100.701
11
82.2286
21
-100.701
0
LINE
8
BLACK
6
CONTINUOUS
10
82.2286
20
-100.701
11
82.3714
21
-100.772
0
LINE
8
BLACK
6
CONTINUOUS
10
82.3714
20
-100.772
11
82.4429
21
-100.844
0
LINE
8
BLACK
6
CONTINUOUS
10
82.4429
20
-100.844
11
82.5143
21
-100.986
0
LINE
8
BLACK
6
CONTINUOUS
10
82.5143
20
-100.986
11
82.5143
21
-101.558
0
LINE
8
BLACK
6
CONTINUOUS
10
81.7286
20
-100.272
11
81.7286
21
-99.415
0
LINE
8
BLACK
6
CONTINUOUS
10
83.2286
20
-99.8436
11
81.7286
21
-99.8436
0
LINE
8
BLACK
6
CONTINUOUS
10
84.2686
20
-103.094
11
84.2686
21
-102.236
0
LINE
8
BLACK
6
CONTINUOUS
10
85.7686
20
-102.665
11
84.2686
21
-102.665
0
LINE
8
BLACK
6
CONTINUOUS
10
85.7686
20
-100.879
11
85.0543
21
-101.379
0
LINE
8
BLACK
6
CONTINUOUS
10
85.7686
20
-101.736
11
84.2686
21
-101.736
0
LINE
8
BLACK
6
CONTINUOUS
10
84.2686
20
-101.736
11
84.2686
21
-101.165
0
LINE
8
BLACK
6
CONTINUOUS
10
84.2686
20
-101.165
11
84.34
21
-101.022
0
LINE
8
BLACK
6
CONTINUOUS
10
84.34
20
-101.022
11
84.4114
21
-100.951
0
LINE
8
BLACK
6
CONTINUOUS
10
84.4114
20
-100.951
11
84.5543
21
-100.879
0
LINE
8
BLACK
6
CONTINUOUS
10
84.5543
20
-100.879
11
84.7686
21
-100.879
0
LINE
8
BLACK
6
CONTINUOUS
10
84.7686
20
-100.879
11
84.9114
21
-100.951
0
LINE
8
BLACK
6
CONTINUOUS
10
84.9114
20
-100.951
11
84.9829
21
-101.022
0
LINE
8
BLACK
6
CONTINUOUS
10
84.9829
20
-101.022
11
85.0543
21
-101.165
0
LINE
8
BLACK
6
CONTINUOUS
10
85.0543
20
-101.165
11
85.0543
21
-101.736
0
LINE
8
BLACK
6
CONTINUOUS
10
85.7686
20
-99.3793
11
85.0543
21
-99.8793
0
LINE
8
BLACK
6
CONTINUOUS
10
85.7686
20
-100.236
11
84.2686
21
-100.236
0
LINE
8
BLACK
6
CONTINUOUS
10
84.2686
20
-100.236
11
84.2686
21
-99.665
0
LINE
8
BLACK
6
CONTINUOUS
10
84.2686
20
-99.665
11
84.34
21
-99.5221
0
LINE
8
BLACK
6
CONTINUOUS
10
84.34
20
-99.5221
11
84.4114
21
-99.4507
0
LINE
8
BLACK
6
CONTINUOUS
10
84.4114
20
-99.4507
11
84.5543
21
-99.3793
0
LINE
8
BLACK
6
CONTINUOUS
10
84.5543
20
-99.3793
11
84.7686
21
-99.3793
0
LINE
8
BLACK
6
CONTINUOUS
10
84.7686
20
-99.3793
11
84.9114
21
-99.4507
0
LINE
8
BLACK
6
CONTINUOUS
10
84.9114
20
-99.4507
11
84.9829
21
-99.5221
0
LINE
8
BLACK
6
CONTINUOUS
10
84.9829
20
-99.5221
11
85.0543
21
-99.665
0
LINE
8
BLACK
6
CONTINUOUS
10
85.0543
20
-99.665
11
85.0543
21
-100.236
0
LINE
8
BLACK
6
CONTINUOUS
10
77.5771
20
-100.466
11
77.5771
21
-99.3236
0
LINE
8
BLACK
6
CONTINUOUS
10
80.6171
20
-103.129
11
80.6886
21
-102.915
0
LINE
8
BLACK
6
CONTINUOUS
10
80.6886
20
-102.915
11
80.6886
21
-102.558
0
LINE
8
BLACK
6
CONTINUOUS
10
80.6886
20
-102.558
11
80.6171
21
-102.415
0
LINE
8
BLACK
6
CONTINUOUS
10
80.6171
20
-102.415
11
80.5457
21
-102.344
0
LINE
8
BLACK
6
CONTINUOUS
10
80.5457
20
-102.344
11
80.4029
21
-102.272
0
LINE
8
BLACK
6
CONTINUOUS
10
80.4029
20
-102.272
11
80.26
21
-102.272
0
LINE
8
BLACK
6
CONTINUOUS
10
80.26
20
-102.272
11
80.1171
21
-102.344
0
LINE
8
BLACK
6
CONTINUOUS
10
80.1171
20
-102.344
11
80.0457
21
-102.415
0
LINE
8
BLACK
6
CONTINUOUS
10
80.0457
20
-102.415
11
79.9743
21
-102.558
0
LINE
8
BLACK
6
CONTINUOUS
10
79.9743
20
-102.558
11
79.9029
21
-102.844
0
LINE
8
BLACK
6
CONTINUOUS
10
79.9029
20
-102.844
11
79.8314
21
-102.986
0
LINE
8
BLACK
6
CONTINUOUS
10
79.8314
20
-102.986
11
79.76
21
-103.058
0
LINE
8
BLACK
6
CONTINUOUS
10
79.76
20
-103.058
11
79.6171
21
-103.129
0
LINE
8
BLACK
6
CONTINUOUS
10
79.6171
20
-103.129
11
79.4743
21
-103.129
0
LINE
8
BLACK
6
CONTINUOUS
10
79.4743
20
-103.129
11
79.3314
21
-103.058
0
LINE
8
BLACK
6
CONTINUOUS
10
79.3314
20
-103.058
11
79.26
21
-102.986
0
LINE
8
BLACK
6
CONTINUOUS
10
79.26
20
-102.986
11
79.1886
21
-102.844
0
LINE
8
BLACK
6
CONTINUOUS
10
79.1886
20
-102.844
11
79.1886
21
-102.486
0
LINE
8
BLACK
6
CONTINUOUS
10
79.1886
20
-102.486
11
79.26
21
-102.272
0
LINE
8
BLACK
6
CONTINUOUS
10
80.5457
20
-100.772
11
80.6171
21
-100.844
0
LINE
8
BLACK
6
CONTINUOUS
10
80.6171
20
-100.844
11
80.6886
21
-101.058
0
LINE
8
BLACK
6
CONTINUOUS
10
80.6886
20
-101.058
11
80.6886
21
-101.201
0
LINE
8
BLACK
6
CONTINUOUS
10
80.6886
20
-101.201
11
80.6171
21
-101.415
0
LINE
8
BLACK
6
CONTINUOUS
10
80.6171
20
-101.415
11
80.4743
21
-101.558
0
LINE
8
BLACK
6
CONTINUOUS
10
80.4743
20
-101.558
11
80.3314
21
-101.629
0
LINE
8
BLACK
6
CONTINUOUS
10
80.3314
20
-101.629
11
80.0457
21
-101.701
0
LINE
8
BLACK
6
CONTINUOUS
10
80.0457
20
-101.701
11
79.8314
21
-101.701
0
LINE
8
BLACK
6
CONTINUOUS
10
79.8314
20
-101.701
11
79.5457
21
-101.629
0
LINE
8
BLACK
6
CONTINUOUS
10
79.5457
20
-101.629
11
79.4029
21
-101.558
0
LINE
8
BLACK
6
CONTINUOUS
10
79.4029
20
-101.558
11
79.26
21
-101.415
0
LINE
8
BLACK
6
CONTINUOUS
10
79.26
20
-101.415
11
79.1886
21
-101.201
0
LINE
8
BLACK
6
CONTINUOUS
10
79.1886
20
-101.201
11
79.1886
21
-101.058
0
LINE
8
BLACK
6
CONTINUOUS
10
79.1886
20
-101.058
11
79.26
21
-100.844
0
LINE
8
BLACK
6
CONTINUOUS
10
79.26
20
-100.844
11
79.3314
21
-100.772
0
LINE
8
BLACK
6
CONTINUOUS
10
80.6886
20
-100.129
11
79.1886
21
-100.129
0
LINE
8
BLACK
6
CONTINUOUS
10
79.1886
20
-100.129
11
80.6886
21
-99.2721
0
LINE
8
BLACK
6
CONTINUOUS
10
80.6886
20
-99.2721
11
79.1886
21
-99.2721
0
LINE
8
BLACK
6
CONTINUOUS
10
75.0371
20
-100.466
11
75.0371
21
-99.3236
0
LINE
8
BLACK
6
CONTINUOUS
10
75.6086
20
-99.895
11
74.4657
21
-99.895
0
LINE
8
BLACK
6
CONTINUOUS
10
92
20
-67
11
30
21
-67
0
LINE
8
BLACK
6
CONTINUOUS
10
70.4571
20
-92.8979
11
70.5286
21
-92.6836
0
LINE
8
BLACK
6
CONTINUOUS
10
70.5286
20
-92.6836
11
70.5286
21
-92.3264
0
LINE
8
BLACK
6
CONTINUOUS
10
70.5286
20
-92.3264
11
70.4571
21
-92.1836
0
LINE
8
BLACK
6
CONTINUOUS
10
70.4571
20
-92.1836
11
70.3857
21
-92.1121
0
LINE
8
BLACK
6
CONTINUOUS
10
70.3857
20
-92.1121
11
70.2429
21
-92.0407
0
LINE
8
BLACK
6
CONTINUOUS
10
70.2429
20
-92.0407
11
70.1
21
-92.0407
0
LINE
8
BLACK
6
CONTINUOUS
10
70.1
20
-92.0407
11
69.9571
21
-92.1121
0
LINE
8
BLACK
6
CONTINUOUS
10
69.9571
20
-92.1121
11
69.8857
21
-92.1836
0
LINE
8
BLACK
6
CONTINUOUS
10
69.8857
20
-92.1836
11
69.8143
21
-92.3264
0
LINE
8
BLACK
6
CONTINUOUS
10
69.8143
20
-92.3264
11
69.7429
21
-92.6121
0
LINE
8
BLACK
6
CONTINUOUS
10
69.7429
20
-92.6121
11
69.6714
21
-92.755
0
LINE
8
BLACK
6
CONTINUOUS
10
69.6714
20
-92.755
11
69.6
21
-92.8264
0
LINE
8
BLACK
6
CONTINUOUS
10
69.6
20
-92.8264
11
69.4571
21
-92.8979
0
LINE
8
BLACK
6
CONTINUOUS
10
69.4571
20
-92.8979
11
69.3143
21
-92.8979
0
LINE
8
BLACK
6
CONTINUOUS
10
69.3143
20
-92.8979
11
69.1714
21
-92.8264
0
LINE
8
BLACK
6
CONTINUOUS
10
69.1714
20
-92.8264
11
69.1
21
-92.755
0
LINE
8
BLACK
6
CONTINUOUS
10
69.1
20
-92.755
11
69.0286
21
-92.6121
0
LINE
8
BLACK
6
CONTINUOUS
10
69.0286
20
-92.6121
11
69.0286
21
-92.255
0
LINE
8
BLACK
6
CONTINUOUS
10
69.0286
20
-92.255
11
69.1
21
-92.0407
0
LINE
8
BLACK
6
CONTINUOUS
10
70.5286
20
-91.3979
11
69.0286
21
-91.3979
0
LINE
8
BLACK
6
CONTINUOUS
10
70.5286
20
-90.5407
11
69.6714
21
-91.1836
0
LINE
8
BLACK
6
CONTINUOUS
10
69.0286
20
-90.5407
11
69.8857
21
-91.3979
0
LINE
8
BLACK
6
CONTINUOUS
10
69.0286
20
-90.0407
11
69.0286
21
-89.1121
0
LINE
8
BLACK
6
CONTINUOUS
10
69.0286
20
-89.1121
11
69.6
21
-89.6121
0
LINE
8
BLACK
6
CONTINUOUS
10
69.6
20
-89.6121
11
69.6
21
-89.3979
0
LINE
8
BLACK
6
CONTINUOUS
10
69.6
20
-89.3979
11
69.6714
21
-89.255
0
LINE
8
BLACK
6
CONTINUOUS
10
69.6714
20
-89.255
11
69.7429
21
-89.1836
0
LINE
8
BLACK
6
CONTINUOUS
10
69.7429
20
-89.1836
11
69.8857
21
-89.1121
0
LINE
8
BLACK
6
CONTINUOUS
10
69.8857
20
-89.1121
11
70.2429
21
-89.1121
0
LINE
8
BLACK
6
CONTINUOUS
10
70.2429
20
-89.1121
11
70.3857
21
-89.1836
0
LINE
8
BLACK
6
CONTINUOUS
10
70.3857
20
-89.1836
11
70.4571
21
-89.255
0
LINE
8
BLACK
6
CONTINUOUS
10
70.4571
20
-89.255
11
70.5286
21
-89.3979
0
LINE
8
BLACK
6
CONTINUOUS
10
70.5286
20
-89.3979
11
70.5286
21
-89.8264
0
LINE
8
BLACK
6
CONTINUOUS
10
70.5286
20
-89.8264
11
70.4571
21
-89.9693
0
LINE
8
BLACK
6
CONTINUOUS
10
70.4571
20
-89.9693
11
70.3857
21
-90.0407
0
LINE
8
BLACK
6
CONTINUOUS
10
40.39
20
-96.1286
11
39.89
21
-95.4143
0
LINE
8
BLACK
6
CONTINUOUS
10
39.5329
20
-96.1286
11
39.5329
21
-94.6286
0
LINE
8
BLACK
6
CONTINUOUS
10
39.5329
20
-94.6286
11
40.1043
21
-94.6286
0
LINE
8
BLACK
6
CONTINUOUS
10
40.1043
20
-94.6286
11
40.2471
21
-94.7
0
LINE
8
BLACK
6
CONTINUOUS
10
40.2471
20
-94.7
11
40.3186
21
-94.7714
0
LINE
8
BLACK
6
CONTINUOUS
10
40.3186
20
-94.7714
11
40.39
21
-94.9143
0
LINE
8
BLACK
6
CONTINUOUS
10
40.39
20
-94.9143
11
40.39
21
-95.1286
0
LINE
8
BLACK
6
CONTINUOUS
10
40.39
20
-95.1286
11
40.3186
21
-95.2714
0
LINE
8
BLACK
6
CONTINUOUS
10
40.3186
20
-95.2714
11
40.2471
21
-95.3429
0
LINE
8
BLACK
6
CONTINUOUS
10
40.2471
20
-95.3429
11
40.1043
21
-95.4143
0
LINE
8
BLACK
6
CONTINUOUS
10
40.1043
20
-95.4143
11
39.5329
21
-95.4143
0
LINE
8
BLACK
6
CONTINUOUS
10
40.9614
20
-94.7714
11
41.0329
21
-94.7
0
LINE
8
BLACK
6
CONTINUOUS
10
41.0329
20
-94.7
11
41.1757
21
-94.6286
0
LINE
8
BLACK
6
CONTINUOUS
10
41.1757
20
-94.6286
11
41.5329
21
-94.6286
0
LINE
8
BLACK
6
CONTINUOUS
10
41.5329
20
-94.6286
11
41.6757
21
-94.7
0
LINE
8
BLACK
6
CONTINUOUS
10
41.6757
20
-94.7
11
41.7471
21
-94.7714
0
LINE
8
BLACK
6
CONTINUOUS
10
41.7471
20
-94.7714
11
41.8186
21
-94.9143
0
LINE
8
BLACK
6
CONTINUOUS
10
41.8186
20
-94.9143
11
41.8186
21
-95.0571
0
LINE
8
BLACK
6
CONTINUOUS
10
41.8186
20
-95.0571
11
41.7471
21
-95.2714
0
LINE
8
BLACK
6
CONTINUOUS
10
41.7471
20
-95.2714
11
40.89
21
-96.1286
0
LINE
8
BLACK
6
CONTINUOUS
10
40.89
20
-96.1286
11
41.8186
21
-96.1286
0
LINE
8
BLACK
6
CONTINUOUS
10
92
20
-29
11
30
21
-29
0
LINE
8
BLACK
6
CONTINUOUS
10
84.2686
20
-65.0936
11
84.2686
21
-64.2364
0
LINE
8
BLACK
6
CONTINUOUS
10
85.7686
20
-64.665
11
84.2686
21
-64.665
0
LINE
8
BLACK
6
CONTINUOUS
10
85.7686
20
-62.8793
11
85.0543
21
-63.3793
0
LINE
8
BLACK
6
CONTINUOUS
10
85.7686
20
-63.7364
11
84.2686
21
-63.7364
0
LINE
8
BLACK
6
CONTINUOUS
10
84.2686
20
-63.7364
11
84.2686
21
-63.165
0
LINE
8
BLACK
6
CONTINUOUS
10
84.2686
20
-63.165
11
84.34
21
-63.0221
0
LINE
8
BLACK
6
CONTINUOUS
10
84.34
20
-63.0221
11
84.4114
21
-62.9507
0
LINE
8
BLACK
6
CONTINUOUS
10
84.4114
20
-62.9507
11
84.5543
21
-62.8793
0
LINE
8
BLACK
6
CONTINUOUS
10
84.5543
20
-62.8793
11
84.7686
21
-62.8793
0
LINE
8
BLACK
6
CONTINUOUS
10
84.7686
20
-62.8793
11
84.9114
21
-62.9507
0
LINE
8
BLACK
6
CONTINUOUS
10
84.9114
20
-62.9507
11
84.9829
21
-63.0221
0
LINE
8
BLACK
6
CONTINUOUS
10
84.9829
20
-63.0221
11
85.0543
21
-63.165
0
LINE
8
BLACK
6
CONTINUOUS
10
85.0543
20
-63.165
11
85.0543
21
-63.7364
0
LINE
8
BLACK
6
CONTINUOUS
10
85.7686
20
-61.3793
11
85.0543
21
-61.8793
0
LINE
8
BLACK
6
CONTINUOUS
10
85.7686
20
-62.2364
11
84.2686
21
-62.2364
0
LINE
8
BLACK
6
CONTINUOUS
10
84.2686
20
-62.2364
11
84.2686
21
-61.665
0
LINE
8
BLACK
6
CONTINUOUS
10
84.2686
20
-61.665
11
84.34
21
-61.5221
0
LINE
8
BLACK
6
CONTINUOUS
10
84.34
20
-61.5221
11
84.4114
21
-61.4507
0
LINE
8
BLACK
6
CONTINUOUS
10
84.4114
20
-61.4507
11
84.5543
21
-61.3793
0
LINE
8
BLACK
6
CONTINUOUS
10
84.5543
20
-61.3793
11
84.7686
21
-61.3793
0
LINE
8
BLACK
6
CONTINUOUS
10
84.7686
20
-61.3793
11
84.9114
21
-61.4507
0
LINE
8
BLACK
6
CONTINUOUS
10
84.9114
20
-61.4507
11
84.9829
21
-61.5221
0
LINE
8
BLACK
6
CONTINUOUS
10
84.9829
20
-61.5221
11
85.0543
21
-61.665
0
LINE
8
BLACK
6
CONTINUOUS
10
85.0543
20
-61.665
11
85.0543
21
-62.2364
0
LINE
8
BLACK
6
CONTINUOUS
10
90.7771
20
-54.8979
11
90.8486
21
-54.6836
0
LINE
8
BLACK
6
CONTINUOUS
10
90.8486
20
-54.6836
11
90.8486
21
-54.3264
0
LINE
8
BLACK
6
CONTINUOUS
10
90.8486
20
-54.3264
11
90.7771
21
-54.1836
0
LINE
8
BLACK
6
CONTINUOUS
10
90.7771
20
-54.1836
11
90.7057
21
-54.1121
0
LINE
8
BLACK
6
CONTINUOUS
10
90.7057
20
-54.1121
11
90.5629
21
-54.0407
0
LINE
8
BLACK
6
CONTINUOUS
10
90.5629
20
-54.0407
11
90.42
21
-54.0407
0
LINE
8
BLACK
6
CONTINUOUS
10
90.42
20
-54.0407
11
90.2771
21
-54.1121
0
LINE
8
BLACK
6
CONTINUOUS
10
90.2771
20
-54.1121
11
90.2057
21
-54.1836
0
LINE
8
BLACK
6
CONTINUOUS
10
90.2057
20
-54.1836
11
90.1343
21
-54.3264
0
LINE
8
BLACK
6
CONTINUOUS
10
90.1343
20
-54.3264
11
90.0629
21
-54.6121
0
LINE
8
BLACK
6
CONTINUOUS
10
90.0629
20
-54.6121
11
89.9914
21
-54.755
0
LINE
8
BLACK
6
CONTINUOUS
10
89.9914
20
-54.755
11
89.92
21
-54.8264
0
LINE
8
BLACK
6
CONTINUOUS
10
89.92
20
-54.8264
11
89.7771
21
-54.8979
0
LINE
8
BLACK
6
CONTINUOUS
10
89.7771
20
-54.8979
11
89.6343
21
-54.8979
0
LINE
8
BLACK
6
CONTINUOUS
10
89.6343
20
-54.8979
11
89.4914
21
-54.8264
0
LINE
8
BLACK
6
CONTINUOUS
10
89.4914
20
-54.8264
11
89.42
21
-54.755
0
LINE
8
BLACK
6
CONTINUOUS
10
89.42
20
-54.755
11
89.3486
21
-54.6121
0
LINE
8
BLACK
6
CONTINUOUS
10
89.3486
20
-54.6121
11
89.3486
21
-54.255
0
LINE
8
BLACK
6
CONTINUOUS
10
89.3486
20
-54.255
11
89.42
21
-54.0407
0
LINE
8
BLACK
6
CONTINUOUS
10
90.8486
20
-53.3979
11
89.3486
21
-53.3979
0
LINE
8
BLACK
6
CONTINUOUS
10
90.8486
20
-52.5407
11
89.9914
21
-53.1836
0
LINE
8
BLACK
6
CONTINUOUS
10
89.3486
20
-52.5407
11
90.2057
21
-53.3979
0
LINE
8
BLACK
6
CONTINUOUS
10
89.4914
20
-51.9693
11
89.42
21
-51.8979
0
LINE
8
BLACK
6
CONTINUOUS
10
89.42
20
-51.8979
11
89.3486
21
-51.755
0
LINE
8
BLACK
6
CONTINUOUS
10
89.3486
20
-51.755
11
89.3486
21
-51.3979
0
LINE
8
BLACK
6
CONTINUOUS
10
89.3486
20
-51.3979
11
89.42
21
-51.255
0
LINE
8
BLACK
6
CONTINUOUS
10
89.42
20
-51.255
11
89.4914
21
-51.1836
0
LINE
8
BLACK
6
CONTINUOUS
10
89.4914
20
-51.1836
11
89.6343
21
-51.1121
0
LINE
8
BLACK
6
CONTINUOUS
10
89.6343
20
-51.1121
11
89.7771
21
-51.1121
0
LINE
8
BLACK
6
CONTINUOUS
10
89.7771
20
-51.1121
11
89.9914
21
-51.1836
0
LINE
8
BLACK
6
CONTINUOUS
10
89.9914
20
-51.1836
11
90.8486
21
-52.0407
0
LINE
8
BLACK
6
CONTINUOUS
10
90.8486
20
-52.0407
11
90.8486
21
-51.1121
0
LINE
8
BLACK
6
CONTINUOUS
10
30
20
-66
11
92
21
-66
0
LINE
8
BLACK
6
CONTINUOUS
10
92
20
-66
11
92
21
-29
0
LINE
8
BLACK
6
CONTINUOUS
10
73.6721
20
-53.6121
11
73.8864
21
-53.6836
0
LINE
8
BLACK
6
CONTINUOUS
10
73.8864
20
-53.6836
11
74.2436
21
-53.6836
0
LINE
8
BLACK
6
CONTINUOUS
10
74.2436
20
-53.6836
11
74.3864
21
-53.6121
0
LINE
8
BLACK
6
CONTINUOUS
10
74.3864
20
-53.6121
11
74.4579
21
-53.5407
0
LINE
8
BLACK
6
CONTINUOUS
10
74.4579
20
-53.5407
11
74.5293
21
-53.3979
0
LINE
8
BLACK
6
CONTINUOUS
10
74.5293
20
-53.3979
11
74.5293
21
-53.255
0
LINE
8
BLACK
6
CONTINUOUS
10
74.5293
20
-53.255
11
74.4579
21
-53.1121
0
LINE
8
BLACK
6
CONTINUOUS
10
74.4579
20
-53.1121
11
74.3864
21
-53.0407
0
LINE
8
BLACK
6
CONTINUOUS
10
74.3864
20
-53.0407
11
74.2436
21
-52.9693
0
LINE
8
BLACK
6
CONTINUOUS
10
74.2436
20
-52.9693
11
73.9579
21
-52.8979
0
LINE
8
BLACK
6
CONTINUOUS
10
73.9579
20
-52.8979
11
73.815
21
-52.8264
0
LINE
8
BLACK
6
CONTINUOUS
10
73.815
20
-52.8264
11
73.7436
21
-52.755
0
LINE
8
BLACK
6
CONTINUOUS
10
73.7436
20
-52.755
11
73.6721
21
-52.6121
0
LINE
8
BLACK
6
CONTINUOUS
10
73.6721
20
-52.6121
11
73.6721
21
-52.4693
0
LINE
8
BLACK
6
CONTINUOUS
10
73.6721
20
-52.4693
11
73.7436
21
-52.3264
0
LINE
8
BLACK
6
CONTINUOUS
10
73.7436
20
-52.3264
11
73.815
21
-52.255
0
LINE
8
BLACK
6
CONTINUOUS
10
73.815
20
-52.255
11
73.9579
21
-52.1836
0
LINE
8
BLACK
6
CONTINUOUS
10
73.9579
20
-52.1836
11
74.315
21
-52.1836
0
LINE
8
BLACK
6
CONTINUOUS
10
74.315
20
-52.1836
11
74.5293
21
-52.255
0
LINE
8
BLACK
6
CONTINUOUS
10
75.1721
20
-53.6836
11
75.1721
21
-52.1836
0
LINE
8
BLACK
6
CONTINUOUS
10
76.0293
20
-53.6836
11
75.3864
21
-52.8264
0
LINE
8
BLACK
6
CONTINUOUS
10
76.0293
20
-52.1836
11
75.1721
21
-53.0407
0
LINE
8
BLACK
6
CONTINUOUS
10
77.4579
20
-53.6836
11
76.6007
21
-53.6836
0
LINE
8
BLACK
6
CONTINUOUS
10
77.0293
20
-53.6836
11
77.0293
21
-52.1836
0
LINE
8
BLACK
6
CONTINUOUS
10
77.0293
20
-52.1836
11
76.8864
21
-52.3979
0
LINE
8
BLACK
6
CONTINUOUS
10
76.8864
20
-52.3979
11
76.7436
21
-52.5407
0
LINE
8
BLACK
6
CONTINUOUS
10
76.7436
20
-52.5407
11
76.6007
21
-52.6121
0
LINE
8
BLACK
6
CONTINUOUS
10
80.6171
20
-65.1293
11
80.6886
21
-64.915
0
LINE
8
BLACK
6
CONTINUOUS
10
80.6886
20
-64.915
11
80.6886
21
-64.5579
0
LINE
8
BLACK
6
CONTINUOUS
10
80.6886
20
-64.5579
11
80.6171
21
-64.415
0
LINE
8
BLACK
6
CONTINUOUS
10
80.6171
20
-64.415
11
80.5457
21
-64.3436
0
LINE
8
BLACK
6
CONTINUOUS
10
80.5457
20
-64.3436
11
80.4029
21
-64.2721
0
LINE
8
BLACK
6
CONTINUOUS
10
80.4029
20
-64.2721
11
80.26
21
-64.2721
0
LINE
8
BLACK
6
CONTINUOUS
10
80.26
20
-64.2721
11
80.1171
21
-64.3436
0
LINE
8
BLACK
6
CONTINUOUS
10
80.1171
20
-64.3436
11
80.0457
21
-64.415
0
LINE
8
BLACK
6
CONTINUOUS
10
80.0457
20
-64.415
11
79.9743
21
-64.5579
0
LINE
8
BLACK
6
CONTINUOUS
10
79.9743
20
-64.5579
11
79.9029
21
-64.8436
0
LINE
8
BLACK
6
CONTINUOUS
10
79.9029
20
-64.8436
11
79.8314
21
-64.9864
0
LINE
8
BLACK
6
CONTINUOUS
10
79.8314
20
-64.9864
11
79.76
21
-65.0579
0
LINE
8
BLACK
6
CONTINUOUS
10
79.76
20
-65.0579
11
79.6171
21
-65.1293
0
LINE
8
BLACK
6
CONTINUOUS
10
79.6171
20
-65.1293
11
79.4743
21
-65.1293
0
LINE
8
BLACK
6
CONTINUOUS
10
79.4743
20
-65.1293
11
79.3314
21
-65.0579
0
LINE
8
BLACK
6
CONTINUOUS
10
79.3314
20
-65.0579
11
79.26
21
-64.9864
0
LINE
8
BLACK
6
CONTINUOUS
10
79.26
20
-64.9864
11
79.1886
21
-64.8436
0
LINE
8
BLACK
6
CONTINUOUS
10
79.1886
20
-64.8436
11
79.1886
21
-64.4864
0
LINE
8
BLACK
6
CONTINUOUS
10
79.1886
20
-64.4864
11
79.26
21
-64.2721
0
LINE
8
BLACK
6
CONTINUOUS
10
80.5457
20
-62.7721
11
80.6171
21
-62.8436
0
LINE
8
BLACK
6
CONTINUOUS
10
80.6171
20
-62.8436
11
80.6886
21
-63.0579
0
LINE
8
BLACK
6
CONTINUOUS
10
80.6886
20
-63.0579
11
80.6886
21
-63.2007
0
LINE
8
BLACK
6
CONTINUOUS
10
80.6886
20
-63.2007
11
80.6171
21
-63.415
0
LINE
8
BLACK
6
CONTINUOUS
10
80.6171
20
-63.415
11
80.4743
21
-63.5579
0
LINE
8
BLACK
6
CONTINUOUS
10
80.4743
20
-63.5579
11
80.3314
21
-63.6293
0
LINE
8
BLACK
6
CONTINUOUS
10
80.3314
20
-63.6293
11
80.0457
21
-63.7007
0
LINE
8
BLACK
6
CONTINUOUS
10
80.0457
20
-63.7007
11
79.8314
21
-63.7007
0
LINE
8
BLACK
6
CONTINUOUS
10
79.8314
20
-63.7007
11
79.5457
21
-63.6293
0
LINE
8
BLACK
6
CONTINUOUS
10
79.5457
20
-63.6293
11
79.4029
21
-63.5579
0
LINE
8
BLACK
6
CONTINUOUS
10
79.4029
20
-63.5579
11
79.26
21
-63.415
0
LINE
8
BLACK
6
CONTINUOUS
10
79.26
20
-63.415
11
79.1886
21
-63.2007
0
LINE
8
BLACK
6
CONTINUOUS
10
79.1886
20
-63.2007
11
79.1886
21
-63.0579
0
LINE
8
BLACK
6
CONTINUOUS
10
79.1886
20
-63.0579
11
79.26
21
-62.8436
0
LINE
8
BLACK
6
CONTINUOUS
10
79.26
20
-62.8436
11
79.3314
21
-62.7721
0
LINE
8
BLACK
6
CONTINUOUS
10
80.6886
20
-62.1293
11
79.1886
21
-62.1293
0
LINE
8
BLACK
6
CONTINUOUS
10
79.1886
20
-62.1293
11
80.6886
21
-61.2721
0
LINE
8
BLACK
6
CONTINUOUS
10
80.6886
20
-61.2721
11
79.1886
21
-61.2721
0
LINE
8
BLACK
6
CONTINUOUS
10
30
20
-29
11
30
21
-66
0
LINE
8
BLACK
6
CONTINUOUS
10
40.39
20
-58.1286
11
39.89
21
-57.4143
0
LINE
8
BLACK
6
CONTINUOUS
10
39.5329
20
-58.1286
11
39.5329
21
-56.6286
0
LINE
8
BLACK
6
CONTINUOUS
10
39.5329
20
-56.6286
11
40.1043
21
-56.6286
0
LINE
8
BLACK
6
CONTINUOUS
10
40.1043
20
-56.6286
11
40.2471
21
-56.7
0
LINE
8
BLACK
6
CONTINUOUS
10
40.2471
20
-56.7
11
40.3186
21
-56.7714
0
LINE
8
BLACK
6
CONTINUOUS
10
40.3186
20
-56.7714
11
40.39
21
-56.9143
0
LINE
8
BLACK
6
CONTINUOUS
10
40.39
20
-56.9143
11
40.39
21
-57.1286
0
LINE
8
BLACK
6
CONTINUOUS
10
40.39
20
-57.1286
11
40.3186
21
-57.2714
0
LINE
8
BLACK
6
CONTINUOUS
10
40.3186
20
-57.2714
11
40.2471
21
-57.3429
0
LINE
8
BLACK
6
CONTINUOUS
10
40.2471
20
-57.3429
11
40.1043
21
-57.4143
0
LINE
8
BLACK
6
CONTINUOUS
10
40.1043
20
-57.4143
11
39.5329
21
-57.4143
0
LINE
8
BLACK
6
CONTINUOUS
10
40.9614
20
-56.7714
11
41.0329
21
-56.7
0
LINE
8
BLACK
6
CONTINUOUS
10
41.0329
20
-56.7
11
41.1757
21
-56.6286
0
LINE
8
BLACK
6
CONTINUOUS
10
41.1757
20
-56.6286
11
41.5329
21
-56.6286
0
LINE
8
BLACK
6
CONTINUOUS
10
41.5329
20
-56.6286
11
41.6757
21
-56.7
0
LINE
8
BLACK
6
CONTINUOUS
10
41.6757
20
-56.7
11
41.7471
21
-56.7714
0
LINE
8
BLACK
6
CONTINUOUS
10
41.7471
20
-56.7714
11
41.8186
21
-56.9143
0
LINE
8
BLACK
6
CONTINUOUS
10
41.8186
20
-56.9143
11
41.8186
21
-57.0571
0
LINE
8
BLACK
6
CONTINUOUS
10
41.8186
20
-57.0571
11
41.7471
21
-57.2714
0
LINE
8
BLACK
6
CONTINUOUS
10
41.7471
20
-57.2714
11
40.89
21
-58.1286
0
LINE
8
BLACK
6
CONTINUOUS
10
40.89
20
-58.1286
11
41.8186
21
-58.1286
0
LINE
8
BLACK
6
CONTINUOUS
10
81.7286
20
-64.915
11
81.7286
21
-64.0579
0
LINE
8
BLACK
6
CONTINUOUS
10
83.2286
20
-64.4864
11
81.7286
21
-64.4864
0
LINE
8
BLACK
6
CONTINUOUS
10
83.2286
20
-62.7007
11
82.5143
21
-63.2007
0
LINE
8
BLACK
6
CONTINUOUS
10
83.2286
20
-63.5579
11
81.7286
21
-63.5579
0
LINE
8
BLACK
6
CONTINUOUS
10
81.7286
20
-63.5579
11
81.7286
21
-62.9864
0
LINE
8
BLACK
6
CONTINUOUS
10
81.7286
20
-62.9864
11
81.8
21
-62.8436
0
LINE
8
BLACK
6
CONTINUOUS
10
81.8
20
-62.8436
11
81.8714
21
-62.7721
0
LINE
8
BLACK
6
CONTINUOUS
10
81.8714
20
-62.7721
11
82.0143
21
-62.7007
0
LINE
8
BLACK
6
CONTINUOUS
10
82.0143
20
-62.7007
11
82.2286
21
-62.7007
0
LINE
8
BLACK
6
CONTINUOUS
10
82.2286
20
-62.7007
11
82.3714
21
-62.7721
0
LINE
8
BLACK
6
CONTINUOUS
10
82.3714
20
-62.7721
11
82.4429
21
-62.8436
0
LINE
8
BLACK
6
CONTINUOUS
10
82.4429
20
-62.8436
11
82.5143
21
-62.9864
0
LINE
8
BLACK
6
CONTINUOUS
10
82.5143
20
-62.9864
11
82.5143
21
-63.5579
0
LINE
8
BLACK
6
CONTINUOUS
10
81.7286
20
-62.2721
11
81.7286
21
-61.415
0
LINE
8
BLACK
6
CONTINUOUS
10
83.2286
20
-61.8436
11
81.7286
21
-61.8436
0
LINE
8
BLACK
6
CONTINUOUS
10
37.215
20
-101.209
11
36.715
21
-100.494
0
LINE
8
BLACK
6
CONTINUOUS
10
36.3579
20
-101.209
11
36.3579
21
-99.7086
0
LINE
8
BLACK
6
CONTINUOUS
10
36.3579
20
-99.7086
11
36.9293
21
-99.7086
0
LINE
8
BLACK
6
CONTINUOUS
10
36.9293
20
-99.7086
11
37.0721
21
-99.78
0
LINE
8
BLACK
6
CONTINUOUS
10
37.0721
20
-99.78
11
37.1436
21
-99.8514
0
LINE
8
BLACK
6
CONTINUOUS
10
37.1436
20
-99.8514
11
37.215
21
-99.9943
0
LINE
8
BLACK
6
CONTINUOUS
10
37.215
20
-99.9943
11
37.215
21
-100.209
0
LINE
8
BLACK
6
CONTINUOUS
10
37.215
20
-100.209
11
37.1436
21
-100.351
0
LINE
8
BLACK
6
CONTINUOUS
10
37.1436
20
-100.351
11
37.0721
21
-100.423
0
LINE
8
BLACK
6
CONTINUOUS
10
37.0721
20
-100.423
11
36.9293
21
-100.494
0
LINE
8
BLACK
6
CONTINUOUS
10
36.9293
20
-100.494
11
36.3579
21
-100.494
0
LINE
8
BLACK
6
CONTINUOUS
10
37.715
20
-99.7086
11
38.6436
21
-99.7086
0
LINE
8
BLACK
6
CONTINUOUS
10
38.6436
20
-99.7086
11
38.1436
21
-100.28
0
LINE
8
BLACK
6
CONTINUOUS
10
38.1436
20
-100.28
11
38.3579
21
-100.28
0
LINE
8
BLACK
6
CONTINUOUS
10
38.3579
20
-100.28
11
38.5007
21
-100.351
0
LINE
8
BLACK
6
CONTINUOUS
10
38.5007
20
-100.351
11
38.5721
21
-100.423
0
LINE
8
BLACK
6
CONTINUOUS
10
38.5721
20
-100.423
11
38.6436
21
-100.566
0
LINE
8
BLACK
6
CONTINUOUS
10
38.6436
20
-100.566
11
38.6436
21
-100.923
0
LINE
8
BLACK
6
CONTINUOUS
10
38.6436
20
-100.923
11
38.5721
21
-101.066
0
LINE
8
BLACK
6
CONTINUOUS
10
38.5721
20
-101.066
11
38.5007
21
-101.137
0
LINE
8
BLACK
6
CONTINUOUS
10
38.5007
20
-101.137
11
38.3579
21
-101.209
0
LINE
8
BLACK
6
CONTINUOUS
10
38.3579
20
-101.209
11
37.9293
21
-101.209
0
LINE
8
BLACK
6
CONTINUOUS
10
37.9293
20
-101.209
11
37.7864
21
-101.137
0
LINE
8
BLACK
6
CONTINUOUS
10
37.7864
20
-101.137
11
37.715
21
-101.066
0
LINE
8
BLACK
6
CONTINUOUS
10
90.7771
20
-92.8979
11
90.8486
21
-92.6836
0
LINE
8
BLACK
6
CONTINUOUS
10
90.8486
20
-92.6836
11
90.8486
21
-92.3264
0
LINE
8
BLACK
6
CONTINUOUS
10
90.8486
20
-92.3264
11
90.7771
21
-92.1836
0
LINE
8
BLACK
6
CONTINUOUS
10
90.7771
20
-92.1836
11
90.7057
21
-92.1121
0
LINE
8
BLACK
6
CONTINUOUS
10
90.7057
20
-92.1121
11
90.5629
21
-92.0407
0
LINE
8
BLACK
6
CONTINUOUS
10
90.5629
20
-92.0407
11
90.42
21
-92.0407
0
LINE
8
BLACK
6
CONTINUOUS
10
90.42
20
-92.0407
11
90.2771
21
-92.1121
0
LINE
8
BLACK
6
CONTINUOUS
10
90.2771
20
-92.1121
11
90.2057
21
-92.1836
0
LINE
8
BLACK
6
CONTINUOUS
10
90.2057
20
-92.1836
11
90.1343
21
-92.3264
0
LINE
8
BLACK
6
CONTINUOUS
10
90.1343
20
-92.3264
11
90.0629
21
-92.6121
0
LINE
8
BLACK
6
CONTINUOUS
10
90.0629
20
-92.6121
11
89.9914
21
-92.755
0
LINE
8
BLACK
6
CONTINUOUS
10
89.9914
20
-92.755
11
89.92
21
-92.8264
0
LINE
8
BLACK
6
CONTINUOUS
10
89.92
20
-92.8264
11
89.7771
21
-92.8979
0
LINE
8
BLACK
6
CONTINUOUS
10
89.7771
20
-92.8979
11
89.6343
21
-92.8979
0
LINE
8
BLACK
6
CONTINUOUS
10
89.6343
20
-92.8979
11
89.4914
21
-92.8264
0
LINE
8
BLACK
6
CONTINUOUS
10
89.4914
20
-92.8264
11
89.42
21
-92.755
0
LINE
8
BLACK
6
CONTINUOUS
10
89.42
20
-92.755
11
89.3486
21
-92.6121
0
LINE
8
BLACK
6
CONTINUOUS
10
89.3486
20
-92.6121
11
89.3486
21
-92.255
0
LINE
8
BLACK
6
CONTINUOUS
10
89.3486
20
-92.255
11
89.42
21
-92.0407
0
LINE
8
BLACK
6
CONTINUOUS
10
90.8486
20
-91.3979
11
89.3486
21
-91.3979
0
LINE
8
BLACK
6
CONTINUOUS
10
90.8486
20
-90.5407
11
89.9914
21
-91.1836
0
LINE
8
BLACK
6
CONTINUOUS
10
89.3486
20
-90.5407
11
90.2057
21
-91.3979
0
LINE
8
BLACK
6
CONTINUOUS
10
89.4914
20
-89.9693
11
89.42
21
-89.8979
0
LINE
8
BLACK
6
CONTINUOUS
10
89.42
20
-89.8979
11
89.3486
21
-89.755
0
LINE
8
BLACK
6
CONTINUOUS
10
89.3486
20
-89.755
11
89.3486
21
-89.3979
0
LINE
8
BLACK
6
CONTINUOUS
10
89.3486
20
-89.3979
11
89.42
21
-89.255
0
LINE
8
BLACK
6
CONTINUOUS
10
89.42
20
-89.255
11
89.4914
21
-89.1836
0
LINE
8
BLACK
6
CONTINUOUS
10
89.4914
20
-89.1836
11
89.6343
21
-89.1121
0
LINE
8
BLACK
6
CONTINUOUS
10
89.6343
20
-89.1121
11
89.7771
21
-89.1121
0
LINE
8
BLACK
6
CONTINUOUS
10
89.7771
20
-89.1121
11
89.9914
21
-89.1836
0
LINE
8
BLACK
6
CONTINUOUS
10
89.9914
20
-89.1836
11
90.8486
21
-90.0407
0
LINE
8
BLACK
6
CONTINUOUS
10
90.8486
20
-90.0407
11
90.8486
21
-89.1121
0
LINE
8
BLACK
6
CONTINUOUS
10
30
20
-67
11
30
21
-104
0
LINE
8
BLACK
6
CONTINUOUS
10
88.2371
20
-65.1293
11
88.3086
21
-64.915
0
LINE
8
BLACK
6
CONTINUOUS
10
88.3086
20
-64.915
11
88.3086
21
-64.5579
0
LINE
8
BLACK
6
CONTINUOUS
10
88.3086
20
-64.5579
11
88.2371
21
-64.415
0
LINE
8
BLACK
6
CONTINUOUS
10
88.2371
20
-64.415
11
88.1657
21
-64.3436
0
LINE
8
BLACK
6
CONTINUOUS
10
88.1657
20
-64.3436
11
88.0229
21
-64.2721
0
LINE
8
BLACK
6
CONTINUOUS
10
88.0229
20
-64.2721
11
87.88
21
-64.2721
0
LINE
8
BLACK
6
CONTINUOUS
10
87.88
20
-64.2721
11
87.7371
21
-64.3436
0
LINE
8
BLACK
6
CONTINUOUS
10
87.7371
20
-64.3436
11
87.6657
21
-64.415
0
LINE
8
BLACK
6
CONTINUOUS
10
87.6657
20
-64.415
11
87.5943
21
-64.5579
0
LINE
8
BLACK
6
CONTINUOUS
10
87.5943
20
-64.5579
11
87.5229
21
-64.8436
0
LINE
8
BLACK
6
CONTINUOUS
10
87.5229
20
-64.8436
11
87.4514
21
-64.9864
0
LINE
8
BLACK
6
CONTINUOUS
10
87.4514
20
-64.9864
11
87.38
21
-65.0579
0
LINE
8
BLACK
6
CONTINUOUS
10
87.38
20
-65.0579
11
87.2371
21
-65.1293
0
LINE
8
BLACK
6
CONTINUOUS
10
87.2371
20
-65.1293
11
87.0943
21
-65.1293
0
LINE
8
BLACK
6
CONTINUOUS
10
87.0943
20
-65.1293
11
86.9514
21
-65.0579
0
LINE
8
BLACK
6
CONTINUOUS
10
86.9514
20
-65.0579
11
86.88
21
-64.9864
0
LINE
8
BLACK
6
CONTINUOUS
10
86.88
20
-64.9864
11
86.8086
21
-64.8436
0
LINE
8
BLACK
6
CONTINUOUS
10
86.8086
20
-64.8436
11
86.8086
21
-64.4864
0
LINE
8
BLACK
6
CONTINUOUS
10
86.8086
20
-64.4864
11
86.88
21
-64.2721
0
LINE
8
BLACK
6
CONTINUOUS
10
88.1657
20
-62.7721
11
88.2371
21
-62.8436
0
LINE
8
BLACK
6
CONTINUOUS
10
88.2371
20
-62.8436
11
88.3086
21
-63.0579
0
LINE
8
BLACK
6
CONTINUOUS
10
88.3086
20
-63.0579
11
88.3086
21
-63.2007
0
LINE
8
BLACK
6
CONTINUOUS
10
88.3086
20
-63.2007
11
88.2371
21
-63.415
0
LINE
8
BLACK
6
CONTINUOUS
10
88.2371
20
-63.415
11
88.0943
21
-63.5579
0
LINE
8
BLACK
6
CONTINUOUS
10
88.0943
20
-63.5579
11
87.9514
21
-63.6293
0
LINE
8
BLACK
6
CONTINUOUS
10
87.9514
20
-63.6293
11
87.6657
21
-63.7007
0
LINE
8
BLACK
6
CONTINUOUS
10
87.6657
20
-63.7007
11
87.4514
21
-63.7007
0
LINE
8
BLACK
6
CONTINUOUS
10
87.4514
20
-63.7007
11
87.1657
21
-63.6293
0
LINE
8
BLACK
6
CONTINUOUS
10
87.1657
20
-63.6293
11
87.0229
21
-63.5579
0
LINE
8
BLACK
6
CONTINUOUS
10
87.0229
20
-63.5579
11
86.88
21
-63.415
0
LINE
8
BLACK
6
CONTINUOUS
10
86.88
20
-63.415
11
86.8086
21
-63.2007
0
LINE
8
BLACK
6
CONTINUOUS
10
86.8086
20
-63.2007
11
86.8086
21
-63.0579
0
LINE
8
BLACK
6
CONTINUOUS
10
86.8086
20
-63.0579
11
86.88
21
-62.8436
0
LINE
8
BLACK
6
CONTINUOUS
10
86.88
20
-62.8436
11
86.9514
21
-62.7721
0
LINE
8
BLACK
6
CONTINUOUS
10
88.3086
20
-62.1293
11
86.8086
21
-62.1293
0
LINE
8
BLACK
6
CONTINUOUS
10
86.8086
20
-62.1293
11
88.3086
21
-61.2721
0
LINE
8
BLACK
6
CONTINUOUS
10
88.3086
20
-61.2721
11
86.8086
21
-61.2721
0
LINE
8
BLACK
6
CONTINUOUS
10
30
20
-104
11
92
21
-104
0
LINE
8
BLACK
6
CONTINUOUS
10
73.6721
20
-129.612
11
73.8864
21
-129.684
0
LINE
8
BLACK
6
CONTINUOUS
10
73.8864
20
-129.684
11
74.2436
21
-129.684
0
LINE
8
BLACK
6
CONTINUOUS
10
74.2436
20
-129.684
11
74.3864
21
-129.612
0
LINE
8
BLACK
6
CONTINUOUS
10
74.3864
20
-129.612
11
74.4579
21
-129.541
0
LINE
8
BLACK
6
CONTINUOUS
10
74.4579
20
-129.541
11
74.5293
21
-129.398
0
LINE
8
BLACK
6
CONTINUOUS
10
74.5293
20
-129.398
11
74.5293
21
-129.255
0
LINE
8
BLACK
6
CONTINUOUS
10
74.5293
20
-129.255
11
74.4579
21
-129.112
0
LINE
8
BLACK
6
CONTINUOUS
10
74.4579
20
-129.112
11
74.3864
21
-129.041
0
LINE
8
BLACK
6
CONTINUOUS
10
74.3864
20
-129.041
11
74.2436
21
-128.969
0
LINE
8
BLACK
6
CONTINUOUS
10
74.2436
20
-128.969
11
73.9579
21
-128.898
0
LINE
8
BLACK
6
CONTINUOUS
10
73.9579
20
-128.898
11
73.815
21
-128.826
0
LINE
8
BLACK
6
CONTINUOUS
10
73.815
20
-128.826
11
73.7436
21
-128.755
0
LINE
8
BLACK
6
CONTINUOUS
10
73.7436
20
-128.755
11
73.6721
21
-128.612
0
LINE
8
BLACK
6
CONTINUOUS
10
73.6721
20
-128.612
11
73.6721
21
-128.469
0
LINE
8
BLACK
6
CONTINUOUS
10
73.6721
20
-128.469
11
73.7436
21
-128.326
0
LINE
8
BLACK
6
CONTINUOUS
10
73.7436
20
-128.326
11
73.815
21
-128.255
0
LINE
8
BLACK
6
CONTINUOUS
10
73.815
20
-128.255
11
73.9579
21
-128.184
0
LINE
8
BLACK
6
CONTINUOUS
10
73.9579
20
-128.184
11
74.315
21
-128.184
0
LINE
8
BLACK
6
CONTINUOUS
10
74.315
20
-128.184
11
74.5293
21
-128.255
0
LINE
8
BLACK
6
CONTINUOUS
10
75.1721
20
-129.684
11
75.1721
21
-128.184
0
LINE
8
BLACK
6
CONTINUOUS
10
76.0293
20
-129.684
11
75.3864
21
-128.826
0
LINE
8
BLACK
6
CONTINUOUS
10
76.0293
20
-128.184
11
75.1721
21
-129.041
0
LINE
8
BLACK
6
CONTINUOUS
10
77.4579
20
-129.684
11
76.6007
21
-129.684
0
LINE
8
BLACK
6
CONTINUOUS
10
77.0293
20
-129.684
11
77.0293
21
-128.184
0
LINE
8
BLACK
6
CONTINUOUS
10
77.0293
20
-128.184
11
76.8864
21
-128.398
0
LINE
8
BLACK
6
CONTINUOUS
10
76.8864
20
-128.398
11
76.7436
21
-128.541
0
LINE
8
BLACK
6
CONTINUOUS
10
76.7436
20
-128.541
11
76.6007
21
-128.612
0
LINE
8
BLACK
6
CONTINUOUS
10
92
20
-142
11
92
21
-105
0
LINE
8
BLACK
6
CONTINUOUS
10
50.1371
20
-130.898
11
50.2086
21
-130.684
0
LINE
8
BLACK
6
CONTINUOUS
10
50.2086
20
-130.684
11
50.2086
21
-130.326
0
LINE
8
BLACK
6
CONTINUOUS
10
50.2086
20
-130.326
11
50.1371
21
-130.184
0
LINE
8
BLACK
6
CONTINUOUS
10
50.1371
20
-130.184
11
50.0657
21
-130.112
0
LINE
8
BLACK
6
CONTINUOUS
10
50.0657
20
-130.112
11
49.9229
21
-130.041
0
LINE
8
BLACK
6
CONTINUOUS
10
49.9229
20
-130.041
11
49.78
21
-130.041
0
LINE
8
BLACK
6
CONTINUOUS
10
49.78
20
-130.041
11
49.6371
21
-130.112
0
LINE
8
BLACK
6
CONTINUOUS
10
49.6371
20
-130.112
11
49.5657
21
-130.184
0
LINE
8
BLACK
6
CONTINUOUS
10
49.5657
20
-130.184
11
49.4943
21
-130.326
0
LINE
8
BLACK
6
CONTINUOUS
10
49.4943
20
-130.326
11
49.4229
21
-130.612
0
LINE
8
BLACK
6
CONTINUOUS
10
49.4229
20
-130.612
11
49.3514
21
-130.755
0
LINE
8
BLACK
6
CONTINUOUS
10
49.3514
20
-130.755
11
49.28
21
-130.826
0
LINE
8
BLACK
6
CONTINUOUS
10
49.28
20
-130.826
11
49.1371
21
-130.898
0
LINE
8
BLACK
6
CONTINUOUS
10
49.1371
20
-130.898
11
48.9943
21
-130.898
0
LINE
8
BLACK
6
CONTINUOUS
10
48.9943
20
-130.898
11
48.8514
21
-130.826
0
LINE
8
BLACK
6
CONTINUOUS
10
48.8514
20
-130.826
11
48.78
21
-130.755
0
LINE
8
BLACK
6
CONTINUOUS
10
48.78
20
-130.755
11
48.7086
21
-130.612
0
LINE
8
BLACK
6
CONTINUOUS
10
48.7086
20
-130.612
11
48.7086
21
-130.255
0
LINE
8
BLACK
6
CONTINUOUS
10
48.7086
20
-130.255
11
48.78
21
-130.041
0
LINE
8
BLACK
6
CONTINUOUS
10
50.2086
20
-129.398
11
48.7086
21
-129.398
0
LINE
8
BLACK
6
CONTINUOUS
10
50.2086
20
-128.541
11
49.3514
21
-129.184
0
LINE
8
BLACK
6
CONTINUOUS
10
48.7086
20
-128.541
11
49.5657
21
-129.398
0
LINE
8
BLACK
6
CONTINUOUS
10
49.2086
20
-127.255
11
50.2086
21
-127.255
0
LINE
8
BLACK
6
CONTINUOUS
10
48.6371
20
-127.612
11
49.7086
21
-127.969
0
LINE
8
BLACK
6
CONTINUOUS
10
49.7086
20
-127.969
11
49.7086
21
-127.041
0
LINE
8
BLACK
6
CONTINUOUS
10
88.2371
20
-141.129
11
88.3086
21
-140.915
0
LINE
8
BLACK
6
CONTINUOUS
10
88.3086
20
-140.915
11
88.3086
21
-140.558
0
LINE
8
BLACK
6
CONTINUOUS
10
88.3086
20
-140.558
11
88.2371
21
-140.415
0
LINE
8
BLACK
6
CONTINUOUS
10
88.2371
20
-140.415
11
88.1657
21
-140.344
0
LINE
8
BLACK
6
CONTINUOUS
10
88.1657
20
-140.344
11
88.0229
21
-140.272
0
LINE
8
BLACK
6
CONTINUOUS
10
88.0229
20
-140.272
11
87.88
21
-140.272
0
LINE
8
BLACK
6
CONTINUOUS
10
87.88
20
-140.272
11
87.7371
21
-140.344
0
LINE
8
BLACK
6
CONTINUOUS
10
87.7371
20
-140.344
11
87.6657
21
-140.415
0
LINE
8
BLACK
6
CONTINUOUS
10
87.6657
20
-140.415
11
87.5943
21
-140.558
0
LINE
8
BLACK
6
CONTINUOUS
10
87.5943
20
-140.558
11
87.5229
21
-140.844
0
LINE
8
BLACK
6
CONTINUOUS
10
87.5229
20
-140.844
11
87.4514
21
-140.986
0
LINE
8
BLACK
6
CONTINUOUS
10
87.4514
20
-140.986
11
87.38
21
-141.058
0
LINE
8
BLACK
6
CONTINUOUS
10
87.38
20
-141.058
11
87.2371
21
-141.129
0
LINE
8
BLACK
6
CONTINUOUS
10
87.2371
20
-141.129
11
87.0943
21
-141.129
0
LINE
8
BLACK
6
CONTINUOUS
10
87.0943
20
-141.129
11
86.9514
21
-141.058
0
LINE
8
BLACK
6
CONTINUOUS
10
86.9514
20
-141.058
11
86.88
21
-140.986
0
LINE
8
BLACK
6
CONTINUOUS
10
86.88
20
-140.986
11
86.8086
21
-140.844
0
LINE
8
BLACK
6
CONTINUOUS
10
86.8086
20
-140.844
11
86.8086
21
-140.486
0
LINE
8
BLACK
6
CONTINUOUS
10
86.8086
20
-140.486
11
86.88
21
-140.272
0
LINE
8
BLACK
6
CONTINUOUS
10
88.1657
20
-138.772
11
88.2371
21
-138.844
0
LINE
8
BLACK
6
CONTINUOUS
10
88.2371
20
-138.844
11
88.3086
21
-139.058
0
LINE
8
BLACK
6
CONTINUOUS
10
88.3086
20
-139.058
11
88.3086
21
-139.201
0
LINE
8
BLACK
6
CONTINUOUS
10
88.3086
20
-139.201
11
88.2371
21
-139.415
0
LINE
8
BLACK
6
CONTINUOUS
10
88.2371
20
-139.415
11
88.0943
21
-139.558
0
LINE
8
BLACK
6
CONTINUOUS
10
88.0943
20
-139.558
11
87.9514
21
-139.629
0
LINE
8
BLACK
6
CONTINUOUS
10
87.9514
20
-139.629
11
87.6657
21
-139.701
0
LINE
8
BLACK
6
CONTINUOUS
10
87.6657
20
-139.701
11
87.4514
21
-139.701
0
LINE
8
BLACK
6
CONTINUOUS
10
87.4514
20
-139.701
11
87.1657
21
-139.629
0
LINE
8
BLACK
6
CONTINUOUS
10
87.1657
20
-139.629
11
87.0229
21
-139.558
0
LINE
8
BLACK
6
CONTINUOUS
10
87.0229
20
-139.558
11
86.88
21
-139.415
0
LINE
8
BLACK
6
CONTINUOUS
10
86.88
20
-139.415
11
86.8086
21
-139.201
0
LINE
8
BLACK
6
CONTINUOUS
10
86.8086
20
-139.201
11
86.8086
21
-139.058
0
LINE
8
BLACK
6
CONTINUOUS
10
86.8086
20
-139.058
11
86.88
21
-138.844
0
LINE
8
BLACK
6
CONTINUOUS
10
86.88
20
-138.844
11
86.9514
21
-138.772
0
LINE
8
BLACK
6
CONTINUOUS
10
88.3086
20
-138.129
11
86.8086
21
-138.129
0
LINE
8
BLACK
6
CONTINUOUS
10
86.8086
20
-138.129
11
88.3086
21
-137.272
0
LINE
8
BLACK
6
CONTINUOUS
10
88.3086
20
-137.272
11
86.8086
21
-137.272
0
LINE
8
BLACK
6
CONTINUOUS
10
81.7286
20
-140.915
11
81.7286
21
-140.058
0
LINE
8
BLACK
6
CONTINUOUS
10
83.2286
20
-140.486
11
81.7286
21
-140.486
0
LINE
8
BLACK
6
CONTINUOUS
10
83.2286
20
-138.701
11
82.5143
21
-139.201
0
LINE
8
BLACK
6
CONTINUOUS
10
83.2286
20
-139.558
11
81.7286
21
-139.558
0
LINE
8
BLACK
6
CONTINUOUS
10
81.7286
20
-139.558
11
81.7286
21
-138.986
0
LINE
8
BLACK
6
CONTINUOUS
10
81.7286
20
-138.986
11
81.8
21
-138.844
0
LINE
8
BLACK
6
CONTINUOUS
10
81.8
20
-138.844
11
81.8714
21
-138.772
0
LINE
8
BLACK
6
CONTINUOUS
10
81.8714
20
-138.772
11
82.0143
21
-138.701
0
LINE
8
BLACK
6
CONTINUOUS
10
82.0143
20
-138.701
11
82.2286
21
-138.701
0
LINE
8
BLACK
6
CONTINUOUS
10
82.2286
20
-138.701
11
82.3714
21
-138.772
0
LINE
8
BLACK
6
CONTINUOUS
10
82.3714
20
-138.772
11
82.4429
21
-138.844
0
LINE
8
BLACK
6
CONTINUOUS
10
82.4429
20
-138.844
11
82.5143
21
-138.986
0
LINE
8
BLACK
6
CONTINUOUS
10
82.5143
20
-138.986
11
82.5143
21
-139.558
0
LINE
8
BLACK
6
CONTINUOUS
10
81.7286
20
-138.272
11
81.7286
21
-137.415
0
LINE
8
BLACK
6
CONTINUOUS
10
83.2286
20
-137.844
11
81.7286
21
-137.844
0
LINE
8
BLACK
6
CONTINUOUS
10
84.2686
20
-141.094
11
84.2686
21
-140.236
0
LINE
8
BLACK
6
CONTINUOUS
10
85.7686
20
-140.665
11
84.2686
21
-140.665
0
LINE
8
BLACK
6
CONTINUOUS
10
85.7686
20
-138.879
11
85.0543
21
-139.379
0
LINE
8
BLACK
6
CONTINUOUS
10
85.7686
20
-139.736
11
84.2686
21
-139.736
0
LINE
8
BLACK
6
CONTINUOUS
10
84.2686
20
-139.736
11
84.2686
21
-139.165
0
LINE
8
BLACK
6
CONTINUOUS
10
84.2686
20
-139.165
11
84.34
21
-139.022
0
LINE
8
BLACK
6
CONTINUOUS
10
84.34
20
-139.022
11
84.4114
21
-138.951
0
LINE
8
BLACK
6
CONTINUOUS
10
84.4114
20
-138.951
11
84.5543
21
-138.879
0
LINE
8
BLACK
6
CONTINUOUS
10
84.5543
20
-138.879
11
84.7686
21
-138.879
0
LINE
8
BLACK
6
CONTINUOUS
10
84.7686
20
-138.879
11
84.9114
21
-138.951
0
LINE
8
BLACK
6
CONTINUOUS
10
84.9114
20
-138.951
11
84.9829
21
-139.022
0
LINE
8
BLACK
6
CONTINUOUS
10
84.9829
20
-139.022
11
85.0543
21
-139.165
0
LINE
8
BLACK
6
CONTINUOUS
10
85.0543
20
-139.165
11
85.0543
21
-139.736
0
LINE
8
BLACK
6
CONTINUOUS
10
85.7686
20
-137.379
11
85.0543
21
-137.879
0
LINE
8
BLACK
6
CONTINUOUS
10
85.7686
20
-138.236
11
84.2686
21
-138.236
0
LINE
8
BLACK
6
CONTINUOUS
10
84.2686
20
-138.236
11
84.2686
21
-137.665
0
LINE
8
BLACK
6
CONTINUOUS
10
84.2686
20
-137.665
11
84.34
21
-137.522
0
LINE
8
BLACK
6
CONTINUOUS
10
84.34
20
-137.522
11
84.4114
21
-137.451
0
LINE
8
BLACK
6
CONTINUOUS
10
84.4114
20
-137.451
11
84.5543
21
-137.379
0
LINE
8
BLACK
6
CONTINUOUS
10
84.5543
20
-137.379
11
84.7686
21
-137.379
0
LINE
8
BLACK
6
CONTINUOUS
10
84.7686
20
-137.379
11
84.9114
21
-137.451
0
LINE
8
BLACK
6
CONTINUOUS
10
84.9114
20
-137.451
11
84.9829
21
-137.522
0
LINE
8
BLACK
6
CONTINUOUS
10
84.9829
20
-137.522
11
85.0543
21
-137.665
0
LINE
8
BLACK
6
CONTINUOUS
10
85.0543
20
-137.665
11
85.0543
21
-138.236
0
LINE
8
BLACK
6
CONTINUOUS
10
77.5771
20
-138.466
11
77.5771
21
-137.324
0
LINE
8
BLACK
6
CONTINUOUS
10
80.6171
20
-141.129
11
80.6886
21
-140.915
0
LINE
8
BLACK
6
CONTINUOUS
10
80.6886
20
-140.915
11
80.6886
21
-140.558
0
LINE
8
BLACK
6
CONTINUOUS
10
80.6886
20
-140.558
11
80.6171
21
-140.415
0
LINE
8
BLACK
6
CONTINUOUS
10
80.6171
20
-140.415
11
80.5457
21
-140.344
0
LINE
8
BLACK
6
CONTINUOUS
10
80.5457
20
-140.344
11
80.4029
21
-140.272
0
LINE
8
BLACK
6
CONTINUOUS
10
80.4029
20
-140.272
11
80.26
21
-140.272
0
LINE
8
BLACK
6
CONTINUOUS
10
80.26
20
-140.272
11
80.1171
21
-140.344
0
LINE
8
BLACK
6
CONTINUOUS
10
80.1171
20
-140.344
11
80.0457
21
-140.415
0
LINE
8
BLACK
6
CONTINUOUS
10
80.0457
20
-140.415
11
79.9743
21
-140.558
0
LINE
8
BLACK
6
CONTINUOUS
10
79.9743
20
-140.558
11
79.9029
21
-140.844
0
LINE
8
BLACK
6
CONTINUOUS
10
79.9029
20
-140.844
11
79.8314
21
-140.986
0
LINE
8
BLACK
6
CONTINUOUS
10
79.8314
20
-140.986
11
79.76
21
-141.058
0
LINE
8
BLACK
6
CONTINUOUS
10
79.76
20
-141.058
11
79.6171
21
-141.129
0
LINE
8
BLACK
6
CONTINUOUS
10
79.6171
20
-141.129
11
79.4743
21
-141.129
0
LINE
8
BLACK
6
CONTINUOUS
10
79.4743
20
-141.129
11
79.3314
21
-141.058
0
LINE
8
BLACK
6
CONTINUOUS
10
79.3314
20
-141.058
11
79.26
21
-140.986
0
LINE
8
BLACK
6
CONTINUOUS
10
79.26
20
-140.986
11
79.1886
21
-140.844
0
LINE
8
BLACK
6
CONTINUOUS
10
79.1886
20
-140.844
11
79.1886
21
-140.486
0
LINE
8
BLACK
6
CONTINUOUS
10
79.1886
20
-140.486
11
79.26
21
-140.272
0
LINE
8
BLACK
6
CONTINUOUS
10
80.5457
20
-138.772
11
80.6171
21
-138.844
0
LINE
8
BLACK
6
CONTINUOUS
10
80.6171
20
-138.844
11
80.6886
21
-139.058
0
LINE
8
BLACK
6
CONTINUOUS
10
80.6886
20
-139.058
11
80.6886
21
-139.201
0
LINE
8
BLACK
6
CONTINUOUS
10
80.6886
20
-139.201
11
80.6171
21
-139.415
0
LINE
8
BLACK
6
CONTINUOUS
10
80.6171
20
-139.415
11
80.4743
21
-139.558
0
LINE
8
BLACK
6
CONTINUOUS
10
80.4743
20
-139.558
11
80.3314
21
-139.629
0
LINE
8
BLACK
6
CONTINUOUS
10
80.3314
20
-139.629
11
80.0457
21
-139.701
0
LINE
8
BLACK
6
CONTINUOUS
10
80.0457
20
-139.701
11
79.8314
21
-139.701
0
LINE
8
BLACK
6
CONTINUOUS
10
79.8314
20
-139.701
11
79.5457
21
-139.629
0
LINE
8
BLACK
6
CONTINUOUS
10
79.5457
20
-139.629
11
79.4029
21
-139.558
0
LINE
8
BLACK
6
CONTINUOUS
10
79.4029
20
-139.558
11
79.26
21
-139.415
0
LINE
8
BLACK
6
CONTINUOUS
10
79.26
20
-139.415
11
79.1886
21
-139.201
0
LINE
8
BLACK
6
CONTINUOUS
10
79.1886
20
-139.201
11
79.1886
21
-139.058
0
LINE
8
BLACK
6
CONTINUOUS
10
79.1886
20
-139.058
11
79.26
21
-138.844
0
LINE
8
BLACK
6
CONTINUOUS
10
79.26
20
-138.844
11
79.3314
21
-138.772
0
LINE
8
BLACK
6
CONTINUOUS
10
80.6886
20
-138.129
11
79.1886
21
-138.129
0
LINE
8
BLACK
6
CONTINUOUS
10
79.1886
20
-138.129
11
80.6886
21
-137.272
0
LINE
8
BLACK
6
CONTINUOUS
10
80.6886
20
-137.272
11
79.1886
21
-137.272
0
LINE
8
BLACK
6
CONTINUOUS
10
75.0371
20
-138.466
11
75.0371
21
-137.324
0
LINE
8
BLACK
6
CONTINUOUS
10
75.6086
20
-137.895
11
74.4657
21
-137.895
0
LINE
8
BLACK
6
CONTINUOUS
10
92
20
-105
11
30
21
-105
0
LINE
8
BLACK
6
CONTINUOUS
10
70.4571
20
-130.898
11
70.5286
21
-130.684
0
LINE
8
BLACK
6
CONTINUOUS
10
70.5286
20
-130.684
11
70.5286
21
-130.326
0
LINE
8
BLACK
6
CONTINUOUS
10
70.5286
20
-130.326
11
70.4571
21
-130.184
0
LINE
8
BLACK
6
CONTINUOUS
10
70.4571
20
-130.184
11
70.3857
21
-130.112
0
LINE
8
BLACK
6
CONTINUOUS
10
70.3857
20
-130.112
11
70.2429
21
-130.041
0
LINE
8
BLACK
6
CONTINUOUS
10
70.2429
20
-130.041
11
70.1
21
-130.041
0
LINE
8
BLACK
6
CONTINUOUS
10
70.1
20
-130.041
11
69.9571
21
-130.112
0
LINE
8
BLACK
6
CONTINUOUS
10
69.9571
20
-130.112
11
69.8857
21
-130.184
0
LINE
8
BLACK
6
CONTINUOUS
10
69.8857
20
-130.184
11
69.8143
21
-130.326
0
LINE
8
BLACK
6
CONTINUOUS
10
69.8143
20
-130.326
11
69.7429
21
-130.612
0
LINE
8
BLACK
6
CONTINUOUS
10
69.7429
20
-130.612
11
69.6714
21
-130.755
0
LINE
8
BLACK
6
CONTINUOUS
10
69.6714
20
-130.755
11
69.6
21
-130.826
0
LINE
8
BLACK
6
CONTINUOUS
10
69.6
20
-130.826
11
69.4571
21
-130.898
0
LINE
8
BLACK
6
CONTINUOUS
10
69.4571
20
-130.898
11
69.3143
21
-130.898
0
LINE
8
BLACK
6
CONTINUOUS
10
69.3143
20
-130.898
11
69.1714
21
-130.826
0
LINE
8
BLACK
6
CONTINUOUS
10
69.1714
20
-130.826
11
69.1
21
-130.755
0
LINE
8
BLACK
6
CONTINUOUS
10
69.1
20
-130.755
11
69.0286
21
-130.612
0
LINE
8
BLACK
6
CONTINUOUS
10
69.0286
20
-130.612
11
69.0286
21
-130.255
0
LINE
8
BLACK
6
CONTINUOUS
10
69.0286
20
-130.255
11
69.1
21
-130.041
0
LINE
8
BLACK
6
CONTINUOUS
10
70.5286
20
-129.398
11
69.0286
21
-129.398
0
LINE
8
BLACK
6
CONTINUOUS
10
70.5286
20
-128.541
11
69.6714
21
-129.184
0
LINE
8
BLACK
6
CONTINUOUS
10
69.0286
20
-128.541
11
69.8857
21
-129.398
0
LINE
8
BLACK
6
CONTINUOUS
10
69.0286
20
-128.041
11
69.0286
21
-127.112
0
LINE
8
BLACK
6
CONTINUOUS
10
69.0286
20
-127.112
11
69.6
21
-127.612
0
LINE
8
BLACK
6
CONTINUOUS
10
69.6
20
-127.612
11
69.6
21
-127.398
0
LINE
8
BLACK
6
CONTINUOUS
10
69.6
20
-127.398
11
69.6714
21
-127.255
0
LINE
8
BLACK
6
CONTINUOUS
10
69.6714
20
-127.255
11
69.7429
21
-127.184
0
LINE
8
BLACK
6
CONTINUOUS
10
69.7429
20
-127.184
11
69.8857
21
-127.112
0
LINE
8
BLACK
6
CONTINUOUS
10
69.8857
20
-127.112
11
70.2429
21
-127.112
0
LINE
8
BLACK
6
CONTINUOUS
10
70.2429
20
-127.112
11
70.3857
21
-127.184
0
LINE
8
BLACK
6
CONTINUOUS
10
70.3857
20
-127.184
11
70.4571
21
-127.255
0
LINE
8
BLACK
6
CONTINUOUS
10
70.4571
20
-127.255
11
70.5286
21
-127.398
0
LINE
8
BLACK
6
CONTINUOUS
10
70.5286
20
-127.398
11
70.5286
21
-127.826
0
LINE
8
BLACK
6
CONTINUOUS
10
70.5286
20
-127.826
11
70.4571
21
-127.969
0
LINE
8
BLACK
6
CONTINUOUS
10
70.4571
20
-127.969
11
70.3857
21
-128.041
0
LINE
8
BLACK
6
CONTINUOUS
10
40.39
20
-134.129
11
39.89
21
-133.414
0
LINE
8
BLACK
6
CONTINUOUS
10
39.5329
20
-134.129
11
39.5329
21
-132.629
0
LINE
8
BLACK
6
CONTINUOUS
10
39.5329
20
-132.629
11
40.1043
21
-132.629
0
LINE
8
BLACK
6
CONTINUOUS
10
40.1043
20
-132.629
11
40.2471
21
-132.7
0
LINE
8
BLACK
6
CONTINUOUS
10
40.2471
20
-132.7
11
40.3186
21
-132.771
0
LINE
8
BLACK
6
CONTINUOUS
10
40.3186
20
-132.771
11
40.39
21
-132.914
0
LINE
8
BLACK
6
CONTINUOUS
10
40.39
20
-132.914
11
40.39
21
-133.129
0
LINE
8
BLACK
6
CONTINUOUS
10
40.39
20
-133.129
11
40.3186
21
-133.271
0
LINE
8
BLACK
6
CONTINUOUS
10
40.3186
20
-133.271
11
40.2471
21
-133.343
0
LINE
8
BLACK
6
CONTINUOUS
10
40.2471
20
-133.343
11
40.1043
21
-133.414
0
LINE
8
BLACK
6
CONTINUOUS
10
40.1043
20
-133.414
11
39.5329
21
-133.414
0
LINE
8
BLACK
6
CONTINUOUS
10
40.9614
20
-132.771
11
41.0329
21
-132.7
0
LINE
8
BLACK
6
CONTINUOUS
10
41.0329
20
-132.7
11
41.1757
21
-132.629
0
LINE
8
BLACK
6
CONTINUOUS
10
41.1757
20
-132.629
11
41.5329
21
-132.629
0
LINE
8
BLACK
6
CONTINUOUS
10
41.5329
20
-132.629
11
41.6757
21
-132.7
0
LINE
8
BLACK
6
CONTINUOUS
10
41.6757
20
-132.7
11
41.7471
21
-132.771
0
LINE
8
BLACK
6
CONTINUOUS
10
41.7471
20
-132.771
11
41.8186
21
-132.914
0
LINE
8
BLACK
6
CONTINUOUS
10
41.8186
20
-132.914
11
41.8186
21
-133.057
0
LINE
8
BLACK
6
CONTINUOUS
10
41.8186
20
-133.057
11
41.7471
21
-133.271
0
LINE
8
BLACK
6
CONTINUOUS
10
41.7471
20
-133.271
11
40.89
21
-134.129
0
LINE
8
BLACK
6
CONTINUOUS
10
40.89
20
-134.129
11
41.8186
21
-134.129
0
LINE
8
BLACK
6
CONTINUOUS
10
37.215
20
-139.209
11
36.715
21
-138.494
0
LINE
8
BLACK
6
CONTINUOUS
10
36.3579
20
-139.209
11
36.3579
21
-137.709
0
LINE
8
BLACK
6
CONTINUOUS
10
36.3579
20
-137.709
11
36.9293
21
-137.709
0
LINE
8
BLACK
6
CONTINUOUS
10
36.9293
20
-137.709
11
37.0721
21
-137.78
0
LINE
8
BLACK
6
CONTINUOUS
10
37.0721
20
-137.78
11
37.1436
21
-137.851
0
LINE
8
BLACK
6
CONTINUOUS
10
37.1436
20
-137.851
11
37.215
21
-137.994
0
LINE
8
BLACK
6
CONTINUOUS
10
37.215
20
-137.994
11
37.215
21
-138.209
0
LINE
8
BLACK
6
CONTINUOUS
10
37.215
20
-138.209
11
37.1436
21
-138.351
0
LINE
8
BLACK
6
CONTINUOUS
10
37.1436
20
-138.351
11
37.0721
21
-138.423
0
LINE
8
BLACK
6
CONTINUOUS
10
37.0721
20
-138.423
11
36.9293
21
-138.494
0
LINE
8
BLACK
6
CONTINUOUS
10
36.9293
20
-138.494
11
36.3579
21
-138.494
0
LINE
8
BLACK
6
CONTINUOUS
10
37.715
20
-137.709
11
38.6436
21
-137.709
0
LINE
8
BLACK
6
CONTINUOUS
10
38.6436
20
-137.709
11
38.1436
21
-138.28
0
LINE
8
BLACK
6
CONTINUOUS
10
38.1436
20
-138.28
11
38.3579
21
-138.28
0
LINE
8
BLACK
6
CONTINUOUS
10
38.3579
20
-138.28
11
38.5007
21
-138.351
0
LINE
8
BLACK
6
CONTINUOUS
10
38.5007
20
-138.351
11
38.5721
21
-138.423
0
LINE
8
BLACK
6
CONTINUOUS
10
38.5721
20
-138.423
11
38.6436
21
-138.566
0
LINE
8
BLACK
6
CONTINUOUS
10
38.6436
20
-138.566
11
38.6436
21
-138.923
0
LINE
8
BLACK
6
CONTINUOUS
10
38.6436
20
-138.923
11
38.5721
21
-139.066
0
LINE
8
BLACK
6
CONTINUOUS
10
38.5721
20
-139.066
11
38.5007
21
-139.137
0
LINE
8
BLACK
6
CONTINUOUS
10
38.5007
20
-139.137
11
38.3579
21
-139.209
0
LINE
8
BLACK
6
CONTINUOUS
10
38.3579
20
-139.209
11
37.9293
21
-139.209
0
LINE
8
BLACK
6
CONTINUOUS
10
37.9293
20
-139.209
11
37.7864
21
-139.137
0
LINE
8
BLACK
6
CONTINUOUS
10
37.7864
20
-139.137
11
37.715
21
-139.066
0
LINE
8
BLACK
6
CONTINUOUS
10
90.7771
20
-130.898
11
90.8486
21
-130.684
0
LINE
8
BLACK
6
CONTINUOUS
10
90.8486
20
-130.684
11
90.8486
21
-130.326
0
LINE
8
BLACK
6
CONTINUOUS
10
90.8486
20
-130.326
11
90.7771
21
-130.184
0
LINE
8
BLACK
6
CONTINUOUS
10
90.7771
20
-130.184
11
90.7057
21
-130.112
0
LINE
8
BLACK
6
CONTINUOUS
10
90.7057
20
-130.112
11
90.5629
21
-130.041
0
LINE
8
BLACK
6
CONTINUOUS
10
90.5629
20
-130.041
11
90.42
21
-130.041
0
LINE
8
BLACK
6
CONTINUOUS
10
90.42
20
-130.041
11
90.2771
21
-130.112
0
LINE
8
BLACK
6
CONTINUOUS
10
90.2771
20
-130.112
11
90.2057
21
-130.184
0
LINE
8
BLACK
6
CONTINUOUS
10
90.2057
20
-130.184
11
90.1343
21
-130.326
0
LINE
8
BLACK
6
CONTINUOUS
10
90.1343
20
-130.326
11
90.0629
21
-130.612
0
LINE
8
BLACK
6
CONTINUOUS
10
90.0629
20
-130.612
11
89.9914
21
-130.755
0
LINE
8
BLACK
6
CONTINUOUS
10
89.9914
20
-130.755
11
89.92
21
-130.826
0
LINE
8
BLACK
6
CONTINUOUS
10
89.92
20
-130.826
11
89.7771
21
-130.898
0
LINE
8
BLACK
6
CONTINUOUS
10
89.7771
20
-130.898
11
89.6343
21
-130.898
0
LINE
8
BLACK
6
CONTINUOUS
10
89.6343
20
-130.898
11
89.4914
21
-130.826
0
LINE
8
BLACK
6
CONTINUOUS
10
89.4914
20
-130.826
11
89.42
21
-130.755
0
LINE
8
BLACK
6
CONTINUOUS
10
89.42
20
-130.755
11
89.3486
21
-130.612
0
LINE
8
BLACK
6
CONTINUOUS
10
89.3486
20
-130.612
11
89.3486
21
-130.255
0
LINE
8
BLACK
6
CONTINUOUS
10
89.3486
20
-130.255
11
89.42
21
-130.041
0
LINE
8
BLACK
6
CONTINUOUS
10
90.8486
20
-129.398
11
89.3486
21
-129.398
0
LINE
8
BLACK
6
CONTINUOUS
10
90.8486
20
-128.541
11
89.9914
21
-129.184
0
LINE
8
BLACK
6
CONTINUOUS
10
89.3486
20
-128.541
11
90.2057
21
-129.398
0
LINE
8
BLACK
6
CONTINUOUS
10
89.4914
20
-127.969
11
89.42
21
-127.898
0
LINE
8
BLACK
6
CONTINUOUS
10
89.42
20
-127.898
11
89.3486
21
-127.755
0
LINE
8
BLACK
6
CONTINUOUS
10
89.3486
20
-127.755
11
89.3486
21
-127.398
0
LINE
8
BLACK
6
CONTINUOUS
10
89.3486
20
-127.398
11
89.42
21
-127.255
0
LINE
8
BLACK
6
CONTINUOUS
10
89.42
20
-127.255
11
89.4914
21
-127.184
0
LINE
8
BLACK
6
CONTINUOUS
10
89.4914
20
-127.184
11
89.6343
21
-127.112
0
LINE
8
BLACK
6
CONTINUOUS
10
89.6343
20
-127.112
11
89.7771
21
-127.112
0
LINE
8
BLACK
6
CONTINUOUS
10
89.7771
20
-127.112
11
89.9914
21
-127.184
0
LINE
8
BLACK
6
CONTINUOUS
10
89.9914
20
-127.184
11
90.8486
21
-128.041
0
LINE
8
BLACK
6
CONTINUOUS
10
90.8486
20
-128.041
11
90.8486
21
-127.112
0
LINE
8
BLACK
6
CONTINUOUS
10
30
20
-105
11
30
21
-142
0
LINE
8
BLACK
6
CONTINUOUS
10
30
20
-142
11
92
21
-142
0
LINE
8
BLACK
6
CONTINUOUS
10
40.39
20
-172.129
11
39.89
21
-171.414
0
LINE
8
BLACK
6
CONTINUOUS
10
39.5329
20
-172.129
11
39.5329
21
-170.629
0
LINE
8
BLACK
6
CONTINUOUS
10
39.5329
20
-170.629
11
40.1043
21
-170.629
0
LINE
8
BLACK
6
CONTINUOUS
10
40.1043
20
-170.629
11
40.2471
21
-170.7
0
LINE
8
BLACK
6
CONTINUOUS
10
40.2471
20
-170.7
11
40.3186
21
-170.771
0
LINE
8
BLACK
6
CONTINUOUS
10
40.3186
20
-170.771
11
40.39
21
-170.914
0
LINE
8
BLACK
6
CONTINUOUS
10
40.39
20
-170.914
11
40.39
21
-171.129
0
LINE
8
BLACK
6
CONTINUOUS
10
40.39
20
-171.129
11
40.3186
21
-171.271
0
LINE
8
BLACK
6
CONTINUOUS
10
40.3186
20
-171.271
11
40.2471
21
-171.343
0
LINE
8
BLACK
6
CONTINUOUS
10
40.2471
20
-171.343
11
40.1043
21
-171.414
0
LINE
8
BLACK
6
CONTINUOUS
10
40.1043
20
-171.414
11
39.5329
21
-171.414
0
LINE
8
BLACK
6
CONTINUOUS
10
40.9614
20
-170.771
11
41.0329
21
-170.7
0
LINE
8
BLACK
6
CONTINUOUS
10
41.0329
20
-170.7
11
41.1757
21
-170.629
0
LINE
8
BLACK
6
CONTINUOUS
10
41.1757
20
-170.629
11
41.5329
21
-170.629
0
LINE
8
BLACK
6
CONTINUOUS
10
41.5329
20
-170.629
11
41.6757
21
-170.7
0
LINE
8
BLACK
6
CONTINUOUS
10
41.6757
20
-170.7
11
41.7471
21
-170.771
0
LINE
8
BLACK
6
CONTINUOUS
10
41.7471
20
-170.771
11
41.8186
21
-170.914
0
LINE
8
BLACK
6
CONTINUOUS
10
41.8186
20
-170.914
11
41.8186
21
-171.057
0
LINE
8
BLACK
6
CONTINUOUS
10
41.8186
20
-171.057
11
41.7471
21
-171.271
0
LINE
8
BLACK
6
CONTINUOUS
10
41.7471
20
-171.271
11
40.89
21
-172.129
0
LINE
8
BLACK
6
CONTINUOUS
10
40.89
20
-172.129
11
41.8186
21
-172.129
0
LINE
8
BLACK
6
CONTINUOUS
10
37.215
20
-177.209
11
36.715
21
-176.494
0
LINE
8
BLACK
6
CONTINUOUS
10
36.3579
20
-177.209
11
36.3579
21
-175.709
0
LINE
8
BLACK
6
CONTINUOUS
10
36.3579
20
-175.709
11
36.9293
21
-175.709
0
LINE
8
BLACK
6
CONTINUOUS
10
36.9293
20
-175.709
11
37.0721
21
-175.78
0
LINE
8
BLACK
6
CONTINUOUS
10
37.0721
20
-175.78
11
37.1436
21
-175.851
0
LINE
8
BLACK
6
CONTINUOUS
10
37.1436
20
-175.851
11
37.215
21
-175.994
0
LINE
8
BLACK
6
CONTINUOUS
10
37.215
20
-175.994
11
37.215
21
-176.209
0
LINE
8
BLACK
6
CONTINUOUS
10
37.215
20
-176.209
11
37.1436
21
-176.351
0
LINE
8
BLACK
6
CONTINUOUS
10
37.1436
20
-176.351
11
37.0721
21
-176.423
0
LINE
8
BLACK
6
CONTINUOUS
10
37.0721
20
-176.423
11
36.9293
21
-176.494
0
LINE
8
BLACK
6
CONTINUOUS
10
36.9293
20
-176.494
11
36.3579
21
-176.494
0
LINE
8
BLACK
6
CONTINUOUS
10
37.715
20
-175.709
11
38.6436
21
-175.709
0
LINE
8
BLACK
6
CONTINUOUS
10
38.6436
20
-175.709
11
38.1436
21
-176.28
0
LINE
8
BLACK
6
CONTINUOUS
10
38.1436
20
-176.28
11
38.3579
21
-176.28
0
LINE
8
BLACK
6
CONTINUOUS
10
38.3579
20
-176.28
11
38.5007
21
-176.351
0
LINE
8
BLACK
6
CONTINUOUS
10
38.5007
20
-176.351
11
38.5721
21
-176.423
0
LINE
8
BLACK
6
CONTINUOUS
10
38.5721
20
-176.423
11
38.6436
21
-176.566
0
LINE
8
BLACK
6
CONTINUOUS
10
38.6436
20
-176.566
11
38.6436
21
-176.923
0
LINE
8
BLACK
6
CONTINUOUS
10
38.6436
20
-176.923
11
38.5721
21
-177.066
0
LINE
8
BLACK
6
CONTINUOUS
10
38.5721
20
-177.066
11
38.5007
21
-177.137
0
LINE
8
BLACK
6
CONTINUOUS
10
38.5007
20
-177.137
11
38.3579
21
-177.209
0
LINE
8
BLACK
6
CONTINUOUS
10
38.3579
20
-177.209
11
37.9293
21
-177.209
0
LINE
8
BLACK
6
CONTINUOUS
10
37.9293
20
-177.209
11
37.7864
21
-177.137
0
LINE
8
BLACK
6
CONTINUOUS
10
37.7864
20
-177.137
11
37.715
21
-177.066
0
LINE
8
BLACK
6
CONTINUOUS
10
73.6721
20
-167.612
11
73.8864
21
-167.684
0
LINE
8
BLACK
6
CONTINUOUS
10
73.8864
20
-167.684
11
74.2436
21
-167.684
0
LINE
8
BLACK
6
CONTINUOUS
10
74.2436
20
-167.684
11
74.3864
21
-167.612
0
LINE
8
BLACK
6
CONTINUOUS
10
74.3864
20
-167.612
11
74.4579
21
-167.541
0
LINE
8
BLACK
6
CONTINUOUS
10
74.4579
20
-167.541
11
74.5293
21
-167.398
0
LINE
8
BLACK
6
CONTINUOUS
10
74.5293
20
-167.398
11
74.5293
21
-167.255
0
LINE
8
BLACK
6
CONTINUOUS
10
74.5293
20
-167.255
11
74.4579
21
-167.112
0
LINE
8
BLACK
6
CONTINUOUS
10
74.4579
20
-167.112
11
74.3864
21
-167.041
0
LINE
8
BLACK
6
CONTINUOUS
10
74.3864
20
-167.041
11
74.2436
21
-166.969
0
LINE
8
BLACK
6
CONTINUOUS
10
74.2436
20
-166.969
11
73.9579
21
-166.898
0
LINE
8
BLACK
6
CONTINUOUS
10
73.9579
20
-166.898
11
73.815
21
-166.826
0
LINE
8
BLACK
6
CONTINUOUS
10
73.815
20
-166.826
11
73.7436
21
-166.755
0
LINE
8
BLACK
6
CONTINUOUS
10
73.7436
20
-166.755
11
73.6721
21
-166.612
0
LINE
8
BLACK
6
CONTINUOUS
10
73.6721
20
-166.612
11
73.6721
21
-166.469
0
LINE
8
BLACK
6
CONTINUOUS
10
73.6721
20
-166.469
11
73.7436
21
-166.326
0
LINE
8
BLACK
6
CONTINUOUS
10
73.7436
20
-166.326
11
73.815
21
-166.255
0
LINE
8
BLACK
6
CONTINUOUS
10
73.815
20
-166.255
11
73.9579
21
-166.184
0
LINE
8
BLACK
6
CONTINUOUS
10
73.9579
20
-166.184
11
74.315
21
-166.184
0
LINE
8
BLACK
6
CONTINUOUS
10
74.315
20
-166.184
11
74.5293
21
-166.255
0
LINE
8
BLACK
6
CONTINUOUS
10
75.1721
20
-167.684
11
75.1721
21
-166.184
0
LINE
8
BLACK
6
CONTINUOUS
10
76.0293
20
-167.684
11
75.3864
21
-166.826
0
LINE
8
BLACK
6
CONTINUOUS
10
76.0293
20
-166.184
11
75.1721
21
-167.041
0
LINE
8
BLACK
6
CONTINUOUS
10
77.4579
20
-167.684
11
76.6007
21
-167.684
0
LINE
8
BLACK
6
CONTINUOUS
10
77.0293
20
-167.684
11
77.0293
21
-166.184
0
LINE
8
BLACK
6
CONTINUOUS
10
77.0293
20
-166.184
11
76.8864
21
-166.398
0
LINE
8
BLACK
6
CONTINUOUS
10
76.8864
20
-166.398
11
76.7436
21
-166.541
0
LINE
8
BLACK
6
CONTINUOUS
10
76.7436
20
-166.541
11
76.6007
21
-166.612
0
LINE
8
BLACK
6
CONTINUOUS
10
50.1371
20
-168.898
11
50.2086
21
-168.684
0
LINE
8
BLACK
6
CONTINUOUS
10
50.2086
20
-168.684
11
50.2086
21
-168.326
0
LINE
8
BLACK
6
CONTINUOUS
10
50.2086
20
-168.326
11
50.1371
21
-168.184
0
LINE
8
BLACK
6
CONTINUOUS
10
50.1371
20
-168.184
11
50.0657
21
-168.112
0
LINE
8
BLACK
6
CONTINUOUS
10
50.0657
20
-168.112
11
49.9229
21
-168.041
0
LINE
8
BLACK
6
CONTINUOUS
10
49.9229
20
-168.041
11
49.78
21
-168.041
0
LINE
8
BLACK
6
CONTINUOUS
10
49.78
20
-168.041
11
49.6371
21
-168.112
0
LINE
8
BLACK
6
CONTINUOUS
10
49.6371
20
-168.112
11
49.5657
21
-168.184
0
LINE
8
BLACK
6
CONTINUOUS
10
49.5657
20
-168.184
11
49.4943
21
-168.326
0
LINE
8
BLACK
6
CONTINUOUS
10
49.4943
20
-168.326
11
49.4229
21
-168.612
0
LINE
8
BLACK
6
CONTINUOUS
10
49.4229
20
-168.612
11
49.3514
21
-168.755
0
LINE
8
BLACK
6
CONTINUOUS
10
49.3514
20
-168.755
11
49.28
21
-168.826
0
LINE
8
BLACK
6
CONTINUOUS
10
49.28
20
-168.826
11
49.1371
21
-168.898
0
LINE
8
BLACK
6
CONTINUOUS
10
49.1371
20
-168.898
11
48.9943
21
-168.898
0
LINE
8
BLACK
6
CONTINUOUS
10
48.9943
20
-168.898
11
48.8514
21
-168.826
0
LINE
8
BLACK
6
CONTINUOUS
10
48.8514
20
-168.826
11
48.78
21
-168.755
0
LINE
8
BLACK
6
CONTINUOUS
10
48.78
20
-168.755
11
48.7086
21
-168.612
0
LINE
8
BLACK
6
CONTINUOUS
10
48.7086
20
-168.612
11
48.7086
21
-168.255
0
LINE
8
BLACK
6
CONTINUOUS
10
48.7086
20
-168.255
11
48.78
21
-168.041
0
LINE
8
BLACK
6
CONTINUOUS
10
50.2086
20
-167.398
11
48.7086
21
-167.398
0
LINE
8
BLACK
6
CONTINUOUS
10
50.2086
20
-166.541
11
49.3514
21
-167.184
0
LINE
8
BLACK
6
CONTINUOUS
10
48.7086
20
-166.541
11
49.5657
21
-167.398
0
LINE
8
BLACK
6
CONTINUOUS
10
49.2086
20
-165.255
11
50.2086
21
-165.255
0
LINE
8
BLACK
6
CONTINUOUS
10
48.6371
20
-165.612
11
49.7086
21
-165.969
0
LINE
8
BLACK
6
CONTINUOUS
10
49.7086
20
-165.969
11
49.7086
21
-165.041
0
LINE
8
BLACK
6
CONTINUOUS
10
70.4571
20
-168.898
11
70.5286
21
-168.684
0
LINE
8
BLACK
6
CONTINUOUS
10
70.5286
20
-168.684
11
70.5286
21
-168.326
0
LINE
8
BLACK
6
CONTINUOUS
10
70.5286
20
-168.326
11
70.4571
21
-168.184
0
LINE
8
BLACK
6
CONTINUOUS
10
70.4571
20
-168.184
11
70.3857
21
-168.112
0
LINE
8
BLACK
6
CONTINUOUS
10
70.3857
20
-168.112
11
70.2429
21
-168.041
0
LINE
8
BLACK
6
CONTINUOUS
10
70.2429
20
-168.041
11
70.1
21
-168.041
0
LINE
8
BLACK
6
CONTINUOUS
10
70.1
20
-168.041
11
69.9571
21
-168.112
0
LINE
8
BLACK
6
CONTINUOUS
10
69.9571
20
-168.112
11
69.8857
21
-168.184
0
LINE
8
BLACK
6
CONTINUOUS
10
69.8857
20
-168.184
11
69.8143
21
-168.326
0
LINE
8
BLACK
6
CONTINUOUS
10
69.8143
20
-168.326
11
69.7429
21
-168.612
0
LINE
8
BLACK
6
CONTINUOUS
10
69.7429
20
-168.612
11
69.6714
21
-168.755
0
LINE
8
BLACK
6
CONTINUOUS
10
69.6714
20
-168.755
11
69.6
21
-168.826
0
LINE
8
BLACK
6
CONTINUOUS
10
69.6
20
-168.826
11
69.4571
21
-168.898
0
LINE
8
BLACK
6
CONTINUOUS
10
69.4571
20
-168.898
11
69.3143
21
-168.898
0
LINE
8
BLACK
6
CONTINUOUS
10
69.3143
20
-168.898
11
69.1714
21
-168.826
0
LINE
8
BLACK
6
CONTINUOUS
10
69.1714
20
-168.826
11
69.1
21
-168.755
0
LINE
8
BLACK
6
CONTINUOUS
10
69.1
20
-168.755
11
69.0286
21
-168.612
0
LINE
8
BLACK
6
CONTINUOUS
10
69.0286
20
-168.612
11
69.0286
21
-168.255
0
LINE
8
BLACK
6
CONTINUOUS
10
69.0286
20
-168.255
11
69.1
21
-168.041
0
LINE
8
BLACK
6
CONTINUOUS
10
70.5286
20
-167.398
11
69.0286
21
-167.398
0
LINE
8
BLACK
6
CONTINUOUS
10
70.5286
20
-166.541
11
69.6714
21
-167.184
0
LINE
8
BLACK
6
CONTINUOUS
10
69.0286
20
-166.541
11
69.8857
21
-167.398
0
LINE
8
BLACK
6
CONTINUOUS
10
69.0286
20
-166.041
11
69.0286
21
-165.112
0
LINE
8
BLACK
6
CONTINUOUS
10
69.0286
20
-165.112
11
69.6
21
-165.612
0
LINE
8
BLACK
6
CONTINUOUS
10
69.6
20
-165.612
11
69.6
21
-165.398
0
LINE
8
BLACK
6
CONTINUOUS
10
69.6
20
-165.398
11
69.6714
21
-165.255
0
LINE
8
BLACK
6
CONTINUOUS
10
69.6714
20
-165.255
11
69.7429
21
-165.184
0
LINE
8
BLACK
6
CONTINUOUS
10
69.7429
20
-165.184
11
69.8857
21
-165.112
0
LINE
8
BLACK
6
CONTINUOUS
10
69.8857
20
-165.112
11
70.2429
21
-165.112
0
LINE
8
BLACK
6
CONTINUOUS
10
70.2429
20
-165.112
11
70.3857
21
-165.184
0
LINE
8
BLACK
6
CONTINUOUS
10
70.3857
20
-165.184
11
70.4571
21
-165.255
0
LINE
8
BLACK
6
CONTINUOUS
10
70.4571
20
-165.255
11
70.5286
21
-165.398
0
LINE
8
BLACK
6
CONTINUOUS
10
70.5286
20
-165.398
11
70.5286
21
-165.826
0
LINE
8
BLACK
6
CONTINUOUS
10
70.5286
20
-165.826
11
70.4571
21
-165.969
0
LINE
8
BLACK
6
CONTINUOUS
10
70.4571
20
-165.969
11
70.3857
21
-166.041
0
LINE
8
BLACK
6
CONTINUOUS
10
90.7771
20
-168.898
11
90.8486
21
-168.684
0
LINE
8
BLACK
6
CONTINUOUS
10
90.8486
20
-168.684
11
90.8486
21
-168.326
0
LINE
8
BLACK
6
CONTINUOUS
10
90.8486
20
-168.326
11
90.7771
21
-168.184
0
LINE
8
BLACK
6
CONTINUOUS
10
90.7771
20
-168.184
11
90.7057
21
-168.112
0
LINE
8
BLACK
6
CONTINUOUS
10
90.7057
20
-168.112
11
90.5629
21
-168.041
0
LINE
8
BLACK
6
CONTINUOUS
10
90.5629
20
-168.041
11
90.42
21
-168.041
0
LINE
8
BLACK
6
CONTINUOUS
10
90.42
20
-168.041
11
90.2771
21
-168.112
0
LINE
8
BLACK
6
CONTINUOUS
10
90.2771
20
-168.112
11
90.2057
21
-168.184
0
LINE
8
BLACK
6
CONTINUOUS
10
90.2057
20
-168.184
11
90.1343
21
-168.326
0
LINE
8
BLACK
6
CONTINUOUS
10
90.1343
20
-168.326
11
90.0629
21
-168.612
0
LINE
8
BLACK
6
CONTINUOUS
10
90.0629
20
-168.612
11
89.9914
21
-168.755
0
LINE
8
BLACK
6
CONTINUOUS
10
89.9914
20
-168.755
11
89.92
21
-168.826
0
LINE
8
BLACK
6
CONTINUOUS
10
89.92
20
-168.826
11
89.7771
21
-168.898
0
LINE
8
BLACK
6
CONTINUOUS
10
89.7771
20
-168.898
11
89.6343
21
-168.898
0
LINE
8
BLACK
6
CONTINUOUS
10
89.6343
20
-168.898
11
89.4914
21
-168.826
0
LINE
8
BLACK
6
CONTINUOUS
10
89.4914
20
-168.826
11
89.42
21
-168.755
0
LINE
8
BLACK
6
CONTINUOUS
10
89.42
20
-168.755
11
89.3486
21
-168.612
0
LINE
8
BLACK
6
CONTINUOUS
10
89.3486
20
-168.612
11
89.3486
21
-168.255
0
LINE
8
BLACK
6
CONTINUOUS
10
89.3486
20
-168.255
11
89.42
21
-168.041
0
LINE
8
BLACK
6
CONTINUOUS
10
90.8486
20
-167.398
11
89.3486
21
-167.398
0
LINE
8
BLACK
6
CONTINUOUS
10
90.8486
20
-166.541
11
89.9914
21
-167.184
0
LINE
8
BLACK
6
CONTINUOUS
10
89.3486
20
-166.541
11
90.2057
21
-167.398
0
LINE
8
BLACK
6
CONTINUOUS
10
89.4914
20
-165.969
11
89.42
21
-165.898
0
LINE
8
BLACK
6
CONTINUOUS
10
89.42
20
-165.898
11
89.3486
21
-165.755
0
LINE
8
BLACK
6
CONTINUOUS
10
89.3486
20
-165.755
11
89.3486
21
-165.398
0
LINE
8
BLACK
6
CONTINUOUS
10
89.3486
20
-165.398
11
89.42
21
-165.255
0
LINE
8
BLACK
6
CONTINUOUS
10
89.42
20
-165.255
11
89.4914
21
-165.184
0
LINE
8
BLACK
6
CONTINUOUS
10
89.4914
20
-165.184
11
89.6343
21
-165.112
0
LINE
8
BLACK
6
CONTINUOUS
10
89.6343
20
-165.112
11
89.7771
21
-165.112
0
LINE
8
BLACK
6
CONTINUOUS
10
89.7771
20
-165.112
11
89.9914
21
-165.184
0
LINE
8
BLACK
6
CONTINUOUS
10
89.9914
20
-165.184
11
90.8486
21
-166.041
0
LINE
8
BLACK
6
CONTINUOUS
10
90.8486
20
-166.041
11
90.8486
21
-165.112
0
LINE
8
BLACK
6
CONTINUOUS
10
30
20
-143
11
30
21
-180
0
LINE
8
BLACK
6
CONTINUOUS
10
92
20
-143
11
30
21
-143
0
LINE
8
BLACK
6
CONTINUOUS
10
92
20
-180
11
92
21
-143
0
LINE
8
BLACK
6
CONTINUOUS
10
30
20
-180
11
92
21
-180
0
LINE
8
BLACK
6
CONTINUOUS
10
75.0371
20
-176.466
11
75.0371
21
-175.324
0
LINE
8
BLACK
6
CONTINUOUS
10
75.6086
20
-175.895
11
74.4657
21
-175.895
0
LINE
8
BLACK
6
CONTINUOUS
10
80.6171
20
-179.129
11
80.6886
21
-178.915
0
LINE
8
BLACK
6
CONTINUOUS
10
80.6886
20
-178.915
11
80.6886
21
-178.558
0
LINE
8
BLACK
6
CONTINUOUS
10
80.6886
20
-178.558
11
80.6171
21
-178.415
0
LINE
8
BLACK
6
CONTINUOUS
10
80.6171
20
-178.415
11
80.5457
21
-178.344
0
LINE
8
BLACK
6
CONTINUOUS
10
80.5457
20
-178.344
11
80.4029
21
-178.272
0
LINE
8
BLACK
6
CONTINUOUS
10
80.4029
20
-178.272
11
80.26
21
-178.272
0
LINE
8
BLACK
6
CONTINUOUS
10
80.26
20
-178.272
11
80.1171
21
-178.344
0
LINE
8
BLACK
6
CONTINUOUS
10
80.1171
20
-178.344
11
80.0457
21
-178.415
0
LINE
8
BLACK
6
CONTINUOUS
10
80.0457
20
-178.415
11
79.9743
21
-178.558
0
LINE
8
BLACK
6
CONTINUOUS
10
79.9743
20
-178.558
11
79.9029
21
-178.844
0
LINE
8
BLACK
6
CONTINUOUS
10
79.9029
20
-178.844
11
79.8314
21
-178.986
0
LINE
8
BLACK
6
CONTINUOUS
10
79.8314
20
-178.986
11
79.76
21
-179.058
0
LINE
8
BLACK
6
CONTINUOUS
10
79.76
20
-179.058
11
79.6171
21
-179.129
0
LINE
8
BLACK
6
CONTINUOUS
10
79.6171
20
-179.129
11
79.4743
21
-179.129
0
LINE
8
BLACK
6
CONTINUOUS
10
79.4743
20
-179.129
11
79.3314
21
-179.058
0
LINE
8
BLACK
6
CONTINUOUS
10
79.3314
20
-179.058
11
79.26
21
-178.986
0
LINE
8
BLACK
6
CONTINUOUS
10
79.26
20
-178.986
11
79.1886
21
-178.844
0
LINE
8
BLACK
6
CONTINUOUS
10
79.1886
20
-178.844
11
79.1886
21
-178.486
0
LINE
8
BLACK
6
CONTINUOUS
10
79.1886
20
-178.486
11
79.26
21
-178.272
0
LINE
8
BLACK
6
CONTINUOUS
10
80.5457
20
-176.772
11
80.6171
21
-176.844
0
LINE
8
BLACK
6
CONTINUOUS
10
80.6171
20
-176.844
11
80.6886
21
-177.058
0
LINE
8
BLACK
6
CONTINUOUS
10
80.6886
20
-177.058
11
80.6886
21
-177.201
0
LINE
8
BLACK
6
CONTINUOUS
10
80.6886
20
-177.201
11
80.6171
21
-177.415
0
LINE
8
BLACK
6
CONTINUOUS
10
80.6171
20
-177.415
11
80.4743
21
-177.558
0
LINE
8
BLACK
6
CONTINUOUS
10
80.4743
20
-177.558
11
80.3314
21
-177.629
0
LINE
8
BLACK
6
CONTINUOUS
10
80.3314
20
-177.629
11
80.0457
21
-177.701
0
LINE
8
BLACK
6
CONTINUOUS
10
80.0457
20
-177.701
11
79.8314
21
-177.701
0
LINE
8
BLACK
6
CONTINUOUS
10
79.8314
20
-177.701
11
79.5457
21
-177.629
0
LINE
8
BLACK
6
CONTINUOUS
10
79.5457
20
-177.629
11
79.4029
21
-177.558
0
LINE
8
BLACK
6
CONTINUOUS
10
79.4029
20
-177.558
11
79.26
21
-177.415
0
LINE
8
BLACK
6
CONTINUOUS
10
79.26
20
-177.415
11
79.1886
21
-177.201
0
LINE
8
BLACK
6
CONTINUOUS
10
79.1886
20
-177.201
11
79.1886
21
-177.058
0
LINE
8
BLACK
6
CONTINUOUS
10
79.1886
20
-177.058
11
79.26
21
-176.844
0
LINE
8
BLACK
6
CONTINUOUS
10
79.26
20
-176.844
11
79.3314
21
-176.772
0
LINE
8
BLACK
6
CONTINUOUS
10
80.6886
20
-176.129
11
79.1886
21
-176.129
0
LINE
8
BLACK
6
CONTINUOUS
10
79.1886
20
-176.129
11
80.6886
21
-175.272
0
LINE
8
BLACK
6
CONTINUOUS
10
80.6886
20
-175.272
11
79.1886
21
-175.272
0
LINE
8
BLACK
6
CONTINUOUS
10
77.5771
20
-176.466
11
77.5771
21
-175.324
0
LINE
8
BLACK
6
CONTINUOUS
10
84.2686
20
-179.094
11
84.2686
21
-178.236
0
LINE
8
BLACK
6
CONTINUOUS
10
85.7686
20
-178.665
11
84.2686
21
-178.665
0
LINE
8
BLACK
6
CONTINUOUS
10
85.7686
20
-176.879
11
85.0543
21
-177.379
0
LINE
8
BLACK
6
CONTINUOUS
10
85.7686
20
-177.736
11
84.2686
21
-177.736
0
LINE
8
BLACK
6
CONTINUOUS
10
84.2686
20
-177.736
11
84.2686
21
-177.165
0
LINE
8
BLACK
6
CONTINUOUS
10
84.2686
20
-177.165
11
84.34
21
-177.022
0
LINE
8
BLACK
6
CONTINUOUS
10
84.34
20
-177.022
11
84.4114
21
-176.951
0
LINE
8
BLACK
6
CONTINUOUS
10
84.4114
20
-176.951
11
84.5543
21
-176.879
0
LINE
8
BLACK
6
CONTINUOUS
10
84.5543
20
-176.879
11
84.7686
21
-176.879
0
LINE
8
BLACK
6
CONTINUOUS
10
84.7686
20
-176.879
11
84.9114
21
-176.951
0
LINE
8
BLACK
6
CONTINUOUS
10
84.9114
20
-176.951
11
84.9829
21
-177.022
0
LINE
8
BLACK
6
CONTINUOUS
10
84.9829
20
-177.022
11
85.0543
21
-177.165
0
LINE
8
BLACK
6
CONTINUOUS
10
85.0543
20
-177.165
11
85.0543
21
-177.736
0
LINE
8
BLACK
6
CONTINUOUS
10
85.7686
20
-175.379
11
85.0543
21
-175.879
0
LINE
8
BLACK
6
CONTINUOUS
10
85.7686
20
-176.236
11
84.2686
21
-176.236
0
LINE
8
BLACK
6
CONTINUOUS
10
84.2686
20
-176.236
11
84.2686
21
-175.665
0
LINE
8
BLACK
6
CONTINUOUS
10
84.2686
20
-175.665
11
84.34
21
-175.522
0
LINE
8
BLACK
6
CONTINUOUS
10
84.34
20
-175.522
11
84.4114
21
-175.451
0
LINE
8
BLACK
6
CONTINUOUS
10
84.4114
20
-175.451
11
84.5543
21
-175.379
0
LINE
8
BLACK
6
CONTINUOUS
10
84.5543
20
-175.379
11
84.7686
21
-175.379
0
LINE
8
BLACK
6
CONTINUOUS
10
84.7686
20
-175.379
11
84.9114
21
-175.451
0
LINE
8
BLACK
6
CONTINUOUS
10
84.9114
20
-175.451
11
84.9829
21
-175.522
0
LINE
8
BLACK
6
CONTINUOUS
10
84.9829
20
-175.522
11
85.0543
21
-175.665
0
LINE
8
BLACK
6
CONTINUOUS
10
85.0543
20
-175.665
11
85.0543
21
-176.236
0
LINE
8
BLACK
6
CONTINUOUS
10
81.7286
20
-178.915
11
81.7286
21
-178.058
0
LINE
8
BLACK
6
CONTINUOUS
10
83.2286
20
-178.486
11
81.7286
21
-178.486
0
LINE
8
BLACK
6
CONTINUOUS
10
83.2286
20
-176.701
11
82.5143
21
-177.201
0
LINE
8
BLACK
6
CONTINUOUS
10
83.2286
20
-177.558
11
81.7286
21
-177.558
0
LINE
8
BLACK
6
CONTINUOUS
10
81.7286
20
-177.558
11
81.7286
21
-176.986
0
LINE
8
BLACK
6
CONTINUOUS
10
81.7286
20
-176.986
11
81.8
21
-176.844
0
LINE
8
BLACK
6
CONTINUOUS
10
81.8
20
-176.844
11
81.8714
21
-176.772
0
LINE
8
BLACK
6
CONTINUOUS
10
81.8714
20
-176.772
11
82.0143
21
-176.701
0
LINE
8
BLACK
6
CONTINUOUS
10
82.0143
20
-176.701
11
82.2286
21
-176.701
0
LINE
8
BLACK
6
CONTINUOUS
10
82.2286
20
-176.701
11
82.3714
21
-176.772
0
LINE
8
BLACK
6
CONTINUOUS
10
82.3714
20
-176.772
11
82.4429
21
-176.844
0
LINE
8
BLACK
6
CONTINUOUS
10
82.4429
20
-176.844
11
82.5143
21
-176.986
0
LINE
8
BLACK
6
CONTINUOUS
10
82.5143
20
-176.986
11
82.5143
21
-177.558
0
LINE
8
BLACK
6
CONTINUOUS
10
81.7286
20
-176.272
11
81.7286
21
-175.415
0
LINE
8
BLACK
6
CONTINUOUS
10
83.2286
20
-175.844
11
81.7286
21
-175.844
0
LINE
8
BLACK
6
CONTINUOUS
10
88.2371
20
-179.129
11
88.3086
21
-178.915
0
LINE
8
BLACK
6
CONTINUOUS
10
88.3086
20
-178.915
11
88.3086
21
-178.558
0
LINE
8
BLACK
6
CONTINUOUS
10
88.3086
20
-178.558
11
88.2371
21
-178.415
0
LINE
8
BLACK
6
CONTINUOUS
10
88.2371
20
-178.415
11
88.1657
21
-178.344
0
LINE
8
BLACK
6
CONTINUOUS
10
88.1657
20
-178.344
11
88.0229
21
-178.272
0
LINE
8
BLACK
6
CONTINUOUS
10
88.0229
20
-178.272
11
87.88
21
-178.272
0
LINE
8
BLACK
6
CONTINUOUS
10
87.88
20
-178.272
11
87.7371
21
-178.344
0
LINE
8
BLACK
6
CONTINUOUS
10
87.7371
20
-178.344
11
87.6657
21
-178.415
0
LINE
8
BLACK
6
CONTINUOUS
10
87.6657
20
-178.415
11
87.5943
21
-178.558
0
LINE
8
BLACK
6
CONTINUOUS
10
87.5943
20
-178.558
11
87.5229
21
-178.844
0
LINE
8
BLACK
6
CONTINUOUS
10
87.5229
20
-178.844
11
87.4514
21
-178.986
0
LINE
8
BLACK
6
CONTINUOUS
10
87.4514
20
-178.986
11
87.38
21
-179.058
0
LINE
8
BLACK
6
CONTINUOUS
10
87.38
20
-179.058
11
87.2371
21
-179.129
0
LINE
8
BLACK
6
CONTINUOUS
10
87.2371
20
-179.129
11
87.0943
21
-179.129
0
LINE
8
BLACK
6
CONTINUOUS
10
87.0943
20
-179.129
11
86.9514
21
-179.058
0
LINE
8
BLACK
6
CONTINUOUS
10
86.9514
20
-179.058
11
86.88
21
-178.986
0
LINE
8
BLACK
6
CONTINUOUS
10
86.88
20
-178.986
11
86.8086
21
-178.844
0
LINE
8
BLACK
6
CONTINUOUS
10
86.8086
20
-178.844
11
86.8086
21
-178.486
0
LINE
8
BLACK
6
CONTINUOUS
10
86.8086
20
-178.486
11
86.88
21
-178.272
0
LINE
8
BLACK
6
CONTINUOUS
10
88.1657
20
-176.772
11
88.2371
21
-176.844
0
LINE
8
BLACK
6
CONTINUOUS
10
88.2371
20
-176.844
11
88.3086
21
-177.058
0
LINE
8
BLACK
6
CONTINUOUS
10
88.3086
20
-177.058
11
88.3086
21
-177.201
0
LINE
8
BLACK
6
CONTINUOUS
10
88.3086
20
-177.201
11
88.2371
21
-177.415
0
LINE
8
BLACK
6
CONTINUOUS
10
88.2371
20
-177.415
11
88.0943
21
-177.558
0
LINE
8
BLACK
6
CONTINUOUS
10
88.0943
20
-177.558
11
87.9514
21
-177.629
0
LINE
8
BLACK
6
CONTINUOUS
10
87.9514
20
-177.629
11
87.6657
21
-177.701
0
LINE
8
BLACK
6
CONTINUOUS
10
87.6657
20
-177.701
11
87.4514
21
-177.701
0
LINE
8
BLACK
6
CONTINUOUS
10
87.4514
20
-177.701
11
87.1657
21
-177.629
0
LINE
8
BLACK
6
CONTINUOUS
10
87.1657
20
-177.629
11
87.0229
21
-177.558
0
LINE
8
BLACK
6
CONTINUOUS
10
87.0229
20
-177.558
11
86.88
21
-177.415
0
LINE
8
BLACK
6
CONTINUOUS
10
86.88
20
-177.415
11
86.8086
21
-177.201
0
LINE
8
BLACK
6
CONTINUOUS
10
86.8086
20
-177.201
11
86.8086
21
-177.058
0
LINE
8
BLACK
6
CONTINUOUS
10
86.8086
20
-177.058
11
86.88
21
-176.844
0
LINE
8
BLACK
6
CONTINUOUS
10
86.88
20
-176.844
11
86.9514
21
-176.772
0
LINE
8
BLACK
6
CONTINUOUS
10
88.3086
20
-176.129
11
86.8086
21
-176.129
0
LINE
8
BLACK
6
CONTINUOUS
10
86.8086
20
-176.129
11
88.3086
21
-175.272
0
LINE
8
BLACK
6
CONTINUOUS
10
88.3086
20
-175.272
11
86.8086
21
-175.272
  0
ENDSEC
  0
EOF
